<?xml version="1.0" encoding="utf-8"?>
<!-- Generator: Adobe Illustrator 16.0.0, SVG Export Plug-In . SVG Version: 6.00 Build 0)  -->
<!DOCTYPE svg PUBLIC "-//W3C//DTD SVG 1.1//EN" "http://www.w3.org/Graphics/SVG/1.1/DTD/svg11.dtd">
<svg version="1.1" id="Layer_1" xmlns="http://www.w3.org/2000/svg" xmlns:xlink="http://www.w3.org/1999/xlink" x="0px" y="0px"
	 width="144.804px" height="23.098px" viewBox="0 0 144.804 23.098" enable-background="new 0 0 144.804 23.098"
	 xml:space="preserve">
<g>
	<path fill="#8D7D55" d="M139.527,10.977c-0.123-0.18-0.24-0.317-0.373-0.436c0.457,0.25,0.682,0.443,0.939,0.815
		c-0.258,0.352-0.482,0.546-0.875,0.76c-0.35,0.193-0.695,0.301-1.107,0.342c0.508,1.579,0.127,3.294,0.127,3.294h-0.609
		c0,0,0.426-2.091-0.084-3.669c0.416-0.045,0.76-0.153,1.105-0.341C139.046,11.526,139.275,11.331,139.527,10.977z M55.127,20.465
		c0.42,0.016,0.693,0.476,0.641,0.761c-0.025,0.151-0.128,0.513-0.348,0.752c-0.128,0.147-0.418,0.472-0.965,0.716
		c-0.219,0.096-0.479,0.18-0.789,0.236c-0.482,0.111-1.012,0.168-1.643,0.168c-1.51,0-2.836-0.403-3.977-1.065l0.408,0.104
		c0.905,0.374,1.911,0.592,3.013,0.592c0.632,0,1.161-0.061,1.646-0.172c0.307-0.054,0.568-0.139,0.789-0.234
		c0.545-0.246,0.836-0.572,0.963-0.718c0.219-0.235,0.322-0.6,0.348-0.751C55.233,20.739,55.2,20.594,55.127,20.465z M37.736,4.978
		v4.298h-0.553V4.606c0-1.572,1.536-2.186,3.491-2.186c0.757,0,1.437,0.078,2.036,0.232c0.189,0.113,0.363,0.233,0.518,0.365
		c-0.589-0.148-1.26-0.227-2.003-0.227C39.276,2.792,37.736,3.404,37.736,4.978z M88.94,22.457v-0.372h8.701
		c0.177-0.036,0.354-0.036,0.558-0.036v0.408H88.94z M133.232,2.752c1.105-0.003,2.268,0.164,3.395,0.523
		c0.342,0.157,0.678,0.333,1.002,0.525c-1.262-0.465-2.588-0.681-3.84-0.679h-1.863c-1.199,0.01-2.125,0.435-2.148,1.777v3.948
		l-0.555-0.016V4.526c0.023-1.342,0.949-1.764,2.148-1.774H133.232z M122.64,22.461v-0.375h19.756
		c0.297-1.882,0.807-3.727,1.484-5.526c0.186-0.21,0.367-0.427,0.539-0.651l0.385,0.087c-0.865,2.098-1.502,4.251-1.857,6.466
		H122.64z M50.058,6.945c0.005-0.469-0.062-0.938-0.201-1.388c-0.016-0.333-0.064-0.659-0.137-0.977
		c0.619,0.826,0.899,1.772,0.894,2.738c-0.024,3.076-2.684,4.222-5.428,4.562c-0.123-0.134-0.257-0.266-0.392-0.391
		C47.48,11.123,50.036,9.96,50.058,6.945z M39.863,12.547h-0.695h-1.432v7.172c-0.231-0.128-0.423-0.301-0.553-0.488v-7.053h1.432
		c0.326,0,0.626-0.013,0.914,0.007C39.633,12.276,39.742,12.396,39.863,12.547z M14.287,22.086c0.229-0.001,2.763-0.01,2.997-0.033
		l9.46,0.029v0.379H14.287V22.086z M30.259,22.086h0.04h10.68l-0.471-0.035h1.027v0.41H30.259V22.086z M8.425,19.635l-0.001,0.246
		c-0.246-0.075-0.43-0.222-0.557-0.436l0.092-7.416l0.549,0.622L8.425,19.635z M1.603,22.092l0.233-0.035l9.054,0.035l0.515-0.041
		l0.039,0.414H1.603V22.092z M11.742,1.962v0.406L11.446,2.37c-0.349,0.006-0.734-0.002-1.212,0.028
		C9.1,2.418,8.516,3.153,8.425,4.22v3.818L7.87,8.452V3.85c0.089-1.071,0.675-1.802,1.812-1.823
		C10.157,1.998,11.742,1.962,11.742,1.962z M116.718,2.016v0.352c-0.291,0-0.996,0.059-1.441,0.234
		c-0.93,0.35-2.568,2.153-2.568,3.814v16.512h-0.893l-0.387-0.373h0.727V6.045c0-1.661,1.635-3.464,2.562-3.816
		c0.449-0.171,1.156-0.23,1.447-0.23L116.718,2.016z M129.777,12.043v7.032c-0.25-0.091-0.432-0.222-0.555-0.392v-7.015h3.338
		c0.523,0,1.066,0.074,1.592,0.218c0.211,0.112,0.406,0.237,0.582,0.375c-0.531-0.146-1.086-0.219-1.619-0.219H129.777z
		 M142.072,6.86l-0.131-0.572c-0.188-0.773-0.332-1.467-0.438-2.199c-0.094-0.65-0.152-1.33-0.168-2.127h0.555
		c0,2.125,0.297,3.415,0.738,5.268h-0.449L142.072,6.86z M94.203,18.578c-0.282-0.395-0.504-0.818-0.65-1.205L93.532,6.059
		l0.552,0.54l0.024,11.481C94.12,18.226,94.154,18.393,94.203,18.578z M23.632,2.048c0.01,0.08,0,0.32,0,0.32h-0.483
		c-0.224,0-1.436,0.104-2.108,0.381c-1.648,0.546-3.046,1.797-3.773,2.726l-3.182,3.655c0,0,8.426,9.278,8.616,9.449
		c-0.114-0.042-0.283-0.148-0.455-0.27c-0.291-0.273-9.062-9.194-9.062-9.194l3.528-4.012c0.973-1.05,2.129-2.178,3.772-2.727
		c0.671-0.275,1.543-0.378,1.767-0.378C22.251,1.998,23.207,1.969,23.632,2.048z M138.238,7.173c0,0,0.146,0.789,0.117,1.729
		c-0.238-0.134-0.402-0.205-0.568-0.259c0.031-0.585-0.018-1.121-0.062-1.467L138.238,7.173z"/>
	<path fill="#8D7D55" d="M63.986,12.234c0,1.79,0.205,3.492,0.705,4.952c-0.512-0.777-0.876-1.711-1.116-2.767
		c-0.11-0.822-0.157-1.685-0.157-2.567c0-3.595,0.69-7.43,3.92-8.914c-0.046,0.234-0.073,0.483-0.073,0.734
		C64.586,5.351,63.986,8.893,63.986,12.234z"/>
	<path fill="#8D7D55" d="M82.736,11.781c0-0.473-0.037-0.938-0.105-1.393c-0.042-1.227-0.304-2.397-0.745-3.492
		c0.918,1.52,1.499,3.252,1.499,5.105c0,6.083-5.289,10.967-12.222,10.876c-0.323-0.002-2.722,0.04-4.406-0.505
		c0,0,2.394,0.354,3.982,0.283C77.266,22.58,82.736,17.814,82.736,11.781z"/>
	<path fill="#FFFFFF" d="M69.691,21.545l-0.282-0.002c-1.843-0.015-3.335-0.428-4.728-0.978c-4.166-1.749-7.04-5.442-7.04-9.792
		c0-5.97,5.418-10.707,11.911-10.773c-0.574,0.318-1.15,0.779-1.589,1.37c-4.572,0.879-5.457,5.301-5.457,9.404
		c0,3.035,0.586,5.822,2.207,7.598c0.529,0.558,1.059,0.963,1.663,1.269c1.359,0.645,3.603,0.896,5.331,0.494
		c3.96-0.964,5.236-4.903,5.236-9.36c0-2.291-0.28-4.68-1.323-6.498c-0.117-0.212-0.246-0.412-0.386-0.605
		c-1.388-1.907-3.146-2.075-4.354-1.816c-0.633,0.133-1.047,0.466-1.125,0.862c0.379,0.235,0.268,0.792,0.078,0.933
		c-0.509,0.377-1.028-0.049-1.053-0.483c-0.014-0.224,0.023-0.558,0.259-0.906c0.562-0.792,1.349-1.169,1.737-1.313
		c2.391-0.814,5.023,0.403,6.568,1.537l0.33,0.254c2.513,1.992,4.063,4.835,4.063,8.036C81.739,16.786,76.248,21.545,69.691,21.545z
		"/>
	<path fill="#FFFFFF" d="M110.152,4.974c-0.105-1.165-0.736-3.194-2.449-3.839l-0.232-0.078l-0.334-0.012
		c-0.438,0-0.926,0.048-1.309,0.1V0.548L106.21,0.5c0.328-0.051,0.707-0.051,0.926-0.051c0.494,0,2.678,0.296,3.441,0.296
		c0.822,0,2.842-0.296,3.336-0.296c0.492,0,0.98,0,1.91,0.148v0.548c-0.383-0.052-0.766-0.1-1.092-0.1
		c-0.324,0-1.057,0.048-1.662,0.397c-0.828,0.589-1.799,2.156-1.799,3.557v3.356v13.131l-0.873,0.006L92.762,4.354l-0.08,11.062
		v1.329c0.014,0.831,0.702,2.19,1.705,3.066c0.652,0.458,1.312,0.692,1.641,0.692c0.327,0,0.714-0.049,1.092-0.1v0.547l-0.375,0.066
		c-0.694,0.094-1.117,0.081-1.534,0.081c-0.493,0-2.515-0.296-3.335-0.296c-0.764,0-2.948,0.296-3.439,0.296
		c-0.217,0-0.604,0-0.931-0.048l-0.379-0.05v-0.597c0.379,0.051,0.874,0.1,1.31,0.1c0.122,0,0.239-0.008,0.352-0.023
		c1.28-0.434,2.578-2.002,2.744-3.566v-3.721l0.023-10.175c0-0.368-1.896-2.148-4.377-2.338L87.16,0.248
		c2.709-0.357,3.941,0.547,7.246,0.314c0.932,0.865,15.74,15.205,15.74,15.205l0.006-7.411V4.974z M123.556,1.17
		c-0.248-0.08-0.547-0.125-0.906-0.125c-0.438,0-0.928,0.048-1.311,0.1V0.548l0.383-0.047c0.326-0.051,0.836-0.087,1.055-0.097
		c0.543-0.015,1.17-0.028,2.648,0.013c0.551,0.019,3.1,0.099,5.648,0.146h0.418c0,0,2.291,0.024,4.57,0.015
		c2.227-0.014,4.289-0.057,4.498-0.182c-0.262,1.656,0.135,3.108,0.518,4.548c0.068,0.25,0.119,0.503,0.078,0.946l-0.379,0.076
		c-0.035-0.311-0.186-0.58-0.346-0.77c-1.904-2.72-5.184-3.521-7.949-3.512h-1.861c-1.207,0.01-2.146,0.436-2.168,1.795v5.444
		c0.004,0.444,0.258,0.568,0.484,0.577c0.541,0.03,1.258,0.046,1.621,0.046c2.385,0,3.539-0.134,4.281-0.642
		c0.748-0.513,1.662-1.332,1.697-2.905l0.424-0.003c0.055,0.351,0.248,1.765-0.084,2.937c0.461,0.171,0.787,0.279,1.1,0.449
		c0.361,0.199,0.57,0.372,0.799,0.691c-0.229,0.309-0.438,0.483-0.799,0.679c-0.338,0.181-0.668,0.287-1.068,0.329
		c0.164,0.902,0.195,1.713,0.164,2.332c-0.023,0.461-0.086,0.81-0.111,0.964h-0.424c-0.002-0.673-0.039-0.867-0.223-1.481
		c-0.49-1.654-2.658-2.291-4.506-2.291h-2.834c-0.318,0.007-0.521,0.212-0.521,0.645v6.684c0.006,1.555,1.145,2.012,2.812,1.989
		c4.084-0.057,6.225-0.717,7.219-1.213c1.719-0.76,2.453-1.555,3.512-2.904c0.414-0.424,0.814-1.314,0.938-1.822l0.393,0.006
		c0,0.67-0.312,1.772-0.51,2.367c-0.531,1.601-1.023,3.432-1.279,4.994c-1.293-0.271-3.699-0.416-7.439-0.445
		c-2.66,0.035-5.428,0.098-6.191,0.115c-1.479,0.033-5.014,0.079-5.506,0.079c-0.221,0-0.602,0-0.93-0.048l-0.381-0.05v-0.597
		c0.381,0.051,0.875,0.1,1.311,0.1c1.854,0,2.094-1.207,2.131-2.238V2.722C124.498,1.768,124.017,1.357,123.556,1.17z M30.93,1.045
		c-0.408,0.007-0.85,0.055-1.201,0.1V0.548l0.38-0.047c0.331-0.051,0.712-0.051,0.932-0.051c0.438,0,2.221,0.237,3.146,0.288
		l2.58-0.172c0.674,0,1.313-0.032,1.989-0.058c0.67,0,1.342-0.032,1.982-0.029c6.104,0.034,8.481,2.643,8.434,5.423
		c-0.062,3.847-3.629,4.646-6.891,4.667c1.116,0.569,1.954,1.243,2.622,2.036c0.392,0.462,0.722,0.964,1.025,1.478
		c0.301,0.513,0.572,1.03,0.846,1.525l1.175,2.049c0.308,0.558,0.707,1.135,1.097,1.658c0.756,0.869,1.769,1.49,3.079,1.418
		c0.621-0.036,1.064-0.293,1.188-0.666c-0.335-0.281-0.146-0.812,0.053-0.914c0.588-0.31,1.022,0.3,0.963,0.653
		c-0.025,0.146-0.129,0.507-0.345,0.741c-0.126,0.145-0.415,0.465-0.956,0.707c-0.219,0.097-0.477,0.18-0.784,0.238
		c-0.481,0.109-1.011,0.152-1.64,0.168c-3.974,0.102-6.393-2.536-7.806-5.288l-1.665-3.078c-0.608-1.182-1.142-1.73-1.678-1.983
		c-0.269-0.124-0.539-0.174-0.822-0.199c-0.277-0.017-0.567-0.006-0.879-0.006h-0.879c-0.409,0.035-0.59,0.292-0.572,0.919
		l-0.004,6.629c0,0.541,0.201,0.998,0.542,1.328c0.528,0.397,1.133,0.521,1.499,0.521c0.328,0,0.709-0.049,1.09-0.1v0.547
		c-0.929,0.147-1.419,0.147-1.912,0.147c-0.491,0-2.513-0.296-3.332-0.296c-0.766,0-2.947,0.296-3.442,0.296
		c-0.215,0-0.599,0-0.927-0.048l-0.385-0.05v-0.597c0.374,0.049,0.854,0.097,1.28,0.098c0.806-0.215,1.602-0.705,1.626-1.818V2.843
		c0-0.591-0.618-1.532-1.362-1.767L30.93,1.045z M45.019,5.812c0-2.926-1.87-4.456-5.21-4.456c-1.951,0-3.51,0.607-3.51,2.204v5.767
		c0.037,0.518,0.255,0.614,0.504,0.643h3.262c1.024,0,2.023-0.088,2.86-0.467C44.15,8.945,45.019,7.596,45.019,5.812z
		 M23.702,20.453c0.249,0.036,0.449,0.051,0.581,0.051c0.325,0,0.708-0.049,1.089-0.1v0.547l-0.424,0.068
		c-0.675,0.079-1.08,0.079-1.484,0.079c-0.491,0-4.913-0.296-5.731-0.296c-0.767,0-2.951,0.296-3.444,0.296
		c-0.217,0-0.598,0-0.927-0.048l-0.383-0.05v-0.597c0.383,0.051,0.875,0.1,1.31,0.1c0.366,0,0.694-0.047,0.993-0.127
		c0.391-0.201,0.6-0.584,0.521-1.301c-0.067-0.588-0.761-1.262-1.207-1.692l-6.348-6.305c-0.442,0.228-0.836,0.405-1.25,0.57
		l-0.014,6.568c-0.004,0.259,0,0.488,0.014,0.695c0.007,0.446,0.133,0.835,0.47,1.116c0.512,0.36,1.087,0.476,1.437,0.476
		c0.328,0,0.709-0.049,1.094-0.1v0.547c-0.93,0.147-1.423,0.147-1.913,0.147c-0.491,0-2.514-0.296-3.331-0.296
		c-0.77,0-2.951,0.296-3.443,0.296c-0.219,0-0.603,0-0.928-0.048L0,21.001v-0.597c0.383,0.051,0.872,0.1,1.311,0.1
		c1.012-0.209,1.74-0.667,1.747-1.732V2.977V2.722C3.031,1.44,2.162,1.141,1.641,1.045c-0.471,0-0.964,0.048-1.346,0.1V0.548
		L0.677,0.5c0.326-0.051,0.712-0.051,0.931-0.051c0.489,0,2.674,0.296,3.439,0.296c0.82,0,2.84-0.296,3.33-0.296
		c0.451,0,1.443,0.004,1.924,0.116v0.363l-0.01,0.217c-0.384-0.052-0.765-0.1-1.092-0.1c-0.521,0-1.52,0.251-2.107,1.181
		c-0.055,0.179-0.091,0.37-0.107,0.576l0.005,7.189c0.114,0.286,0.364,0.239,0.558,0.15c0.789-0.367,1.586-0.857,2.289-1.386
		c0.288-0.214,0.562-0.434,0.809-0.66c2.523-2.292,4.11-4.739,4.11-5.682c0-0.6-0.205-1.096-1.096-1.333
		c-0.154-0.025-0.321-0.035-0.505-0.035c-0.438,0-0.929,0.048-1.311,0.1l-0.003-0.217V0.564C12.224,0.516,12.226,0.5,12.226,0.5
		c0.329-0.051,0.711-0.051,0.929-0.051c0.492,0,2.678,0.296,3.443,0.296c0.817,0,2.84-0.296,3.33-0.296c0.491,0,0.982,0,1.912,0.148
		v0.548c-0.384-0.052-0.766-0.1-1.091-0.1c-0.28,0-0.795,0.067-1.408,0.272c-0.442,0.195-0.917,0.466-1.314,0.673
		c-0.655,0.439-1.184,1.027-1.738,1.729l-1.456,1.646c-0.754,0.865-1.573,1.778-1.838,2.015c-0.274,0.275-0.818,0.857-1.595,1.529
		c2.826,3.055,9.209,9.413,9.524,9.69C22.007,19.611,22.841,20.171,23.702,20.453z"/>
</g>
</svg>
