<?xml version="1.0" encoding="utf-8"?>
<!-- Generator: Adobe Illustrator 16.0.0, SVG Export Plug-In . SVG Version: 6.00 Build 0)  -->
<!DOCTYPE svg PUBLIC "-//W3C//DTD SVG 1.1//EN" "http://www.w3.org/Graphics/SVG/1.1/DTD/svg11.dtd">
<svg version="1.1" id="Layer_1" xmlns="http://www.w3.org/2000/svg" xmlns:xlink="http://www.w3.org/1999/xlink" x="0px" y="0px"
	 width="250px" height="100.632px" viewBox="0 0 250 100.632" enable-background="new 0 0 250 100.632" xml:space="preserve">
<g>
	<path fill="#C5A365" d="M184.998,57.144c-0.108-0.156-0.207-0.276-0.324-0.38c0.398,0.217,0.593,0.385,0.816,0.708
		c-0.224,0.306-0.418,0.477-0.76,0.661c-0.304,0.168-0.606,0.261-0.964,0.297c0.441,1.373,0.111,2.867,0.111,2.867h-0.53
		c0,0,0.371-1.82-0.072-3.192c0.36-0.04,0.662-0.134,0.963-0.297C184.582,57.621,184.779,57.451,184.998,57.144z M111.585,65.396
		c0.365,0.017,0.603,0.413,0.557,0.662c-0.022,0.132-0.111,0.446-0.302,0.653c-0.11,0.127-0.364,0.411-0.841,0.623
		c-0.188,0.083-0.416,0.157-0.686,0.206c-0.42,0.097-0.879,0.146-1.428,0.146c-1.314,0-2.467-0.35-3.459-0.927l0.355,0.09
		c0.785,0.328,1.662,0.515,2.62,0.515c0.548,0,1.01-0.053,1.429-0.148c0.268-0.047,0.498-0.119,0.688-0.205
		c0.475-0.213,0.729-0.496,0.838-0.623c0.189-0.204,0.281-0.521,0.303-0.652C111.677,65.635,111.649,65.508,111.585,65.396z
		 M96.458,51.924v3.74h-0.482v-4.062c0-1.368,1.338-1.9,3.037-1.9c0.66,0,1.252,0.067,1.771,0.202
		c0.166,0.097,0.316,0.202,0.451,0.317c-0.514-0.129-1.096-0.196-1.742-0.196C97.796,50.024,96.458,50.555,96.458,51.924z
		 M140.997,67.129v-0.324h7.568c0.155-0.03,0.31-0.03,0.485-0.03v0.354H140.997z M179.523,49.988
		c0.963-0.003,1.972,0.144,2.952,0.456c0.298,0.136,0.591,0.29,0.872,0.456c-1.098-0.403-2.251-0.594-3.338-0.591h-1.623
		c-1.044,0.009-1.848,0.379-1.867,1.547v3.433l-0.485-0.013v-3.745c0.022-1.168,0.826-1.533,1.87-1.543H179.523z M170.311,67.131
		v-0.326h17.183c0.26-1.635,0.704-3.239,1.294-4.807c0.159-0.181,0.32-0.369,0.469-0.566l0.334,0.076
		c-0.754,1.824-1.309,3.698-1.615,5.623H170.311z M107.175,53.636c0.004-0.409-0.055-0.815-0.174-1.208
		c-0.013-0.289-0.057-0.571-0.118-0.849c0.536,0.718,0.78,1.54,0.774,2.382c-0.02,2.677-2.334,3.673-4.719,3.968
		c-0.107-0.116-0.224-0.231-0.342-0.341C104.933,57.27,107.157,56.258,107.175,53.636z M98.308,58.508h-0.604h-1.246v6.238
		c-0.203-0.111-0.367-0.259-0.482-0.424v-6.135h1.248c0.281,0,0.543-0.013,0.795,0.006C98.107,58.273,98.202,58.377,98.308,58.508z
		 M76.06,66.805c0.199,0,2.404-0.008,2.609-0.027l8.229,0.024v0.329H76.06V66.805z M89.954,66.805h0.033h9.292l-0.409-0.029h0.891
		v0.355h-9.807V66.805z M70.962,64.674l-0.002,0.214c-0.213-0.064-0.373-0.191-0.482-0.38l0.076-6.449l0.479,0.541L70.962,64.674z
		 M65.026,66.811l0.203-0.031l7.875,0.031l0.449-0.035l0.033,0.359h-8.561V66.811z M73.847,49.301v0.354l-0.256,0.002
		c-0.305,0.006-0.638-0.002-1.055,0.022c-0.988,0.019-1.496,0.659-1.574,1.588v3.319l-0.482,0.36v-4.003
		c0.075-0.932,0.589-1.568,1.576-1.586C72.468,49.332,73.847,49.301,73.847,49.301z M165.159,49.349v0.306
		c-0.253,0-0.864,0.051-1.256,0.203c-0.807,0.305-2.232,1.873-2.232,3.318v14.361h-0.776l-0.335-0.324h0.632v-14.36
		c0-1.444,1.419-3.014,2.229-3.32c0.391-0.147,1.005-0.2,1.259-0.2L165.159,49.349z M176.52,58.07v6.116
		c-0.221-0.079-0.377-0.192-0.485-0.341v-6.102h2.904c0.453,0,0.928,0.064,1.386,0.19c0.184,0.098,0.354,0.206,0.505,0.326
		c-0.463-0.127-0.945-0.19-1.405-0.19H176.52z M187.215,53.561l-0.115-0.496c-0.162-0.674-0.29-1.277-0.381-1.912
		c-0.083-0.566-0.133-1.158-0.146-1.852h0.481c0,1.85,0.258,2.971,0.644,4.582h-0.391L187.215,53.561z M145.576,63.755
		c-0.247-0.343-0.438-0.713-0.567-1.05l-0.018-9.84l0.481,0.469l0.02,9.987C145.502,63.447,145.532,63.594,145.576,63.755z
		 M84.189,49.375c0.009,0.07,0,0.279,0,0.279h-0.419c-0.194,0-1.252,0.091-1.835,0.331c-1.433,0.476-2.65,1.563-3.284,2.37
		l-2.768,3.18c0,0,7.33,8.07,7.494,8.22c-0.097-0.035-0.244-0.13-0.395-0.235c-0.254-0.237-7.883-7.996-7.883-7.996l3.07-3.488
		c0.846-0.914,1.852-1.896,3.279-2.373c0.584-0.24,1.341-0.33,1.539-0.33C82.989,49.332,83.82,49.307,84.189,49.375z
		 M183.878,53.834c0,0,0.128,0.686,0.103,1.504c-0.208-0.117-0.351-0.178-0.494-0.225c0.026-0.51-0.018-0.977-0.055-1.277
		L183.878,53.834z"/>
	<path fill="#C5A365" d="M119.292,58.236c0,1.559,0.176,3.038,0.611,4.307c-0.442-0.676-0.761-1.487-0.971-2.404
		c-0.096-0.717-0.134-1.467-0.134-2.234c0-3.127,0.599-6.463,3.407-7.754c-0.04,0.203-0.063,0.42-0.063,0.639
		C119.812,52.248,119.292,55.331,119.292,58.236z"/>
	<path fill="#C5A365" d="M135.6,57.841c0-0.411-0.03-0.815-0.091-1.21c-0.037-1.068-0.265-2.084-0.648-3.037
		c0.799,1.322,1.305,2.828,1.305,4.441c0,5.289-4.601,9.538-10.632,9.459c-0.282-0.002-2.366,0.035-3.831-0.438
		c0,0,2.08,0.307,3.464,0.244C130.843,67.236,135.6,63.091,135.6,57.841z"/>
	<path fill="#C5A365" d="M125.302,51.551c-0.294,0.047-0.485,0.028-0.615-0.115c0.479,0,0.783-0.578,0.512-0.877
		c0.173-0.244,0.586-0.409,1.138-0.314c0.134,0,0.761,0.168,1.077,0.464c-0.169-0.06-0.606-0.181-0.606-0.181
		c-0.528-0.131-0.93-0.021-1.098,0.223C125.849,51.174,125.589,51.504,125.302,51.551z"/>
	<path fill="#FFFFFF" d="M124.255,66.334h-0.245c-1.604-0.013-2.901-0.371-4.114-0.851c-3.623-1.521-6.122-4.733-6.122-8.519
		c0-5.192,4.71-9.312,10.36-9.371c-0.5,0.277-1.002,0.678-1.385,1.193c-3.975,0.764-4.746,4.609-4.746,8.178
		c0,2.643,0.512,5.065,1.922,6.609c0.459,0.486,0.918,0.838,1.445,1.104c1.184,0.561,3.134,0.778,4.638,0.429
		c3.442-0.838,4.554-4.265,4.554-8.143c0-1.992-0.244-4.07-1.15-5.651c-0.102-0.185-0.214-0.358-0.335-0.526
		c-1.207-1.658-2.737-1.805-3.787-1.579c-0.552,0.115-0.913,0.405-0.981,0.751c0.332,0.203,0.234,0.688,0.068,0.809
		c-0.441,0.33-0.89-0.041-0.915-0.418c-0.013-0.195,0.021-0.486,0.228-0.789c0.488-0.689,1.17-1.016,1.508-1.143
		c2.08-0.707,4.371,0.353,5.715,1.336l0.287,0.222c2.186,1.731,3.535,4.206,3.535,6.989
		C134.733,62.195,129.956,66.334,124.255,66.334z"/>
	<path fill="#FFFFFF" d="M159.449,51.92c-0.094-1.012-0.643-2.777-2.134-3.338l-0.201-0.068l-0.289-0.01
		c-0.381,0-0.807,0.043-1.141,0.088v-0.519l0.334-0.044c0.286-0.044,0.615-0.044,0.807-0.044c0.43,0,2.327,0.26,2.992,0.26
		c0.717,0,2.474-0.26,2.903-0.26c0.428,0,0.851,0,1.659,0.13v0.477c-0.332-0.045-0.664-0.088-0.949-0.088
		c-0.279,0-0.918,0.043-1.445,0.344c-0.721,0.515-1.565,1.878-1.565,3.097v2.917v11.426l-0.759,0.002L144.32,51.381l-0.07,9.623
		v1.156c0.014,0.724,0.612,1.904,1.483,2.668c0.568,0.398,1.143,0.601,1.428,0.601s0.619-0.042,0.951-0.086v0.476l-0.325,0.059
		c-0.606,0.08-0.973,0.07-1.337,0.07c-0.43,0-2.187-0.257-2.902-0.257c-0.661,0-2.562,0.257-2.99,0.257
		c-0.188,0-0.524,0-0.808-0.043l-0.333-0.043v-0.519c0.333,0.044,0.762,0.086,1.141,0.086c0.107,0,0.207-0.005,0.305-0.017
		c1.116-0.381,2.244-1.742,2.39-3.104v-3.235l0.019-8.853c0-0.319-1.649-1.867-3.809-2.034l-0.016-0.374
		c2.359-0.312,3.432,0.476,6.303,0.271c0.812,0.753,13.694,13.226,13.694,13.226l0.006-6.447V51.92z M171.106,48.612
		c-0.215-0.067-0.476-0.108-0.789-0.108c-0.379,0-0.807,0.043-1.14,0.088v-0.519l0.333-0.044c0.285-0.044,0.729-0.074,0.916-0.084
		c0.476-0.013,1.02-0.025,2.305,0.012c0.48,0.015,2.697,0.086,4.916,0.126h0.362c0,0,1.993,0.023,3.977,0.013
		c1.936-0.012,3.729-0.049,3.912-0.158c-0.227,1.443,0.117,2.705,0.449,3.957c0.06,0.217,0.103,0.438,0.067,0.822l-0.329,0.068
		c-0.031-0.271-0.16-0.505-0.299-0.672c-1.657-2.365-4.511-3.062-6.917-3.055h-1.619c-1.049,0.01-1.867,0.379-1.887,1.562v4.734
		c0.007,0.387,0.225,0.497,0.425,0.504c0.47,0.023,1.093,0.039,1.409,0.039c2.074,0,3.078-0.116,3.724-0.559
		c0.65-0.446,1.444-1.158,1.474-2.527l0.371-0.002c0.047,0.305,0.216,1.533-0.074,2.554c0.4,0.149,0.685,0.242,0.957,0.39
		c0.314,0.174,0.496,0.325,0.693,0.602c-0.197,0.269-0.379,0.421-0.693,0.592c-0.295,0.156-0.582,0.249-0.929,0.285
		c0.144,0.785,0.17,1.49,0.144,2.029c-0.019,0.4-0.073,0.703-0.098,0.836h-0.371c0-0.583-0.033-0.754-0.193-1.287
		c-0.426-1.438-2.311-1.992-3.918-1.992h-2.465c-0.274,0.006-0.455,0.186-0.455,0.561v5.814c0.007,1.352,0.996,1.751,2.447,1.731
		c3.551-0.05,5.415-0.624,6.28-1.056c1.495-0.662,2.135-1.353,3.054-2.528c0.361-0.368,0.709-1.142,0.814-1.582l0.345,0.004
		c0,0.583-0.274,1.542-0.444,2.06c-0.459,1.392-0.893,2.983-1.113,4.343c-1.125-0.237-3.219-0.362-6.471-0.387
		c-2.315,0.03-4.721,0.084-5.385,0.101c-1.287,0.027-4.363,0.068-4.789,0.068c-0.19,0-0.525,0-0.809-0.043l-0.332-0.043v-0.519
		c0.332,0.044,0.763,0.086,1.141,0.086c1.612,0,1.821-1.048,1.853-1.947V49.963C171.927,49.132,171.507,48.775,171.106,48.612z
		 M90.537,48.504c-0.356,0.008-0.741,0.047-1.044,0.088v-0.519l0.331-0.044c0.284-0.044,0.618-0.044,0.81-0.044
		c0.381,0,1.93,0.206,2.734,0.251l2.246-0.15c0.586,0,1.143-0.026,1.728-0.048c0.587,0,1.169-0.03,1.729-0.028
		c5.306,0.031,7.376,2.3,7.333,4.72c-0.055,3.345-3.156,4.04-5.991,4.058c0.971,0.495,1.698,1.082,2.28,1.771
		c0.336,0.402,0.625,0.838,0.891,1.285c0.262,0.445,0.498,0.896,0.737,1.326l1.019,1.784c0.27,0.483,0.615,0.985,0.957,1.44
		c0.657,0.757,1.535,1.298,2.676,1.234c0.541-0.031,0.93-0.256,1.036-0.58c-0.294-0.244-0.128-0.705,0.044-0.795
		c0.513-0.27,0.887,0.262,0.839,0.569c-0.022,0.126-0.114,0.44-0.302,0.644c-0.107,0.125-0.359,0.404-0.832,0.615
		c-0.187,0.084-0.414,0.156-0.68,0.207c-0.418,0.094-0.881,0.134-1.426,0.146c-3.457,0.088-5.563-2.207-6.791-4.598l-1.449-2.68
		c-0.527-1.029-0.992-1.505-1.458-1.727c-0.233-0.105-0.47-0.151-0.717-0.172c-0.241-0.013-0.493-0.004-0.763-0.004h-0.766
		c-0.354,0.029-0.511,0.255-0.498,0.799l-0.003,5.766c0,0.471,0.175,0.869,0.472,1.155c0.46,0.347,0.982,0.453,1.303,0.453
		c0.285,0,0.617-0.042,0.947-0.086v0.476c-0.805,0.129-1.231,0.129-1.66,0.129c-0.427,0-2.186-0.257-2.9-0.257
		c-0.665,0-2.562,0.257-2.992,0.257c-0.187,0-0.521,0-0.807-0.043l-0.334-0.043v-0.519c0.327,0.042,0.74,0.086,1.11,0.086
		c0.702-0.188,1.395-0.614,1.413-1.583V50.066c0-0.515-0.533-1.331-1.182-1.535L90.537,48.504z M102.79,52.65
		c0-2.545-1.623-3.877-4.531-3.877c-1.695,0-3.052,0.529-3.052,1.918v5.016c0.032,0.451,0.222,0.535,0.438,0.559h2.836
		c0.893,0,1.762-0.076,2.489-0.406C102.037,55.375,102.79,54.201,102.79,52.65z M84.249,65.385c0.218,0.031,0.394,0.044,0.506,0.044
		c0.283,0,0.618-0.042,0.95-0.086v0.476l-0.372,0.061c-0.586,0.068-0.939,0.068-1.291,0.068c-0.428,0-4.271-0.257-4.983-0.257
		c-0.667,0-2.569,0.257-2.997,0.257c-0.189,0-0.52,0-0.805-0.043l-0.333-0.043v-0.519c0.333,0.044,0.761,0.086,1.138,0.086
		c0.318,0,0.604-0.04,0.865-0.11c0.338-0.174,0.521-0.506,0.453-1.13c-0.061-0.513-0.662-1.098-1.051-1.474l-5.521-5.483
		c-0.383,0.198-0.727,0.353-1.086,0.495l-0.013,5.716c-0.005,0.223,0,0.423,0.011,0.604c0.008,0.388,0.115,0.725,0.408,0.968
		c0.447,0.314,0.947,0.414,1.25,0.414c0.285,0,0.617-0.042,0.951-0.086v0.476c-0.808,0.129-1.236,0.129-1.663,0.129
		c-0.431,0-2.187-0.257-2.897-0.257c-0.668,0-2.568,0.257-2.996,0.257c-0.189,0-0.523,0-0.807-0.043l-0.332-0.043v-0.519
		c0.332,0.044,0.76,0.086,1.139,0.086c0.88-0.181,1.515-0.579,1.52-1.507l0.002-13.737v-0.222c-0.022-1.115-0.781-1.377-1.232-1.459
		c-0.41,0-0.838,0.043-1.172,0.088v-0.519l0.334-0.044c0.284-0.044,0.618-0.044,0.807-0.044c0.428,0,2.326,0.26,2.994,0.26
		c0.713,0,2.469-0.26,2.896-0.26c0.391,0,1.256,0.003,1.672,0.101v0.317l-0.007,0.188c-0.335-0.045-0.667-0.088-0.952-0.088
		c-0.451,0-1.32,0.219-1.832,1.027c-0.047,0.156-0.077,0.322-0.093,0.502l0.003,6.252c0.103,0.25,0.316,0.209,0.485,0.131
		c0.687-0.319,1.379-0.746,1.991-1.205c0.248-0.188,0.488-0.377,0.705-0.574c2.193-1.993,3.574-4.124,3.574-4.942
		c0-0.521-0.178-0.954-0.952-1.161c-0.136-0.021-0.282-0.029-0.438-0.029c-0.383,0-0.811,0.043-1.143,0.088l-0.002-0.188v-0.318
		c0.332-0.042,0.334-0.056,0.334-0.056c0.287-0.044,0.619-0.044,0.811-0.044c0.428,0,2.326,0.26,2.992,0.26
		c0.713,0,2.472-0.26,2.896-0.26c0.43,0,0.855,0,1.666,0.13v0.477c-0.334-0.045-0.666-0.088-0.951-0.088
		c-0.244,0-0.691,0.059-1.225,0.236c-0.384,0.172-0.799,0.406-1.143,0.588c-0.569,0.381-1.029,0.892-1.511,1.502l-1.267,1.432
		c-0.658,0.752-1.371,1.547-1.6,1.754c-0.238,0.24-0.71,0.746-1.389,1.331c2.461,2.655,8.012,8.188,8.286,8.428
		C82.775,64.652,83.501,65.141,84.249,65.385z"/>
	<path fill="#A68C53" d="M246.305,55.516c0,0-1.63-0.928-3.81-1.354c-1.776-0.359-3.706-0.526-6.035-0.541
		c0.268-1.749,0.976-10.912-10.064-16.562c0,0-3.114-1.854-8.771-3.035c-2.139-2.271-9.497-8.249-25.422-4.947
		c0,0-3.685-2.701-11.908-1.58c0,0-4.284,0.532-10.042,2.475c-3.256-1.836-6.864-3.373-10.388-2.97c0,0-4.581,0.328-4.249,3.368
		c0,0,0.02,1.488,1.671,2.832c-0.919,0.053-3.375,0.107-5.444-0.768l-1.057-0.478c-0.084-0.039-0.154-0.019-0.094,0.04
		c0.291,0.186,0.589,0.353,0.89,0.508c0.269,0.139,0.541,0.26,0.82,0.377c1.853,0.763,3.878,1.021,5.872,0.991
		c4.305,3.112,11.886,2.521,18.638,0.948c0,0,1.398,1.158,3.521,2.301c-4.175,0.729-8.599,1.352-11.289,1.302
		c0,0-12.117,0.928-19.099-3.438c-1.339-0.723-2.491-1.719-3.347-2.943c0,0-0.26-0.419-0.546-1.026
		c0.563-1.042,0.822-2.394,0.935-3.097c0.062-0.351,0.08-0.639,0.086-0.844l-0.006-0.369c-0.117-1.045-0.396-1.617-0.678-1.9
		c-0.461-0.266-0.527-0.26-0.527-0.26c-0.241,0.057-0.368,0.123-0.502,0.262c-0.271,0.283-0.553,0.859-0.667,1.902l-0.005,0.369
		c0.008,0.205,0.027,0.492,0.088,0.842c0.115,0.703,0.336,1.98,0.953,3.025c-0.297,0.645-0.543,1.061-0.543,1.061
		c-0.438,0.628-0.948,1.193-1.527,1.705l0.349,0.42c0.741-0.816,1.434-1.743,1.873-2.716c0.851,1.898,2.745,3.628,4.064,4.668
		c0.776,0.654,1.349,1.042,1.349,1.042c7.409,4.707,20.276,3.203,20.276,3.203c2.341-0.154,7.435-1.41,10.71-2.271
		c2.653,1.114,5.91,1.83,8.944,0.704c0,0,3.182-0.896,3.871-3.73c2.954-0.559,5.321-0.95,5.321-0.95
		c6.952-1.073,12.775-0.506,16.87,0.295c0.324,0.356,0.762,0.953,0.762,0.953c0.647,0.896,2.558,4.055,1.506,8.05
		c-0.312,1.187-0.781,2.462-1.852,3.767c-0.746,0.931-4.624,5.292-12.533,4.714c-1.988-0.142-4.554-0.598-6.599-1.586
		c-1.636-0.762-2.534-1.621-3.132-2.451c-2.48-3.439-2.348-9.559,5.033-11.481c0,0,5.57-0.948,8.349,1.788
		c0.811,0.797,1.933,2.254,2.022,3.447c0,0,0.229,1.758-1.102,2.41c-0.034,0.018-0.123,0.053-0.167,0.121
		c0,0,0.908-0.199,1.265-1.238c0.106-0.314,0.217-0.729,0.184-1.218c-0.028-0.407-0.081-0.687-0.254-1.217
		c-0.078-0.222-0.377-1.045-1.217-1.957c0,0-0.392-0.39-0.521-0.503c-0.887-0.735-2.056-1.42-3.939-1.764
		c0,0-6.816-1.388-10.43,3.158c0,0-3.318,3.738-0.104,7.963c0.778,0.959,1.813,2.281,4.231,3.323
		c1.986,0.849,11.261,3.778,17.938-2.036c0.502-0.439,0.953-0.946,1.429-1.487c0.342-0.397,4.462-5.616,0.241-11.897
		c-0.072-0.137-0.498-0.727-0.498-0.727c3.354,0.697,5.359,1.491,5.359,1.491c15.431,6.187,12.37,17.656,12.365,17.674
		c-2.489,0.24-11.036,1.37-16.36,6.655c-9.372-4.546-18.51-0.715-21,0.398c-2.654,1.342-4.025,2.832-4.866,3.828
		c-6.828,7.691-1.116,14.931-1.116,14.931c5.354,7.587,15.459,5.271,15.459,5.271c2.795-0.577,4.575-1.803,5.908-2.997l0.712-0.788
		c1.249-1.523,1.754-3.297,1.754-3.297c1.433-5.463-1.724-6.103-1.724-6.103c-0.175,0.06,0.292,0.136,0.66,0.458
		c1.526,1.242,1.144,3.754,1.144,3.754c-0.135,1.997-1.717,4.442-2.919,5.771c-4.119,4.567-12.386,2.982-12.386,2.982
		c-10.603-3.108-11.166-12.915-7.83-18.697c0.939-1.623,1.65-2.243,2.292-2.812c0.81-0.685,2.201-1.461,2.589-1.658
		c8.789-4.057,15.902-2.896,20.89-0.592c-0.711,0.763-1.354,1.607-1.907,2.544c0,0-4.92,8.347,3.767,6.917
		c0,0,3.016-0.492,6.533-2.893c2.224,3.685,2.969,7.223,2.982,10.287l0.004,0.018c0,0.023-0.004,0.048-0.004,0.072
		c0,0.447-0.014,0.88-0.044,1.303c0,0.008,0,0.016,0,0.016c-0.031,0.45-0.073,0.879-0.131,1.297
		c-0.002,0.028-0.007,0.057-0.011,0.086c-0.059,0.422-0.126,0.83-0.207,1.219c-0.005,0.018-0.007,0.039-0.012,0.057
		c-0.557,2.714-1.545,4.688-2.047,5.504l-0.357,0.582c0,0-0.46,0.84-1.482,2.003c-4.886,6.014-13.156,9.3-20.611,9.983
		c-0.054,0.007-0.103,0.014-0.157,0.021c-0.066,0.006-0.142,0.008-0.212,0.015c-0.197,0.018-0.393,0.028-0.591,0.042
		c-0.203,0.011-0.407,0.024-0.62,0.032c-0.254,0.01-0.504,0.017-0.755,0.022c-0.149,0.002-0.297,0.005-0.45,0.007
		c-0.036,0-0.075,0.002-0.111,0.002c-0.021,0-0.035-0.004-0.059-0.004c-0.818,0.002-1.662-0.021-2.512-0.073
		c-4.383-0.362-8.047-1.631-9.59-2.38c2.926-2.263,3.198-4.442,3.203-4.458c0.714-2.971-0.233-5.071-1.359-6.429
		c-1.124-1.352-2.425-1.966-2.425-1.966c-3.786-2.22-8.262-1.368-11.783,0.019c-1.762,0.693-3.283,1.525-4.371,2.184
		c-0.932,0.564-1.538,1.003-1.692,1.115c-7.729-3.144-16.638-5.076-22.312-1.402c-2.361-0.332-4.828-0.303-7.153,0.516
		c-0.75,0.266-1.348,0.541-1.827,0.809c-1.468-2.856-5.852-4.035-9.725-3.492c-2.5,0.352-4.565,1.279-6.012,2.562
		c-1.445-1.283-3.512-2.211-6.012-2.562c-3.877-0.543-8.258,0.636-9.725,3.492c-0.48-0.268-1.078-0.543-1.828-0.809
		c-2.325-0.818-4.791-0.848-7.154-0.516c-5.67-3.674-14.582-1.741-22.311,1.402c-0.152-0.112-0.764-0.551-1.695-1.115
		c-1.085-0.658-2.607-1.49-4.367-2.184c-3.523-1.387-8-2.238-11.779-0.021c0,0-1.305,0.616-2.43,1.968
		c-1.129,1.357-2.072,3.458-1.355,6.429c0,0.016,0.273,2.195,3.197,4.458c-1.541,0.749-5.205,2.018-9.588,2.38
		c-0.738,0.046-1.474,0.066-2.196,0.07c-0.038,0.001-0.067,0.007-0.104,0.007c-0.069,0-0.135-0.004-0.202-0.004
		c-1.003-0.002-1.962-0.037-2.806-0.116c-7.281-0.691-12.43-3.19-15.908-5.743c-5.18-3.685-8.889-9.125-8.889-16.398
		c0-3.572,0.85-6.847,2.936-10.305c3.517,2.4,6.534,2.893,6.534,2.893c8.685,1.43,3.767-6.917,3.767-6.917
		c-0.553-0.937-1.199-1.781-1.908-2.544c4.99-2.304,12.102-3.465,20.889,0.592c0.389,0.197,1.777,0.974,2.588,1.658
		c0.643,0.569,1.354,1.189,2.291,2.812c3.34,5.782,2.777,15.589-7.828,18.697c0,0-8.26,1.585-12.384-2.982
		c-1.204-1.329-2.786-3.774-2.921-5.771c0,0-0.381-2.512,1.146-3.754c0.367-0.322,0.836-0.398,0.656-0.458
		c0,0-3.152,0.64-1.721,6.103c0,0,0.506,1.773,1.754,3.297l0.715,0.788c1.329,1.194,3.111,2.42,5.902,2.997
		c0,0,10.108,2.316,15.462-5.271c0,0,5.712-7.239-1.118-14.931c-0.838-0.996-2.211-2.486-4.867-3.828
		c-2.49-1.113-11.629-4.944-20.998-0.398c-5.32-5.285-13.869-6.415-16.358-6.655c-0.003-0.018-3.065-11.487,12.366-17.674
		c0,0,2.006-0.794,5.355-1.491c0,0-0.422,0.59-0.498,0.727c-4.217,6.281-0.096,11.5,0.246,11.897
		c0.471,0.541,0.922,1.048,1.426,1.487c6.676,5.814,15.953,2.885,17.94,2.036c2.413-1.042,3.45-2.364,4.226-3.323
		c3.215-4.225-0.104-7.963-0.104-7.963c-3.613-4.546-10.426-3.158-10.426-3.158c-1.883,0.344-3.056,1.028-3.937,1.764
		c-0.131,0.113-0.523,0.503-0.523,0.503c-0.841,0.912-1.138,1.735-1.216,1.957c-0.174,0.53-0.229,0.81-0.254,1.217
		c-0.035,0.488,0.076,0.903,0.184,1.218c0.357,1.039,1.266,1.238,1.279,1.183c-0.057-0.013-0.146-0.048-0.182-0.065
		c-1.332-0.652-1.102-2.41-1.102-2.41c0.09-1.193,1.212-2.65,2.023-3.447c2.775-2.736,8.346-1.788,8.346-1.788
		c7.381,1.923,7.512,8.042,5.034,11.481c-0.599,0.83-1.497,1.689-3.134,2.451c-2.043,0.988-4.609,1.444-6.596,1.586
		c-7.909,0.578-11.785-3.783-12.535-4.714c-1.07-1.305-1.537-2.58-1.848-3.767c-1.055-3.995,0.854-7.153,1.506-8.05
		c0,0,0.436-0.597,0.76-0.953c4.096-0.801,9.918-1.368,16.866-0.295c0,0,2.366,0.392,5.327,0.95c0.686,2.835,3.867,3.73,3.867,3.73
		c3.033,1.126,6.291,0.41,8.943-0.704c3.277,0.86,8.37,2.116,10.711,2.271c0,0,12.865,1.504,20.275-3.203c0,0,0.57-0.388,1.35-1.042
		c1.316-1.04,3.216-2.77,4.061-4.668c0.444,0.973,1.135,1.899,1.876,2.716l0.348-0.42c-0.577-0.512-1.089-1.077-1.523-1.705
		c0,0-0.251-0.416-0.552-1.061c0.626-1.045,0.844-2.322,0.962-3.025c0.06-0.35,0.079-0.637,0.086-0.842l-0.002-0.369
		c-0.118-1.043-0.394-1.619-0.669-1.902c-0.137-0.139-0.26-0.205-0.506-0.262c0,0-0.066-0.006-0.527,0.26
		c-0.279,0.283-0.559,0.855-0.676,1.9l-0.006,0.369c0.006,0.205,0.025,0.493,0.084,0.844c0.113,0.703,0.373,2.055,0.938,3.097
		c-0.286,0.607-0.548,1.026-0.548,1.026c-0.855,1.225-2.012,2.221-3.346,2.943c-6.984,4.366-19.102,3.438-19.102,3.438
		c-2.689,0.05-7.111-0.572-11.287-1.302c2.121-1.143,3.521-2.301,3.521-2.301c6.746,1.572,14.332,2.164,18.638-0.948
		c1.991,0.03,4.019-0.229,5.872-0.991c0.275-0.117,0.551-0.238,0.82-0.377c0.302-0.155,0.596-0.322,0.885-0.508
		c0.064-0.059-0.006-0.079-0.091-0.04l-1.058,0.478c-2.067,0.875-4.525,0.82-5.443,0.768c1.65-1.344,1.672-2.832,1.672-2.832
		c0.33-3.04-4.248-3.368-4.248-3.368c-3.525-0.403-7.132,1.134-10.391,2.97c-5.756-1.942-10.041-2.475-10.041-2.475
		c-8.227-1.121-11.904,1.58-11.904,1.58c-15.926-3.302-23.283,2.676-25.423,4.947c-5.657,1.182-8.771,3.035-8.771,3.035
		c-11.041,5.65-10.333,14.813-10.064,16.562c-2.326,0.015-4.258,0.182-6.034,0.541c-2.182,0.426-3.808,1.354-3.808,1.354
		c-4.845,2.734-3.805,7.189-3.053,8.499c1.984,3.559,6.133,3.183,6.387,3.079c0.102-0.053,0.056-0.11-0.041-0.11
		c-4.795,0.077-6.498-3.294-6.447-5.373c0.122-3.202,2.439-4.753,4.654-5.584c1.127-0.345,2.4-0.655,3.825-0.831
		c1.419-0.172,2.979-0.211,4.724-0.146c2.061,6.147,5.486,9.852,8.592,12.061c-1.565,2.255-6.022,10.765-0.768,19.988
		c0.092,0.183,0.291,0.502,0.43,0.708h-0.015c0.046,0.075,0.081,0.122,0.081,0.122c1.395,2.014,7.019,11.1,22.469,12.526
		c2.652,0.253,5.346,0.293,9.122-0.277c3.069-0.465,5.501-1.277,6.991-1.886c0.473,0.288,5.314,3.053,14.445,0.429
		c0,0,4.988-1.355,11.486-4.872c4.17,2.054,9.188,3.771,13.129,2.544c0,0,1.294-0.271,2.476-1.075
		c1.183-0.81,2.268-2.15,1.805-4.272c-0.004-0.01-0.274-1.991-2.349-3.611c0.58-0.104,1.518-0.237,2.615-0.251
		c2.441,0.092,3.519,0.521,4.518,0.999l0.187,0.088c-0.128,0.327-0.218,0.671-0.269,1.031c-0.121,0.853,0.033,1.777,0.425,2.333
		c0.485,0.732,1.06,0.987,1.472,1.036c0.416,0.033,0.631-0.09,0.76-0.181c0.108-0.097,0.175-0.164,0.228-0.234
		c0.036-0.051,0.077-0.126,0.121-0.217c0.188-0.389,0.196-0.993-0.139-1.816c-0.116-0.253-0.406-0.718-0.655-1.002
		c-0.249-0.285-0.682-0.739-1.512-1.238c1.334-2.634,5.469-3.275,9.363-2.729c2.355,0.331,4.319,1.035,5.727,2.045
		c-1.2,1.231-1.867,2.743-1.84,4.379v0.004c0,0.027,0.007,0.053,0.007,0.08c0.011,0.741,0.147,1.352,0.373,1.836
		c0.003,0.012,0.007,0.021,0.012,0.033c0,0.002,0.001,0.002,0.001,0.002c0.848,1.784,2.852,1.779,3.706,0.011
		c0,0,0.009-0.007,0.011-0.013c0.018-0.041,0.025-0.082,0.042-0.125c0.205-0.471,0.331-1.047,0.339-1.742
		c0.005-0.027,0.009-0.055,0.009-0.082v-0.002v-0.002c0.028-1.639-0.64-3.147-1.839-4.379c1.41-1.01,3.372-1.714,5.726-2.045
		c3.895-0.546,8.03,0.096,9.36,2.729c-0.829,0.499-1.258,0.953-1.508,1.238c-0.248,0.284-0.538,0.749-0.654,1.002
		c-0.339,0.823-0.33,1.428-0.141,1.816c0.046,0.091,0.084,0.166,0.123,0.217c0.049,0.07,0.117,0.138,0.225,0.234
		c0.132,0.091,0.343,0.214,0.759,0.181c0.414-0.049,0.987-0.304,1.479-1.036c0.389-0.556,0.542-1.48,0.421-2.333
		c-0.05-0.36-0.141-0.704-0.27-1.031l0.185-0.088c1.001-0.479,2.077-0.907,4.521-0.999c1.096,0.014,2.036,0.147,2.615,0.251
		c-2.076,1.62-2.347,3.602-2.351,3.611c-0.461,2.122,0.623,3.463,1.808,4.272c1.179,0.804,2.47,1.075,2.47,1.075
		c3.943,1.227,8.959-0.49,13.133-2.544c6.496,3.517,11.487,4.872,11.487,4.872c9.131,2.624,13.97-0.141,14.444-0.429
		c1.493,0.608,3.92,1.421,6.992,1.886c3.776,0.57,6.469,0.53,9.121,0.277c10.445-0.965,16.394-5.43,19.587-8.844
		c1.688-1.57,2.621-3.008,3.032-3.604c0,0,0.418-0.621,0.562-0.909c5.259-9.224,0.799-17.733-0.768-19.988
		c3.105-2.209,6.531-5.913,8.593-12.061c1.741-0.065,3.306-0.026,4.721,0.146c1.428,0.176,2.7,0.486,3.828,0.831
		c2.214,0.831,4.531,2.382,4.653,5.584c0.05,2.079-1.653,5.45-6.445,5.373c-0.099,0-0.141,0.058-0.042,0.11
		c0.252,0.104,4.404,0.479,6.385-3.079C250.107,62.705,251.146,58.25,246.305,55.516z M145.023,26.78
		c0.204-1.858,0.951-1.806,0.951-1.806s0.753-0.053,0.958,1.806c0,0,0.127,1.719-0.949,3.71
		C144.909,28.499,145.023,26.78,145.023,26.78z M157.898,33.18c-1.737-1.227-1.788-2.569-1.788-2.569
		c-0.531-4.286,6.128-3.407,6.128-3.407c2.668,0.32,5.448,1.65,7.674,2.875c-0.532,0.171-1.065,0.354-1.546,0.532
		C168.366,30.61,162.173,33.021,157.898,33.18z M159.038,33.848c5.721-0.301,10.978-2.836,10.978-2.836l0.937-0.34
		c2.767,1.652,4.662,3.325,4.662,3.325C173.781,34.572,164.362,37.225,159.038,33.848z M176.074,33.838c0,0-2.012-1.614-4.781-3.279
		l4.144-1.463c11.19-3.755,16.286,0.083,16.286,0.083l-1.06,0.239C190.663,29.418,182.23,31.541,176.074,33.838z M194.399,36.307
		c-0.154,0.322-3.62,4.909-11.579,1.634c1.53-0.403,2.571-0.696,2.571-0.696c2.223-0.707,6.203-1.531,9.523-2.16
		C194.814,35.48,194.689,35.869,194.399,36.307z M191.085,35c0,0-4.816,1.088-10.174,2.037c-1.126-0.601-2.332-1.357-3.609-2.305
		c7.249-1.877,12.409-4.082,13.281-4.363c0.684-0.214,1.353-0.401,2.007-0.574c0,0,2.608,1.676,2.458,4.44
		C193.73,34.449,192.395,34.703,191.085,35z M206.808,33.082c0,0-5.472,0.15-11.496,1.109c0.02-0.319,0.01-0.66-0.041-1.021
		c0,0-0.002-1.6-2.26-3.482c14.262-3.632,21.62,1.803,24.062,4.225C214.232,33.357,210.789,32.982,206.808,33.082z M103.062,26.78
		c0.209-1.858,0.964-1.806,0.964-1.806s0.742-0.053,0.947,1.806c0,0,0.116,1.719-0.961,3.71
		C102.937,28.499,103.062,26.78,103.062,26.78z M55.599,36.307c-0.287-0.438-0.414-0.826-0.516-1.223
		c3.319,0.629,7.301,1.453,9.523,2.16c0,0,1.041,0.293,2.572,0.696C59.22,41.216,55.749,36.629,55.599,36.307z M87.764,27.203
		c0,0,6.655-0.879,6.125,3.407c0,0-0.053,1.343-1.788,2.569C87.827,33.021,81.63,30.61,81.63,30.61
		c-0.48-0.179-1.01-0.361-1.547-0.532C82.313,28.854,85.094,27.523,87.764,27.203z M79.983,31.012c0,0,5.258,2.535,10.976,2.836
		c-5.322,3.377-14.743,0.725-16.581,0.149c0,0,1.898-1.673,4.668-3.325L79.983,31.012z M74.559,29.096l4.15,1.463
		c-2.771,1.665-4.788,3.279-4.788,3.279c-6.152-2.297-14.586-4.42-14.586-4.42l-1.054-0.239
		C58.281,29.179,63.372,25.341,74.559,29.096z M59.415,30.369c0.873,0.281,6.031,2.486,13.283,4.363
		c-1.281,0.947-2.483,1.704-3.611,2.305C63.729,36.088,58.913,35,58.913,35c-1.311-0.297-2.645-0.551-3.961-0.765
		c-0.152-2.765,2.459-4.44,2.459-4.44C58.062,29.968,58.731,30.155,59.415,30.369z M56.987,29.688
		c-2.256,1.883-2.26,3.482-2.26,3.482c-0.049,0.361-0.061,0.702-0.043,1.021c-6.02-0.959-11.493-1.109-11.493-1.109
		c-3.978-0.1-7.421,0.275-10.265,0.83C35.37,31.49,42.728,26.056,56.987,29.688z M32.767,63.939c0,0,3.465,6.081-1.564,6.021
		c0,0-3.91-0.187-8.179-3.105c0.091-0.145,2.608-3.375,7.374-5.76C31.371,61.935,32.191,62.877,32.767,63.939z M14.618,55.127
		c0.021-0.092,0.828,0.051,0.828,0.051s9.125,1.322,14.465,5.52c-2.429,1.291-4.953,3.207-7.273,5.845
		C19.513,64.584,16.515,60.986,14.618,55.127z M60.079,97.163c-0.454-0.273-4.959-3.167-3.21-8.652c0,0,0.073-0.161,0.242-0.42
		c0.167-0.271,0.427-0.643,0.782-1.058c0.718-0.822,1.827-1.816,3.42-2.496c3.162-1.34,8.248-1.428,15.914,3.644
		c-8.197,3.627-11.873,6.455-14.902,7.915C61.563,96.483,60.813,96.836,60.079,97.163z M80.528,95.647
		c-6.312,3.405-11.137,3.966-14.375,3.682c-1.621-0.141-2.846-0.495-3.666-0.815c-0.541-0.211-0.906-0.409-1.09-0.515l1.062-0.418
		c0,0,9.619-4.159,16.548-8.229c0.36,0.259,2.826,2.006,6.069,3.741L80.528,95.647z M85.634,92.787
		c-3.127-1.652-5.451-3.412-5.955-3.803c2.327-1.169,12.59-5.863,19.326-2.271c-3.295,0.645-6.354,1.995-8.604,3.193
		c-2.303,1.231-3.758,2.301-3.758,2.301L85.634,92.787z M102.778,89.736c0.175,0.312,0.279,0.583,0.339,0.777
		c0.06,0.189,0.077,0.302,0.077,0.302c1.33,5.723-6.559,5.51-6.617,5.507c-3.146-0.05-6.594-1.427-9.42-2.771
		c0.555-0.292,1.104-0.601,1.602-0.89c0,0,1.736-1.059,4.101-2.223c2.358-1.161,5.336-2.419,7.841-2.848
		C101.808,88.304,102.431,89.107,102.778,89.736z M111.146,90.33c0.279,0.661,0.229,1.105,0.118,1.379
		c-0.055,0.138-0.128,0.237-0.185,0.297c-0.084,0.079-0.82,0.546-1.656-0.685c-0.301-0.455-0.531-1.281-0.422-2.061
		c0.043-0.302,0.111-0.589,0.209-0.853C110.594,89.206,111.1,90.227,111.146,90.33z M126.89,91.676h-0.006
		c0,3.499-3.5,3.519-3.943,0.625c-0.01-0.078-0.01-0.152-0.016-0.229c-0.014-0.13-0.031-0.255-0.031-0.396h-0.002
		c-0.02-1.612,0.705-2.988,2-4.061C126.188,88.688,126.912,90.063,126.89,91.676z M140.358,91.321
		c-0.835,1.23-1.574,0.764-1.653,0.685c-0.062-0.06-0.129-0.159-0.185-0.297c-0.111-0.273-0.16-0.718,0.119-1.379
		c0.043-0.104,0.552-1.124,1.933-1.922c0.098,0.264,0.165,0.551,0.207,0.853C140.89,90.04,140.663,90.866,140.358,91.321z
		 M153.206,96.322c-0.061,0.003-7.947,0.216-6.618-5.507c0,0,0.02-0.112,0.077-0.302c0.061-0.194,0.169-0.466,0.343-0.777
		c0.345-0.629,0.97-1.433,2.073-2.145c2.511,0.429,5.483,1.687,7.841,2.848c2.367,1.164,4.103,2.223,4.103,2.223
		c0.499,0.289,1.043,0.598,1.604,0.89C159.8,94.896,156.355,96.272,153.206,96.322z M163.142,92.208c0,0-1.457-1.069-3.76-2.301
		c-2.25-1.198-5.308-2.549-8.605-3.193c6.739-3.593,17.005,1.102,19.326,2.271c-0.503,0.391-2.829,2.15-5.953,3.803L163.142,92.208z
		 M187.295,98.514c-0.82,0.32-2.045,0.675-3.664,0.815c-3.241,0.284-8.064-0.276-14.375-3.682l-4.55-2.555
		c3.24-1.735,5.711-3.482,6.068-3.741c6.926,4.07,16.55,8.229,16.55,8.229l1.062,0.418
		C188.203,98.104,187.837,98.303,187.295,98.514z M187.459,96.096c-3.027-1.46-6.706-4.288-14.905-7.915
		c7.669-5.071,12.753-4.983,15.917-3.644c1.592,0.68,2.7,1.674,3.418,2.496c0.356,0.415,0.613,0.787,0.782,1.058
		c0.169,0.259,0.244,0.42,0.244,0.42c1.746,5.485-2.758,8.379-3.215,8.652C188.971,96.836,188.22,96.483,187.459,96.096z
		 M218.796,69.961c-5.026,0.06-1.563-6.021-1.563-6.021c0.574-1.062,1.395-2.005,2.368-2.844c4.765,2.385,7.286,5.615,7.375,5.76
		C222.703,69.774,218.796,69.961,218.796,69.961z M227.362,66.542c-2.322-2.638-4.846-4.554-7.271-5.845
		c5.337-4.197,14.463-5.52,14.463-5.52s0.806-0.143,0.831-0.051C233.483,60.986,230.486,64.584,227.362,66.542z"/>
	<path fill="#A68C53" d="M116.392,25.35l1.229,0.456l0.726-0.534l0.327-0.24l-1.227-0.455L116.392,25.35z M133.933,25.35
		l-1.051-0.773l-1.229,0.455l0.33,0.24l0.724,0.534L133.933,25.35z M126.046,25.081l0.36-0.192l-1.155-0.621l-1.15,0.621
		l0.361,0.192l0.789,0.426L126.046,25.081z M144.175,21.811c-0.303,0-0.592-0.062-0.852-0.18c-0.729,0.531-1.805,2.276-1.805,2.276
		s1.119,0.243,0.717,0.948c0,0-2.227,0.807-2.715,3.389c0,0,0.244,0.146,0.339,0.486c0,0,0.075,1.491-1.071,1.951
		c-0.652,0.174-4.513,1.455-12.83,1.581c-9.49,0.198-13.727-1.396-14.42-1.581c-1.146-0.46-1.07-1.951-1.07-1.951
		c0.099-0.34,0.343-0.486,0.343-0.486c-0.488-2.582-2.72-1.697-2.72-1.697c-0.4-0.703,0.721-2.64,0.721-2.64
		s-1.073-1.745-1.809-2.276c-0.258,0.117-0.549,0.18-0.851,0.18c-1.157,0-2.094-0.939-2.094-2.096s0.937-2.094,2.094-2.094
		s2.097,0.938,2.097,2.094c0,0.56-0.219,1.066-0.579,1.443c0.845,0.488,1.729,0.752,1.729,0.752c1.216,0.244,1.36-0.244,1.412-0.781
		c-0.052-0.536-0.052-1.098-0.052-1.098l0.586-0.171c0.934,1.103,2.242,1.075,2.242,1.075s0.83-1.139,0.682-3.043
		c-0.334,0.027-0.686-0.004-1.025-0.105c-1.418-0.436-2.213-1.928-1.781-3.338c0.434-1.41,1.93-2.204,3.346-1.771
		c1.416,0.43,2.212,1.922,1.778,3.332c-0.227,0.738-0.745,1.31-1.392,1.625c0.172,0.408,1.113,2.475,2.869,2.52
		c0.488-0.145,0.975-1.897,0.975-1.897l0.827-0.146c0,0,1.075,1.606,2.146,1.653c0.238,0,2.07,0.191,2.068-3.363
		c-0.102,0.045-0.207,0.084-0.312,0.117c-1.416,0.434-2.912-0.361-3.347-1.775c-0.432-1.408,0.364-2.9,1.78-3.332
		c0.354-0.107,0.709-0.141,1.055-0.104c-0.058-0.11-0.105-0.229-0.144-0.353c-0.35-1.139,0.293-2.342,1.433-2.689
		c1.141-0.347,2.348,0.294,2.697,1.43c0.171,0.552,0.107,1.117-0.133,1.594c1.258-0.149,2.486,0.617,2.874,1.871
		c0.427,1.412-0.363,2.904-1.782,3.336c-0.672,0.205-1.364,0.133-1.95-0.152c-0.024,3.615,1.827,3.422,2.067,3.422
		c1.071-0.047,2.145-1.653,2.145-1.653l0.829,0.146c0,0,0.49,1.753,0.976,1.897c1.757-0.045,2.695-2.111,2.864-2.52
		c-0.645-0.318-1.165-0.887-1.387-1.625c-0.438-1.41,0.36-2.902,1.776-3.332c1.412-0.433,2.912,0.361,3.345,1.771
		c0.434,1.41-0.364,2.902-1.776,3.338c-0.345,0.102-0.693,0.133-1.032,0.105c-0.147,1.902,0.683,3.043,0.683,3.043
		s1.311,0.027,2.243-1.075l0.585,0.171c0,0,0,0.562-0.047,1.098c0.047,0.537,0.194,1.025,1.415,0.781c0,0,0.878-0.264,1.725-0.752
		c-0.361-0.377-0.581-0.884-0.581-1.443c0-1.156,0.937-2.094,2.096-2.094s2.098,0.938,2.098,2.094S145.334,21.811,144.175,21.811z
		 M122.505,13.972c0.099-0.794,0.617-1.501,0-1.575c-0.614-0.076-1.19,0.51-1.291,1.308c-0.098,0.795,0.323,1.501,0.935,1.577
		C122.765,15.355,122.407,14.771,122.505,13.972z M106.509,19.436c-0.39-0.58-1.07-0.811-1.518-0.508
		c-0.445,0.302-0.485,1.016-0.097,1.597c0.39,0.581,1.069,0.805,1.515,0.506C106.854,20.729,106.902,20.014,106.509,19.436z
		 M135.173,16.65c0.658,0.199,1.404-0.328,1.665-1.182c0.262-0.854-0.059-1.707-0.715-1.908c-0.661-0.199-1.405,0.33-1.667,1.18
		C134.192,15.594,134.517,16.449,135.173,16.65z M125.646,13.678c0.02,0.17,0.02,0.342,0.011,0.507
		c0.088,0.573,0.447,1.012,0.926,1.073c0.614,0.074,0.079-0.512,0.177-1.307c0.096-0.799,0.793-1.505,0.178-1.58
		C126.325,12.297,125.749,12.881,125.646,13.678z M124.488,11.512c0.552,0.068,0.224-0.457,0.308-1.17
		c0.091-0.715,0.562-1.346,0.012-1.414c-0.553-0.066-1.069,0.459-1.156,1.172C123.56,10.812,123.937,11.445,124.488,11.512z
		 M114.552,14.945c-0.259-0.854-1.008-1.383-1.665-1.18c-0.657,0.2-0.979,1.053-0.717,1.906c0.263,0.854,1.007,1.382,1.665,1.182
		C114.493,16.654,114.812,15.798,114.552,14.945z M112.939,27.301c0,0-0.573-1.137-0.761-2.521
		c-0.145,0.121-0.726,1.081-1.148,1.542L112.939,27.301z M136.594,29.713c0-0.678-5.159-1.23-11.124-1.267h-0.616
		c-5.962,0.036-11.118,0.589-11.118,1.267c0,0.634,4.863,1.285,11.431,1.337C131.733,30.998,136.594,30.347,136.594,29.713z
		 M137.939,28.047c-3.065-0.873-7.237-1.322-12.756-1.473c-5.56,0.15-9.73,0.6-12.796,1.473c0,0-0.264,0.732,0.371,0.732
		c2.789-0.791,6.931-1.136,11.969-1.273l0.438-0.014l0.433,0.014c5.043,0.138,9.184,0.482,11.972,1.273
		C138.204,28.779,137.939,28.047,137.939,28.047z M117.738,26.645l1.048-0.771l1.446-1.063l-2.903-1.07l-2.491,1.828L117.738,26.645
		z M124.147,25.754l1.014,0.546l2.814-1.411l-2.725-1.467l-2.721,1.467L124.147,25.754z M131.54,25.874l1.049,0.771l2.902-1.076
		l-2.493-1.828l-2.901,1.07L131.54,25.874z M139.299,26.321c-0.425-0.461-1.007-1.421-1.147-1.542
		c-0.191,1.385-0.764,2.521-0.764,2.521L139.299,26.321z M140.231,23.854c-3.481-0.986-8.248-1.838-15.016-1.955
		c-6.875,0.117-11.634,0.969-15.117,1.955c0,0-0.166,0.932,0.25,0.886c3.398-0.962,8.08-1.802,14.769-1.921
		c6.787,0.119,11.464,0.959,14.861,1.921C140.398,24.785,140.231,23.854,140.231,23.854z M144.519,20.016
		c0.393-0.578,0.348-1.295-0.096-1.594c-0.448-0.303-1.128-0.076-1.519,0.506c-0.392,0.579-0.346,1.293,0.101,1.594
		C143.453,20.821,144.131,20.598,144.519,20.016z M67.404,10.225l-0.035-0.096l1.005-0.365l0.033,0.095
		c-0.037,0.014-0.076,0.054-0.062,0.097c0.015,0.036,0.071,0.082,0.128,0.138l1.275,1.114l0.272-1.662
		c0.013-0.107,0.024-0.166,0.007-0.21s-0.049-0.05-0.09-0.032l-0.035-0.099l0.992-0.358l0.035,0.097
		c-0.059,0.021-0.1,0.06-0.076,0.122l0.893,2.449c0.021,0.066,0.084,0.08,0.143,0.058l0.034,0.099l-0.847,0.305l-0.031-0.096
		c0.096-0.035,0.133-0.084,0.11-0.148l-0.649-1.785l-0.012,0.004l-0.359,2.371l-0.018,0.006l-1.777-1.598l-0.01,0.003l0.65,1.788
		c0.023,0.068,0.081,0.082,0.186,0.043l0.036,0.096l-0.808,0.293l-0.035-0.097c0.059-0.021,0.098-0.069,0.072-0.135l-0.893-2.448
		C67.519,10.207,67.46,10.203,67.404,10.225z M73.896,8.029l0.803,2.467c0.02,0.064-0.018,0.115-0.066,0.13l0.033,0.099l2.531-0.823
		c0.107-0.034,0.189-0.052,0.224,0.06l0.099-0.031l-0.248-0.76l-0.097,0.029C77.2,9.285,77.142,9.365,77.035,9.4l-1.817,0.591
		l-0.242-0.749l1.065-0.348c0.14-0.045,0.237-0.04,0.29,0.121l0.1-0.03l-0.277-0.849L76.059,8.17
		c0.05,0.161-0.028,0.211-0.171,0.259l-1.066,0.343L74.603,8.1l1.762-0.571c0.152-0.052,0.221-0.024,0.246,0.053l0.098-0.032
		l-0.234-0.717l-0.096,0.031c0.023,0.075-0.012,0.146-0.163,0.195l-2.479,0.809l0.028,0.097C73.815,7.947,73.874,7.964,73.896,8.029
		z M75.649,6.18l-0.732,0.238l-0.242,0.943l0.455-0.147L75.649,6.18z M79.322,6.834c-0.03-0.1,0.038-0.154,0.104-0.174l0.907-0.258
		l0.627,2.183c0.019,0.067-0.022,0.114-0.07,0.13l0.026,0.1l0.848-0.244l-0.029-0.1c-0.072,0.021-0.13,0.004-0.147-0.062
		l-0.629-2.188l0.907-0.262c0.064-0.016,0.15-0.006,0.18,0.094l0.1-0.029l-0.221-0.768l-0.102,0.027
		c0.029,0.1-0.037,0.154-0.102,0.174l-2.439,0.699c-0.066,0.02-0.152,0.008-0.184-0.093l-0.096,0.03l0.219,0.768L79.322,6.834z
		 M84.869,4.89l0.583,2.528c0.016,0.066-0.029,0.111-0.084,0.125l0.023,0.1l0.84-0.193l-0.023-0.1
		c-0.048,0.012-0.107-0.012-0.12-0.079l-0.242-1.047l1.792-0.413l0.24,1.047c0.014,0.068-0.024,0.113-0.1,0.13l0.023,0.098
		l0.857-0.196l-0.022-0.102c-0.05,0.012-0.11-0.009-0.121-0.074l-0.585-2.531c-0.016-0.064,0.026-0.109,0.077-0.123l-0.022-0.101
		l-0.859,0.2l0.023,0.1c0.073-0.017,0.131,0.004,0.146,0.072l0.219,0.945l-1.792,0.416l-0.218-0.947
		c-0.018-0.068,0.023-0.111,0.074-0.123L85.556,4.52l-0.84,0.193l0.021,0.102C84.796,4.801,84.853,4.823,84.869,4.89z M91.14,4.81
		c-0.198-1.024,0.699-1.7,1.52-1.86c0.816-0.158,1.902,0.131,2.104,1.155c0.201,1.028-0.698,1.704-1.519,1.862
		C92.425,6.127,91.34,5.838,91.14,4.81z M91.758,4.69c0.12,0.636,0.813,0.872,1.386,0.763c0.572-0.113,1.126-0.592,1.002-1.229
		c-0.125-0.632-0.814-0.869-1.387-0.759C92.185,3.576,91.632,4.058,91.758,4.69z M97.312,2.252l-0.016-0.104l1.879-0.263
		c0.828-0.115,1.539,0.268,1.685,1.282c0.14,1.012-0.438,1.577-1.265,1.694l-1.879,0.264L97.7,5.023
		c0.08-0.012,0.125-0.054,0.115-0.121l-0.359-2.566C97.446,2.266,97.39,2.24,97.312,2.252z M98.14,2.527l0.284,2.002L99.3,4.406
		c0.713-0.1,1.021-0.363,0.91-1.15c-0.109-0.785-0.478-0.953-1.191-0.854L98.14,2.527z M103.563,1.476l0.271,2.582
		c0.006,0.068-0.04,0.106-0.09,0.112l0.01,0.102l2.648-0.279c0.113-0.013,0.195-0.009,0.207,0.104l0.102-0.011l-0.082-0.797
		l-0.105,0.014c0.011,0.092-0.061,0.156-0.176,0.168L104.45,3.67l-0.082-0.785l1.115-0.115c0.147-0.016,0.238,0.008,0.261,0.18
		l0.099-0.012l-0.09-0.887l-0.104,0.012c0.018,0.167-0.072,0.203-0.219,0.217l-1.115,0.117l-0.071-0.706l1.838-0.192
		c0.161-0.016,0.222,0.022,0.229,0.104l0.103-0.013l-0.075-0.75l-0.105,0.011c0.01,0.081-0.043,0.143-0.199,0.159l-2.593,0.273
		l0.009,0.103C103.503,1.379,103.556,1.408,103.563,1.476z M113.456,3.397c0.736-0.052,1.343-0.547,1.428-0.553
		c0.024-0.001,0.043,0.003,0.064,0.003l0.042-0.05l-0.419-0.58l-0.076,0.051c0.015,0.019,0.028,0.048,0.029,0.069
		c0.013,0.212-0.629,0.502-1.104,0.535c-0.645,0.045-1.225-0.285-1.271-0.941c-0.043-0.655,0.482-1.066,1.127-1.11
		c0.378-0.026,0.979,0.126,1.023,0.296c0.008,0.026,0.017,0.049,0.018,0.071l0.059,0.038l0.396-0.723l-0.092-0.062
		c-0.014,0.023-0.039,0.078-0.074,0.08c-0.025,0.003-0.175-0.062-0.414-0.114c-0.238-0.052-0.568-0.104-0.949-0.075
		c-0.965,0.066-1.79,0.651-1.716,1.66C111.597,3.002,112.493,3.465,113.456,3.397z M117.464,3.152l-0.004-0.102
		c0.096-0.016,0.145-0.113,0.191-0.225l0.979-2.258c0.049-0.1,0.096-0.191,0.096-0.25c-0.004-0.074-0.074-0.1-0.131-0.109
		l-0.002-0.103l0.965-0.035l0.002,0.104c-0.051,0.014-0.119,0.039-0.115,0.117c0.002,0.058,0.034,0.114,0.086,0.209l1.27,2.283
		c0.043,0.077,0.108,0.111,0.195,0.143l0.004,0.102l-1.006,0.035l-0.004-0.102c0.03-0.002,0.09-0.026,0.088-0.072
		c0-0.035-0.014-0.084-0.051-0.146l-0.231-0.415l-1.394,0.047L118.21,2.79c-0.031,0.075-0.051,0.14-0.051,0.173
		c0.002,0.034,0.053,0.062,0.111,0.059l0.005,0.103L117.464,3.152z M118.559,1.949l1.017-0.035l-0.516-1.047L118.559,1.949z
		 M124.537,3.004h-1.044V2.902c0.145,0,0.21-0.031,0.21-0.104V0.205c0-0.069-0.085-0.103-0.21-0.103V0h2.01
		c0.73,0,1.178,0.24,1.178,0.895s-0.447,0.895-1.178,0.895h-1.148v1.01c0,0.072,0.051,0.104,0.183,0.104V3.004z M124.354,1.262
		h1.217c0.253,0,0.457-0.08,0.457-0.367c0-0.289-0.204-0.37-0.457-0.37h-1.217V1.262z M133.286,3.27
		c0.737,0.039,1.398-0.379,1.484-0.373c0.021,0,0.039,0.006,0.063,0.01l0.046-0.045l-0.345-0.625l-0.083,0.04
		c0.012,0.019,0.021,0.05,0.021,0.071c-0.012,0.211-0.682,0.423-1.159,0.396c-0.645-0.033-1.181-0.433-1.146-1.09
		s0.607-0.998,1.253-0.964c0.376,0.021,0.955,0.244,0.979,0.418c0.002,0.027,0.008,0.054,0.007,0.073l0.056,0.045l0.48-0.668
		l-0.082-0.073c-0.018,0.021-0.051,0.071-0.081,0.07s-0.171-0.084-0.399-0.162c-0.229-0.084-0.555-0.175-0.934-0.194
		c-0.965-0.05-1.855,0.432-1.908,1.441C131.489,2.649,132.32,3.22,133.286,3.27z M140.432,3.891l0.101,0.01l0.07-0.798l-0.101-0.006
		c-0.011,0.089-0.097,0.141-0.209,0.128l-1.89-0.166l0.197-2.264c0.006-0.068,0.061-0.099,0.169-0.087l0.009-0.105L137.8,0.518
		l-0.009,0.104c0.118,0.01,0.167,0.049,0.164,0.115l-0.229,2.586c-0.004,0.067-0.06,0.098-0.179,0.086l-0.011,0.104l2.71,0.236
		C140.36,3.758,140.438,3.776,140.432,3.891z M143.471,4.104l-0.805-0.099l0.012-0.102c0.099,0,0.164-0.091,0.227-0.19l1.317-2.078
		c0.065-0.09,0.127-0.176,0.134-0.231c0.009-0.074-0.056-0.111-0.112-0.13l0.013-0.102l0.959,0.119l-0.015,0.1
		c-0.049,0.007-0.121,0.02-0.13,0.1c-0.007,0.057,0.015,0.116,0.053,0.221l0.894,2.453c0.034,0.085,0.09,0.125,0.173,0.17
		l-0.015,0.102l-0.997-0.121l0.013-0.104c0.027,0.006,0.095-0.01,0.1-0.058c0.003-0.032-0.004-0.085-0.026-0.149l-0.167-0.447
		l-1.385-0.172l-0.25,0.379c-0.043,0.068-0.076,0.128-0.079,0.162c-0.003,0.035,0.044,0.068,0.1,0.078L143.471,4.104z
		 M143.935,2.985l1.012,0.125L144.6,1.997L143.935,2.985z M150.101,4.596c-0.354-0.062-0.881-0.334-0.962-0.538
		c-0.011-0.032-0.013-0.062-0.005-0.094l-0.053-0.038l-0.428,0.624l0.07,0.06c0.023-0.021,0.053-0.037,0.081-0.031
		c0.17,0.027,0.354,0.351,1.223,0.502c0.609,0.11,1.569,0.082,1.709-0.692c0.235-1.353-2.195-0.921-2.071-1.638
		c0.046-0.248,0.471-0.271,0.805-0.213c0.433,0.076,0.873,0.347,0.961,0.542c0.016,0.036,0.026,0.085,0.024,0.138l0.05,0.03
		l0.512-0.634l-0.056-0.058c-0.028,0.019-0.063,0.023-0.124,0.014c-0.188-0.032-0.514-0.382-1.297-0.519
		c-0.933-0.165-1.449,0.226-1.533,0.693c-0.244,1.377,2.191,0.921,2.072,1.608C151.021,4.693,150.349,4.639,150.101,4.596z
		 M155.741,5.611c-0.352-0.074-0.866-0.365-0.938-0.572c-0.012-0.031-0.012-0.061-0.005-0.095l-0.051-0.038l-0.448,0.607
		l0.066,0.062c0.021-0.018,0.057-0.035,0.083-0.029c0.166,0.035,0.343,0.365,1.203,0.549c0.604,0.128,1.567,0.133,1.731-0.637
		c0.287-1.342-2.161-0.996-2.009-1.707c0.053-0.246,0.481-0.253,0.81-0.186c0.429,0.09,0.86,0.377,0.943,0.574
		c0.013,0.039,0.021,0.088,0.016,0.139l0.053,0.035l0.532-0.619l-0.058-0.057c-0.028,0.018-0.065,0.018-0.118,0.009
		c-0.191-0.04-0.508-0.4-1.283-0.564c-0.927-0.198-1.457,0.175-1.554,0.64c-0.291,1.368,2.157,0.998,2.016,1.68
		C156.656,5.741,155.988,5.662,155.741,5.611z M160.856,7.075c-0.094-0.023-0.136-0.065-0.12-0.134l0.585-2.527
		c0.015-0.069,0.07-0.09,0.165-0.069l0.023-0.099l-0.924-0.213l-0.023,0.1c0.095,0.021,0.136,0.068,0.123,0.135l-0.582,2.529
		c-0.016,0.064-0.075,0.087-0.171,0.064l-0.023,0.102l0.926,0.213L160.856,7.075z M163.909,6.364
		c0.27-1.011,1.373-1.224,2.181-1.006c0.806,0.217,1.655,0.952,1.385,1.962c-0.139,0.519-0.501,0.83-0.937,0.977
		c0.068,0.092,0.174,0.363,0.253,0.385c0.042,0.012,0.089,0.004,0.121-0.014l0.052,0.094l-0.789,0.387l-0.055-0.061
		c0.031-0.023,0.061-0.055,0.07-0.1c0.024-0.076-0.195-0.426-0.271-0.587c-0.215,0.007-0.429-0.021-0.625-0.075
		C164.49,8.111,163.639,7.375,163.909,6.364z M165.432,7.82c0.075,0.02,0.154,0.035,0.231,0.037
		c-0.213-0.518-0.453-0.564-0.438-0.625c0.017-0.061,0.222-0.059,0.405-0.01c0.316,0.084,0.473,0.315,0.657,0.56
		c0.269-0.105,0.495-0.311,0.579-0.625c0.171-0.622-0.35-1.14-0.913-1.292c-0.562-0.15-1.27,0.038-1.437,0.661
		C164.348,7.152,164.866,7.67,165.432,7.82z M171.256,10.035c0.967,0.296,1.542,0.21,1.804-0.647l0.495-1.614
		c0.018-0.064,0.077-0.082,0.161-0.057l0.029-0.1L172.87,7.35l-0.03,0.1c0.115,0.035,0.153,0.082,0.134,0.149l-0.501,1.639
		c-0.139,0.458-0.495,0.507-1.053,0.335c-0.56-0.172-0.825-0.408-0.687-0.867l0.505-1.639c0.02-0.064,0.077-0.084,0.147-0.062
		l0.031-0.099l-0.897-0.274l-0.027,0.099c0.103,0.031,0.14,0.08,0.12,0.146l-0.492,1.61C169.858,9.346,170.286,9.74,171.256,10.035z
		 M178.151,12.439l0.096,0.035l0.263-0.758l-0.098-0.033c-0.032,0.088-0.125,0.113-0.233,0.078l-1.805-0.621l0.257-0.748
		l1.061,0.365c0.137,0.05,0.215,0.109,0.159,0.273l0.098,0.033l0.29-0.843l-0.099-0.034c-0.055,0.162-0.149,0.154-0.289,0.105
		l-1.06-0.363l0.229-0.671l1.753,0.604c0.151,0.051,0.187,0.111,0.164,0.188l0.096,0.032l0.246-0.713l-0.099-0.033
		c-0.024,0.075-0.098,0.111-0.248,0.059l-2.464-0.848l-0.033,0.098c0.051,0.017,0.084,0.067,0.063,0.13l-0.845,2.454
		c-0.022,0.066-0.082,0.08-0.132,0.062l-0.035,0.099l2.521,0.866C178.117,12.295,178.188,12.332,178.151,12.439z"/>
	<path fill="#C5A365" d="M81.319,76.389c0,0.314,0.02,0.324,0.742,0.357v0.166h-2.143v-0.166c0.719-0.033,0.738-0.043,0.738-0.357
		v-3.15h-0.394c-0.785,0-0.924,0.121-1.007,0.73h-0.201v-0.928h3.867v0.928h-0.2c-0.081-0.609-0.222-0.73-1.007-0.73h-0.396V76.389z
		 M90.661,73.041v0.162c-0.412,0.021-0.489,0.051-0.623,0.376c-0.094,0.212-0.246,0.702-0.461,1.335l-0.67,1.998h-0.51
		c-0.342-1.002-0.709-2.031-1.119-3.1h-0.012l-1.053,3.1h-0.516l-0.567-1.785c-0.185-0.561-0.376-1.119-0.532-1.559
		c-0.111-0.33-0.174-0.35-0.568-0.365v-0.162h1.682v0.162l-0.334,0.028c-0.164,0.011-0.194,0.044-0.142,0.229
		c0.269,0.875,0.563,1.814,0.911,2.779h0.014l1.021-3.097h0.506c0.367,1.028,0.75,2.062,1.131,3.097h0.021l0.496-1.599
		c0.168-0.525,0.314-0.987,0.355-1.192c0.027-0.116,0.012-0.195-0.147-0.211l-0.417-0.035v-0.162H90.661z M95.041,73.041v0.916
		h-0.202c-0.094-0.58-0.246-0.719-1.014-0.719h-0.651c-0.218,0-0.251,0.02-0.251,0.2v1.353h0.938c0.57,0,0.598-0.134,0.66-0.479
		h0.197v1.178h-0.197c-0.062-0.352-0.09-0.486-0.66-0.486h-0.938v1.236c0,0.273,0.027,0.367,0.168,0.42
		c0.141,0.043,0.383,0.053,0.695,0.053c0.846,0,1.149-0.088,1.304-0.771h0.198l-0.081,0.971h-3.551v-0.166
		c0.591-0.033,0.603-0.043,0.603-0.357v-2.827c0-0.314-0.012-0.323-0.603-0.358v-0.162H95.041z M100.11,73.041v0.916h-0.202
		c-0.095-0.58-0.248-0.719-1.013-0.719h-0.658c-0.213,0-0.248,0.02-0.248,0.2v1.353h0.939c0.568,0,0.598-0.134,0.657-0.479h0.2
		v1.178h-0.2c-0.06-0.352-0.089-0.486-0.657-0.486h-0.939v1.236c0,0.273,0.029,0.367,0.168,0.42
		c0.143,0.043,0.383,0.053,0.695,0.053c0.846,0,1.15-0.088,1.301-0.771h0.201l-0.08,0.971h-3.549v-0.166
		c0.588-0.033,0.604-0.043,0.604-0.357v-2.827c0-0.314-0.016-0.323-0.604-0.358v-0.162H100.11z M105.631,76.111
		c0,0.571-0.081,1.033-0.682,1.264c-0.262,0.1-0.583,0.162-0.845,0.172l-0.033-0.137c0.233-0.053,0.475-0.146,0.623-0.295
		c0.16-0.16,0.273-0.428,0.273-0.971v-2.583c0-0.314-0.014-0.323-0.602-0.358v-0.162h1.867v0.162
		c-0.582,0.035-0.603,0.044-0.603,0.358V76.111z M111.636,73.5c0.369,0.336,0.569,0.845,0.569,1.477c0,0.626-0.2,1.139-0.569,1.478
		c-0.374,0.35-0.92,0.541-1.66,0.541c-0.737,0-1.287-0.191-1.664-0.541c-0.361-0.339-0.568-0.852-0.568-1.478
		c0-0.632,0.207-1.141,0.568-1.477c0.377-0.354,0.927-0.543,1.664-0.543C110.716,72.957,111.262,73.146,111.636,73.5z
		 M108.495,74.977c0.015,0.821,0.285,1.82,1.48,1.82c1.191,0,1.465-0.999,1.481-1.82c-0.017-0.823-0.29-1.824-1.481-1.824
		C108.78,73.152,108.51,74.153,108.495,74.977z M115.048,73.041c0.865,1.027,1.736,2.058,2.613,3.086l0.016,0.012v-1.963
		c0-0.297-0.016-0.509-0.051-0.693c-0.036-0.235-0.199-0.251-0.633-0.279v-0.162h1.586v0.162c-0.348,0.021-0.51,0.044-0.551,0.279
		c-0.03,0.185-0.045,0.396-0.045,0.693v2.736h-0.443c-0.945-1.125-1.896-2.242-2.854-3.367h-0.012v2.231
		c0,0.295,0.012,0.509,0.045,0.692c0.039,0.234,0.206,0.254,0.637,0.277v0.166h-1.586v-0.166c0.348-0.021,0.509-0.043,0.549-0.277
		c0.034-0.184,0.047-0.397,0.047-0.692v-2.215c0-0.314-0.013-0.323-0.602-0.358v-0.162H115.048z M124.151,76.76
		c-0.424,0.111-1.074,0.235-1.543,0.235c-0.59,0-1.177-0.063-1.686-0.358c-0.492-0.291-0.831-0.867-0.831-1.588
		c0-0.583,0.159-1.029,0.503-1.401c0.381-0.416,1.051-0.69,2.054-0.69c0.536,0,1.112,0.094,1.442,0.23v0.876h-0.203
		c-0.139-0.632-0.567-0.911-1.305-0.911c-1.32,0-1.741,0.922-1.741,1.806c0,0.7,0.286,1.839,1.832,1.839
		c0.222,0,0.409-0.024,0.587-0.084c0.137-0.045,0.227-0.105,0.227-0.301v-0.754c0-0.272-0.035-0.308-0.708-0.346v-0.163h1.843v0.163
		c-0.438,0.038-0.471,0.066-0.471,0.346V76.76z M129.312,73.041v0.916h-0.199c-0.094-0.58-0.25-0.719-1.013-0.719h-0.659
		c-0.213,0-0.248,0.02-0.248,0.2v1.353h0.938c0.572,0,0.597-0.134,0.658-0.479h0.201v1.178h-0.201
		c-0.062-0.352-0.086-0.486-0.658-0.486h-0.938v1.236c0,0.273,0.027,0.367,0.17,0.42c0.142,0.043,0.379,0.053,0.697,0.053
		c0.843,0,1.145-0.088,1.299-0.771h0.201l-0.08,0.971h-3.555v-0.166c0.592-0.033,0.607-0.043,0.607-0.357v-2.827
		c0-0.314-0.016-0.323-0.607-0.358v-0.162H129.312z M137.658,76.76c-0.423,0.111-1.073,0.235-1.544,0.235
		c-0.587,0-1.177-0.063-1.688-0.358c-0.488-0.291-0.828-0.867-0.828-1.588c0-0.583,0.158-1.029,0.502-1.401
		c0.379-0.416,1.049-0.69,2.056-0.69c0.534,0,1.11,0.094,1.44,0.23v0.876h-0.201c-0.14-0.632-0.568-0.911-1.306-0.911
		c-1.321,0-1.743,0.922-1.743,1.806c0,0.7,0.287,1.839,1.831,1.839c0.227,0,0.416-0.024,0.589-0.084
		c0.137-0.045,0.225-0.105,0.225-0.301v-0.754c0-0.272-0.03-0.308-0.707-0.346v-0.163h1.848v0.163
		c-0.44,0.038-0.474,0.066-0.474,0.346V76.76z M142.82,73.041v0.916h-0.2c-0.097-0.58-0.248-0.719-1.014-0.719h-0.66
		c-0.211,0-0.248,0.02-0.248,0.2v1.353h0.94c0.567,0,0.597-0.134,0.655-0.479h0.203v1.178h-0.203
		c-0.059-0.352-0.088-0.486-0.655-0.486h-0.94v1.236c0,0.273,0.029,0.367,0.168,0.42c0.144,0.043,0.384,0.053,0.7,0.053
		c0.841,0,1.146-0.088,1.298-0.771h0.2l-0.081,0.971h-3.551v-0.166c0.59-0.033,0.607-0.043,0.607-0.357v-2.827
		c0-0.314-0.018-0.323-0.607-0.358v-0.162H142.82z M148.167,73.041l0.041,0.072c-1.012,1.203-2.017,2.401-2.996,3.6h1.354
		c1.03,0,1.348-0.099,1.468-0.796h0.213l-0.066,0.995h-3.82l-0.033-0.073c1.011-1.203,2.019-2.404,2.997-3.601h-1.198
		c-0.919,0-1.087,0.121-1.17,0.766h-0.215v-0.963H148.167z M152.981,73.041v0.916h-0.2c-0.097-0.58-0.253-0.719-1.015-0.719h-0.655
		c-0.213,0-0.249,0.02-0.249,0.2v1.353h0.938c0.57,0,0.599-0.134,0.658-0.479h0.199v1.178h-0.199
		c-0.06-0.352-0.088-0.486-0.658-0.486h-0.938v1.236c0,0.273,0.027,0.367,0.166,0.42c0.146,0.043,0.385,0.053,0.699,0.053
		c0.842,0,1.147-0.088,1.3-0.771h0.2l-0.084,0.971h-3.547v-0.166c0.587-0.033,0.604-0.043,0.604-0.357v-2.827
		c0-0.314-0.017-0.323-0.604-0.358v-0.162H152.981z M155.931,76.24c0,0.273,0.023,0.367,0.169,0.42
		c0.139,0.043,0.383,0.053,0.717,0.053c0.702,0,1.072-0.07,1.206-0.803h0.199l-0.081,1.002h-3.475v-0.166
		c0.59-0.033,0.603-0.043,0.603-0.357v-2.827c0-0.314-0.013-0.323-0.603-0.358v-0.162h1.909v0.162
		c-0.625,0.035-0.645,0.044-0.645,0.358V76.24z M160.745,76.24c0,0.273,0.028,0.367,0.167,0.42c0.141,0.043,0.38,0.053,0.718,0.053
		c0.703,0,1.07-0.07,1.206-0.803h0.201l-0.08,1.002h-3.479v-0.166c0.593-0.033,0.602-0.043,0.602-0.357v-2.827
		c0-0.314-0.009-0.323-0.602-0.358v-0.162h1.909v0.162c-0.624,0.035-0.642,0.044-0.642,0.358V76.24z M167.673,73.041v0.916h-0.198
		c-0.095-0.58-0.248-0.719-1.014-0.719h-0.655c-0.214,0-0.249,0.02-0.249,0.2v1.353h0.937c0.568,0,0.6-0.134,0.654-0.479h0.203
		v1.178h-0.203c-0.055-0.352-0.086-0.486-0.654-0.486h-0.937v1.236c0,0.273,0.026,0.367,0.167,0.42
		c0.142,0.043,0.382,0.053,0.7,0.053c0.84,0,1.142-0.088,1.295-0.771h0.205l-0.082,0.971h-3.551v-0.166
		c0.589-0.033,0.604-0.043,0.604-0.357v-2.827c0-0.314-0.016-0.323-0.604-0.358v-0.162H167.673z M170.638,73.041
		c0.866,1.027,1.737,2.058,2.614,3.086l0.012,0.012v-1.963c0-0.297-0.012-0.509-0.046-0.693c-0.04-0.235-0.201-0.251-0.636-0.279
		v-0.162h1.585v0.162c-0.345,0.021-0.506,0.044-0.549,0.279c-0.033,0.185-0.046,0.396-0.046,0.693v2.736h-0.442
		c-0.944-1.125-1.896-2.242-2.854-3.367h-0.014v2.231c0,0.295,0.014,0.509,0.049,0.692c0.04,0.234,0.2,0.254,0.634,0.277v0.166
		h-1.585v-0.166c0.346-0.021,0.507-0.043,0.549-0.277c0.032-0.184,0.046-0.397,0.046-0.692v-2.215c0-0.314-0.014-0.323-0.602-0.358
		v-0.162H170.638z"/>
</g>
</svg>
