<?xml version="1.0" encoding="utf-8"?>
<!-- Generator: Adobe Illustrator 16.0.0, SVG Export Plug-In . SVG Version: 6.00 Build 0)  -->
<!DOCTYPE svg PUBLIC "-//W3C//DTD SVG 1.1//EN" "http://www.w3.org/Graphics/SVG/1.1/DTD/svg11.dtd">
<svg version="1.1" id="Layer_1" xmlns="http://www.w3.org/2000/svg" xmlns:xlink="http://www.w3.org/1999/xlink" x="0px" y="0px"
	 width="117.3px" height="66.996px" viewBox="0 0 117.3 66.996" enable-background="new 0 0 117.3 66.996" xml:space="preserve">
<path fill="#A68C53" d="M34.273,47.74l3.414,1.266l2.014-1.482l0.914-0.668l-3.411-1.268L34.273,47.74z M83.014,47.74l-2.921-2.152
	l-3.416,1.268l0.921,0.668l2.005,1.482L83.014,47.74z M61.095,46.992l1.003-0.535l-3.205-1.729l-3.198,1.729l1.001,0.535
	l2.197,1.186L61.095,46.992z M111.473,37.904c-0.838,0-1.644-0.173-2.367-0.502c-2.03,1.482-5.017,6.33-5.017,6.33
	s3.114,0.674,1.994,2.631c0,0-6.186,2.24-7.544,9.418c0,0,0.68,0.408,0.943,1.352c0,0,0.212,4.145-2.977,5.418
	c-1.813,0.484-12.544,4.048-35.65,4.397C34.482,67.5,22.714,63.067,20.787,62.55c-3.186-1.273-2.978-5.418-2.978-5.418
	c0.27-0.943,0.946-1.352,0.946-1.352c-1.35-7.178-7.549-4.716-7.549-4.716c-1.118-1.956,1.998-7.333,1.998-7.333
	s-2.984-4.848-5.02-6.33c-0.723,0.329-1.526,0.502-2.373,0.502C2.606,37.904,0,35.296,0,32.08c0-3.211,2.606-5.819,5.812-5.819
	c3.218,0,5.834,2.608,5.834,5.819c0,1.556-0.609,2.967-1.605,4.01c2.34,1.357,4.793,2.092,4.793,2.092
	c3.384,0.678,3.791-0.681,3.922-2.168c-0.131-1.49-0.131-3.051-0.131-3.051l1.625-0.475c2.589,3.061,6.224,2.985,6.224,2.985
	s2.313-3.164,1.899-8.457c-0.931,0.079-1.903-0.011-2.854-0.298c-3.938-1.201-6.148-5.351-4.942-9.271
	c1.203-3.914,5.36-6.123,9.294-4.921c3.935,1.195,6.145,5.341,4.938,9.262c-0.626,2.052-2.067,3.635-3.865,4.512
	c0.475,1.135,3.09,6.879,7.975,7.004c1.351-0.402,2.703-5.277,2.703-5.277l2.301-0.404c0,0,2.983,4.467,5.964,4.594
	c0.661,0,5.754,0.53,5.748-9.344c-0.281,0.123-0.577,0.232-0.872,0.32c-3.93,1.205-8.093-1.003-9.296-4.932
	c-1.2-3.911,1.012-8.057,4.943-9.26c0.979-0.297,1.972-0.391,2.935-0.285c-0.166-0.312-0.295-0.643-0.402-0.982
	c-0.97-3.164,0.814-6.504,3.982-7.473c3.171-0.963,6.521,0.816,7.493,3.976c0.472,1.53,0.298,3.099-0.373,4.423
	c3.501-0.412,6.912,1.719,7.984,5.203c1.195,3.923-1.004,8.068-4.944,9.266c-1.869,0.57-3.792,0.37-5.426-0.422
	c-0.062,10.047,5.079,9.51,5.75,9.51c2.977-0.127,5.962-4.594,5.962-4.594l2.3,0.404c0,0,1.357,4.875,2.711,5.277
	c4.877-0.125,7.487-5.869,7.959-7.004c-1.793-0.883-3.232-2.46-3.858-4.512c-1.205-3.921,1.009-8.066,4.939-9.262
	c3.928-1.202,8.096,1.007,9.297,4.921c1.199,3.92-1.012,8.069-4.936,9.271c-0.966,0.287-1.928,0.377-2.869,0.298
	c-0.414,5.29,1.897,8.457,1.897,8.457s3.64,0.075,6.233-2.985l1.626,0.475c0,0,0,1.561-0.132,3.051
	c0.132,1.487,0.538,2.846,3.93,2.168c0,0,2.443-0.734,4.791-2.092c-1.001-1.043-1.611-2.454-1.611-4.01
	c0-3.211,2.604-5.819,5.824-5.819c3.216,0,5.827,2.608,5.827,5.819C117.3,35.296,114.688,37.904,111.473,37.904z M51.261,16.125
	c0.271-2.207,1.709-4.172,0-4.379c-1.708-0.209-3.315,1.416-3.592,3.632c-0.269,2.212,0.897,4.174,2.599,4.384
	C51.977,19.97,50.988,18.342,51.261,16.125z M6.812,31.304c-1.087-1.613-2.976-2.247-4.22-1.408
	c-1.235,0.836-1.355,2.82-0.273,4.432c1.083,1.617,2.979,2.239,4.216,1.402C7.777,34.896,7.9,32.914,6.812,31.304z M86.457,23.562
	c1.832,0.559,3.9-0.908,4.627-3.281c0.726-2.367-0.162-4.742-1.991-5.299c-1.834-0.557-3.903,0.915-4.628,3.278
	C83.734,20.63,84.634,23.007,86.457,23.562z M59.988,15.307c0.054,0.472,0.054,0.946,0.021,1.409c0.25,1.59,1.247,2.809,2.578,2.977
	c1.704,0.211,0.222-1.422,0.495-3.627c0.263-2.218,2.203-4.183,0.493-4.392C61.875,11.472,60.271,13.093,59.988,15.307z
	 M56.77,9.285c1.53,0.191,0.618-1.271,0.855-3.248c0.246-1.984,1.561-3.74,0.029-3.928c-1.529-0.188-2.968,1.27-3.215,3.254
	C54.19,7.344,55.238,9.103,56.77,9.285z M29.155,18.826c-0.716-2.372-2.795-3.838-4.618-3.279c-1.828,0.557-2.728,2.928-1.996,5.301
	c0.727,2.37,2.8,3.836,4.629,3.281C28.996,23.574,29.889,21.196,29.155,18.826z M24.677,53.157c0,0-1.588-3.155-2.109-7.006
	c-0.401,0.339-2.019,3.007-3.196,4.288L24.677,53.157z M90.402,59.865c0-1.885-14.331-3.424-30.903-3.525h-1.715
	C41.221,56.441,26.89,57.98,26.89,59.865c0,1.755,13.512,3.568,31.763,3.707C76.899,63.433,90.402,61.62,90.402,59.865z
	 M94.144,55.231c-8.516-2.425-20.106-3.671-35.448-4.087c-15.441,0.416-27.036,1.662-35.55,4.087c0,0-0.731,2.04,1.026,2.04
	c7.752-2.199,19.258-3.164,33.259-3.541l1.222-0.035l1.206,0.037c14.008,0.375,25.513,1.34,33.258,3.539
	C94.883,57.271,94.144,55.231,94.144,55.231z M38.012,51.334l2.915-2.14l4.012-2.951l-8.061-2.977l-6.924,5.078L38.012,51.334z
	 M55.826,48.862l2.81,1.515l7.826-3.92l-7.569-4.078l-7.562,4.078L55.826,48.862z M76.364,49.195l2.915,2.14l8.063-2.989
	l-6.93-5.078l-8.06,2.977L76.364,49.195z M97.924,50.439c-1.181-1.281-2.796-3.949-3.198-4.288
	c-0.517,3.851-2.111,7.006-2.111,7.006L97.924,50.439z M100.514,43.582c-9.68-2.742-22.916-5.104-41.719-5.434
	c-19.111,0.329-32.335,2.691-42.011,5.434c0,0-0.464,2.588,0.699,2.461c9.441-2.67,22.45-5.009,41.033-5.335
	c18.858,0.326,31.854,2.66,41.296,5.335C100.977,46.169,100.514,43.582,100.514,43.582z M112.43,32.914
	c1.089-1.605,0.962-3.598-0.271-4.429c-1.244-0.84-3.132-0.208-4.221,1.407c-1.085,1.611-0.958,3.596,0.283,4.428
	C109.46,35.154,111.348,34.536,112.43,32.914z"/>
</svg>
