<?xml version="1.0" encoding="utf-8"?>
<!-- Generator: Adobe Illustrator 16.0.0, SVG Export Plug-In . SVG Version: 6.00 Build 0)  -->
<!DOCTYPE svg PUBLIC "-//W3C//DTD SVG 1.1//EN" "http://www.w3.org/Graphics/SVG/1.1/DTD/svg11.dtd">
<svg version="1.1" id="Layer_1" xmlns="http://www.w3.org/2000/svg" xmlns:xlink="http://www.w3.org/1999/xlink" x="0px" y="0px"
	 width="92.392px" height="104.812px" viewBox="4 5 92.392 104.812" enable-background="new 4 5 92.392 104.812"
	 xml:space="preserve">
<g>
	<g>
		<g>
			<defs>
				<rect id="SVGID_1_" width="388.566" height="250.719"/>
			</defs>
			<clipPath id="SVGID_2_">
				<use xlink:href="#SVGID_1_"  overflow="visible"/>
			</clipPath>
			<g clip-path="url(#SVGID_2_)">
				<path fill="#999999" d="M82.036,94.196l0.471-0.665l0.395-0.723l0.145-0.263l-0.098-0.062l0.058-0.492l0.275-0.408
					c-0.012,0.108,0.051,0.168,0.256,0.198v0.002l0.248-0.359l0.487-0.661l0.401-0.72l0.393-0.711l0.205-0.821l0.402-0.713
					l0.185-0.352c-0.27-0.395-0.389-0.654-0.36-0.868l0.251-0.247l0.195,0.247c0.134,0.023,0.236,0.083,0.31,0.183l0.241-0.381
					l0.226-0.799l0.292-0.761l0.436-0.711l0.249-0.782l0.25-0.782l0.379-0.724l0.173-0.811l0.327-0.748l0.293-0.773l0.124-0.822
					l0.292-0.767l0.209-0.784l0.325-0.761l0.149-0.809l0.412-0.731l0.146-0.812l0.146-0.81l0.268-0.78l0.191-0.794l0.131-0.803
					l0.092-0.294c-0.037-0.131-0.037-0.292-0.017-0.484l0.174-0.065l0.101-0.45l-0.048,0.038c-0.107-0.167-0.049-0.266,0.114-0.341
					l0.009-0.07l0.26-0.874l0.095-0.205c-0.022-0.002-0.044-0.002-0.071-0.012c-0.316-0.166-0.473-0.276-0.458-0.334l0.041-0.327
					h-0.441c0.222-0.47,0.387-0.615,0.51-0.598l0.544,0.122c0.071-0.042,0.146-0.037,0.214-0.011l0.03-0.304l0.347-0.771
					l0.144-0.818l0.124-0.469l-0.223-0.106c0.026-0.066,0.124-0.136,0.299-0.182l0.004-0.051l0.159-0.819l0.239-0.801l0.127-0.828
					l0.246-0.792l0.156-0.82l0.229-0.8l0.197-0.811l0.271-0.789l0.014-0.851l0.228-0.809l0.183-0.808l0.074-0.834l0.046-0.837
					l0.247-0.808l-0.016-0.833l0.108-0.826l0.066-0.83l0.156-0.825l0.027-0.828l0.179-0.826l0.056-0.83l-0.128-0.838l0.065-0.831
					l-0.044-0.831l0.148-0.832l-0.059-0.835l-0.079-0.83l-0.113-0.829l-0.025-0.829l-0.096-0.824l-0.088-0.831l0.031-0.846
					l-0.167-0.82l-0.303-0.791l0.013-0.851L95.3,34.58l-0.232-0.807l-0.328-0.772l-0.101-0.844l-0.336-0.762l-0.24-0.805
					l-0.346-0.753l-0.28-0.784l-0.507-0.69l-0.2-0.812l-0.505-0.666l-0.443-0.682l-0.329-0.766l-0.48-0.663l-0.446-0.691
					l-0.542-0.62l-0.547-0.61l-0.524-0.633l-0.07-0.107c-0.033-0.004-0.062-0.004-0.096-0.012c0.006-0.033,0.018-0.061,0.018-0.089
					l-0.319-0.473l-0.496-0.657l-0.677-0.48l-0.535-0.629l-0.558-0.606l-0.653-0.503l-0.644-0.504l-0.539-0.641l-0.72-0.408
					l-0.618-0.536l-0.562-0.624l-0.768-0.333l-0.588-0.605l-0.777-0.313l-0.581-0.597l-0.741-0.375l-0.664-0.488l-0.78-0.3
					l-0.665-0.488l-0.77-0.305l-0.719-0.399l-0.703-0.427l-0.77-0.293l-0.615-0.417c-0.077,0.057-0.145,0.114-0.23,0.166
					c0-0.103,0.016-0.196,0.043-0.269l-0.639-0.277l-0.75-0.325l-0.776-0.288l-0.734-0.374l-0.751-0.327l-0.799-0.223l-0.766-0.296
					l-0.769-0.277L66.327,7.95l-0.779-0.258l-0.184-0.064l-0.392,0.401c-0.155-0.231,0.008-0.336,0.321-0.422l-0.528-0.161
					l-0.782-0.244l-0.815-0.101l-0.793-0.223l-0.783-0.247l-0.805-0.134l-0.806-0.186l-0.81-0.093l-0.806-0.143l-0.785-0.327
					l-0.808-0.112l-0.826-0.002l-0.791-0.241L54.327,5.32L53.51,5.338l-0.813-0.166l-0.823,0.034l-0.812-0.154l-0.828,0.049
					l-0.818,0.077L48.592,5l-0.817,0.167l-0.823-0.098l-0.816,0.173l-0.811,0.057l-0.82,0.06l-0.83-0.096l-0.797,0.216l-0.81,0.168
					l-0.818,0.078l-0.822,0.041l-0.785,0.229l-0.823,0.106l-0.8,0.206l-0.784,0.216l-0.76,0.333l-0.82,0.131l-0.73,0.397
					L34.116,7.54l-0.746,0.335l-0.779,0.279l-0.776,0.275l-0.677,0.487l-0.757,0.312l-0.721,0.401l-0.73,0.366l-0.69,0.44
					l-0.723,0.412l-0.629,0.531l-0.732,0.379l-0.655,0.501l-0.652,0.487l-0.57,0.594l-0.613,0.54l-0.683,0.464l-0.588,0.567
					l-0.514,0.647L21.3,16.127l-0.498,0.64l-0.588,0.576l-0.481,0.659l-0.559,0.604l-0.341,0.769l-0.476,0.66l-0.506,0.639
					l-0.503,0.653l-0.479,0.65l-0.311,0.771l-0.43,0.693l-0.53,0.635l-0.257,0.79l-0.433,0.694l-0.455,0.681l-0.331,0.757
					l-0.241,0.784l-0.311,0.76l-0.408,0.711l-0.422,0.703l-0.203,0.804l-0.376,0.726l-0.337,0.748l-0.14,0.824l-0.4,0.717
					l-0.161,0.809l-0.274,0.768l-0.36,0.739l-0.164,0.81l-0.188,0.796l-0.242,0.78l-0.401,0.729l-0.137,0.81l-0.315,0.76
					l-0.155,0.798l-0.167,0.802l-0.288,0.769l-0.164,0.795l-0.329,1.076L7.694,45.79L7.47,46.58l-0.044,0.832l-0.306,0.774
					l-0.188,0.799L6.8,49.798L6.476,50.56l-0.153,0.803l-0.115,0.818l-0.176,0.796l-0.146,0.809l-0.155,0.801L5.469,55.37
					l0.01,0.839l-0.186,0.793L5.27,57.824l-0.118,0.81l-0.205,0.795l-0.068,0.818l-0.159,0.803l-0.125,0.807l-0.098,0.804
					l0.007,0.829L4.4,64.304l0.064,0.824l-0.056,0.815l-0.126,0.809v0.83l-0.141,0.806l0.05,0.822l-0.046,0.814L4,70.846l0.12,0.826
					l-0.048,0.819l-0.005,0.823l-0.054,0.829l0.11,0.816l0.167,0.807l0.094,0.827l0.206,0.796l-0.009,0.837l0.163,0.807l0.21,0.801
					l0.267,0.775l0.318,0.767l0.139,0.823l0.29,0.767l0.414,0.723l0.353,0.742l0.274,0.783l0.347,0.742l0.439,0.697l0.417,0.708
					l0.409,0.714l0.325,0.766l0.497,0.658l0.447,0.688l0.479,0.673l0.619,0.564l0.39,0.74l0.503,0.647l0.548,0.617l0.579,0.587
					l0.554,0.614l0.572,0.591l0.653,0.512l0.513,0.679l0.637,0.542l0.728,0.452l0.532,0.667l0.761,0.396l0.63,0.543l0.593,0.611
					l0.75,0.395l0.688,0.476l0.712,0.439l0.617,0.584l0.723,0.433l0.711,0.447l0.704,0.448l0.792,0.325l0.699,0.452l0.773,0.336
					l0.771,0.314l0.736,0.432l0.735,0.397l0.728,0.419l0.801,0.266l0.792,0.277l0.804,0.258l0.777,0.3l0.771,0.316l0.797,0.265
					l0.802,0.253l0.782,0.301l0.841,0.085l0.781,0.285l0.791,0.255l0.797,0.199l0.813,0.12l0.829,0.07l0.8,0.201l0.805,0.201
					l0.814,0.12l0.814,0.151l0.839-0.07l0.802,0.213l0.834-0.05l0.184,0.022l0.083-0.067l0.014,0.08l0.534,0.073l0.831-0.046
					l0.813,0.193l0.835,0.004l0.819,0.017l0.826-0.136l0.816-0.085l0.833,0.116l0.812-0.132l0.818-0.122l0.825-0.087l0.812-0.083
					l0.58,0.05c-0.007-0.294,0.101-0.533,0.22-0.799l0.064,0.34c-0.053,0.238-0.116,0.387-0.185,0.466l0.16,0.006l0.786-0.287
					l0.821-0.088l0.819-0.127l0.813-0.091l0.765-0.311l0.829-0.066l0.751-0.362l0.76-0.204l-0.271-0.028
					c-0.057-0.011-0.105-0.112-0.132-0.301c0.015-0.113,0.301-0.192,0.859-0.224c-0.014,0.088,0.041,0.221,0.156,0.434l0.231-0.04
					l0.795-0.192l0.758-0.311l0.708-0.412l0.833-0.137l0.68-0.48l0.522-0.128l0.038-0.273c0.163,0.013,0.307-0.136,0.479-0.395
					l0.401-0.112c0.058,0.075,0.113,0.145,0.146,0.208l0.637-0.338l0.719-0.388l0.7-0.417l0.696-0.436l0.72-0.39l0.688-0.433
					l0.644-0.513l0.604-0.548l0.097-0.073c-0.171-0.058-0.252-0.112-0.252-0.161c0.202-0.073,0.264-0.023,0.295,0.121l0.504-0.398
					l0.714-0.416l0.589-0.564l0.601-0.565l0.592-0.559l0.512-0.643l0.617-0.546l0.379-0.747l0.679-0.503l0.497-0.657l0.39-0.731
					l0.499-0.648L82.036,94.196z M83.91,90.497c-0.14-0.055-0.199-0.176-0.18-0.359l0.455-0.061l0.073,0.349L83.91,90.497z
					 M84.937,88.892l-0.019,0.168c-0.178-0.02-0.263-0.258-0.355-0.705C84.834,88.38,84.905,88.559,84.937,88.892z M86.555,83.38
					c0.275,0.032,0.458,0.145,0.564,0.348l-0.01,0.106C86.64,83.734,86.529,83.57,86.555,83.38z M87.06,81.942
					c0.288-0.372,0.436-0.559,0.564-0.541l-0.032,0.272l0.013,0.339L87.06,81.942z M90.264,74.091l-0.301-0.257l0.618-0.093
					C90.362,73.936,90.286,73.979,90.264,74.091z M91.013,72.071l0.105,0.456l-0.404,0.181l0.248-0.25L91.013,72.071z
					 M90.815,71.435l0.103,0.016c-0.041,0.335-0.266,0.513-0.665,0.479C90.494,71.62,90.671,71.46,90.815,71.435z M92.193,65.559
					l-0.011-0.335c0.316,0.094,0.365,0.137,0.354,0.269L92.193,65.559z M92.637,64.017l0.085-0.265l0.204,0.134L92.637,64.017z
					 M93.458,60.891c0.064,0.16,0.147,0.244,0.246,0.257c-0.028,0.07-0.123,0.132-0.299,0.187c-0.053-0.158-0.137-0.242-0.238-0.306
					C93.176,60.96,93.273,60.918,93.458,60.891z M92.715,62.415l0.322,0.592h-0.442C92.484,62.547,92.574,62.415,92.715,62.415z
					 M94.374,34.98l0.186-0.31c0.185,0.02,0.278,0.164,0.286,0.422c-0.047-0.006-0.103,0.114-0.16,0.408l-0.285,0.027l-0.017,0.112
					c-0.021-0.229-0.058-0.349-0.166-0.354L94.374,34.98z M94.107,33.037c-0.149,0.416-0.266,0.62-0.403,0.599l-0.007-0.388
					L94.107,33.037z M92.895,29.043c-0.018,0.108,0.052,0.169,0.251,0.196l-0.2,0.749l0.083,0.229l-0.466-0.282l0.057-0.486
					L92.895,29.043z M92.532,28.381l-0.021,0.168l-0.358-0.267l-0.018-0.281L92.532,28.381z M91.354,27.127l-0.018,0.11
					l-0.261-0.086L91.354,27.127z M90.402,25.346c-0.111,0.213-0.195,0.315-0.25,0.307C89.958,25.379,90.092,25.322,90.402,25.346z
					 M89.674,24.536c-0.015,0.076-0.132,0.133-0.359,0.181l-0.381-0.048c0.065-0.099,0.194-0.213,0.333-0.457l0.424,0.164
					L89.674,24.536z M89.389,23.231l0.046,0.501c-0.159-0.017-0.301-0.146-0.45-0.386L89.389,23.231z M82.269,16.178l0.103,0.016
					c-0.113,0.537-0.382,0.783-0.801,0.673C81.859,16.5,82.089,16.267,82.269,16.178z M80.655,16.654l-0.024,0.157
					c-0.177-0.018-0.256-0.257-0.351-0.705C80.548,16.133,80.624,16.311,80.655,16.654z M77.118,14.552L77.1,14.667l-0.286-0.261
					L77.118,14.552z M76.095,14.375l0.324,0.042L76.122,14.6l-0.277,0.021L76.095,14.375z M75.489,13.522l0.05,0.507
					c-0.156-0.026-0.311-0.152-0.453-0.389L75.489,13.522z M75.297,11.946l0.03,0.17c-0.03,0.258-0.191,0.362-0.474,0.276
					C74.89,12.102,75.03,11.958,75.297,11.946z M73.604,11.485c0.208,0.327,0.34,0.53,0.392,0.776
					c-0.487-0.07-0.682-0.191-0.799-0.208l0.065-0.493L73.604,11.485z M71.812,11.273c0.364,0.042,0.519,0.317,0.448,0.828
					l-0.5,0.041c0.019-0.229-0.077-0.338-0.215-0.402L71.812,11.273z M71.319,11.634c0,0.092,0.048,0.23,0.167,0.464l-0.457,0.108
					l-0.433-0.05c-0.071-0.008-0.117-0.106-0.134-0.292C70.477,11.742,70.764,11.669,71.319,11.634z M69.534,10.854l0.089,0.131
					c-0.079-0.013-0.259,0.08-0.529,0.269C69.03,10.928,69.242,10.824,69.534,10.854z M67.992,11.133l-0.263-0.034
					C67.875,10.9,67.981,10.981,67.992,11.133z M67.729,10.588l-0.289,0.126C67.468,10.645,67.561,10.582,67.729,10.588z
					 M66.173,9.501l0.267,0.096C66.428,9.69,66.31,9.732,66.091,9.72L65.82,9.631L66.173,9.501z M65.084,8.377
					c0.075,0.005,0.115,0.141,0.121,0.406c0.163,0.06,0.24,0.142,0.249,0.248l-0.269,0.353c-0.354-0.04-0.518-0.322-0.444-0.882
					L65.084,8.377z M63.228,8.204c0.251,0.254,0.441,0.386,0.561,0.405l-0.007,0.5l-0.397,0.057
					c-0.194-0.291-0.317-0.49-0.363-0.708L63.228,8.204z M60.316,8.457c-0.017,0.186-0.243,0.363-0.678,0.525l0.097-0.265
					c0.032-0.296,0.176-0.425,0.434-0.39L60.316,8.457z M60.063,7.869c-0.165-0.094-0.235-0.177-0.25-0.303
					C59.98,7.584,60.026,7.659,60.063,7.869z M36.936,106.816l-0.3-0.257l0.615-0.091C37.032,106.665,36.946,106.707,36.936,106.816
					z M37.785,108.035c-0.039-0.325,0.09-0.581,0.222-0.863l0.059,0.342C37.981,107.873,37.883,108.048,37.785,108.035z
					 M38.411,106.555c0.009-0.065-0.082-0.127-0.255-0.2l-0.298,0.185c0.022-0.201,0.118-0.389,0.291-0.57
					c0.577,0.118,0.864,0.244,0.835,0.432C38.983,106.444,38.789,106.497,38.411,106.555z M38.995,105.854
					c-0.053-0.233,0.083-0.303,0.322-0.356C39.294,105.699,39.181,105.815,38.995,105.854z M49.605,108.666l-0.016-0.337
					l0.395-0.122C49.874,108.526,49.766,108.681,49.605,108.666z M49.4,107.692l0.43,0.057l-0.012,0.107L49.4,107.692z
					 M51.878,108.491l-0.325-0.035c-0.103-0.122-0.32-0.282-0.657-0.473c0.044-0.132,0.201-0.182,0.51-0.195v-0.446
					c0.202-0.032,0.255,0.105,0.226,0.417c-0.023,0.188,0.043,0.255,0.187,0.29c-0.019,0.181,0.023,0.275,0.129,0.291
					L51.878,108.491z M55.792,108.181l-0.301-0.262l0.624-0.089C55.884,108.024,55.799,108.067,55.792,108.181z M57.262,107.915
					c0.007-0.064-0.073-0.126-0.254-0.197l-0.295,0.192c0.027-0.208,0.117-0.399,0.295-0.583c0.572,0.119,0.848,0.246,0.832,0.441
					C57.834,107.811,57.646,107.86,57.262,107.915z M57.852,107.211c-0.058-0.229,0.083-0.307,0.315-0.351
					C58.151,107.063,58.037,107.176,57.852,107.211z M61.697,108.234c-0.333-0.036-0.479-0.221-0.438-0.55l-0.321-0.483l0.311,0.146
					l0.448-0.056c-0.035,0.293,0.038,0.448,0.211,0.521L61.697,108.234z M61.907,106.485l0.092,0.115
					c-0.078,0-0.256,0.085-0.527,0.277C61.411,106.555,61.626,106.449,61.907,106.485z M69.74,103.846
					c-0.238-0.162-0.354-0.286-0.329-0.426c0.174,0.022,0.275-0.006,0.284-0.082l0.664,0.309l-0.008,0.109L69.74,103.846z
					 M71.213,104.302l-0.276,0.026l0.247-0.251l0.331,0.043L71.213,104.302z M74.601,101.319l0.263-0.025l-0.011,0.111
					L74.601,101.319z M81.521,93.693l-0.447-0.381l0.146-0.372l-0.018-0.007l-0.295,0.395l-0.424,0.712l-0.501,0.671l-0.66,0.526
					l-0.512,0.662l-0.451,0.694l-0.665,0.527l-0.563,0.605l-0.527,0.645l-0.682,0.485l-0.567,0.61l-0.422,0.253l0.017,0.004
					c-0.058,0.458-0.393,0.777-0.995,0.962c-0.027-0.031-0.064-0.053-0.097-0.076l-0.369,0.338l0.169-0.076l-0.014,0.106
					c-0.01,0.06-0.11,0.095-0.314,0.07l-0.71,0.299L72,101.92l-0.773,0.321l-0.655,0.526l-0.743,0.384l-0.745,0.369l-0.833,0.18
					l-0.61,0.384c0.377,0.099,0.508,0.188,0.497,0.276l-0.011,0.113c-0.283-0.032-0.435-0.164-0.498-0.388l-0.085,0.055
					l-0.748,0.368L66,104.759l-0.828,0.163l-0.762,0.327l-0.812,0.165l-0.808,0.23l-0.799,0.21l-0.784,0.291l-0.843,0.052
					l-0.785,0.292l-0.837,0.008l-0.818,0.158l-0.834,0.062l-0.719,0.019l-0.126,0.055l0.051-0.053H56.26l-0.814,0.22h-0.829
					l-0.826,0.06l-0.836-0.016l-0.832,0.043l-0.831-0.053l-0.829,0.085l-0.825-0.147l-0.831-0.031l-0.824-0.072l-0.841,0.016
					l-0.825-0.083l-0.811-0.222l-0.819-0.112l-0.828-0.038l-0.82-0.182l-0.819-0.101l-0.796-0.235l-0.823-0.142l-0.79-0.258
					l-0.86-0.02l-0.794-0.233l-0.41-0.152l0.046,0.195l-0.41,0.171l0.248-0.247l0.021-0.157l-0.27-0.099l-0.773-0.301l-0.759-0.324
					l-0.828-0.151l-0.769-0.31l-0.72-0.441l-0.822-0.178l-0.731-0.396l-0.712-0.427l-0.757-0.323l-0.799-0.261l-0.753-0.35
					L28.268,101l-0.666-0.503l-0.772-0.31l-0.671-0.507l-0.679-0.474l-0.773-0.318l-0.62-0.581l-0.743-0.375l-0.662-0.494
					l-0.587-0.591l-0.709-0.44l-0.685-0.48l-0.627-0.549l-0.504-0.672l-0.675-0.492l-0.524-0.646l-0.639-0.538l-0.605-0.56
					l-0.502-0.672l-0.581-0.594l-0.497-0.659l-0.489-0.671l-0.493-0.668l-0.609-0.58l-0.385-0.734l-0.459-0.698l-0.476-0.677
					l-0.289-0.791l-0.42-0.711L11.5,84.305l-0.333-0.76l-0.341-0.76l-0.298-0.771l-0.169-0.815l-0.402-0.748L9.79,79.642
					l-0.299-0.783L9.3,78.047l-0.052-0.835l-0.155-0.815l-0.036-0.829l-0.044-0.827l-0.02-0.826L8.886,73.09l0.041-0.83L8.826,71.43
					l0.028-0.833l0.108-0.821l-0.016-0.832l0.147-0.823l-0.041-0.827l0.065-0.825L9.3,65.654l-0.076-0.839l0.109-0.82l0.096-0.824
					l0.179-0.815l0.037-0.833l0.011-0.833l0.124-0.812l0.043-0.835l0.28-0.792l0.153-0.812l0.123-0.817l0.096-0.831l0.086-0.822
					l0.284-0.786l0.16-0.806l0.058-0.834l0.158-0.808l0.265-0.786l0.211-0.805l0.138-0.814l0.183-0.806l0.215-0.806l0.34-0.765
					l0.167-0.81l0.234-0.778l0.222-0.787l0.062-0.827l0.364-0.75l0.25-0.776l0.218-0.784l0.175-0.797l0.253-0.778l0.251-0.776
					l0.165-0.805l0.371-0.733l0.241-0.78l0.126-0.82l0.427-0.717l0.119-0.819l0.322-0.748l0.424-0.717l0.189-0.804l0.307-0.756
					l0.284-0.768l0.459-0.684l0.334-0.746l0.356-0.734l0.387-0.715l0.285-0.781L20,26.277l0.343-0.745l0.341-0.743l0.48-0.667
					l0.474-0.665l0.514-0.641l0.39-0.717l0.443-0.688l0.443-0.697l0.507-0.633l0.548-0.607l0.533-0.633l0.548-0.603l0.606-0.549
					l0.484-0.675l0.642-0.502l0.66-0.499l0.626-0.515l0.611-0.55l0.698-0.441l0.619-0.571l0.757-0.354l0.625-0.565l0.728-0.396
					l0.778-0.318l0.769-0.305l0.73-0.387l0.712-0.449l0.832-0.155l0.717-0.446l0.833-0.127l0.757-0.355l0.787-0.248l0.808-0.204
					l0.807-0.205l0.81-0.195l0.822-0.096l0.822-0.114l0.818-0.161l0.811-0.18l0.82-0.086l0.839,0.066l0.825-0.085l0.829-0.039
					l0.828-0.001l0.829-0.098l0.83,0.098l0.821-0.185l0.828,0.238l0.83,0.035l0.832-0.074l0.826,0.096l0.827,0.095l0.821,0.114
					l0.832,0.048l0.821,0.096l0.045,0.012l0.045-0.197c0.069,0.091,0.202,0.197,0.396,0.304l0.325,0.079l0.798,0.233l0.235,0.045
					c0.125-0.144,0.22-0.214,0.29-0.204l-0.024,0.258l0.312,0.056l0.808,0.181h0.851l0.8,0.221l0.335,0.092
					c0.105-0.097,0.2-0.155,0.272-0.168l0.112,0.014c-0.011,0.098-0.045,0.177-0.089,0.247l0.166,0.046l0.777,0.323l0.815,0.093
					l0.786,0.209l0.74,0.368l0.792,0.194l0.786,0.214l0.184,0.097l0.29-0.042c0,0.073-0.005,0.129,0,0.186l0.251,0.138l0.807,0.174
					l0.733,0.366l0.733,0.316l0.183-0.177l0.219,0.086c-0.056,0.06-0.118,0.113-0.172,0.157l0.584,0.15l0.735,0.372l0.755,0.315
					l0.229,0.147c-0.042-0.062-0.065-0.122-0.059-0.182c0.184,0.018,0.281-0.009,0.29-0.077l0.67,0.304l-0.011,0.108l-0.518,0.078
					l0.085,0.062l0.772,0.289l0.631,0.546l0.756,0.317l0.742,0.34l0.682,0.459l0.702,0.399l0.728,0.381l0.666,0.478l0.701,0.424
					l0.647,0.494l0.567,0.614l0.734,0.372l0.555,0.616l0.677,0.463l0.619,0.527l0.647,0.507l0.561,0.591l0.643,0.516l0.519,0.63
					l0.573,0.58l0.47,0.602c0.275,0.092,0.417,0.178,0.402,0.267l-0.141,0.074l0.272,0.356l0.413,0.704l0.146,0.135l0.112-0.055
					c0.201,0.205,0.361,0.43,0.473,0.666c0.272,0.198,0.395,0.326,0.395,0.381c0.148,0.019,0.237-0.101,0.319-0.349l0.266,0.082
					c-0.006,0.102-0.247,0.224-0.708,0.364c0.015-0.112-0.043-0.19-0.166-0.232l0.166,0.294l0.397,0.709l0.479,0.667l0.387,0.576
					l0.043-0.032l0.036,0.174l0.255,0.744l0.446,0.705l0.327,0.769l0.323,0.771l0.195,0.803l0.293,0.791l0.116,0.824l0.201,0.806
					L94.22,36.1l0.125,0.823l0.009,0.06l0.269-0.06l-0.167,0.459l0.088,0.349l-0.026,0.845l0.146,0.815l0.135,0.827l0.147,0.813
					l0.004,0.843l0.058,0.829l0.022,0.824l-0.129,0.836l0.032,0.834l0.127,0.832l-0.207,0.823l-0.027,0.831l-0.031,0.822
					l0.042,0.839l-0.241,0.814l-0.005,0.837l-0.151,0.814l-0.066,0.83l-0.172,0.815v0.086l0.106-0.032l0.264,0.083
					c-0.012,0.097-0.126,0.138-0.353,0.128l-0.009-0.006l0.024,0.587l-0.307,0.787l-0.007,0.147h0.009
					c0,0.018-0.009,0.024-0.009,0.035l-0.019,0.662L93.8,56.757l-0.29,0.795l-0.131,0.82l-0.201,0.803l-0.124,0.827l-0.136,0.818
					l-0.194,0.811l-0.291,0.783L92.149,63.2l-0.055,0.84l-0.275,0.79l-0.266,0.786l-0.074,0.406c0.098-0.084,0.184-0.115,0.279-0.08
					l-0.181,0.596l-0.172-0.103l-0.171,0.819l-0.169,0.362l0.208,0.051l-0.022,0.16c-0.099-0.032-0.174-0.06-0.24-0.08l-0.127,0.263
					l-0.077,0.84l-0.251,0.791l-0.169,0.369c0.104,0.071,0.189,0.122,0.247,0.132v0.492l-0.398,0.068
					c-0.013-0.021-0.026-0.042-0.035-0.062l-0.028,0.619l-0.364,0.755l-0.05,0.846l-0.389,0.754l-0.041,0.21
					c0.098-0.261,0.216-0.393,0.35-0.379l0.148,0.078c-0.136,0.234-0.303,0.39-0.521,0.419l-0.092,0.487l-0.299,0.785L88.8,76.037
					l-0.328,0.772l-0.154,0.822l-0.278,0.792l-0.309,0.766l-0.205,0.812l-0.274,0.516l0.084,0.072
					c-0.009,0.111-0.106,0.217-0.262,0.322l-0.222,0.61l-0.281,0.782l-0.264,0.785l-0.375,0.742l-0.356,0.753l-0.256,0.781
					l-0.368,0.752l-0.354,0.743l-0.015,0.029l0.196-0.287l0.059,0.395l-0.264-0.084L84.3,87.635l-0.393,0.733l-0.406,0.724
					l-0.419,0.718l-0.32,0.766l-0.082,0.122l0.234,0.226l-0.02,0.163l-0.314-0.231l-0.274,0.416l-0.216,0.299l0.018,0.088
					c-0.006,0.04-0.052,0.063-0.131,0.058l-0.156,0.227l-0.341,0.58c0.164,0.021,0.285-0.005,0.417-0.055
					c0.089,0.103,0.155,0.323,0.206,0.633c-0.074-0.011-0.131,0.11-0.164,0.375C81.684,93.443,81.545,93.514,81.521,93.693z"/>
				<path fill="#999999" d="M40.145,18.549l0.194,0.499l0.447,0.301l0.388,0.369l0.505,0.171l0.413,0.076l0.419-0.028l0.327,0.52
					l0.28,0.523l0.276,0.54l0.289,0.566l-0.526,0.368l-0.376,0.488l-0.28,0.549l-0.044,0.57l-0.014,0.104l0.096-0.007l0.798,0.046
					l0.534,0.275l0.436,0.385l0.258,0.527l0.008,0.577l-0.379,0.373l-0.105,0.542l0.08,0.565l0.289,0.478l0.378,0.41l0.219,0.147
					l0.509,0.231l0.513,0.222l0.472,0.314l0.538,0.148l0.473,0.314l0.533,0.167l0.516,0.226l0.503,0.235l0.554,0.128l0.501,0.25
					l0.541,0.133l0.531,0.171l0.531,0.175l0.548,0.116l0.527,0.168l0.542,0.151l0.501,0.271l0.566,0.065l0.538,0.16l0.509,0.23
					l0.554,0.109l0.55,0.132l0.518,0.092l-0.206-0.368c-0.381-0.3-0.59-0.538-0.64-0.72l-0.21-0.072l-0.534-0.16l-0.533-0.146
					l-0.556-0.104l-0.399-0.227c-0.019,0.014-0.032,0.018-0.054,0.03l0.006-0.058l-0.052-0.026l-0.533-0.145l-0.545-0.138
					l-0.535-0.173l-0.514-0.239L51.3,29.961l-0.548-0.16l-0.493-0.243l-0.531-0.206l-0.503-0.224l-0.482-0.286l-0.527-0.194
					l-0.467-0.295l-0.417-0.324l0.5-0.102l0.553,0.049l0.542,0.071l0.551,0.016l0.555,0.031l0.53,0.156l0.554-0.004l0.522,0.194
					l0.544,0.043l0.539,0.124l0.53,0.144l0.553,0.044l0.522,0.176l0.551,0.072l0.541,0.12l0.529,0.129l0.551,0.077l0.526,0.139
					l0.544,0.125l0.467,0.24c-0.018-0.063-0.03-0.127-0.051-0.211l0.378,0.198l-0.006,0.043l0.325,0.031l0.54,0.155l0.517,0.227
					l0.546,0.115l0.548,0.134l0.414,0.094l0.007-0.031l0.014,0.04l0.107,0.024l0.513,0.228l0.532,0.172l0.563,0.067l0.538,0.173
					l0.514,0.226l0.547,0.128l0.529,0.198l0.51,0.238l0.548,0.157l0.516,0.185l0.513,0.231l0.517,0.235l0.464,0.314l0.344,0.465
					l-0.374,0.152l-0.004,0.026l0.292,0.037l0.016,0.255l-0.563,0.179l-0.41,0.047c-0.129-0.093-0.198-0.192-0.203-0.28
					l-0.117,0.033c-0.095,0.065-0.146,0.096-0.211,0.085l-0.002-0.051c-0.091-0.133-0.158-0.244-0.216-0.345l-0.384-0.032
					l-0.566-0.021l-0.537-0.095l-0.542-0.158l-0.522-0.153L63.61,33.37l-0.543-0.095l-0.54-0.138l-0.539-0.1l-0.539-0.15h-0.002
					l0.011,0.158c-0.109-0.016-0.215-0.096-0.323-0.237l-0.233-0.053l-0.524-0.159l-0.55-0.056l-0.516-0.236L58.76,32.22
					l-0.288-0.082c0,0.023,0.008,0.05,0,0.082l-0.277-0.137c0-0.012,0-0.016,0-0.023l-0.51-0.097l-0.542-0.142l-0.118-0.022
					l0.175,0.664l-0.078,0.231l0.121,0.022l0.528,0.209l0.546,0.149l0.57,0.038l0.554,0.136l0.538,0.178l0.568,0.079l0.548,0.131
					l0.086,0.023c0.013-0.013,0.023-0.023,0.036-0.041l-0.036,0.023l-0.016-0.301l0.358-0.106l-0.014,0.198l-0.124,0.074
					l0.303,0.112l-0.015,0.143c0,0.021-0.015,0.033-0.025,0.05l0.01,0.002c0.053-0.021,0.125-0.031,0.202-0.04l-0.003,0.058
					l0.343,0.042l0.554,0.091l0.554,0.108l0.56,0.083l0.552,0.116l0.566,0.051l0.557,0.123l0.555,0.082l0.554,0.107l0.562,0.035
					h0.569l0.558,0.054l0.559,0.089l0.268,0.042l0.12-0.125l0.296,0.029l0.062,0.119l0.378-0.052l0.177-0.021l0.578-0.142
					l0.434-0.421l0.104-0.204c-0.048,0.005-0.123,0.014-0.21,0.014c-0.147-0.415-0.067-0.542,0.069-0.542
					c-0.019,0.1,0.068,0.229,0.23,0.373l0.088-0.172l-0.167-0.383l-0.038-0.08l-0.015-0.099l0.397-0.438l0.152-0.19l-0.251-0.261
					c0.226-0.062,0.325-0.027,0.386,0.083l0.074-0.092l0.47-0.354l0.498-0.295l0.507-0.299l0.587-0.076l0.568-0.137l0.134-0.205
					l-0.2-0.152c-0.044,0.034-0.089,0.065-0.145,0.087l0.019-0.175l-0.306-0.231l-0.205-0.112l0.184-0.157l0.465-0.252l0.414-0.334
					l0.021-0.015c-0.135-0.037-0.159-0.195-0.238-0.383l0.282,0.089l-0.03,0.281l0.382-0.312l0.496-0.175l0.47-0.224l0.054-0.034
					l0.048,0.009l0.717,0.39l0.562,0.032l0.564-0.018l0.51-0.227l0.395-0.404l0.287-0.473l0.047-0.563l-0.207-0.527l-0.378-0.41
					l-0.414-0.365l-0.519-0.193l-0.389-0.087l-0.058,0.163l-0.023,0.183l0.192,0.006l0.45,0.23l0.306,0.652l-0.265,0.442
					l-0.311,0.372l-0.575,0.315l-0.675,0.007l-0.431-0.302l-0.24-0.64l0.161-0.47l0.322-0.388l0.608-0.227h0.233
					c0.062-0.155,0.13-0.286,0.185-0.373l-0.045-0.008l-0.549,0.133l-0.519,0.185l-0.365,0.401L75.815,27.1l-0.07,0.619l0.226,0.604
					l0.185,0.14l-0.217,0.053l-0.607,0.097l-0.616-0.002h-0.608h-0.579l-0.456-0.21l-0.263-0.417l-0.016-0.498l0.315-0.77
					l-0.396-0.134l-0.561,0.188l-0.598,0.167h-0.618l-0.059-0.014v0.014l-0.354,0.053l0.149-0.119l-0.335-0.097l-0.083,0.032v-0.075
					l-0.136-0.391H70.1c0,0,0.007-0.017,0.007-0.026l-0.038-0.102l-0.06-0.549v-0.551l0.024-0.097
					c-0.187-0.228-0.277-0.377-0.309-0.52l0.221-0.167c0.071,0.063,0.135,0.123,0.199,0.173l0.144-0.459v-0.124l0.133,0.006
					l0.208,0.076l0.733,0.176l0.142-0.018c-0.125-0.228,0.055-0.324,0.357-0.398l-0.334,0.393l0.334-0.043l0.468-0.198l0.34-0.1
					l0.164-0.068l0.297-0.362l0.291-0.389l0.197-0.447l-0.005-0.5l-0.105-0.582l-0.148-0.203c-0.124,0.24-0.229,0.378-0.341,0.392
					c-0.184-0.025-0.35-0.159-0.551-0.423c-0.054-0.024,0.135-0.164,0.551-0.389l-0.271-0.284l-0.46-0.374l-0.564-0.226
					l-0.743-0.122l-0.503,0.093l-0.486,0.116l-0.406,0.292l-0.381,0.305l-0.349,0.354l-0.109,0.488l-0.022,0.491l0.12,0.606
					l0.3,0.552l0.466,0.428l0.113,0.057l-0.104,0.09l-0.348,0.42l-0.428,0.352l-0.108,0.069c-0.047,0.407-0.319,0.573-0.82,0.597
					c0.11-0.13,0.208-0.24,0.297-0.328l-0.367,0.098l-0.526,0.137l-0.545,0.084l-0.524-0.127l-0.358-0.499l-0.125-0.633
					l-0.093-0.647l-0.625-0.256l-0.475,0.236l-0.464,0.221l-0.476,0.254l-0.522,0.065l-0.536,0.019l-0.051-0.104l-0.461-0.131
					l-0.368-0.308l-0.303-0.366l-0.188-0.481l-0.066-0.511l0.013-0.515l0.028-0.52l0.13-0.505l0.034-0.226l0.151,0.17l0.502,0.24
					l0.397,0.198l-0.015-0.138l0.301-0.063c-0.009,0.115,0.026,0.198,0.075,0.269l0.49,0.012l0.485-0.021l0.499-0.066l0.425-0.266
					l0.407-0.278l0.262-0.426l0.185-0.462l-0.037-0.494l-0.09-0.589l-0.321-0.507l-0.383-0.458l-0.5-0.346l-0.567-0.122l0.261,0.261
					l-0.022,0.193c-0.27,0.019-0.295-0.049-0.279-0.182c-0.091-0.113-0.154-0.22-0.203-0.311l-0.071-0.011L63.1,16.609l0.104-0.197
					l0.366-0.517l0.035-0.115l-0.309,0.115c0.04-0.279,0.182-0.455,0.429-0.53l0.03-0.089l-0.033-0.605l-0.323-0.511l-0.485-0.35
					l-0.499-0.36l-0.417,0.037l-0.588,0.059l-0.527,0.251l-0.467,0.346l-0.281,0.356l-0.177,0.426l-0.029,0.47l0.021,0.109
					l-0.038-0.025l-0.389-0.017c0,0.006,0,0.006,0,0.006l-0.362,0.116c-0.034-0.054-0.058-0.092-0.084-0.138l-0.517-0.048
					l-0.536,0.164l-0.463,0.284l-0.393,0.376l-0.361,0.416l-0.184,0.535v0.563l0.137,0.521l0.165,0.518l0.36,0.419l0.243,0.216
					l-0.058-0.141c0.348-0.061,0.529,0.065,0.657,0.326l-0.45-0.049l0.021,0.01l0.485,0.261l0.511,0.196l0.802,0.117l0.172-0.02
					l-0.201,0.549l-0.282,0.507l-0.359,0.431l-0.438,0.374l-0.548,0.129l-0.576-0.014l-0.081-0.09l-0.569-0.238l-0.435-0.453
					l-0.299-0.547l-0.258-0.548l-0.072-0.066l-0.484-0.01l-0.471-0.054l-0.076,0.013l-0.279,0.503l-0.44,0.384l-0.442,0.35
					l-0.49-0.263l-0.476-0.304l-0.427-0.381l-0.24-0.521l-0.218-0.525l-0.237-0.549l0.508-0.082l0.418-0.253l0.422-0.24l0.249-0.413
					l0.362-0.45l0.015-0.572l-0.024-0.557l-0.125-0.54l-0.348-0.441l-0.353-0.419l-0.452-0.326l-0.766-0.289l-0.541-0.119
					l-0.554,0.077l-0.535,0.118l-0.501,0.193l-0.503,0.231l-0.377,0.412l-0.263,0.515l-0.089,0.569l0.027,0.576l0.198,0.525
					l0.323,0.452l0.428,0.343l0.407,0.386l0.782,0.229l0.129,0.061l-0.213,0.565l-0.227,0.559l-0.307,0.519l-0.446,0.431
					l-0.517-0.297l-0.465-0.306l-0.459-0.327l-0.337-0.455l-0.031-0.026l-0.749-0.08l-0.04,0.108l-0.037,0.453l-0.118,0.43
					l-0.316,0.432l-0.546-0.022l-0.502-0.17l-0.458-0.277l-0.45-0.295l-0.393-0.375l0.463-0.442l0.346-0.545l0.04-0.538
					l-0.111-0.521l-0.25-0.479l-0.404-0.352l-0.456-0.275l-0.489-0.191l-0.519-0.119l-0.532,0.036l-0.501,0.166L40.6,16.618
					l-0.33,0.418l-0.209,0.482v0.521L40.145,18.549z M60.198,33.124c0.069-0.227,0.145-0.337,0.291-0.316l-0.038,0.295L60.438,33.2
					L60.198,33.124z M79.393,27.181l-0.096,0.384l-0.033,0.244l-0.168-0.222L79.393,27.181z M77.917,28.192l0.49-0.289
					c0.232,0.032,0.409,0.184,0.488,0.511c-0.301,0.414-0.524,0.603-0.534,0.681l-0.279-0.13c0.03-0.263-0.058-0.404-0.251-0.424
					L77.917,28.192z M63.854,20.265c0.198-0.146,0.311-0.086,0.299-0.011L63.854,20.265z M64.195,19.692l0.076-0.236l0.185,0.123
					L64.195,19.692z M63.961,20.581l0.261-0.069l0.038,0.11L63.961,20.581z M64.811,20.186l-0.613,0.074l0.289-0.265l0.334,0.089
					L64.811,20.186z M64.631,19.612l-0.373-0.243l0.309-0.067L64.631,19.612z M64.353,18.177l0.096,0.066
					c-0.009,0.082-0.043,0.138-0.083,0.188l0.189,0.356l-0.401,0.006c-0.023-0.104-0.033-0.188-0.041-0.249
					c-0.019,0-0.028,0.001-0.051,0.001l0.028-0.248C64.095,18.238,64.185,18.205,64.353,18.177z M57.341,18.205
					c-0.123-0.045-0.18-0.154-0.158-0.317l0.408-0.053l0.065,0.305L57.341,18.205z M58.339,18.605l-0.09-0.036l-0.552-0.518
					l-0.148-0.476l0.207-0.445l0.281-0.449c-0.04-0.099-0.075-0.227-0.108-0.401c0.177,0.023,0.254,0.106,0.298,0.261l0.301-0.21
					l0.591-0.026l0.085,0.09l0.21,0.196c0.113-0.117,0.218-0.201,0.304-0.243l0.096,0.009c-0.038,0.203-0.119,0.363-0.206,0.472
					l0.086,0.474l-0.213,0.532l-0.257,0.436l-0.378,0.342L58.339,18.605z M58.941,19.448l-0.146-0.421
					c0.005-0.066,0.209-0.088,0.647-0.016C59.426,19.165,59.256,19.31,58.941,19.448z M46.397,25.192l-0.409-0.29l-0.396-0.301
					l0.396-0.234l0.376-0.312l0.251-0.158l-0.009,0.549l0.062,0.556l0.061,0.597L46.397,25.192z M63.416,30.935l0.024-0.245
					l0.216,0.321L63.416,30.935z M69.93,33.198l-0.499,0.064l-0.027,0.026l-0.472-0.295l-0.479-0.256l-0.019-0.012
					c-0.053,0.076-0.097,0.12-0.161,0.128l-0.247-0.029l-0.343-0.039c0.046-0.121,0.083-0.231,0.135-0.339l-0.39-0.13l-0.445-0.339
					l-0.515-0.199l-0.324-0.105c-0.109,0-0.18,0.039-0.18,0.117l-0.418-0.248c-0.103-0.029-0.163-0.068-0.291-0.136l0.062-0.054
					l-0.376-0.196l-0.061-0.019l-0.248,0.047c-0.025-0.046-0.015-0.095,0.011-0.138l-0.22-0.083l-0.032-0.005h-0.376l0.097-0.083
					l-0.225-0.06l-0.501-0.232l-0.528-0.166l-0.521-0.175l-0.404-0.177c-0.072,0.022-0.14,0.027-0.217,0.022
					c0.025-0.031,0.033-0.056,0.048-0.083l-0.479-0.103l-0.518-0.187l-0.53-0.156l-0.543-0.102l-0.524-0.189l-0.531-0.165
					l-0.543-0.102h-0.059c-0.083,0.094-0.134,0.161-0.143,0.198l-0.279-0.134c0.005-0.073,0.005-0.131,0-0.19l-0.225-0.083
					l-0.565-0.043l-0.513-0.223l-0.549-0.083l-0.542-0.141l-0.531-0.152l-0.55-0.057l-0.535-0.185l-0.554-0.07l-0.535-0.109
					l-0.542-0.108l-0.556-0.059l-0.542-0.11l-0.542-0.083l-0.534-0.205l-0.561,0.005l-0.547-0.086l-0.542-0.146l-0.553-0.013
					l-0.549-0.022l-0.556,0.008l-0.185-0.2l0.048-0.211l0.538-0.079l0.555,0.035l0.546,0.099h0.567l0.548,0.072l0.548,0.124
					l0.549,0.032l0.56,0.058l0.55,0.097l0.556,0.08l0.542,0.122l0.549,0.059L53.5,27.34l0.544,0.119l0.031,0.013v-0.007
					c0.159-0.065,0.313-0.085,0.5-0.065l0.04,0.215l0.519,0.081l0.55,0.057l0.551,0.133l0.524,0.171l0.542,0.184l0.229,0.016
					l0.413-0.253c0.198,0.027,0.348,0.149,0.441,0.376l0.025,0.01l0.539,0.162l0.547,0.123l0.53,0.183l0.54,0.161l0.53,0.201
					l0.547,0.099l0.427,0.231l0.126-0.058l0.017,0.113l0.482,0.111l0.206,0.084c-0.015-0.239-0.063-0.284-0.155-0.338l0.444,0.053
					c0.221,0.142,0.321,0.242,0.312,0.34l-0.195-0.077l-0.345,0.042l0.252,0.104l0.53,0.184l0.558,0.104l0.502,0.274l0.543,0.148
					l0.508,0.242l0.565,0.115l0.523,0.194l0.516,0.231l0.491,0.288l0.192,0.074c0.155-0.27,0.275-0.405,0.347-0.395l-0.044,0.446
					c-0.009,0.019-0.009,0.035-0.009,0.052l0.045,0.01l0.539,0.167l0.477,0.318l0.52,0.21l0.064,0.008l0.031,0.055L69.93,33.198z
					 M49.432,25.001l0.465-0.133l0.48-0.177l0.5-0.109l0.486-0.152l0.482-0.16l0.485,0.228l0.379,0.381l0.462,0.26l0.48,0.238
					l0.478,0.3l-0.492,0.134l-0.444,0.133l-0.424,0.181l-0.571,0.123l-0.55,0.184l-0.449-0.29l-0.416-0.329l-0.474-0.243
					l-0.434-0.309L49.432,25.001z M55.934,27.263l0.513-0.488l0.067,0.262c-0.1,0.284-0.238,0.471-0.414,0.546L55.934,27.263z
					 M57.305,25.836l-0.144,0.377l-0.013,0.096l0.054-0.008l0.504-0.158l0.522-0.084l0.515-0.118l0.504-0.126l0.461,0.317
					l0.358,0.463l0.451,0.341l0.465,0.338l0.248,0.22l-0.047-0.332c0.029-0.291-0.016-0.447-0.151-0.466
					c0.029-0.229-0.025-0.353-0.148-0.368l0.263-0.116l0.241,0.032c-0.014,0.145,0.168,0.281,0.547,0.413l-0.028,0.246l-0.511,0.092
					l0.101,0.456l-0.245,0.064l0.185,0.159l-0.58,0.078l-0.542,0.108l-0.52,0.141l-0.549,0.047l-0.542,0.109l-0.403-0.35
					l-0.367-0.394l-0.438-0.31l-0.382-0.375L56.704,26.4l0.236-0.047C57.089,26.003,57.209,25.823,57.305,25.836z M57.232,25.624
					l0.077-0.236l0.2,0.023C57.497,25.535,57.406,25.615,57.232,25.624z M61.655,28.12l-0.133,0.281
					C61.411,28.133,61.497,28.094,61.655,28.12z M62.144,27.435c-0.018,0.187-0.101,0.292-0.237,0.327
					C61.77,27.637,61.903,27.55,62.144,27.435z M67.934,29.647l0.373,0.467l-0.502,0.024l-0.519,0.064l-0.528-0.025l-0.52,0.035
					l-0.514,0.025l-0.499-0.035l-0.344-0.309c-0.069,0.07-0.134,0.099-0.202,0.096l-0.138-0.068l-0.701,0.012L63.6,29.859
					l-0.485-0.963c0.146-0.17,0.336-0.238,0.617-0.21l-0.207-0.183l-0.384-0.454l0.508-0.006l0.52-0.059l0.523,0.015l0.514-0.015
					l0.523-0.044l0.547-0.078l0.21,0.33l0.122-0.068c-0.022,0.142,0.205,0.315,0.68,0.535l-0.044,0.329l0.266,0.231L67.934,29.647z
					 M67.978,29.141c0.256-0.336,0.393-0.496,0.505-0.484l-0.031,0.246l0.021,0.298L67.978,29.141z M68.019,30.843
					c-0.421-0.088-0.519-0.234-0.493-0.407c0.24,0.03,0.415,0.129,0.51,0.311L68.019,30.843z M67.285,31.09l-0.306,0.061
					c0.015-0.105,0.079-0.217,0.188-0.331L67.285,31.09z M63.054,26.952l0.259-0.118l0.182,0.165L63.054,26.952z M68.637,29.358
					l0.343,0.043l-0.048,0.347l-0.099,0.088l-0.25-0.032L68.637,29.358z M69.876,30.662c0.171-0.138,0.244-0.057,0.247,0.03
					L69.876,30.662z M70.01,33.673c0.217-0.045,0.292,0.005,0.279,0.082L70.01,33.673z M71.134,31.674l-0.49,0.071l-0.322,0.072
					l0.458,0.45l-0.027,0.202l-0.25,0.019l-0.071-0.267c-0.12-0.143-0.189-0.271-0.215-0.39l-0.062,0.021l-0.498,0.004l0.229-0.188
					l0.311-0.422l0.314-0.415l0.239-0.466l0.052-0.153l0.149,0.083l0.124,0.497l0.237,0.36l0.269,0.327l0.075,0.19L71.134,31.674z
					 M70.997,30.045l0.056,0.359C70.997,30.396,70.961,30.293,70.997,30.045z M73.955,30.412l-0.165,0.523
					c-0.177-0.02-0.315,0.017-0.414,0.104c0.021-0.163,0.006-0.297-0.051-0.413l0.249-0.36l0.263-0.12
					C73.891,30.146,73.938,30.238,73.955,30.412z M73.822,28.648l0.389,0.045c0.186,0.023,0.287,0.135,0.312,0.333l-0.269,0.125
					c-0.256-0.034-0.299,0.013-0.31,0.114l-0.362-0.298C73.604,28.796,73.684,28.687,73.822,28.648z M72.5,29.238l-0.12-0.268
					C72.439,28.973,72.478,29.062,72.5,29.238z M72.26,27.055c-0.024,0.23-0.148,0.328-0.388,0.303
					C71.898,27.181,72.008,27.072,72.26,27.055z M71.159,27.472c0.348,0.038,0.639,0.144,0.864,0.303l-0.569,0.176l-0.284-0.131
					c-0.118,0.136-0.155,0.179-0.221,0.172C70.984,27.742,71.047,27.627,71.159,27.472z M71.947,20.226l0.209,0.276l-0.296,0.01
					C71.843,20.271,71.898,20.216,71.947,20.226z M69.751,22.957l-0.359-0.313l-0.236-0.427l0.046-0.586l0.241-0.531l0.323-0.363
					l0.39-0.305l0.49-0.007l0.482,0.011l0.305,0.073l0.38,0.308l0.16,0.468v0.48l0.081,0.017c0.271-0.064,0.414,0.119,0.498,0.464
					l-0.227,0.217c-0.01,0.093,0.061,0.153,0.227,0.18l-0.134,0.333l-0.292-0.18l-0.284-0.043c-0.127-0.006-0.21-0.061-0.281-0.143
					l-0.169,0.148l-0.408,0.267l-0.474,0.108l-0.477-0.092L69.751,22.957z M69.33,26.151l-0.011,0.095
					c-0.136-0.015-0.197-0.173-0.251-0.478C69.292,25.851,69.346,25.975,69.33,26.151z M68.799,27.183l-0.254,0.071l-0.116-0.266
					l0.251-0.021L68.799,27.183z M68.792,25.751l-0.06-0.306l0.26-0.121l-0.079,0.292l0.053,0.31l-0.406,0.099l-0.17-0.273H68.792z
					 M67.153,26.151l-0.023,0.146l-0.232-0.18L67.153,26.151z M65.926,25.364c-0.212-0.022-0.361-0.012-0.5-0.012L65.413,25.1
					C65.774,25.146,65.884,25.229,65.926,25.364z M64.976,25.397l-0.32,0.213c0.019-0.219,0.082-0.341,0.099-0.488L64.976,25.397z
					 M63.605,24.334l0.269,0.233l-0.129,0.229l-0.022,0.252l-0.165,0.079c-0.187-0.09-0.276-0.22-0.261-0.381l0.071-0.491
					L63.605,24.334z M63.021,17.143l0.114,0.037l0.47,0.374l-0.006,0.685l-0.228,0.651l-0.256,0.524l-0.389,0.464l-0.581-0.061
					l-0.132-0.014l-0.491-0.275l-0.292-0.488v-0.567l0.022-0.112l-0.14-0.038l0.035-0.295l0.203-0.042l0.229-0.435l0.444-0.29
					l0.482-0.184L63.021,17.143z M63.021,14.517c-0.098,0.249-0.182,0.378-0.241,0.36c-0.098-0.104-0.144-0.164-0.284-0.177
					L63.021,14.517z M60.798,15.682l-0.074-0.417l0.061-0.419l0.324-0.386l0.43-0.248l0.498-0.023l0.102-0.03l0.104,0.617
					l-0.041,0.581l-0.268,0.587l-0.596,0.287l-0.07-0.079L60.798,15.682z M57.883,23.158l-0.082,0.286
					c-0.166-0.014-0.258-0.077-0.285-0.18l0.033-0.247L57.883,23.158z M56.917,22.039l0.18,0.173
					c-0.118,0.452-0.226,0.666-0.375,0.651v-0.401C56.794,22.389,56.846,22.246,56.917,22.039z M56.713,22.916l0.015,0.298
					l-0.393-0.046C56.353,23.093,56.462,23.008,56.713,22.916z M56.052,22.234l0.146,0.021c-0.067,0.131-0.165,0.219-0.289,0.262
					L56.052,22.234z M55.9,22.616l0.115,0.315c-0.087,0.191-0.169,0.279-0.238,0.268l-0.119-0.268L55.9,22.616z M55.601,22.234
					l0.096,0.012c-0.053,0.191-0.114,0.283-0.24,0.262L55.601,22.234z M50.034,17.604l-0.24-0.037l-0.496-0.229l-0.292-0.463
					l-0.145-0.506l0.031-0.488l0.189-0.465l0.72-0.201h0.246l0.495,0.222l0.355,0.436l0.093,0.542l-0.036,0.482l-0.209,0.456
					L50.034,17.604z M45.641,22.548l0.564-0.014l0.549,0.075l0.552,0.04l0.557,0.032l0.572-0.011l0.533,0.166l0.563,0.033
					l0.559,0.01l0.559,0.06l0.542,0.125l0.553,0.08l0.55,0.044l0.545,0.133l0.55,0.081l0.549,0.105l0.538,0.159l0.564,0.054
					l0.536,0.143l0.136,0.029c0.035-0.048,0.046-0.093,0.053-0.144l0.222,0.18l0.023,0.029l0.112,0.021l0.556,0.068l0.539,0.168
					l0.537,0.15l0.561,0.077l0.548,0.098l0.524,0.209l0.546,0.028l0.506,0.228l0.54,0.083l0.52,0.163l0.502,0.179l0.542,0.083
					l0.504,0.222l0.533,0.114l0.516,0.164l0.149,0.051c0.037-0.029,0.066-0.04,0.107-0.04v0.082l0.256,0.092l0.529,0.119
					l0.509,0.186l0.514,0.178l0.47,0.303l0.538,0.112l0.503,0.203l0.149,0.084l-0.185-0.267l0.147,0.015l-0.007-0.007
					c0.014,0.007,0.031,0.007,0.043,0.007l0.16,0.024l0.388,0.047c-0.189,0.143-0.294,0.223-0.347,0.298l0.12,0.074l0.516,0.172
					l0.511,0.196l0.511,0.182l0.465,0.294l0.491,0.233l0.385,0.103l0.063-0.189l0.08,0.155c0,0.025-0.008,0.043-0.011,0.063
					l0.011,0.008l0.497,0.23l0.46,0.292l0.52,0.2l0.345,0.192l0.098-0.3l0.145,0.066c-0.018,0.141-0.053,0.243-0.109,0.31
					l0.027,0.063l0.037,0.062l-0.262,0.75L72.6,30.699h-0.047l-0.012-0.026l-0.499-0.246l-0.461-0.311l-0.478-0.274l-0.482-0.283
					l-0.499-0.225L69.6,29.141l-0.498-0.251h-0.003c-0.083,0.084-0.195,0.121-0.349,0.104l0.119-0.243l-0.25-0.144l-0.484-0.277
					l-0.227-0.063c-0.08,0.048-0.174,0.094-0.283,0.135l0.06-0.188l-0.093-0.024l-0.526-0.197l-0.499-0.238l-0.516-0.19
					l-0.504-0.229l-0.525-0.213l-0.501-0.227l-0.542-0.125l-0.252-0.155l-0.148,0.012l-0.287-0.088l0.126-0.083l-0.335-0.08
					l-0.215,0.049c0.019-0.037,0.035-0.069,0.049-0.1l-0.479-0.192l-0.521-0.175l-0.551-0.095l-0.505-0.25l-0.539-0.114l-0.51-0.197
					l-0.56-0.062l-0.543-0.125l-0.527-0.148l-0.525-0.212l-0.553-0.089l-0.551-0.063l-0.2-0.078l0.094,0.159
					c-0.105,0.036-0.322,0.275-0.627,0.671l-0.109-0.365l0.042-0.343l-0.095-0.315l-0.175-0.03l-0.544-0.087l-0.553-0.083
					l-0.53-0.153l-0.561-0.05l-0.535-0.144l-0.546-0.073l-0.551-0.043l-0.545-0.125l-0.547-0.097l-0.558-0.043l-0.55-0.018
					l-0.544-0.108l-0.557-0.039l-0.545-0.093l-0.556,0.024l-0.549-0.074l-0.555,0.041l-0.547-0.06l-0.542-0.066l-0.018-0.044
					l0.043-0.436L45.641,22.548z M41.268,17.296l0.393-0.034l0.454,0.304l0.316,0.439l0.025,0.755l-0.35,0.372l-0.389-0.117
					l-0.016,0.032l-0.498-0.224l-0.337-0.447l0.04-0.782L41.268,17.296z"/>
				<path fill="#999999" d="M79.146,42.15l-0.583-0.174l-0.587-0.185l-0.601-0.142l-0.6-0.135l-0.572-0.232l-0.593-0.156h0
					c0.051,0.053,0.086,0.101,0.086,0.157l-0.265,0.358c-0.317-0.036-0.469-0.246-0.466-0.67L74.4,40.903l-0.595-0.158l-0.014-0.006
					c0.092,0.073,0.174,0.105,0.236,0.121l-0.003,0.495l-0.396,0.065c-0.195-0.292-0.319-0.498-0.356-0.707l0.104-0.139
					l-0.148-0.056l-0.586-0.184l-0.604-0.128l-0.577-0.221l-0.608-0.085l-0.596-0.148l-0.579-0.197l-0.347-0.083
					c0.004,0.058,0.018,0.118,0.028,0.198l-0.402,0.507c0.036-0.38,0.092-0.626,0.163-0.747l-0.051-0.012l-0.593-0.132l-0.575-0.256
					l-0.571-0.222l-0.632-0.016l-0.551-0.298l-0.625-0.076l-0.579-0.213l-0.596-0.141l-0.605-0.115l-0.574-0.228l-0.617-0.079
					l-0.569-0.236l-0.12-0.031c-0.074,0.057-0.118,0.116-0.118,0.163l-0.044,0.277l0.325,0.146c0.265,0.237,0.377,0.512,0.346,0.821
					l-0.236-0.013c0,0.031,0.005,0.054-0.001,0.078c-0.565,0.025-0.885,0.076-1.192,0.186l0.005,0.385l-0.428-0.107
					c0.206-0.123,0.345-0.292,0.489-0.639l-0.177-0.021c-0.142-0.016-0.246,0.173-0.293,0.572l-0.363-0.209l0.272-0.857l0.786,0.364
					c0.022-0.006,0.046-0.018,0.07-0.023l0.239-0.65l-0.601-0.295l-0.212,0.069l0.046-0.154l-0.129-0.056l0.202-0.344l-0.046-0.01
					l-0.612-0.093l-0.595-0.182l-0.594-0.145l-0.567-0.264L57.8,36.337l-0.548-0.298l-0.614-0.116l-0.609-0.088l-0.573-0.232
					l-0.62-0.076l-0.553-0.304l-0.277-0.045l0.01,0.246l-0.312-0.147c0.016-0.043,0.061-0.086,0.132-0.121l-0.166-0.021
					l-0.593-0.154l-0.611-0.1l-0.563-0.276l-0.607-0.1l-0.578-0.215l-0.597-0.143l-0.59-0.176l-0.61-0.102l-0.568-0.25l-0.616-0.08
					l-0.593-0.153l-0.571-0.228l-0.583-0.204l-0.59-0.184l-0.6-0.154l-0.587-0.161l-0.596-0.178l-0.61-0.089l-0.59-0.173
					l-0.593-0.185l-0.603-0.119l-0.604-0.128l-0.577-0.226l-0.588-0.173l-0.595-0.16l-0.622-0.091l-0.582-0.188l-0.604-0.148
					l-0.561-0.265l-0.604-0.115l-0.613-0.121l-0.581-0.203l-0.593-0.17l-0.614-0.087l-0.567-0.262l-0.605-0.154l-0.593-0.086
					l-0.04,0.186l0.296,0.464l0.349,0.477l0.198,0.56l0.108,0.586l0.252,0.538l0.184,0.565l0.092,0.593l-0.027,0.594l-0.093,0.583
					l0.06,0.608l-0.11,0.587l-0.224,0.588l-0.117,0.613l-0.103,0.604l-0.265,0.572l-0.042,0.628l-0.292,0.564l-0.083,0.621
					l-0.144,0.599l-0.108,0.612l-0.204,0.584l-0.136,0.608l-0.13,0.608l-0.142,0.595l-0.311,0.562l-0.163,0.594l-0.009,0.644
					l-0.309,0.557l-0.084,0.612l-0.089,0.621l-0.208,0.588l-0.112,0.614l-0.255,0.576l-0.094,0.614l-0.247,0.581l-0.177,0.599
					l-0.095,0.61l-0.216,0.589l-0.132,0.6l-0.231,0.584l-0.078,0.618l-0.164,0.599l-0.146,0.605l-0.113,0.614l-0.263,0.569
					l-0.17,0.597l-0.087,0.618l-0.293,0.565l-0.054,0.626l-0.222,0.581l-0.148,0.604l-0.236,0.574l-0.13,0.628l-0.074,0.637
					l-0.261,0.583l-0.08,0.61l-0.138,0.593l-0.088,0.614l-0.222,0.565l-0.046,0.612l-0.136,0.597l-0.021,0.61l-0.106,0.603
					l-0.005,0.603l-0.13,0.606l0.107,0.615l-0.08,0.608l0.098,0.607l-0.035,0.611l0.167,0.593l0.024,0.614l0.058,0.604l0.141,0.594
					l0.103,0.602l0.314,0.544l0.076,0.617l0.282,0.541l0.231,0.566l0.261,0.545l0.211,0.577l0.416,0.465l0.322,0.504l0.324,0.516
					l0.378,0.478l0.268,0.568l0.417,0.43l0.436,0.435l0.402,0.462l0.418,0.445l0.516,0.337l0.486,0.364l0.511,0.375l0.501,0.41
					l0.48,0.432l0.535,0.367l0.591,0.25l0.523,0.381l0.532,0.354l0.495,0.414l0.549,0.327l0.597,0.268l0.546,0.336l0.446,0.348
					l0.464,0.31l0.579,0.244l0.476,0.377l0.372,0.499l0.52,0.354l0.321,0.521l0.332,0.515l0.252,0.561l0.315,0.517l0.221,0.562
					l0.1,0.439l0.524-0.345l0.445-0.405l0.446-0.435l0.527-0.312l0.564-0.24l0.506-0.339l0.588-0.186l0.598-0.135l0.566-0.229
					l0.62,0.055l0.275-0.058l-0.422-0.212l0.49-0.831l0.711-0.356c0.201,0.209,0.363,0.432,0.467,0.666
					c0.275,0.199,0.404,0.33,0.399,0.38c0.14,0.023,0.233-0.098,0.32-0.35l0.267,0.092c-0.009,0.102-0.246,0.218-0.711,0.355
					c0.023-0.146-0.081-0.23-0.303-0.258c-0.351,0.161-0.531,0.306-0.549,0.434v0.01h0.171l0.635-0.067l0.646,0.032l0.633-0.045
					l0.64,0.104l0.635-0.173h0.635l0.638-0.036l0.642,0.055l0.622-0.177l0.63-0.043l0.631-0.124l0.618-0.005l0.619-0.089l0.591-0.19
					l0.576-0.232l0.607-0.12l0.555-0.28l0.244-0.105c-0.143-0.144-0.2-0.383-0.155-0.762l0.351-0.124
					c0.07,0.008,0.106,0.146,0.115,0.396c0.152,0.071,0.229,0.15,0.246,0.24l0.333-0.144l0.586-0.206l0.546-0.279l0.55-0.292
					l0.519-0.342l0.479-0.391l0.447-0.44l0.504-0.353l0.438-0.437l0.391-0.479l0.403-0.473l0.462-0.419l0.307-0.547l0.361-0.488
					l0.341-0.508l0.459-0.45l0.245-0.562l0.302-0.542l0.228-0.574l0.337-0.525l0.217-0.579l0.319-0.532l0.145-0.607l0.173-0.596
					l0.235-0.568l0.231-0.58l0.153-0.594l0.148-0.602l0.287-0.639l0.112-0.673l0.216-0.662l0.175-0.669l0.193-0.578l0.114-0.604
					l0.131-0.595l0.181-0.582l0.032-0.626l0.215-0.572l0.104-0.608l0.281-0.552l0.074-0.618l0.1-0.602l0.31-0.549l0.068-0.618
					l0.153-0.587l0.224-0.569l0.028-0.244l-0.083-0.073l0.086-0.005l0.03-0.29l0.176-0.58l0.235-0.574l0.011-0.461
					c-0.077,0.008-0.156,0.018-0.246,0.003c0.143-0.182,0.266-0.304,0.372-0.386l0.181-0.331l0.157-0.59l0.048-0.619l0.121-0.605
					l0.212-0.571l0.244-0.573l0.071-0.618l0.087-0.237l-0.391,0.009c0.225-0.479,0.391-0.619,0.521-0.607l0.015,0.005l0.042-0.366
					l0.163-0.593l0.167-0.299l-0.071,0.017l-0.017-0.337c0.099,0.028,0.171,0.054,0.219,0.073l0.009-0.003l0.049-0.624l0.238-0.567
					l0.04-0.125l-0.095,0.037l0.085-0.265l0.06,0.041l0.07-0.277l0.1-0.503h-0.363c-0.107-0.454-0.016-0.595,0.127-0.595l0.26,0.479
					l0.126-0.575l0.291-0.557l0.083-0.454c-0.02,0.009-0.041,0.021-0.066,0.031c-0.06-0.161-0.141-0.242-0.247-0.311
					c0.01-0.061,0.106-0.108,0.298-0.132c0.015,0.054,0.039,0.09,0.065,0.123l0.041-0.472l0.194-0.578l0.27-0.559l0.164-0.581
					l0.086-0.604l0.249-0.557l0.255-0.551l0.27-0.543l0.346-0.505l0.465-0.402l0.287-0.545l0.44-0.418l0.526-0.315l0.515-0.333
					L79.146,42.15z M76.409,41.757l0.272,0.087c-0.007,0.093-0.129,0.134-0.344,0.125l-0.271-0.083L76.409,41.757z M74.389,49.28
					l-0.031,0.223c-0.298,0.011-0.325-0.061-0.3-0.209c-0.201-0.246-0.308-0.461-0.312-0.645L74.389,49.28z M74.722,45.159
					l0.069,0.344c-0.093,0.357-0.187,0.529-0.286,0.52C74.47,45.703,74.596,45.441,74.722,45.159z M74.632,46.814l0.064,0.395
					C74.632,47.208,74.592,47.085,74.632,46.814z M73.856,50.936l-0.327-0.093C73.785,50.79,73.857,50.853,73.856,50.936z
					 M73.357,53.361l0.142,0.24l-0.426,0.28C73.051,53.51,73.186,53.338,73.357,53.361z M75.718,43.835
					c-0.055-0.228,0.082-0.3,0.317-0.344C76.013,43.688,75.904,43.807,75.718,43.835z M74.867,43.958
					c0.582,0.113,0.858,0.244,0.839,0.436c-0.011,0.041-0.198,0.096-0.576,0.149c0.005-0.063-0.079-0.132-0.253-0.196l-0.301,0.182
					C74.604,44.331,74.698,44.142,74.867,43.958z M73.214,49.805l0.281-0.027l0.149,0.133c-0.247,0.266-0.459,0.39-0.712,0.301
					L73.214,49.805z M71.236,55.948l0.278-0.028c0.127-0.348,0.278-0.519,0.447-0.443c0.375,0.16,0.56,0.13,0.768,0.042
					c0.086,0.112,0.151,0.319,0.198,0.634c-0.063-0.01-0.123,0.109-0.153,0.371c-0.252-0.035-0.394,0.038-0.416,0.226l-0.452-0.389
					l0.155-0.37l-0.378-0.104c-0.063,0.179-0.129,0.266-0.197,0.255c-0.028,0.23-0.156,0.361-0.378,0.397
					c-0.062-0.009-0.101-0.14-0.121-0.402L71.236,55.948z M69.318,60.934l-0.062,0.487c-0.028,0.366,0.002,0.556,0.09,0.574
					c-0.038,0.361-0.139,0.552-0.292,0.568l-0.267-0.03l-0.385-0.049C68.818,61.427,69.156,60.914,69.318,60.934z M73.357,44.548
					l0.619-0.093c-0.226,0.197-0.307,0.243-0.317,0.357L73.357,44.548z M68.696,64.304l-0.595-0.069l-0.131-0.298
					C68.354,63.88,68.56,64.012,68.696,64.304z M68.65,63.782l-0.052-0.503l0.084-0.272c0.418-0.072,0.636-0.181,0.651-0.304
					c0.379,0.042,0.545,0.134,0.737,0.304l-0.107,0.38l0.339,0.048l0.02,0.271l-0.635,0.203l-0.451,0.053
					c-0.169-0.118-0.248-0.247-0.236-0.361C68.799,63.725,68.738,63.791,68.65,63.782z M68.752,68.964l0.203,0.184
					c-0.134,0.508-0.259,0.749-0.418,0.728l-0.004-0.441C68.616,69.351,68.67,69.193,68.752,68.964z M74.4,42.793l0.112,0.453
					l-0.407,0.171l0.249-0.239L74.4,42.793z M74.2,42.153l0.109,0.013c-0.044,0.338-0.265,0.515-0.665,0.478
					C73.882,42.338,74.073,42.182,74.2,42.153z M67.684,63.963l-0.036,0.272l-0.566,0.093l0.104,0.513l-0.288,0.08l-0.066-0.399
					c0.044-0.325-0.011-0.499-0.159-0.521c0.034-0.259-0.024-0.393-0.17-0.407l0.295-0.132l0.268,0.039
					C67.051,63.659,67.256,63.811,67.684,63.963z M63.115,75.63l0.247-0.194c-0.012,0.072,0.079,0.207,0.283,0.419l-0.034,0.217
					C63.199,75.855,63.092,75.789,63.115,75.63z M63.135,76.793l-0.121,0.097l-0.271-0.032l0.055-0.498l0.385,0.05L63.135,76.793z
					 M63.723,74.754c0.033-0.294-0.054-0.446-0.275-0.469l0.1-0.386l0.538-0.316c0.259,0.025,0.454,0.201,0.546,0.562
					c-0.338,0.462-0.589,0.671-0.6,0.763L63.723,74.754z M65.49,69.546l0.031,0.218c-0.097,0.475-0.218,0.703-0.362,0.685
					C65.23,69.845,65.389,69.565,65.49,69.546z M64.849,73.23l0.336-0.461l-0.112,0.436l-0.032,0.272L64.849,73.23z M70.12,41.599
					l-0.225,0.467l-0.414-0.211C69.534,41.755,69.726,41.648,70.12,41.599z M69.798,40.112l0.207,0.133
					c-0.021,0.182-0.109,0.286-0.258,0.307l0.031-0.271l-0.051-0.503L69.798,40.112z M68.792,42.488l0.27,0.031l0.094,0.123
					l-0.465,0.163c0.009-0.071-0.076-0.123-0.254-0.195C68.483,42.504,68.598,42.466,68.792,42.488z M68.361,43.716l-0.384-0.054
					l-0.254-0.581l-0.262,0.062l-0.188-0.245l0.607,0.021C68.16,43.326,68.261,43.583,68.361,43.716z M67.966,41.497l0.1,0.069
					c-0.022,0.222-0.148,0.312-0.366,0.29C67.684,41.611,67.805,41.534,67.966,41.497z M68.086,40.517
					c-0.223-0.026-0.369-0.154-0.395-0.439C67.991,40.112,68.113,40.259,68.086,40.517z M66.741,42.459
					c0.363,0.023,0.536,0.141,0.525,0.228l-0.025,0.165C66.979,42.82,66.813,42.688,66.741,42.459z M66.847,43.36l-0.083,0.263
					C66.686,43.453,66.778,43.371,66.847,43.36z M68.077,39.256c-0.019,0.175-0.208,0.335-0.551,0.487l-0.174-0.461
					C67.361,39.205,67.596,39.183,68.077,39.256z M66.332,43.445c-0.153,0.42-0.273,0.621-0.408,0.605l-0.008-0.394L66.332,43.445z
					 M66.608,39.909l-0.599-0.071l-0.129-0.296C66.271,39.482,66.469,39.614,66.608,39.909z M65.113,39.451
					c-0.015,0.109,0.05,0.168,0.254,0.201l-0.205,0.747l0.085,0.237l-0.463-0.285l0.058-0.494L65.113,39.451z M64.752,38.793
					l-0.021,0.169l-0.357-0.268l-0.021-0.278L64.752,38.793z M63.91,39.361l0.033,0.17c-0.015,0.071-0.11,0.098-0.338,0.011
					L63.91,39.361z M62.204,40.52l0.212,0.023c-0.031,0.083-0.106,0.171-0.227,0.258l0.043-0.038l0.281-0.023
					c0.027-0.066,0.058-0.125,0.077-0.184h-0.063c0.077-0.171,0.143-0.257,0.255-0.246c0,0,0,0.007,0,0.011
					c0.058-0.032,0.108-0.053,0.171-0.022c0.381,0.153,0.571,0.126,0.777,0.036c0.088,0.111,0.153,0.327,0.197,0.634
					c-0.069-0.012-0.126,0.119-0.153,0.376c-0.261-0.038-0.394,0.04-0.414,0.22l-0.447-0.382l0.152-0.371l-0.384-0.105
					c-0.065,0.182-0.133,0.262-0.193,0.251c-0.032,0.229-0.153,0.367-0.378,0.398c-0.067,0-0.112-0.141-0.119-0.398l0.19-0.148
					c-0.112,0.079-0.278,0.168-0.485,0.258L62.204,40.52z M63.19,43.607c-0.007,0.049-0.169,0.146-0.476,0.276
					C62.791,43.583,63.001,43.528,63.19,43.607z M61.965,39.325c0.059,0.008,0.105,0.106,0.128,0.294l-0.19,0.148
					c-0.04,0.099-0.117,0.166-0.242,0.205l0.158-0.178c-0.052-0.027-0.085-0.118-0.104-0.276L61.965,39.325z M57.134,38.542
					l0.192,0.245c0.329,0.04,0.458,0.333,0.387,0.88l-0.405,0.117c-0.321-0.481-0.457-0.757-0.428-0.997L57.134,38.542z
					 M55.038,35.958c0.362,0.048,0.513,0.318,0.453,0.831l-0.506,0.035c0.021-0.231-0.076-0.336-0.219-0.396L55.038,35.958z
					 M52.914,39.947l-0.44,0.447C52.304,40.138,52.521,40.027,52.914,39.947z M53.186,36.32l-0.341,0.07l-0.016-0.337
					C53.15,36.152,53.206,36.19,53.186,36.32z M52.414,36.784l-0.188,0.584l-0.354-0.206C52.109,36.852,52.238,36.697,52.414,36.784
					z M51.919,38.494l-0.017,0.169c-0.338-0.1-0.476-0.188-0.465-0.28L51.919,38.494z M51.903,35.939l0.14,0.242l-0.426,0.28
					C51.593,36.088,51.729,35.921,51.903,35.939z M40.669,84.802l-0.186-0.304l0.28-0.017L40.669,84.802z M41.2,83.641l0.146-0.309
					l0.104,0.009C41.389,83.559,41.323,83.655,41.2,83.641z M41.544,84.411l-0.133-0.293l0.268-0.356l0.127,0.347
					C41.698,84.317,41.614,84.413,41.544,84.411z M41.695,83.652l0.146-0.317l0.167,0.024C41.93,83.5,41.83,83.601,41.695,83.652z
					 M42.162,84.373c0.017-0.084,0.143-0.176,0.42-0.282l0.012,0.333L42.162,84.373z M42.588,84.037v-0.448
					c0.088-0.079,0.136-0.243,0.227-0.473l0.195,0.195C42.878,83.812,42.751,84.059,42.588,84.037z M41.894,89.28l-0.176-0.356
					l0.567-0.544l0.074,0.289C42.249,88.987,42.092,89.19,41.894,89.28z M43.483,84.477l0.027-0.269l0.37,0.148l-0.098,0.328
					C43.602,84.663,43.503,84.593,43.483,84.477z M43.039,88.089l-0.278-0.038c0.212-0.491,0.358-0.734,0.484-0.713l-0.164,0.419
					L43.039,88.089z M43.159,87.103l0.085-0.269l0.221,0.03C43.446,87.009,43.343,87.088,43.159,87.103z M47.004,83.106
					c0.028-0.278,0.179-0.428,0.436-0.446l0.039,0.171C47.45,83.088,47.286,83.196,47.004,83.106z M46.675,85.344
					c0.29,0.089,0.422,0.177,0.407,0.274l-0.175,0.084C46.725,85.683,46.649,85.559,46.675,85.344z M47.24,84.357l0.4-0.117
					l0.053,0.507C47.533,84.726,47.387,84.593,47.24,84.357z M46.849,86.194l0.301-0.184l-0.039,0.271L46.849,86.194z
					 M47.569,85.724l-0.381-0.041c0.07-0.108,0.193-0.224,0.327-0.461l0.427,0.164l-0.021,0.166
					C47.91,85.619,47.799,85.683,47.569,85.724z M48.399,86.665c-0.191-0.273-0.05-0.332,0.256-0.3
					C48.545,86.566,48.46,86.671,48.399,86.665z M49.863,82.402l0.029-0.274l0.234,0.361L49.863,82.402z M50.968,82.423
					l-0.438,0.005l0.356-0.291c0.262,0.199,0.322,0.133,0.396-0.009l0.072,0.348L50.968,82.423z M51.911,79.71
					c-0.279-0.147-0.368-0.193-0.35-0.327l0.281-0.015l0.45-0.059l0.038,0.175C52.197,79.621,52.093,79.703,51.911,79.71z
					 M52.69,83.358l-0.471-0.282c-0.105-0.035-0.174-0.078-0.316-0.148l0.309-0.238l0.441,0.048c0.23,0.142,0.352,0.303,0.327,0.477
					C52.799,83.203,52.702,83.242,52.69,83.358z M52.437,85.384l0.204-0.319l0.067,0.394L52.437,85.384z M53.811,80.495
					c-0.031,0.264-0.231,0.403-0.6,0.43c-0.343-0.261-0.5-0.536-0.462-0.837c0.134-0.427,0.255-0.636,0.354-0.622l0.303-0.187
					c-0.019,0.151,0.231,0.355,0.761,0.597l-0.055,0.433C53.931,80.286,53.832,80.351,53.811,80.495z M55.063,78.925l0.149,0.134
					c-0.026,0.19-0.256,0.364-0.679,0.529l0.088-0.271C54.656,79.027,54.802,78.896,55.063,78.925z M54.703,78.16
					c0.162,0.021,0.22,0.098,0.245,0.312C54.789,78.375,54.713,78.292,54.703,78.16z M52.433,86.821
					c0.271,0.036,0.344,0.208,0.375,0.54l-0.02,0.172C52.604,87.503,52.521,87.275,52.433,86.821z M54.423,81.846
					c0.274,0.032,0.463,0.147,0.573,0.346l-0.019,0.11C54.514,82.199,54.398,82.042,54.423,81.846z M54.934,80.407
					c0.279-0.372,0.439-0.555,0.564-0.541l-0.041,0.274l0.021,0.336L54.934,80.407z M53.722,87.584
					c0.292-0.373,0.525-0.599,0.701-0.693l0.102,0.016C54.41,87.446,54.141,87.694,53.722,87.584z M57.992,75.776l0.172-0.535
					l0.163,0.08C58.291,75.601,58.196,75.761,57.992,75.776z M58.955,76.947c-0.194-0.018-0.345,0.02-0.457,0.118
					c0.023-0.185,0.007-0.337-0.051-0.453l0.272-0.408l0.296-0.132c0.061,0.006,0.104,0.104,0.123,0.29L58.955,76.947z
					 M58.68,75.546l0.096-0.316l0.198,0.133L58.68,75.546z M59.28,74.189l-0.652,0.224l-0.699,0.067l-0.666,0.235l-0.627,0.301
					l-0.404,0.505l-0.535,0.358l-0.461,0.437l-0.514,0.382l-0.53,0.343l-0.555,0.324l-0.541,0.325l-0.551,0.298l-0.579,0.265
					l-0.527,0.375l-0.568,0.271l-0.629,0.228l-0.635,0.192l-0.635,0.189l-0.619,0.236l-0.647,0.16l-0.672,0.057l-0.644,0.171
					l-0.667,0.04l-0.662,0.007l-0.669-0.026l-0.667-0.045l-0.659-0.074L42.4,79.948l-0.667-0.08l-0.615-0.287l-0.332-0.092
					l-0.63-0.133l-0.606-0.218l-0.555-0.316l-0.622-0.193l-0.579-0.282L37.21,78.08l-0.499-0.425l-0.54-0.341l-0.574-0.297
					l-0.505-0.4l-0.458-0.464l-0.496-0.397l-0.476-0.447l-0.471-0.44l-0.325-0.562l-0.372-0.525l-0.403-0.51l-0.276-0.579
					l-0.258-0.587l-0.333-0.559l-0.164-0.631l-0.127-0.636l-0.228-0.614l-0.06-0.644l-0.037-0.644l-0.117-0.643l0.106-0.647
					l-0.01-0.656l0.189-0.629l0.09-0.637l0.182-0.621l0.259-0.578l0.261-0.582l0.27-0.582l0.349-0.538l0.506-0.409l0.371-0.518
					l0.462-0.443l0.507-0.39l0.567-0.29l0.548-0.3l0.601-0.35l0.593-0.364l0.691-0.127l0.667-0.192l0.683-0.02l0.684,0.006
					l0.688-0.059l0.667,0.172l0.674,0.164l0.012,0.008l0.653,0.176l0.65,0.209l0.562,0.389l0.582,0.35l0.498,0.47l0.419,0.539
					l0.348,0.569l0.423,0.529l0.248,0.62l0.196,0.646l0.148,0.64l-0.09,0.671v0.657l-0.067,0.661l-0.146,0.607l-0.288,0.564
					l-0.291,0.548l-0.459,0.444l-0.441,0.437l-0.415,0.474l-0.587,0.389l-0.658,0.259l-0.674,0.169l-0.707,0.105l-0.67-0.248
					l-0.674-0.129l-0.523-0.461l-0.547-0.394l-0.367-0.584l-0.355-0.581l-0.219-0.659l-0.104-0.697l0.2-0.665l0.141-0.575
					l0.346-0.492l0.408-0.442l0.658-0.455l0.775,0.018l0.153-0.053l-0.006,0.101l-0.143,0.695l0.098,0.72l0.486,0.623l0.72,0.309
					l0.6-0.027l0.589-0.14l0.447-0.43l0.357-0.467l0.256-0.544l0.066-0.59l0.118-0.61l-0.146-0.607l-0.203-0.588l-0.305-0.525
					l-0.36-0.5l-0.47-0.393l-0.498-0.38l-0.596-0.186l-0.53-0.096l-0.654,0.033l-0.638-0.017l-0.635,0.119l-0.64,0.101l-0.607,0.269
					l-0.509,0.404l-0.524,0.387l-0.488,0.496l-0.374,0.598l-0.375,0.577l-0.316,0.618l-0.121,0.688l-0.19,0.67l-0.302,0.584
					l-0.077,0.657l-0.068,0.645v0.657l-0.032,0.646l-0.022,0.656l0.167,0.632l0.143,0.638l0.106,0.643l0.275,0.597l0.227,0.624
					l0.26,0.605l0.303,0.593l0.35,0.569l0.46,0.478l0.396,0.537l0.489,0.457l0.488,0.459l0.579,0.336l0.551,0.371l0.634,0.336
					l0.639,0.326l0.658,0.267l0.688,0.224l0.657,0.299l0.635,0.159l0.637,0.14l0.667,0.005l0.645,0.097l0.662-0.054l0.655,0.043
					l0.649-0.071l0.62-0.227c0.013-0.254-0.038-0.392-0.164-0.409c0.028-0.252-0.023-0.385-0.176-0.401l0.299-0.138l0.272,0.042
					c-0.019,0.16,0.181,0.311,0.614,0.46l-0.042,0.273l-0.563,0.097l0.01,0.039l0.398-0.07l0.625-0.161l0.626-0.154l0.571-0.324
					l0.576-0.287l0.547-0.348l0.49-0.435l0.521-0.375l0.513-0.41l0.432-0.49l0.292-0.595l0.415-0.494l0.286-0.587l0.225-0.6
					l0.226-0.603l0.263-0.535l0.265-0.538l0.227-0.542l0.148-0.584l0.223-0.555l0.127-0.602l0.139-0.604l0.157-0.595l0.263-0.57
					l0.052-0.628l0.227-0.572l0.056-0.15c-0.034-0.083-0.068-0.21-0.089-0.366c0.089,0.031,0.155,0.073,0.193,0.125l0.086-0.188
					l0.097-0.615l0.189-0.646l0.119-0.658l0.053-0.67l-0.118-0.646l-0.431-0.746l-0.358-0.303l-0.35-0.254l-0.116-0.068
					l-0.186-0.125l0.076-0.26l0.276-0.002l0.596-0.06l0.57-0.182l0.509-0.323l0.356-0.458l0.299-0.538l0.214-0.568l0.224-0.564
					l0.086-0.619l0.017-0.054c-0.055,0-0.121-0.012-0.191-0.032c0.032-0.251,0.155-0.386,0.357-0.432l0.021-0.056l0.192-0.675
					l0.205-0.675l0.165-0.678l0.081-0.695l0.174-0.684l0.077-0.693l0.034-0.698l-0.131-0.684l-0.462-0.508l-0.404-0.556l-0.48-0.335
					l-0.404-0.417l-0.285-0.521l0.511-0.264l0.577,0.026l0.601,0.195l0.606,0.169l0.635,0.056l0.604,0.165l0.608,0.193l0.616,0.135
					l0.596,0.227l0.623,0.107l0.603,0.194l0.619,0.113l0.588,0.276l0.624,0.107l0.276,0.462l-0.436,0.414l-0.642,0.165l-0.602,0.267
					l-0.428,0.502l-0.415,0.505l-0.252,0.607l-0.188,0.62l-0.233,0.655l-0.193,0.666l-0.202,0.667l-0.149,0.676l-0.271,0.641
					l-0.119,0.688l-0.295,0.645l-0.152,0.598l-0.025,0.624l-0.121,0.617l0.161,0.593l0.235,0.409l0.344,0.346l0.357,0.306
					l0.282,0.146l0.011,0.088l0.164,0.182l-0.089,0.248l-0.228,0.02l-0.698,0.092l-0.653,0.27l-0.532,0.474l-0.311,0.625
					L60.511,64.7l-0.06,0.68l-0.252,0.611l-0.084,0.673l-0.218,0.624l-0.243,0.624l-0.08,0.672l-0.137,0.652l-0.251,0.632
					l-0.059,0.593l-0.007,0.592l0.128,0.579l0.274,0.522l0.232,0.542l0.469,0.488l0.487,0.479l0.125,0.172l-0.072,0.127l-0.039,0.08
					l-0.071-0.022l-0.01,0.072l-0.684,0.031L59.28,74.189z M50.134,44.712l0.048,0.506c-0.054,0.44-0.223,0.643-0.571,0.598
					l0.3-0.628C49.95,44.864,50.029,44.698,50.134,44.712z M46.259,62.357c-0.088,0.287-0.183,0.426-0.329,0.408l0.034-0.272
					L45.89,62.15L46.259,62.357z M46.713,59.533l-0.089,0.263C46.555,59.621,46.639,59.537,46.713,59.533z M46.531,61.896
					l0.523-0.159l0.163,0.07l-0.421,0.235C46.695,61.951,46.644,61.911,46.531,61.896z M46.205,63.742l-0.314,0.296l-0.029-0.67
					L46.205,63.742z M47.58,59.249l-0.256,0.07l-0.187-0.242l0.603,0.015c0.286,0.402,0.379,0.657,0.486,0.793l-0.393-0.048
					L47.58,59.249z M43.945,75.279l0.2-0.316l0.066,0.4L43.945,75.279z M45.3,75.942c-0.327-0.488-0.458-0.765-0.432-0.997
					l0.254-0.242l0.187,0.242c0.332,0.038,0.463,0.334,0.392,0.875L45.3,75.942z M45.916,76.793l0.118,0.013
					c-0.126,0.54-0.396,0.781-0.808,0.677C45.513,77.116,45.742,76.879,45.916,76.793z M44.306,77.268l-0.015,0.16
					c-0.19-0.031-0.262-0.255-0.364-0.71C44.207,76.75,44.276,76.929,44.306,77.268z M49.248,77.388
					c0.184-0.385,0.308-0.572,0.462-0.557v0.447L49.248,77.388z M54.436,63.817l0.18,0.409l-0.193,0.147
					c-0.176-0.027-0.277-0.109-0.301-0.256l0.339-0.022L54.436,63.817z M55.11,61.957l-0.33-0.48l0.31,0.146l0.451-0.058
					c-0.031,0.294,0.043,0.451,0.215,0.532l-0.22,0.415C55.212,62.467,55.066,62.283,55.11,61.957z M59.555,53.18l-0.019,0.103
					c-0.041,0-0.069-0.011-0.105-0.021l-0.032,0.055c-0.007-0.022-0.012-0.045-0.02-0.069c-0.184-0.054-0.295-0.174-0.345-0.354
					c0.162,0.043,0.266,0.083,0.353,0.116c0.035-0.019,0.094-0.019,0.169-0.005l-0.044,0.084
					C59.536,53.122,59.562,53.147,59.555,53.18z M59.256,51.752l0.113,0.502l-0.294,0.081l-0.058-0.394
					c0.04-0.329-0.014-0.502-0.157-0.522c0.025-0.254-0.03-0.396-0.178-0.413l0.297-0.125l0.266,0.033
					c-0.018,0.162,0.187,0.313,0.619,0.461l-0.037,0.273L59.256,51.752z M58.746,51.277c-0.204,0.232-0.418,0.337-0.648,0.309
					l0.442-0.389L58.746,51.277z M58.267,50.659c0.023-0.223-0.078-0.331-0.217-0.394l0.268-0.467
					c0.362,0.042,0.513,0.325,0.458,0.835L58.267,50.659z M55.751,60.757l0.096,0.122c-0.084-0.006-0.257,0.081-0.535,0.269
					C55.256,60.821,55.475,60.725,55.751,60.757z M54.801,68.133c-0.072-0.012-0.119-0.143-0.119-0.403L54.801,68.133z
					 M56.244,62.645l0.275-0.014l0.214,0.13c-0.011,0.066-0.111,0.109-0.299,0.133L56.244,62.645z M54.493,70.21l-0.025,0.212
					l-0.286,0.026l-0.064-0.346c-0.197-0.199-0.287-0.376-0.263-0.586L54.493,70.21z M53.765,68.894
					c0.248-0.052,0.329,0.015,0.316,0.095L53.765,68.894z M55.71,66.641l0.276-0.024l0.139,0.24l-0.285,0.071L55.71,66.641z
					 M59.811,46.966c0.222-0.173,0.304-0.229,0.322-0.339c0.21,0.057,0.289,0.19,0.333,0.421L59.811,46.966z M66.697,52.654
					l0.149,0.125c-0.026,0.194-0.25,0.369-0.674,0.534l0.084-0.27C66.299,52.749,66.442,52.624,66.697,52.654z M66.346,51.887
					c0.166,0.021,0.209,0.106,0.242,0.309C66.431,52.103,66.347,52.018,66.346,51.887z M65.559,56.489l-0.005-0.442
					c0.203-0.034,0.254,0.104,0.226,0.417c-0.018,0.191,0.047,0.249,0.191,0.286c-0.023,0.184,0.023,0.287,0.134,0.294l-0.076,0.16
					l-0.333-0.045c-0.091-0.121-0.308-0.279-0.651-0.466C65.084,56.556,65.25,56.508,65.559,56.489z M62.037,73.11l-0.177-0.358
					l0.556-0.54l0.08,0.289C62.385,72.817,62.23,73.025,62.037,73.11z M60.361,80.449L60.046,80.3
					c0.027-0.07,0.123-0.129,0.297-0.184L60.361,80.449z M60.089,74.979l0.319,0.097l-0.043,0.33
					C60.207,75.374,60.172,75.182,60.089,74.979z M59.695,76.818l0.082-0.653l0.32,0.089C60.063,76.541,59.928,76.728,59.695,76.818
					z M58.267,83.524l-0.023,0.163c-0.339-0.098-0.475-0.187-0.465-0.276L58.267,83.524z M58.204,82.185
					c0.247-0.301,0.375-0.454,0.546-0.375l-0.182,0.583L58.204,82.185z M59.528,81.343l-0.342,0.074l-0.015-0.333
					C59.496,81.176,59.548,81.22,59.528,81.343z M62.298,68.201c0.018-0.081,0.144-0.179,0.421-0.285l0.023,0.338L62.298,68.201z
					 M63.686,64.157l-0.132-0.287c0.39-0.067,0.593,0.073,0.733,0.366L63.686,64.157z M63.621,68.306l0.027-0.271l0.37,0.148
					l-0.096,0.327C63.744,68.49,63.644,68.421,63.621,68.306z M64.374,64.881c-0.021-0.17,0.066-0.25,0.137-0.261l0.275,0.032
					L64.374,64.881z M65.368,61.312c0.277-0.373,0.513-0.599,0.691-0.694l0.114,0.012C66.05,61.177,65.774,61.419,65.368,61.312z
					 M65.443,59.766c-0.33-0.481-0.465-0.757-0.435-0.997l0.254-0.239l0.191,0.236c0.327,0.045,0.455,0.336,0.396,0.881
					L65.443,59.766z M62.923,64.957l-0.469-0.286l0.06-0.491l0.277-0.405c-0.01,0.109,0.056,0.17,0.256,0.194l-0.208,0.753
					L62.923,64.957z M61.556,67.946l0.263-0.352l0.134,0.344c-0.104,0.21-0.196,0.31-0.268,0.298L61.556,67.946z M60.354,72.752
					l-0.185,0.089l0.103-0.373L60.354,72.752z M61.831,67.473l0.15-0.307l0.163,0.018C62.069,67.333,61.966,67.431,61.831,67.473z
					 M64.085,59.103l0.197-0.303l0.069,0.395L64.085,59.103z M63.86,56.802c-0.104-0.025-0.175-0.076-0.312-0.146l0.22-0.173
					l-0.22-0.083l0.281,0.033l0.026-0.015l0.439,0.047c0.237,0.141,0.349,0.302,0.324,0.482c-0.178-0.02-0.283,0.02-0.293,0.132
					l-0.203-0.122c-0.111,0.286-0.212,0.432-0.354,0.41l-0.021-0.33l0.329-0.104L63.86,56.802z M61.591,67.17
					c-0.069,0.221-0.132,0.327-0.257,0.303l0.148-0.312L61.591,67.17z M60.466,69.941l-0.079,0.212L59.814,69.8
					C60.138,69.623,60.287,69.735,60.466,69.941z M60.62,68.332l0.283-0.019l-0.101,0.314L60.62,68.332z M58.244,80.963l0.141,0.243
					l-0.43,0.286C57.942,81.116,58.069,80.947,58.244,80.963z M57.226,86.563c-0.2-0.296-0.313-0.493-0.355-0.711l0.195-0.25
					c0.262,0.25,0.443,0.388,0.569,0.398l-0.015,0.499L57.226,86.563z M58.814,85.424c-0.168-0.264,0.048-0.364,0.432-0.448
					L58.814,85.424z M59.806,84.102c-0.083-0.088-0.258-0.164-0.594-0.184c-0.309-0.17-0.467-0.276-0.451-0.333l0.039-0.328
					l-0.453,0.002c0.233-0.476,0.396-0.621,0.521-0.603l0.542,0.119c0.177-0.085,0.331,0.023,0.522,0.229l0.018,0.338l-0.243,0.191
					c-0.011,0.104,0.07,0.166,0.243,0.253L59.806,84.102z M63.298,70.932l0.09-0.264l0.218,0.023
					C63.585,70.839,63.488,70.917,63.298,70.932z M65.194,64.067l-0.17-0.465c0.017-0.069,0.237-0.101,0.733-0.024
					C65.729,63.757,65.549,63.917,65.194,64.067z M66.677,58.177l-0.657-0.103v-0.159l0.159-0.492l0.051-0.522l0.206-0.64L66.512,56
					c-0.378-0.106-0.466-0.252-0.444-0.427c0.218,0.025,0.378,0.111,0.493,0.246l0.061-0.209l0.042-0.091l0.199-0.796l0.121-0.536
					l-0.41-0.052c0.24-0.318,0.39-0.488,0.5-0.525l0.04-0.376l0.001-0.704l0.171-0.703l-0.012-0.707l-0.169-0.692l-0.217-0.568
					l-0.259-0.568L66.15,48.9l-0.483-0.375l-0.518-0.308l-0.456-0.427l-0.224-0.125l-0.606-0.255l-0.581-0.29l-0.567-0.312
					l-0.62-0.205L61.473,46.4l-0.637-0.171l-0.595-0.286l-0.627-0.196l-0.361-0.045l-0.176,0.58l-0.069-0.338
					c0.031-0.109,0.054-0.196,0.083-0.261l-0.456-0.147l-0.636-0.072l-0.603,0.202l-0.573,0.258l-0.46,0.441l-0.238,0.596
					l-0.262,0.573l-0.181,0.604l-0.068,0.665l-0.244,0.621l-0.089,0.662l-0.237,0.619l-0.105,0.657l-0.157,0.635l-0.204,0.638
					l-0.159,0.64l-0.111,0.658l-0.156,0.644l-0.296,0.608l-0.065,0.668l-0.155,0.645l-0.173,0.641l-0.172,0.673l0.069,0.7
					l0.364,0.606l0.565,0.404l0.532,0.436l0.244,0.092l-0.125,0.209l-0.118,0.062l-0.066,0.129l-0.363,0.059l-0.534,0.178
					l-0.517,0.222l-0.482,0.299l-0.396,0.446l-0.368,0.483l-0.19,0.571l-0.187,0.59l-0.198,0.573l-0.187,0.574l-0.06,0.684
					l-0.188,0.645l-0.171,0.65l-0.158,0.652l-0.311,0.614l-0.139,0.653l-0.115,0.661l-0.129,0.658l-0.175,0.64l-0.065,0.668
					l-0.094,0.669l0.099,0.665l0.341,0.59l0.354,0.551l0.421,0.521l0.498,0.434l0.473,0.739l-0.329,0.229l-0.5,0.106l-0.227-0.191
					l-0.357-0.014l-0.458-0.216l-0.492-0.121l-0.643-0.177l-0.647-0.143l-0.622-0.28l-0.665-0.117l-0.653-0.196l-0.653-0.178
					l-0.65-0.162l-0.639-0.267l-0.671-0.103l-0.648-0.204l-0.63-0.262l-0.66-0.171l-0.601-0.258l0.132-0.201l-0.045-0.052
					l0.142,0.052l0.577-0.226l0.613-0.117l0.627-0.045l0.642-0.195l0.652-0.133l0.562-0.367l0.486-0.437l0.349-0.55l0.262-0.579
					l0.183-0.616l0.254-0.592l0.145-0.622l0.167-0.618l0.082-0.642l0.202-0.614l0.146-0.628l0.253-0.589l0.186-0.608l0.106-0.63
					l0.2-0.609l0.164-0.656L48.3,61.47l0.063-0.671l-0.011-0.677l-0.284-0.62l-0.244-0.421l-0.243-0.468L46.9,58.137l-0.139-0.086
					l0.16-0.052l0.676-0.088l0.67-0.194l0.539-0.435l0.451-0.516l0.38-0.535l0.18-0.643l0.214-0.61l0.202-0.621l0.192-0.637
					l0.184-0.626l0.096-0.65l0.222-0.627l0.154-0.638l0.201-0.625l0.113-0.653l0.082-0.294c-0.158-0.015-0.184-0.083-0.162-0.199
					c-0.2-0.247-0.309-0.461-0.309-0.648l0.564,0.553l0.007-0.046l0.149-0.639l0.168-0.644l0.149-0.639l0.125-0.691l0.21-0.692
					l0.033-0.708l-0.122-0.713l-0.364-0.526l-0.375-0.511l-0.055-0.029l-0.136,0.058l0.09-0.089l-0.438-0.268l-0.529-0.363
					l-0.59-0.23l-0.883-0.129l-0.614-0.186l-0.621-0.153l-0.615-0.202l-0.643-0.052l-0.636-0.119l-0.641-0.063l-0.641,0.042
					l-0.647,0.008l-0.617,0.084l-0.582,0.224l-0.48,0.398l-0.544,0.294l-0.387,0.48l-0.308,0.521l-0.206,0.571l-0.164,0.597
					l-0.169,0.61l-0.109,0.619l-0.038,0.628l-0.12,0.619l-0.037,0.617l-0.04,0.633l-0.06,0.624l-0.16,0.611l0.044,0.811
					l-0.171,0.802l-0.515-0.102l-0.516,0.054l0.024-0.109l0.032-0.646l0.049-0.647l-0.025-0.646l0.088-0.645l0.074-0.644
					l0.023-0.644l0.025-0.657l-0.075-0.644l0.018-0.644L39,44.854l0.015-0.661l-0.067-0.655l-0.17-0.634l-0.076-0.649l-0.063-0.652
					l-0.11-0.646l-0.101-0.647l-0.235-0.615l-0.114-0.644l-0.118-0.563l-0.086-0.572l-0.105-0.566l-0.05-0.03l0.074,0.019
					l0.528-0.292l0.32,0.135l0.247,0.513l0.344,0.489l0.118,0.579l0.752,0.292l0.702,0.18l0.704,0.118l0.6,0.25l0.636,0.101
					l0.613,0.191l0.627,0.149l0.647,0.052l0.625,0.149l0.621,0.182l0.174,0.025l0.593,0.222l0.626,0.104l0.603,0.18l0.62,0.108
					l0.588,0.262l0.629,0.085l0.599,0.184l0.639,0.083l0.624,0.109l0.611,0.165l0.631,0.024l0.621,0.14l0.609-0.148l0.067-0.053
					l0.523-0.245l0.499-0.25l0.551-0.14l0.349,0.12l-0.037,0.144l0.33,0.552l0.337,0.56l0.544,0.362l0.622,0.206l0.59,0.297
					l0.669,0.134l0.663,0.198l0.655,0.195l0.644,0.252l0.679,0.126l0.649,0.261l0.671,0.13l0.375,0.128l0.63,0.164l0.617,0.183
					l0.616,0.179l0.628,0.168l0.643,0.116l0.613,0.188l0.663,0.015l0.616,0.202l0.638,0.004l0.904-0.22l0.578-0.144l0.559-0.204
					l0.066-0.021l0.645,0.585l0.048,0.027l0.287,0.209l-0.055,0.046l-0.31,0.547l-0.359,0.512l-0.25,0.585l-0.342,0.529l-0.33,0.542
					l-0.163,0.609l-0.334,0.544l-0.223,0.583l-0.267,0.577l-0.095,0.636l-0.274,0.602l-0.149,0.644l-0.195,0.629l-0.209,0.632
					l-0.221,0.621l-0.192,0.633l-0.197,0.636l-0.208,0.627l-0.068,0.666l-0.12,0.644l-0.031,0.083l-0.274-0.166L66.677,58.177z
					 M54.599,57.453l0.152,0.131c-0.015,0.088-0.189,0.163-0.528,0.213C54.252,57.601,54.374,57.484,54.599,57.453z M55.27,52.882
					c0.094-0.182,0.23-0.255,0.415-0.231l0.017,0.334l0.008,0.392l-0.12-0.409L55.27,52.882z M50.814,69.643l0.207,0.14l-0.29,0.13
					L50.814,69.643z M50.687,68.909c-0.118-0.461-0.024-0.595,0.123-0.595l0.312,0.595H50.687z M51.499,67.228
					c-0.061-0.153-0.141-0.23-0.241-0.302c0.001-0.064,0.104-0.111,0.295-0.128c0.057,0.153,0.143,0.237,0.249,0.247
					C51.769,67.119,51.668,67.177,51.499,67.228z M47.515,64.117l-0.257-0.094l0.329-0.011L47.515,64.117z M46.447,68.367
					c-0.152-0.094-0.236-0.184-0.236-0.299C46.365,68.082,46.419,68.157,46.447,68.367z M50.92,44.923l-0.304-0.261l0.621-0.087
					C51.008,44.769,50.94,44.812,50.92,44.923z M47.946,56.681c-0.216-0.018-0.366-0.15-0.388-0.43
					C47.851,56.285,47.984,56.43,47.946,56.681z M49.893,54.369c-0.008,0.075-0.127,0.137-0.352,0.177
					c-0.336-0.289-0.496-0.492-0.484-0.611c0.029-0.221,0.148-0.321,0.421-0.278c-0.017,0.152,0.063,0.25,0.241,0.299L49.893,54.369
					z M50.793,50.954c0.249-0.053,0.33,0.014,0.324,0.092L50.793,50.954z M51.982,45.277l0.072,0.335
					c-0.089,0.364-0.183,0.537-0.286,0.525C51.736,45.815,51.853,45.558,51.982,45.277z M51.896,46.93l0.059,0.396
					C51.896,47.317,51.853,47.199,51.896,46.93z M63.17,78.793l-0.223-0.418c-0.51-0.389-0.744-0.698-0.719-0.918
					c0.422-0.301,0.607-0.421,0.619-0.528l0.415,1.6L63.17,78.793z M63.781,76.987l0.039-0.333c0.223-0.024,0.275,0.056,0.31,0.209
					L63.781,76.987z M64.139,75.419l0.418,0.216l-0.017,0.163C64.271,75.924,64.198,75.747,64.139,75.419z M64.365,78.108
					c0.027-0.179,0.092-0.291,0.207-0.311c0.083,0.013,0.12,0.148,0.106,0.46L64.365,78.108z M64.179,77.806
					c0.187-0.155,0.268-0.07,0.273,0.035L64.179,77.806z M66.872,68.394l-0.129-0.399l0.055-0.386l-0.201-0.632
					c0.124-0.125,0.198-0.247,0.207-0.363l0.255,0.197l0.507,0.842C67.44,67.689,67.205,67.958,66.872,68.394z M68.195,65.78
					l-0.314-0.155l0.22-0.413c0.368,0.101,0.546,0.192,0.732,0.365C68.818,65.702,68.604,65.767,68.195,65.78z M66.803,74.33
					c-0.186-0.031-0.286-0.109-0.309-0.263l0.337-0.017l-0.028-0.278l0.18,0.414L66.803,74.33z M67.534,72.641l-0.119-0.408
					l0.045-0.377l-0.196-0.637c0.117-0.123,0.19-0.24,0.208-0.369l0.249,0.202l0.511,0.841
					C68.102,71.932,67.869,72.205,67.534,72.641z M68.299,75.761c-0.063-0.062-0.198-0.121-0.441-0.131
					c-0.235-0.127-0.346-0.211-0.346-0.254l0.031-0.244h-0.338c0.174-0.353,0.295-0.463,0.393-0.45l0.406,0.087
					c0.13-0.066,0.249,0.016,0.399,0.176l0.008,0.251l-0.184,0.146c-0.012,0.072,0.051,0.12,0.187,0.182L68.299,75.761z
					 M69.521,67.659c0.386-0.065,0.592,0.071,0.735,0.364l-0.607-0.072L69.521,67.659z M69.822,70.195l-0.096,0.327
					c-0.179-0.024-0.282-0.088-0.298-0.203l0.023-0.275L69.822,70.195z M72.739,58.884l-0.395,0.07
					c-0.195-0.298-0.321-0.492-0.363-0.712l0.199-0.249c0.258,0.249,0.443,0.382,0.562,0.401L72.739,58.884z M73.36,56.077
					c-0.338-0.095-0.48-0.189-0.465-0.274l0.481,0.114L73.36,56.077z M73.868,54.197l-0.185,0.596l-0.369-0.217
					C73.557,54.277,73.687,54.126,73.868,54.197z"/>
			</g>
		</g>
	</g>
</g>
</svg>
