<?xml version="1.0" encoding="utf-8"?>
<!-- Generator: Adobe Illustrator 16.0.0, SVG Export Plug-In . SVG Version: 6.00 Build 0)  -->
<!DOCTYPE svg PUBLIC "-//W3C//DTD SVG 1.1//EN" "http://www.w3.org/Graphics/SVG/1.1/DTD/svg11.dtd">
<svg version="1.1" id="Layer_1" xmlns="http://www.w3.org/2000/svg" xmlns:xlink="http://www.w3.org/1999/xlink" x="0px" y="0px"
	 width="311.783px" height="250.719px" viewBox="0 0 311.783 250.719" enable-background="new 0 0 311.783 250.719"
	 xml:space="preserve">
<g>
	<g>
		<defs>
			<rect id="SVGID_1_" width="388.566" height="250.719"/>
		</defs>
		<clipPath id="SVGID_2_">
			<use xlink:href="#SVGID_1_"  overflow="visible"/>
		</clipPath>
		<g clip-path="url(#SVGID_2_)">
			<path fill="#9C1421" d="M259.248,252.706l1.537-2.172l1.289-2.359l0.473-0.86l-0.322-0.203l0.191-1.607l0.896-1.336
				c-0.037,0.355,0.168,0.551,0.838,0.652v0.004l0.806-1.174l1.592-2.16l1.312-2.352l1.285-2.322l0.668-2.681l1.313-2.331
				l0.606-1.15c-0.881-1.289-1.272-2.135-1.178-2.836l0.822-0.805l0.639,0.805c0.438,0.074,0.769,0.271,1.012,0.596l0.787-1.248
				l0.738-2.611l0.955-2.486l1.422-2.321l0.816-2.558l0.816-2.555l1.239-2.363l0.565-2.647l1.07-2.447l0.959-2.522l0.404-2.687
				l0.955-2.504l0.684-2.563l1.06-2.488l0.489-2.643l1.345-2.39l0.474-2.655l0.479-2.646l0.875-2.547l0.627-2.597l0.428-2.623
				l0.301-0.963c-0.119-0.43-0.119-0.953-0.053-1.582l0.57-0.215l0.328-1.471l-0.158,0.123c-0.35-0.547-0.162-0.867,0.372-1.115
				l0.03-0.229l0.85-2.857l0.311-0.668c-0.074-0.008-0.146-0.008-0.232-0.039c-1.036-0.541-1.544-0.902-1.499-1.092l0.131-1.07
				h-1.44c0.725-1.535,1.266-2.008,1.666-1.955l1.779,0.4c0.232-0.139,0.48-0.121,0.7-0.037l0.096-0.992l1.134-2.521l0.467-2.674
				l0.406-1.535l-0.726-0.346c0.086-0.217,0.403-0.442,0.976-0.594l0.014-0.168l0.52-2.676l0.779-2.617l0.416-2.703l0.803-2.59
				l0.512-2.68l0.75-2.615l0.646-2.65l0.885-2.576l0.047-2.78l0.744-2.642l0.596-2.641l0.242-2.725l0.154-2.737l0.807-2.641
				l-0.055-2.722l0.354-2.701l0.217-2.711l0.511-2.695l0.092-2.707l0.584-2.698l0.181-2.71l-0.418-2.739l0.213-2.716l-0.142-2.714
				l0.484-2.716l-0.194-2.731l-0.259-2.71l-0.369-2.71l-0.08-2.707l-0.313-2.691l-0.288-2.715l0.102-2.765l-0.548-2.678
				l-0.988-2.585l0.043-2.779l-0.67-2.641l-0.762-2.634l-1.072-2.525l-0.328-2.76l-1.098-2.489l-0.785-2.63l-1.131-2.46l-0.91-2.564
				l-1.658-2.253l-0.653-2.654l-1.65-2.177l-1.452-2.225l-1.074-2.506l-1.566-2.164l-1.457-2.261l-1.77-2.024l-1.791-1.993
				l-1.711-2.07l-0.229-0.35c-0.108-0.012-0.202-0.012-0.315-0.04c0.02-0.107,0.059-0.198,0.059-0.291l-1.043-1.545l-1.619-2.147
				l-2.213-1.568l-1.746-2.054l-1.826-1.981l-2.133-1.642l-2.105-1.648l-1.76-2.096l-2.354-1.331l-2.016-1.752l-1.838-2.037
				l-2.512-1.089l-1.922-1.976l-2.541-1.023l-1.898-1.951l-2.42-1.222l-2.169-1.597l-2.548-0.981l-2.174-1.595l-2.516-0.996
				l-2.349-1.303l-2.297-1.395l-2.513-0.959l-2.008-1.361c-0.252,0.184-0.477,0.373-0.754,0.543c0-0.335,0.051-0.639,0.139-0.881
				l-2.086-0.905l-2.453-1.063l-2.536-0.941l-2.398-1.22l-2.457-1.069l-2.612-0.726l-2.502-0.97l-2.513-0.907l-2.633-0.561
				l-2.545-0.842l-0.604-0.212l-1.279,1.311c-0.506-0.757,0.027-1.099,1.049-1.379l-1.727-0.527l-2.554-0.795l-2.663-0.33
				l-2.589-0.728l-2.56-0.807l-2.628-0.438l-2.633-0.609l-2.645-0.304l-2.636-0.466l-2.563-1.069L176.7-36.68l-2.698-0.008
				l-2.583-0.788l-2.716-0.235l-2.67,0.057l-2.657-0.542l-2.688,0.112l-2.651-0.505l-2.706,0.161l-2.674,0.25l-2.694-0.58
				l-2.67,0.545l-2.688-0.319l-2.665,0.563l-2.65,0.187l-2.678,0.197l-2.712-0.314l-2.603,0.707l-2.646,0.549l-2.674,0.255
				l-2.688,0.131l-2.565,0.752l-2.689,0.345l-2.612,0.673l-2.565,0.706l-2.483,1.09l-2.679,0.426l-2.386,1.297l-2.649,0.509
				l-2.436,1.096l-2.547,0.91l-2.534,0.899l-2.213,1.591l-2.473,1.018L88.1-23.633l-2.385,1.194L83.461-21l-2.36,1.346l-2.057,1.733
				l-2.392,1.24l-2.139,1.635l-2.131,1.594l-1.862,1.941l-2.004,1.764l-2.232,1.516l-1.923,1.853l-1.679,2.114l-1.901,1.865
				l-1.627,2.092l-1.92,1.881l-1.575,2.154L53.834,5.7L52.72,8.213l-1.555,2.154l-1.657,2.087l-1.643,2.135l-1.562,2.126
				l-1.018,2.521L43.88,21.5l-1.732,2.075l-0.842,2.58l-1.414,2.268l-1.485,2.225l-1.079,2.474l-0.789,2.564l-1.019,2.482
				l-1.331,2.322l-1.377,2.298l-0.665,2.627l-1.23,2.37l-1.105,2.442l-0.455,2.693l-1.309,2.344l-0.526,2.643l-0.897,2.508
				l-1.176,2.416l-0.535,2.644l-0.613,2.601l-0.791,2.548l-1.308,2.381l-0.449,2.648l-1.031,2.483l-0.505,2.608l-0.548,2.622
				l-0.939,2.512l-0.535,2.598l-1.077,3.516l-0.797,2.538l-0.734,2.582l-0.145,2.718l-0.999,2.528l-0.613,2.611l-0.43,2.658
				l-1.058,2.491l-0.501,2.625l-0.377,2.673l-0.575,2.599l-0.476,2.646l-0.506,2.616l-0.856,2.557l0.03,2.742l-0.608,2.594
				l-0.074,2.686l-0.386,2.646l-0.671,2.597l-0.222,2.674L6.601,144.4l-0.411,2.635l-0.32,2.629l0.023,2.707l-0.335,2.658
				l0.211,2.693l-0.182,2.663l-0.411,2.644v2.713l-0.459,2.631l0.162,2.688l-0.152,2.658l-0.477,2.689l0.393,2.697l-0.156,2.676
				L4.47,184.47l-0.177,2.707l0.36,2.668l0.544,2.636l0.31,2.701l0.672,2.6l-0.028,2.74l0.532,2.635l0.686,2.617l0.871,2.533
				l1.04,2.506l0.455,2.69l0.944,2.506l1.353,2.357l1.152,2.424l0.895,2.56l1.132,2.424l1.437,2.278l1.361,2.312l1.338,2.334
				l1.063,2.505l1.623,2.149l1.461,2.25l1.564,2.199l2.025,1.846l1.271,2.418l1.648,2.115l1.791,2.018l1.892,1.916l1.81,2.005
				l1.87,1.932l2.133,1.675l1.676,2.219l2.081,1.77l2.378,1.479l1.737,2.175l2.485,1.297l2.061,1.772l1.937,1.998l2.453,1.289
				l2.25,1.557l2.326,1.433l2.014,1.91l2.364,1.414l2.322,1.461l2.302,1.465l2.586,1.065l2.286,1.478l2.526,1.099l2.521,1.026
				l2.406,1.41l2.401,1.297l2.378,1.367l2.62,0.868l2.584,0.908l2.628,0.842l2.54,0.98l2.517,1.033l2.607,0.865l2.619,0.83
				l2.558,0.984l2.746,0.278l2.552,0.931l2.585,0.834l2.602,0.653l2.657,0.392l2.708,0.229l2.614,0.654l2.629,0.658l2.66,0.389
				l2.661,0.498l2.742-0.23l2.621,0.695l2.724-0.162l0.601,0.072l0.271-0.221l0.047,0.262l1.744,0.238l2.714-0.15l2.659,0.629
				l2.727,0.016l2.677,0.051l2.697-0.444l2.668-0.275l2.722,0.379l2.654-0.432l2.674-0.397l2.694-0.285l2.654-0.271l1.894,0.164
				c-0.021-0.965,0.328-1.744,0.72-2.611l0.211,1.111c-0.174,0.777-0.38,1.264-0.604,1.525l0.523,0.021l2.566-0.938l2.683-0.289
				l2.675-0.414l2.657-0.297l2.501-1.012l2.708-0.217l2.453-1.182l2.485-0.67l-0.888-0.088c-0.186-0.037-0.344-0.367-0.43-0.986
				c0.049-0.369,0.983-0.627,2.808-0.73c-0.045,0.287,0.134,0.721,0.509,1.418l0.752-0.131l2.6-0.625l2.476-1.021l2.313-1.344
				l2.722-0.449l2.22-1.569l1.709-0.418l0.125-0.896c0.533,0.045,1.002-0.445,1.564-1.291l1.311-0.365
				c0.188,0.246,0.367,0.473,0.477,0.678l2.082-1.105l2.35-1.27l2.285-1.359l2.275-1.426l2.351-1.275l2.247-1.414l2.105-1.676
				l1.977-1.787l0.316-0.238c-0.562-0.192-0.822-0.368-0.822-0.528c0.658-0.239,0.861-0.074,0.965,0.396l1.646-1.301l2.332-1.359
				l1.924-1.844l1.963-1.847l1.935-1.823l1.673-2.105l2.016-1.781l1.24-2.438l2.219-1.646l1.623-2.148l1.272-2.393l1.633-2.117
				L259.248,252.706z M265.37,240.62c-0.456-0.181-0.649-0.574-0.589-1.175l1.488-0.196l0.238,1.142L265.37,240.62z
				 M268.729,235.377l-0.063,0.547c-0.58-0.062-0.86-0.842-1.162-2.303C268.393,233.702,268.623,234.286,268.729,235.377z
				 M274.012,217.366c0.902,0.102,1.496,0.471,1.846,1.135l-0.034,0.347C274.291,218.521,273.93,217.984,274.012,217.366z
				 M275.666,212.665c0.939-1.217,1.424-1.824,1.844-1.769l-0.105,0.894l0.041,1.108L275.666,212.665z M286.135,187.01l-0.982-0.842
				l2.019-0.303C286.453,186.502,286.205,186.643,286.135,187.01z M288.582,180.411l0.344,1.489l-1.322,0.589l0.812-0.818
				L288.582,180.411z M287.936,178.329l0.336,0.053c-0.133,1.097-0.871,1.679-2.172,1.568
				C286.885,178.934,287.465,178.415,287.936,178.329z M292.439,159.129l-0.035-1.094c1.035,0.309,1.193,0.445,1.156,0.877
				L292.439,159.129z M293.889,154.092l0.28-0.867l0.667,0.437L293.889,154.092z M296.574,143.877
				c0.209,0.523,0.48,0.799,0.801,0.842c-0.091,0.227-0.404,0.43-0.977,0.609c-0.17-0.516-0.445-0.791-0.775-1
				C295.65,144.104,295.971,143.967,296.574,143.877z M294.145,148.855l1.051,1.937h-1.446
				C293.389,149.29,293.684,148.855,294.145,148.855z M299.564,59.208l0.606-1.012c0.601,0.065,0.908,0.535,0.935,1.38
				c-0.154-0.02-0.334,0.372-0.521,1.332l-0.931,0.088l-0.055,0.367c-0.065-0.749-0.19-1.139-0.539-1.155L299.564,59.208z
				 M298.691,52.859c-0.488,1.358-0.869,2.025-1.316,1.958l-0.021-1.267L298.691,52.859z M294.732,39.807
				c-0.059,0.351,0.168,0.552,0.822,0.64l-0.654,2.449l0.271,0.75l-1.521-0.924l0.184-1.586L294.732,39.807z M293.547,37.646
				l-0.068,0.55l-1.168-0.872l-0.059-0.918L293.547,37.646z M289.695,33.547l-0.057,0.36l-0.853-0.281L289.695,33.547z
				 M286.584,27.728c-0.363,0.695-0.635,1.029-0.816,1C285.135,27.834,285.574,27.65,286.584,27.728z M284.207,25.082
				c-0.051,0.247-0.432,0.431-1.172,0.588l-1.245-0.157c0.211-0.322,0.633-0.697,1.089-1.493l1.385,0.538L284.207,25.082z
				 M283.275,20.816l0.152,1.639c-0.521-0.056-0.984-0.479-1.471-1.261L283.275,20.816z M260.01-2.232l0.336,0.053
				c-0.371,1.754-1.248,2.559-2.619,2.198C258.67-1.179,259.42-1.942,260.01-2.232z M254.736-0.675l-0.08,0.514
				c-0.582-0.058-0.836-0.84-1.146-2.303C254.385-2.379,254.635-1.798,254.736-0.675z M243.176-7.546l-0.057,0.378l-0.934-0.855
				L243.176-7.546z M239.836-8.126l1.055,0.141l-0.967,0.598l-0.906,0.066L239.836-8.126z M237.854-10.91l0.162,1.659
				c-0.508-0.086-1.014-0.496-1.477-1.273L237.854-10.91z M237.227-16.062l0.099,0.556c-0.099,0.844-0.625,1.183-1.548,0.903
				C235.896-15.55,236.355-16.02,237.227-16.062z M231.695-17.568c0.681,1.067,1.111,1.733,1.281,2.538
				c-1.593-0.229-2.229-0.626-2.611-0.68l0.213-1.611L231.695-17.568z M225.842-18.259c1.189,0.138,1.695,1.037,1.461,2.703
				l-1.633,0.135c0.064-0.748-0.25-1.104-0.701-1.316L225.842-18.259z M224.23-17.081c0,0.302,0.158,0.752,0.547,1.518l-1.493,0.352
				l-1.415-0.162c-0.232-0.029-0.381-0.348-0.439-0.955C221.477-16.729,222.414-16.964,224.23-17.081z M218.393-19.628l0.293,0.429
				c-0.258-0.043-0.846,0.259-1.727,0.878C216.75-19.386,217.443-19.729,218.393-19.628z M213.359-18.718l-0.861-0.11
				C212.975-19.478,213.32-19.214,213.359-18.718z M212.498-20.499l-0.945,0.413C211.646-20.315,211.947-20.517,212.498-20.499z
				 M207.413-24.049l0.87,0.312c-0.039,0.306-0.422,0.443-1.137,0.402l-0.885-0.29L207.413-24.049z M203.854-27.722
				c0.244,0.018,0.375,0.462,0.396,1.328c0.531,0.197,0.784,0.463,0.811,0.81l-0.877,1.155c-1.154-0.132-1.692-1.052-1.449-2.883
				L203.854-27.722z M197.788-28.29c0.821,0.834,1.442,1.263,1.83,1.326l-0.021,1.635l-1.296,0.188
				c-0.637-0.952-1.036-1.602-1.188-2.314L197.788-28.29z M188.272-27.463c-0.055,0.605-0.79,1.187-2.214,1.718l0.319-0.866
				c0.102-0.965,0.576-1.389,1.417-1.274L188.272-27.463z M187.448-29.384c-0.538-0.307-0.768-0.579-0.815-0.992
				C187.176-30.312,187.326-30.07,187.448-29.384z M111.875,293.948l-0.982-0.839l2.009-0.299
				C112.19,293.452,111.909,293.59,111.875,293.948z M114.649,297.932c-0.128-1.065,0.294-1.899,0.726-2.824l0.191,1.117
				C115.291,297.398,114.97,297.971,114.649,297.932z M116.695,293.094c0.027-0.211-0.267-0.414-0.834-0.652l-0.974,0.604
				c0.073-0.655,0.385-1.272,0.952-1.864c1.884,0.387,2.823,0.797,2.729,1.409C118.563,292.732,117.93,292.902,116.695,293.094z
				 M118.601,290.799c-0.173-0.758,0.271-0.988,1.052-1.16C119.58,290.297,119.209,290.676,118.601,290.799z M153.276,299.993
				l-0.052-1.104l1.291-0.395C154.151,299.534,153.798,300.042,153.276,299.993z M152.605,296.809l1.406,0.185l-0.039,0.352
				L152.605,296.809z M160.701,299.42l-1.064-0.115c-0.336-0.397-1.043-0.924-2.146-1.545c0.144-0.434,0.656-0.594,1.667-0.637
				v-1.461c0.661-0.104,0.835,0.344,0.739,1.361c-0.073,0.615,0.144,0.836,0.611,0.947c-0.06,0.594,0.075,0.901,0.422,0.954
				L160.701,299.42z M173.49,298.409l-0.982-0.857l2.037-0.293C173.792,297.895,173.515,298.036,173.49,298.409z M178.295,297.54
				c0.024-0.213-0.238-0.416-0.832-0.646l-0.963,0.625c0.088-0.678,0.385-1.301,0.963-1.901c1.869,0.389,2.775,0.803,2.718,1.438
				C180.164,297.195,179.55,297.361,178.295,297.54z M180.221,295.236c-0.188-0.747,0.269-1.002,1.029-1.143
				C181.199,294.754,180.828,295.124,180.221,295.236z M192.785,298.581c-1.086-0.121-1.563-0.722-1.432-1.799l-1.049-1.58
				l1.013,0.478l1.467-0.185c-0.115,0.957,0.123,1.463,0.687,1.7L192.785,298.581z M193.471,292.866l0.303,0.377
				c-0.256-0.004-0.838,0.276-1.724,0.901C191.85,293.094,192.553,292.747,193.471,292.866z M219.072,284.241
				c-0.779-0.531-1.162-0.935-1.076-1.396c0.57,0.074,0.898-0.016,0.926-0.262l2.171,1.004l-0.028,0.359L219.072,284.241z
				 M223.883,285.732l-0.9,0.084l0.804-0.817l1.082,0.14L223.883,285.732z M234.953,275.982l0.859-0.082l-0.035,0.363
				L234.953,275.982z M257.566,251.064l-1.461-1.244l0.478-1.217l-0.058-0.02l-0.965,1.291l-1.386,2.324l-1.639,2.195l-2.158,1.719
				l-1.672,2.164l-1.476,2.264l-2.172,1.725l-1.84,1.974l-1.723,2.108l-2.227,1.584l-1.855,1.996l-1.379,0.83l0.057,0.012
				c-0.191,1.498-1.287,2.541-3.251,3.146c-0.087-0.101-0.208-0.174-0.317-0.248l-1.205,1.104l0.554-0.246l-0.045,0.347
				c-0.033,0.194-0.359,0.312-1.027,0.229l-2.319,0.977l-2.023,1.873l-2.529,1.045l-2.141,1.719l-2.426,1.256l-2.437,1.205
				l-2.721,0.588l-1.994,1.254c1.231,0.324,1.659,0.613,1.623,0.902l-0.039,0.367c-0.924-0.104-1.42-0.535-1.625-1.266l-0.28,0.178
				l-2.443,1.201l-2.596,0.824l-2.705,0.53l-2.49,1.068L199,289.366l-2.637,0.747l-2.613,0.687l-2.563,0.953l-2.754,0.17
				l-2.565,0.953l-2.735,0.026l-2.677,0.515l-2.724,0.207l-2.35,0.06l-0.412,0.18l0.168-0.174h-0.117l-2.661,0.719h-2.709
				l-2.7,0.197l-2.731-0.054l-2.715,0.142l-2.715-0.174l-2.708,0.278l-2.697-0.479l-2.715-0.102l-2.691-0.234l-2.75,0.052
				l-2.697-0.275l-2.65-0.721l-2.677-0.371l-2.705-0.123l-2.679-0.592l-2.679-0.334l-2.603-0.765l-2.688-0.469l-2.582-0.84
				l-2.811-0.066l-2.594-0.76l-1.34-0.496l0.152,0.637l-1.339,0.562l0.809-0.809l0.071-0.514l-0.88-0.322l-2.53-0.984l-2.481-1.061
				l-2.704-0.492l-2.512-1.016l-2.353-1.441l-2.685-0.582l-2.389-1.293l-2.327-1.396l-2.475-1.055l-2.612-0.854l-2.463-1.14
				l-2.256-1.521l-2.177-1.646l-2.522-1.01l-2.194-1.658l-2.219-1.545l-2.527-1.041l-2.024-1.9l-2.427-1.223l-2.164-1.615
				l-1.919-1.93l-2.318-1.441l-2.237-1.57l-2.046-1.793l-1.649-2.198l-2.206-1.604l-1.713-2.111l-2.089-1.758l-1.977-1.83
				L45.5,244.87l-1.899-1.937l-1.621-2.156l-1.598-2.192L38.77,236.4l-1.991-1.896l-1.259-2.397l-1.499-2.283l-1.555-2.213
				l-0.941-2.584l-1.373-2.322l-1.394-2.32L27.67,217.9l-1.113-2.481l-0.973-2.519l-0.554-2.666l-1.312-2.444l-0.548-2.644
				l-0.977-2.557l-0.624-2.65l-0.172-2.729l-0.507-2.666l-0.119-2.707l-0.145-2.703l-0.064-2.698l-0.346-2.695l0.134-2.713
				l-0.331-2.715l0.091-2.722l0.351-2.682l-0.051-2.718l0.48-2.688l-0.133-2.705l0.21-2.695l0.603-2.662l-0.248-2.744l0.356-2.678
				l0.312-2.694l0.586-2.662l0.122-2.722l0.037-2.723l0.405-2.654l0.14-2.727l0.916-2.59l0.498-2.652l0.403-2.668l0.315-2.716
				l0.283-2.684l0.928-2.569l0.523-2.634l0.188-2.724l0.515-2.641l0.866-2.567l0.689-2.629l0.449-2.658l0.6-2.633l0.701-2.633
				l1.113-2.498l0.544-2.648l0.764-2.544l0.727-2.569l0.203-2.703l1.191-2.448l0.814-2.536l0.713-2.563l0.57-2.604l0.827-2.54
				l0.82-2.537l0.541-2.632l1.211-2.397l0.787-2.549l0.412-2.677l1.396-2.342l0.39-2.675l1.053-2.445l1.384-2.341l0.619-2.628
				l1.003-2.471l0.925-2.507l1.5-2.235l1.09-2.438l1.165-2.4l1.264-2.336l0.93-2.551l1.425-2.256l1.121-2.436l1.115-2.426
				l1.568-2.177l1.547-2.175l1.679-2.094l1.272-2.341l1.449-2.249l1.447-2.276l1.656-2.071l1.791-1.986l1.74-2.067l1.793-1.97
				l1.981-1.795l1.583-2.205l2.096-1.641l2.156-1.633l2.048-1.682l1.996-1.799l2.283-1.44l2.023-1.865l2.475-1.156l2.04-1.849
				l2.379-1.291l2.541-1.038l2.512-0.998l2.385-1.263l2.327-1.467l2.716-0.51l2.341-1.456L115.319-21l2.473-1.163l2.574-0.806
				l2.639-0.666l2.633-0.669l2.646-0.638l2.69-0.314l2.684-0.374l2.674-0.524l2.651-0.589l2.678-0.284l2.743,0.217l2.696-0.28
				l2.707-0.127l2.707-0.003l2.706-0.32l2.715,0.32l2.682-0.605l2.706,0.78l2.711,0.114l2.717-0.244l2.698,0.312l2.701,0.312
				l2.683,0.37l2.719,0.159l2.684,0.312l0.148,0.041l0.15-0.643c0.226,0.298,0.659,0.643,1.292,0.992l1.064,0.26l2.607,0.763
				l0.768,0.148c0.411-0.473,0.721-0.702,0.948-0.668l-0.078,0.842l1.021,0.182l2.638,0.59h2.781l2.616,0.721l1.095,0.301
				c0.342-0.318,0.653-0.507,0.889-0.552l0.367,0.045c-0.036,0.321-0.149,0.577-0.291,0.806l0.543,0.15l2.54,1.056l2.664,0.303
				l2.568,0.685l2.418,1.201l2.589,0.635l2.569,0.699l0.599,0.316l0.95-0.136c0,0.237-0.014,0.422,0,0.607l0.82,0.448l2.639,0.57
				l2.396,1.195l2.394,1.033l0.596-0.581l0.716,0.284c-0.185,0.193-0.386,0.369-0.563,0.513l1.91,0.489l2.4,1.215l2.469,1.031
				l0.748,0.479c-0.139-0.202-0.213-0.397-0.193-0.592c0.601,0.058,0.918-0.03,0.945-0.255l2.189,0.995l-0.035,0.354l-1.689,0.256
				l0.277,0.2l2.523,0.944l2.064,1.785l2.469,1.038l2.426,1.11l2.229,1.501l2.294,1.305l2.378,1.245l2.174,1.564l2.293,1.384
				l2.115,1.616l1.852,2.004l2.4,1.215l1.813,2.011l2.212,1.516l2.023,1.72l2.116,1.659l1.834,1.931l2.099,1.683l1.695,2.06
				l1.872,1.896l1.537,1.964c0.897,0.303,1.363,0.582,1.313,0.872l-0.463,0.243l0.888,1.163l1.351,2.3l0.479,0.442l0.365-0.177
				c0.658,0.667,1.181,1.404,1.545,2.174c0.888,0.645,1.291,1.064,1.291,1.245c0.486,0.062,0.775-0.327,1.041-1.139l0.869,0.267
				c-0.018,0.334-0.803,0.73-2.313,1.189c0.049-0.365-0.14-0.62-0.541-0.758l0.541,0.959l1.299,2.318l1.565,2.181l1.266,1.88
				l0.143-0.102l0.115,0.567l0.835,2.431l1.456,2.303l1.066,2.511l1.058,2.518l0.638,2.623l0.955,2.585l0.383,2.693l0.656,2.634
				l1.133,2.525l0.41,2.689l0.03,0.195l0.879-0.195l-0.547,1.5l0.285,1.141l-0.084,2.761l0.479,2.664l0.44,2.703l0.479,2.66
				l0.016,2.752l0.188,2.709l0.074,2.693l-0.424,2.732l0.105,2.726l0.414,2.719l-0.675,2.687l-0.084,2.717l-0.104,2.687l0.141,2.744
				l-0.787,2.657l-0.018,2.736l-0.496,2.66l-0.215,2.71l-0.562,2.665v0.283l0.348-0.103l0.865,0.269
				c-0.043,0.317-0.416,0.452-1.152,0.42l-0.032-0.021l0.079,1.921l-1.004,2.574l-0.021,0.479h0.029
				c0,0.058-0.029,0.077-0.029,0.115l-0.065,2.161l-0.336,2.693l-0.947,2.597l-0.43,2.679l-0.654,2.625l-0.404,2.701l-0.443,2.676
				l-0.634,2.649l-0.952,2.558l-0.928,2.569l-0.18,2.746l-0.898,2.58l-0.869,2.567l-0.24,1.326c0.32-0.276,0.601-0.375,0.912-0.26
				l-0.592,1.947l-0.561-0.336l-0.561,2.676l-0.554,1.184l0.681,0.166l-0.072,0.523c-0.324-0.105-0.568-0.195-0.785-0.26
				l-0.416,0.859l-0.25,2.746l-0.821,2.582l-0.554,1.206c0.338,0.232,0.617,0.396,0.805,0.431v1.606l-1.301,0.222
				c-0.043-0.068-0.084-0.138-0.113-0.201l-0.092,2.02l-1.191,2.469l-0.164,2.764l-1.272,2.464l-0.134,0.686
				c0.32-0.852,0.705-1.284,1.142-1.237l0.485,0.256c-0.448,0.764-0.991,1.275-1.702,1.371l-0.3,1.592l-0.979,2.564l-0.367,2.688
				l-1.072,2.521l-0.504,2.688l-0.91,2.588l-1.008,2.504l-0.672,2.651l-0.895,1.687l0.275,0.234
				c-0.029,0.362-0.347,0.707-0.857,1.053l-0.725,1.988l-0.918,2.557l-0.865,2.566l-1.227,2.424l-1.164,2.459l-0.836,2.558
				l-1.201,2.454l-1.154,2.429l-0.051,0.094l0.641-0.937l0.193,1.291l-0.863-0.274l-0.895,2.363l-1.281,2.397l-1.326,2.364
				l-1.371,2.345l-1.045,2.504l-0.268,0.397l0.764,0.738l-0.062,0.533l-1.028-0.754l-0.896,1.357l-0.705,0.975l0.057,0.289
				c-0.02,0.129-0.17,0.207-0.43,0.188l-0.51,0.744l-1.115,1.896c0.535,0.066,0.932-0.021,1.363-0.18
				c0.293,0.334,0.508,1.055,0.672,2.071c-0.242-0.039-0.43,0.357-0.533,1.226C258.096,250.247,257.646,250.48,257.566,251.064z"/>
			<path fill="#9C1421" d="M122.36,5.517l0.635,1.63l1.462,0.985l1.265,1.205l1.653,0.561l1.347,0.246l1.372-0.092l1.068,1.699
				l0.917,1.71l0.9,1.765l0.945,1.849l-1.722,1.203l-1.23,1.595l-0.915,1.797l-0.143,1.861l-0.044,0.338l0.315-0.02L132.791,24
				l1.743,0.899l1.423,1.256l0.843,1.721l0.028,1.885l-1.239,1.218l-0.346,1.773l0.264,1.846l0.94,1.563l1.24,1.341l0.713,0.48
				l1.665,0.756l1.676,0.727l1.541,1.025l1.756,0.488l1.545,1.027l1.741,0.545l1.687,0.739l1.645,0.769l1.811,0.419l1.638,0.817
				l1.768,0.434l1.734,0.558l1.736,0.572l1.793,0.377l1.722,0.55l1.772,0.495l1.637,0.881l1.849,0.215l1.757,0.521l1.662,0.752
				l1.812,0.357l1.796,0.429l1.694,0.302l-0.673-1.201c-1.246-0.979-1.928-1.759-2.091-2.354l-0.686-0.237l-1.747-0.521
				l-1.741-0.478l-1.817-0.342l-1.303-0.741c-0.064,0.045-0.104,0.058-0.177,0.096l0.021-0.188l-0.17-0.085l-1.739-0.473
				l-1.781-0.453l-1.751-0.565l-1.676-0.78l-1.695-0.609l-1.789-0.521l-1.611-0.793l-1.734-0.674l-1.644-0.732l-1.576-0.935
				l-1.721-0.636l-1.527-0.962l-1.362-1.058l1.633-0.334l1.807,0.161l1.771,0.233l1.799,0.051l1.812,0.102l1.734,0.508l1.808-0.015
				l1.706,0.634l1.779,0.141l1.76,0.406l1.732,0.47l1.807,0.143l1.705,0.576l1.803,0.236l1.765,0.392l1.731,0.422l1.802,0.251
				l1.721,0.454l1.779,0.406l1.524,0.785c-0.056-0.207-0.097-0.416-0.167-0.688l1.235,0.646l-0.019,0.141l1.062,0.102l1.766,0.504
				l1.687,0.743l1.788,0.376l1.788,0.438l1.35,0.306l0.023-0.101l0.046,0.129l0.351,0.078l1.677,0.744l1.738,0.562l1.841,0.219
				l1.76,0.568l1.679,0.735l1.787,0.421l1.73,0.646l1.666,0.778l1.789,0.513l1.686,0.603l1.676,0.758l1.687,0.768l1.519,1.026
				l1.121,1.519l-1.22,0.497l-0.015,0.085l0.955,0.121l0.051,0.834l-1.838,0.585l-1.342,0.153c-0.421-0.301-0.646-0.627-0.664-0.916
				l-0.381,0.107c-0.312,0.212-0.48,0.314-0.691,0.278l-0.006-0.166c-0.299-0.436-0.515-0.798-0.707-1.13l-1.258-0.102l-1.846-0.069
				l-1.755-0.313l-1.771-0.514l-1.709-0.502l-1.854-0.053l-1.777-0.31l-1.762-0.449l-1.762-0.328l-1.76-0.491h-0.008l0.036,0.516
				c-0.355-0.052-0.701-0.313-1.052-0.773l-0.763-0.174l-1.714-0.519l-1.799-0.186l-1.686-0.769l-1.803-0.273l-0.939-0.267
				c0,0.077,0.025,0.164,0,0.267l-0.905-0.449c0-0.039,0-0.051,0-0.077l-1.67-0.317l-1.769-0.461l-0.385-0.074l0.573,2.168
				l-0.257,0.758l0.395,0.073l1.725,0.683l1.785,0.488l1.863,0.123l1.81,0.446l1.759,0.581l1.856,0.257l1.791,0.429l0.281,0.076
				c0.042-0.04,0.075-0.076,0.117-0.133l-0.117,0.074l-0.051-0.982l1.17-0.346l-0.047,0.646l-0.402,0.241l0.99,0.366l-0.049,0.467
				c0,0.066-0.048,0.106-0.082,0.162l0.034,0.008c0.173-0.069,0.408-0.104,0.659-0.133l-0.01,0.188l1.119,0.141l1.812,0.296
				l1.812,0.354l1.83,0.272l1.803,0.381l1.849,0.168l1.819,0.4l1.811,0.271l1.812,0.348l1.835,0.112h1.862l1.821,0.178l1.828,0.29
				l0.875,0.137l0.394-0.407l0.965,0.093l0.205,0.387l1.235-0.169l0.579-0.068l1.887-0.466l1.42-1.375l0.338-0.667
				c-0.158,0.018-0.402,0.046-0.688,0.046c-0.481-1.356-0.221-1.769,0.229-1.769c-0.065,0.326,0.221,0.748,0.75,1.219l0.289-0.562
				l-0.545-1.252l-0.123-0.259l-0.049-0.326l1.297-1.431l0.498-0.621l-0.82-0.852c0.74-0.201,1.062-0.089,1.262,0.271l0.242-0.303
				l1.535-1.156l1.629-0.963l1.656-0.976l1.922-0.248l1.854-0.45l0.439-0.669l-0.654-0.496c-0.146,0.111-0.291,0.215-0.471,0.285
				l0.059-0.571l-0.999-0.754l-0.669-0.365l0.602-0.512l1.517-0.824l1.353-1.094l0.071-0.049c-0.44-0.119-0.519-0.638-0.778-1.25
				l0.922,0.292l-0.099,0.917l1.246-1.02l1.621-0.572l1.537-0.732l0.176-0.111L241.195,39l2.344,1.275l1.836,0.104l1.843-0.058
				l1.667-0.743l1.289-1.318l0.936-1.545l0.154-1.843l-0.674-1.722l-1.236-1.342l-1.354-1.191l-1.696-0.629l-1.271-0.287
				l-0.188,0.534l-0.076,0.597l0.629,0.02l1.469,0.75l0.998,2.131l-0.865,1.446l-1.014,1.215l-1.881,1.031L241.9,37.45l-1.408-0.986
				l-0.783-2.094l0.525-1.533l1.053-1.268l1.988-0.742h0.762c0.203-0.508,0.426-0.936,0.605-1.22l-0.148-0.027l-1.793,0.435
				l-1.695,0.604l-1.193,1.312l-0.891,1.529l-0.229,2.021l0.735,1.97l0.607,0.459l-0.711,0.173l-1.984,0.319l-2.014-0.008h-1.988
				h-1.892l-1.487-0.685l-0.86-1.363l-0.05-1.627l1.031-2.513l-1.297-0.441l-1.83,0.614l-1.957,0.548h-2.017l-0.192-0.045v0.045
				l-1.156,0.172l0.488-0.388l-1.097-0.315l-0.27,0.105v-0.244l-0.443-1.278h-0.065c0,0,0.022-0.056,0.022-0.084l-0.123-0.332
				l-0.194-1.795v-1.8l0.079-0.318c-0.608-0.744-0.907-1.232-1.008-1.698l0.722-0.548c0.233,0.21,0.442,0.402,0.651,0.568
				l0.469-1.502v-0.407l0.437,0.022l0.681,0.247l2.397,0.574l0.463-0.058c-0.411-0.743,0.177-1.059,1.165-1.3l-1.091,1.284
				l1.091-0.14l1.53-0.649l1.112-0.326l0.535-0.222l0.973-1.184l0.949-1.27l0.646-1.459l-0.018-1.635l-0.344-1.901l-0.484-0.664
				c-0.404,0.785-0.75,1.237-1.115,1.283c-0.6-0.083-1.143-0.52-1.799-1.381c-0.178-0.079,0.439-0.535,1.799-1.272l-0.883-0.93
				l-1.506-1.22l-1.844-0.737l-2.427-0.399l-1.646,0.303l-1.588,0.378l-1.323,0.954l-1.249,0.998l-1.141,1.154l-0.356,1.595
				l-0.075,1.604l0.395,1.979l0.979,1.805l1.524,1.398l0.369,0.187l-0.338,0.295l-1.137,1.372l-1.398,1.15l-0.355,0.226
				c-0.154,1.327-1.041,1.871-2.678,1.95c0.359-0.426,0.678-0.782,0.971-1.072l-1.197,0.319l-1.721,0.448l-1.781,0.275l-1.713-0.414
				l-1.171-1.631l-0.411-2.07l-0.301-2.114l-2.047-0.835l-1.549,0.769l-1.516,0.723l-1.555,0.831l-1.706,0.21l-1.75,0.062
				l-0.168-0.341l-1.508-0.426l-1.203-1.01l-0.99-1.195l-0.615-1.573l-0.215-1.672l0.042-1.682l0.092-1.699l0.425-1.651l0.109-0.738
				l0.495,0.555l1.641,0.786l1.297,0.647l-0.051-0.452l0.986-0.204c-0.031,0.372,0.086,0.647,0.244,0.876l1.6,0.041l1.586-0.07
				l1.627-0.216l1.389-0.87l1.328-0.911l0.859-1.393l0.604-1.509l-0.121-1.615l-0.294-1.927l-1.049-1.655l-1.252-1.499l-1.633-1.131
				l-1.854-0.398l0.853,0.851l-0.074,0.631c-0.881,0.064-0.965-0.16-0.91-0.593c-0.299-0.372-0.504-0.72-0.662-1.019l-0.232-0.037
				l-0.641-0.297l0.338-0.646l1.196-1.688l0.114-0.376l-1.008,0.376c0.127-0.912,0.594-1.485,1.401-1.731l0.099-0.292l-0.109-1.976
				l-1.057-1.672l-1.584-1.143l-1.629-1.179l-1.363,0.123l-1.924,0.192l-1.722,0.821l-1.526,1.13l-0.917,1.161L187.1-6.327
				l-0.093,1.533l0.068,0.356l-0.124-0.084l-1.272-0.054c0,0.02,0,0.02,0,0.02l-1.183,0.38c-0.11-0.177-0.19-0.3-0.277-0.452
				l-1.688-0.155l-1.752,0.535l-1.513,0.927l-1.284,1.231l-1.179,1.359l-0.601,1.747v1.84l0.45,1.704l0.538,1.692l1.175,1.369
				l0.793,0.707l-0.189-0.461c1.138-0.199,1.728,0.212,2.148,1.065l-1.47-0.159l0.069,0.032l1.587,0.853l1.668,0.641l2.62,0.384
				l0.563-0.065l-0.66,1.794l-0.918,1.657l-1.175,1.41l-1.434,1.219l-1.789,0.423l-1.882-0.047l-0.265-0.293l-1.86-0.778
				l-1.423-1.479l-0.973-1.788l-0.845-1.791l-0.233-0.215l-1.583-0.032l-1.537-0.176l-0.248,0.044l-0.912,1.642l-1.439,1.257
				l-1.444,1.144l-1.602-0.86l-1.556-0.995l-1.393-1.246l-0.785-1.701l-0.713-1.715l-0.773-1.795l1.659-0.266l1.366-0.828
				l1.381-0.783l0.815-1.349l1.181-1.471l0.051-1.87l-0.079-1.819l-0.409-1.764l-1.137-1.442l-1.152-1.369l-1.479-1.067
				l-2.501-0.942l-1.768-0.391l-1.808,0.253l-1.75,0.385l-1.636,0.63l-1.644,0.758l-1.233,1.345l-0.859,1.682l-0.291,1.859
				l0.091,1.884l0.646,1.713l1.057,1.479l1.397,1.121l1.33,1.26l2.556,0.751l0.422,0.199l-0.694,1.848l-0.741,1.827l-1.003,1.692
				l-1.458,1.408l-1.692-0.97l-1.521-1.001l-1.499-1.066l-1.104-1.488l-0.102-0.084l-2.447-0.261l-0.131,0.353l-0.12,1.48
				l-0.385,1.404l-1.032,1.413l-1.785-0.072l-1.64-0.554l-1.498-0.908l-1.47-0.964l-1.282-1.224l1.512-1.445l1.129-1.781l0.13-1.76
				l-0.364-1.701l-0.816-1.566l-1.321-1.15l-1.488-0.9l-1.598-0.625l-1.695-0.39l-1.735,0.116l-1.638,0.543l-1.584,0.778
				l-1.076,1.366l-0.685,1.575v1.704L122.36,5.517z M187.89,53.142c0.225-0.741,0.473-1.102,0.95-1.031l-0.124,0.963l-0.042,0.317
				L187.89,53.142z M250.613,33.722l-0.316,1.254l-0.107,0.799l-0.549-0.725L250.613,33.722z M245.789,37.028l1.598-0.943
				c0.76,0.104,1.34,0.599,1.598,1.669c-0.985,1.351-1.715,1.97-1.745,2.226l-0.913-0.425c0.099-0.862-0.188-1.322-0.819-1.387
				L245.789,37.028z M199.837,11.125c0.646-0.478,1.015-0.281,0.976-0.037L199.837,11.125z M200.951,9.253l0.247-0.773l0.606,0.4
				L200.951,9.253z M200.184,12.156l0.852-0.228l0.123,0.363L200.184,12.156z M202.96,10.864l-2.004,0.242l0.944-0.865l1.092,0.292
				L202.96,10.864z M202.375,8.989l-1.218-0.791l1.011-0.218L202.375,8.989z M201.465,4.3l0.312,0.217
				c-0.028,0.266-0.142,0.451-0.271,0.616l0.62,1.163l-1.313,0.018c-0.074-0.338-0.104-0.611-0.131-0.812
				c-0.059,0-0.092,0.005-0.166,0.005l0.09-0.81C200.623,4.499,200.915,4.39,201.465,4.3z M178.552,4.39
				c-0.401-0.147-0.589-0.502-0.518-1.036l1.333-0.173l0.213,0.996L178.552,4.39z M181.813,5.699l-0.292-0.117l-1.804-1.694
				l-0.483-1.555l0.676-1.454l0.917-1.467c-0.13-0.323-0.244-0.743-0.354-1.313c0.579,0.076,0.832,0.348,0.974,0.854l0.983-0.686
				l1.931-0.085l0.279,0.295l0.687,0.641c0.37-0.381,0.711-0.656,0.992-0.794l0.313,0.03c-0.122,0.663-0.388,1.188-0.672,1.542
				l0.281,1.547l-0.698,1.738l-0.839,1.424l-1.235,1.118L181.813,5.699z M183.781,8.454l-0.478-1.375
				c0.016-0.216,0.682-0.289,2.115-0.053C185.365,7.528,184.809,8.004,183.781,8.454z M142.792,27.222l-1.337-0.947l-1.293-0.983
				l1.293-0.767l1.23-1.019l0.82-0.517l-0.027,1.793l0.201,1.817l0.198,1.952L142.792,27.222z M198.404,45.988l0.08-0.798
				l0.707,1.048L198.404,45.988z M219.689,53.384l-1.629,0.212l-0.09,0.084l-1.544-0.963l-1.565-0.835l-0.06-0.042
				c-0.174,0.249-0.319,0.392-0.528,0.42l-0.808-0.093l-1.118-0.127c0.149-0.396,0.269-0.758,0.44-1.108l-1.272-0.424l-1.455-1.111
				l-1.683-0.648l-1.062-0.344c-0.354,0-0.588,0.126-0.588,0.381l-1.367-0.81c-0.336-0.092-0.533-0.219-0.948-0.443l0.203-0.176
				l-1.23-0.641l-0.196-0.063l-0.812,0.157c-0.083-0.152-0.048-0.312,0.038-0.451l-0.721-0.272l-0.104-0.017h-1.23l0.318-0.271
				l-0.732-0.195l-1.639-0.758l-1.723-0.543l-1.703-0.572l-1.322-0.58c-0.234,0.072-0.457,0.089-0.709,0.072
				c0.082-0.101,0.109-0.182,0.16-0.27l-1.569-0.336l-1.694-0.61l-1.731-0.509l-1.775-0.333l-1.714-0.618l-1.735-0.541l-1.774-0.33
				h-0.194c-0.272,0.305-0.438,0.523-0.468,0.647l-0.91-0.436c0.015-0.242,0.015-0.431,0-0.624l-0.735-0.269l-1.847-0.143
				l-1.676-0.729l-1.793-0.272l-1.771-0.46l-1.736-0.497l-1.796-0.186l-1.751-0.603l-1.809-0.231l-1.75-0.355l-1.771-0.357
				l-1.816-0.189l-1.771-0.361l-1.77-0.274l-1.746-0.669l-1.831,0.017l-1.789-0.281l-1.771-0.476l-1.807-0.045l-1.793-0.07
				l-1.816,0.025l-0.603-0.654l0.157-0.69l1.756-0.258l1.815,0.115l1.785,0.323h1.851l1.79,0.238l1.792,0.403l1.792,0.104
				l1.83,0.191l1.795,0.316l1.816,0.26l1.77,0.398l1.794,0.192l1.76,0.467l1.777,0.389l0.104,0.041v-0.022
				c0.519-0.212,1.021-0.281,1.63-0.212l0.131,0.703l1.693,0.262l1.798,0.189l1.8,0.432l1.714,0.56l1.768,0.6l0.748,0.05l1.35-0.828
				c0.647,0.089,1.136,0.487,1.443,1.229l0.083,0.032l1.76,0.528l1.788,0.402l1.732,0.599l1.762,0.526l1.731,0.656l1.789,0.324
				L194,41.459l0.412-0.189l0.055,0.371l1.575,0.364l0.675,0.273c-0.05-0.782-0.207-0.926-0.506-1.104l1.45,0.172
				c0.722,0.464,1.05,0.791,1.022,1.111l-0.638-0.251l-1.123,0.139l0.823,0.343l1.732,0.602l1.825,0.339l1.642,0.896l1.775,0.484
				l1.659,0.789l1.847,0.376l1.711,0.636l1.684,0.754l1.604,0.942l0.629,0.242c0.506-0.879,0.898-1.323,1.133-1.29l-0.146,1.459
				c-0.031,0.059-0.031,0.111-0.031,0.169l0.15,0.032l1.76,0.546l1.559,1.04l1.699,0.687l0.209,0.027l0.103,0.176L219.689,53.384z
				 M152.708,26.6l1.519-0.435l1.569-0.581l1.632-0.356l1.588-0.497l1.577-0.524l1.584,0.745l1.236,1.245l1.512,0.85l1.567,0.778
				l1.563,0.979l-1.609,0.44l-1.451,0.433l-1.386,0.589l-1.866,0.402l-1.796,0.601l-1.469-0.948l-1.36-1.076l-1.549-0.795
				l-1.417-1.008L152.708,26.6z M173.952,33.99l1.678-1.595l0.217,0.855c-0.326,0.928-0.778,1.539-1.352,1.786L173.952,33.99z
				 M178.432,29.328l-0.469,1.234l-0.043,0.315l0.177-0.025l1.646-0.518l1.705-0.274l1.684-0.385l1.648-0.413l1.507,1.037
				l1.172,1.51l1.472,1.117l1.517,1.105l0.813,0.719l-0.155-1.084c0.098-0.95-0.051-1.461-0.491-1.523
				c0.095-0.752-0.085-1.153-0.487-1.203l0.862-0.378l0.787,0.104c-0.048,0.473,0.547,0.918,1.788,1.349l-0.092,0.804l-1.67,0.302
				l0.331,1.489l-0.802,0.211l0.604,0.519l-1.893,0.254l-1.771,0.355l-1.698,0.457l-1.794,0.155l-1.773,0.357l-1.316-1.145
				l-1.2-1.287l-1.43-1.014l-1.247-1.224l-1.342-1.076l0.771-0.152C177.73,29.874,178.122,29.286,178.432,29.328z M178.197,28.634
				l0.251-0.77l0.652,0.076C179.06,28.345,178.764,28.606,178.197,28.634z M192.652,36.792l-0.438,0.917
				C191.85,36.835,192.133,36.708,192.652,36.792z M194.248,34.554c-0.059,0.607-0.329,0.955-0.775,1.066
				C193.027,35.212,193.461,34.929,194.248,34.554z M213.166,41.782l1.218,1.528l-1.644,0.077l-1.694,0.211l-1.724-0.084
				l-1.699,0.114l-1.68,0.083l-1.631-0.113l-1.123-1.008c-0.229,0.229-0.441,0.324-0.662,0.314l-0.452-0.223l-2.292,0.039
				l-0.78-0.246l-1.584-3.146c0.479-0.555,1.099-0.777,2.017-0.685l-0.677-0.599l-1.255-1.484l1.659-0.021l1.698-0.194l1.709,0.049
				l1.679-0.049l1.71-0.145l1.787-0.252l0.689,1.079l0.397-0.225c-0.071,0.465,0.67,1.031,2.222,1.748l-0.146,1.074l0.871,0.754
				L213.166,41.782z M213.311,40.127c0.836-1.099,1.283-1.621,1.65-1.581l-0.1,0.801l0.07,0.976L213.311,40.127z M213.443,45.687
				c-1.375-0.286-1.695-0.764-1.611-1.33c0.784,0.098,1.357,0.422,1.668,1.016L213.443,45.687z M211.046,46.497l-1.002,0.199
				c0.048-0.344,0.257-0.708,0.614-1.079L211.046,46.497z M197.219,32.972l0.846-0.384l0.594,0.54L197.219,32.972z M215.465,40.837
				l1.121,0.142l-0.158,1.134l-0.324,0.288l-0.815-0.104L215.465,40.837z M219.514,45.095c0.56-0.45,0.799-0.186,0.805,0.101
				L219.514,45.095z M219.951,54.938c0.711-0.147,0.953,0.019,0.912,0.268L219.951,54.938z M223.625,48.404l-1.602,0.232
				l-1.053,0.234l1.497,1.47L222.376,51l-0.817,0.061l-0.231-0.871c-0.392-0.468-0.618-0.885-0.702-1.273l-0.205,0.068l-1.627,0.016
				l0.748-0.612l1.018-1.382l1.029-1.355l0.779-1.521l0.169-0.502l0.487,0.269l0.402,1.624l0.776,1.175l0.879,1.07l0.246,0.622
				L223.625,48.404z M223.176,43.083l0.184,1.17C223.176,44.227,223.061,43.894,223.176,43.083z M232.843,44.28l-0.54,1.708
				c-0.576-0.066-1.031,0.055-1.35,0.343c0.066-0.533,0.021-0.971-0.167-1.348l0.812-1.179l0.858-0.39
				C232.635,43.415,232.785,43.712,232.843,44.28z M232.408,38.515l1.271,0.148c0.607,0.075,0.938,0.441,1.019,1.087l-0.878,0.407
				c-0.836-0.112-0.978,0.041-1.012,0.371l-1.182-0.974C231.695,39,231.955,38.645,232.408,38.515z M228.09,40.446l-0.393-0.876
				C227.889,39.579,228.014,39.872,228.09,40.446z M227.303,33.312c-0.078,0.752-0.486,1.073-1.266,0.99
				C226.121,33.722,226.479,33.365,227.303,33.312z M223.706,34.674c1.136,0.122,2.087,0.469,2.825,0.987l-1.859,0.576l-0.928-0.428
				c-0.385,0.445-0.506,0.585-0.721,0.562C223.135,35.555,223.34,35.18,223.706,34.674z M226.281,10.994l0.685,0.902L226,11.929
				C225.941,11.143,226.121,10.965,226.281,10.994z M219.107,19.921l-1.176-1.025L217.16,17.5l0.152-1.915l0.785-1.734l1.057-1.186
				l1.272-0.997l1.603-0.023l1.576,0.037l0.992,0.239l1.243,1.007l0.522,1.531v1.568l0.265,0.053
				c0.886-0.207,1.353,0.391,1.627,1.518l-0.741,0.709c-0.035,0.302,0.199,0.5,0.741,0.59l-0.438,1.086l-0.955-0.589l-0.926-0.139
				c-0.414-0.021-0.687-0.198-0.918-0.469l-0.549,0.485l-1.335,0.872l-1.547,0.354l-1.558-0.3L219.107,19.921z M217.725,30.358
				l-0.035,0.309c-0.442-0.049-0.643-0.564-0.819-1.561C217.602,29.376,217.782,29.781,217.725,30.358z M215.994,33.728
				l-0.832,0.233l-0.379-0.869l0.824-0.069L215.994,33.728z M215.971,29.049l-0.195-0.997l0.848-0.396l-0.255,0.951l0.174,1.012
				l-1.328,0.324l-0.557-0.894H215.971z M210.615,30.358l-0.074,0.475l-0.76-0.589L210.615,30.358z M206.607,27.784
				c-0.693-0.072-1.181-0.038-1.635-0.038l-0.043-0.824C206.111,27.075,206.469,27.343,206.607,27.784z M203.499,27.896
				l-1.046,0.697c0.062-0.717,0.268-1.117,0.324-1.597L203.499,27.896z M199.023,24.419l0.879,0.762l-0.422,0.748l-0.073,0.824
				l-0.542,0.258c-0.608-0.294-0.9-0.718-0.85-1.248l0.231-1.605L199.023,24.419z M197.113,0.921l0.373,0.121l1.537,1.221L199,4.499
				l-0.743,2.131l-0.836,1.714l-1.272,1.517l-1.899-0.198l-0.431-0.045l-1.603-0.899l-0.955-1.593V5.272l0.071-0.366l-0.456-0.124
				l0.114-0.967l0.663-0.136l0.751-1.423l1.451-0.945l1.574-0.599L197.113,0.921z M197.113-7.659
				c-0.318,0.814-0.592,1.236-0.786,1.179c-0.321-0.341-0.47-0.537-0.929-0.581L197.113-7.659z M189.85-3.854l-0.239-1.361
				l0.198-1.37l1.058-1.262l1.404-0.81l1.629-0.075l0.33-0.096l0.34,2.015l-0.133,1.897l-0.875,1.918l-1.949,0.94l-0.228-0.257
				L189.85-3.854z M180.323,20.577l-0.268,0.934c-0.541-0.045-0.843-0.25-0.927-0.59l0.106-0.807L180.323,20.577z M177.167,16.921
				l0.589,0.567c-0.383,1.476-0.74,2.175-1.225,2.129v-1.312C176.765,18.063,176.934,17.597,177.167,16.921z M176.5,19.786
				l0.049,0.975l-1.284-0.15C175.324,20.366,175.68,20.086,176.5,19.786z M174.341,17.557l0.476,0.067
				c-0.216,0.429-0.537,0.719-0.94,0.857L174.341,17.557z M173.843,18.806l0.375,1.031c-0.286,0.625-0.554,0.913-0.777,0.874
				l-0.39-0.874L173.843,18.806z M172.868,17.557l0.311,0.04c-0.172,0.625-0.374,0.922-0.785,0.858L172.868,17.557z M154.675,2.426
				l-0.786-0.12l-1.621-0.751l-0.951-1.514l-0.476-1.653l0.101-1.594l0.619-1.521l2.35-0.658h0.802l1.618,0.727l1.16,1.424
				l0.307,1.768l-0.118,1.577l-0.684,1.49L154.675,2.426z M140.32,18.584l1.843-0.044l1.794,0.245l1.803,0.129l1.819,0.104
				l1.868-0.037l1.74,0.543l1.843,0.107l1.824,0.032l1.824,0.195l1.771,0.408l1.806,0.262l1.798,0.143l1.78,0.436l1.799,0.262
				l1.793,0.343l1.755,0.518l1.845,0.178l1.754,0.466l0.444,0.093c0.113-0.155,0.15-0.304,0.174-0.469l0.726,0.589l0.075,0.093
				l0.365,0.071l1.82,0.221l1.758,0.55l1.754,0.49l1.833,0.252l1.79,0.32l1.716,0.681l1.784,0.095l1.655,0.742l1.763,0.274
				l1.696,0.533l1.642,0.582l1.773,0.271l1.648,0.726l1.742,0.37l1.684,0.535l0.488,0.169c0.121-0.097,0.215-0.131,0.349-0.131
				v0.268l0.837,0.299l1.729,0.39l1.664,0.606l1.678,0.582l1.535,0.989l1.758,0.367l1.643,0.664l0.488,0.275l-0.602-0.871
				l0.479,0.048l-0.021-0.021c0.047,0.021,0.099,0.021,0.142,0.021l0.521,0.079l1.267,0.151c-0.617,0.467-0.961,0.729-1.134,0.974
				l0.392,0.243l1.687,0.561l1.668,0.642l1.672,0.596l1.519,0.962l1.603,0.761l1.259,0.337l0.207-0.619l0.261,0.506
				c0,0.081-0.027,0.143-0.036,0.206l0.036,0.027l1.622,0.752l1.504,0.952l1.697,0.653l1.131,0.63l0.319-0.98l0.472,0.217
				c-0.056,0.46-0.172,0.793-0.353,1.012l0.086,0.208l0.121,0.201l-0.858,2.453l-1.039,0.145h-0.152l-0.038-0.084l-1.629-0.804
				l-1.507-1.016l-1.562-0.896l-1.576-0.924l-1.631-0.734l-1.705-0.63l-1.629-0.822h-0.008c-0.271,0.274-0.638,0.394-1.141,0.34
				l0.387-0.793l-0.816-0.47l-1.582-0.907l-0.74-0.206c-0.26,0.157-0.568,0.307-0.926,0.44l0.195-0.614l-0.304-0.079l-1.716-0.644
				l-1.632-0.778l-1.688-0.622l-1.646-0.751l-1.716-0.694l-1.639-0.742l-1.77-0.405l-0.823-0.507l-0.487,0.039l-0.936-0.289
				l0.411-0.272l-1.097-0.262l-0.701,0.159c0.062-0.121,0.113-0.226,0.158-0.324l-1.562-0.63l-1.704-0.571l-1.8-0.31l-1.65-0.819
				l-1.76-0.371l-1.665-0.644l-1.83-0.203l-1.774-0.407l-1.724-0.485l-1.715-0.695l-1.806-0.29l-1.798-0.206l-0.653-0.256
				l0.306,0.518c-0.346,0.117-1.052,0.899-2.049,2.193l-0.357-1.191l0.137-1.121l-0.311-1.03l-0.573-0.098l-1.78-0.286l-1.808-0.271
				l-1.73-0.5l-1.833-0.164l-1.747-0.47l-1.787-0.238l-1.798-0.143l-1.781-0.407l-1.789-0.316l-1.823-0.143l-1.798-0.056
				l-1.779-0.351l-1.819-0.13l-1.783-0.304l-1.816,0.082l-1.793-0.244l-1.815,0.131l-1.789-0.195l-1.771-0.216l-0.057-0.145
				l0.14-1.423L140.32,18.584z M126.029,1.423l1.285-0.111l1.483,0.994l1.036,1.434l0.082,2.47l-1.142,1.215l-1.271-0.382
				l-0.053,0.104l-1.626-0.733l-1.102-1.459L124.85,2.4L126.029,1.423z"/>
			<path fill="#9C1421" d="M249.807,82.637l-1.906-0.57l-1.918-0.604l-1.965-0.465l-1.959-0.443l-1.871-0.759l-1.936-0.51h-0.002
				c0.166,0.174,0.281,0.328,0.281,0.515l-0.864,1.168c-1.04-0.118-1.534-0.804-1.524-2.189l-1.848-0.215l-1.945-0.517l-0.047-0.018
				c0.303,0.235,0.57,0.343,0.773,0.394l-0.01,1.619l-1.295,0.214c-0.64-0.954-1.045-1.625-1.166-2.31l0.34-0.454l-0.483-0.184
				l-1.915-0.6l-1.975-0.419l-1.887-0.723l-1.986-0.277l-1.949-0.485l-1.891-0.644l-1.135-0.271
				c0.014,0.188,0.058,0.385,0.092,0.646l-1.312,1.657c0.116-1.245,0.3-2.047,0.531-2.442l-0.168-0.038l-1.938-0.431l-1.878-0.84
				l-1.87-0.725l-2.063-0.053l-1.802-0.974l-2.039-0.247l-1.893-0.697l-1.949-0.461l-1.976-0.376l-1.876-0.742l-2.014-0.26
				l-1.858-0.77l-0.394-0.101c-0.242,0.188-0.385,0.379-0.385,0.532l-0.145,0.907l1.064,0.479c0.867,0.774,1.232,1.672,1.129,2.682
				l-0.771-0.041c0,0.1,0.016,0.178-0.004,0.255c-1.848,0.083-2.893,0.245-3.897,0.606l0.015,1.259l-1.397-0.352
				c0.673-0.4,1.13-0.953,1.599-2.087l-0.581-0.069c-0.465-0.051-0.805,0.565-0.959,1.868l-1.185-0.684l0.889-2.801l2.567,1.189
				c0.071-0.02,0.151-0.056,0.23-0.074l0.78-2.127l-1.965-0.964l-0.693,0.229l0.151-0.503l-0.421-0.186l0.66-1.124l-0.152-0.031
				l-2-0.305l-1.944-0.597l-1.942-0.471l-1.853-0.863l-2.055-0.12l-1.789-0.974l-2.007-0.382L174.267,62l-1.874-0.757l-2.024-0.247
				l-1.806-0.993l-0.905-0.149l0.033,0.804l-1.021-0.481c0.052-0.143,0.197-0.283,0.43-0.396l-0.542-0.068l-1.937-0.504
				l-1.997-0.326l-1.842-0.9l-1.984-0.328l-1.889-0.701l-1.951-0.467l-1.928-0.574l-1.996-0.332l-1.854-0.818l-2.014-0.26
				l-1.94-0.502l-1.864-0.746l-1.907-0.664l-1.926-0.6l-1.962-0.504l-1.918-0.527l-1.948-0.581l-1.995-0.289l-1.929-0.567
				l-1.938-0.604l-1.968-0.387l-1.976-0.418l-1.883-0.738l-1.922-0.564l-1.944-0.523l-2.029-0.298l-1.903-0.616l-1.972-0.484
				l-1.835-0.867l-1.971-0.375l-2.005-0.393l-1.898-0.662l-1.939-0.557l-2.004-0.286l-1.854-0.856l-1.978-0.504l-1.937-0.281
				l-0.131,0.608l0.967,1.517l1.142,1.555l0.646,1.831l0.355,1.915l0.823,1.758l0.599,1.847l0.302,1.937l-0.086,1.941l-0.304,1.903
				l0.193,1.989l-0.357,1.916l-0.731,1.926l-0.382,2.001l-0.336,1.978l-0.868,1.869l-0.135,2.054l-0.956,1.841l-0.271,2.03
				l-0.47,1.957l-0.354,2.001l-0.668,1.908l-0.446,1.988l-0.424,1.984l-0.463,1.943l-1.016,1.838l-0.532,1.94l-0.03,2.104
				l-1.007,1.82l-0.273,2l-0.293,2.028l-0.683,1.923l-0.366,2.006l-0.834,1.884l-0.307,2.007l-0.805,1.898l-0.578,1.959
				l-0.312,1.993l-0.707,1.927l-0.432,1.961l-0.755,1.907l-0.255,2.02l-0.536,1.956l-0.477,1.979l-0.371,2.006l-0.86,1.86
				l-0.554,1.95l-0.286,2.02l-0.958,1.848l-0.177,2.047l-0.724,1.897l-0.485,1.974l-0.773,1.877l-0.427,2.051l-0.241,2.08
				l-0.852,1.904l-0.26,1.993l-0.451,1.938l-0.289,2.005l-0.725,1.848l-0.152,2l-0.445,1.949l-0.068,1.994l-0.348,1.969
				l-0.015,1.972l-0.424,1.979l0.348,2.01l-0.262,1.986l0.32,1.984l-0.114,1.997l0.547,1.938l0.081,2.006l0.188,1.973l0.458,1.939
				l0.336,1.967l1.028,1.777l0.247,2.016l0.921,1.768l0.754,1.849l0.852,1.784l0.691,1.884l1.357,1.519l1.051,1.647l1.057,1.687
				l1.236,1.562l0.875,1.856l1.364,1.408l1.422,1.42l1.315,1.508l1.364,1.457l1.687,1.103l1.589,1.19l1.669,1.222l1.638,1.34
				l1.568,1.412l1.747,1.196l1.93,0.818l1.712,1.248l1.737,1.156l1.616,1.352l1.793,1.068l1.952,0.875l1.784,1.098l1.457,1.141
				l1.517,1.009l1.891,0.799l1.554,1.235l1.216,1.63l1.697,1.153l1.048,1.703l1.086,1.68l0.824,1.832l1.031,1.689l0.721,1.834
				l0.328,1.436l1.713-1.129l1.452-1.319l1.459-1.422l1.724-1.023l1.845-0.78l1.653-1.111l1.924-0.607l1.952-0.439l1.851-0.75
				l2.024,0.179l0.899-0.187l-1.378-0.694l1.602-2.716l2.323-1.161c0.654,0.686,1.188,1.413,1.527,2.176
				c0.898,0.651,1.319,1.08,1.305,1.244c0.458,0.075,0.762-0.322,1.045-1.146l0.872,0.303c-0.029,0.332-0.802,0.711-2.323,1.158
				c0.074-0.476-0.267-0.754-0.992-0.841c-1.144,0.525-1.733,1-1.795,1.416v0.035h0.56l2.075-0.221l2.109,0.104l2.067-0.15
				l2.09,0.342l2.077-0.568h2.075l2.083-0.117l2.099,0.181l2.031-0.578l2.061-0.144l2.062-0.403l2.021-0.015l2.022-0.291
				l1.931-0.623l1.88-0.754l1.985-0.393l1.814-0.912l0.798-0.344c-0.468-0.469-0.655-1.254-0.51-2.492l1.148-0.408
				c0.229,0.027,0.346,0.482,0.374,1.301c0.497,0.232,0.746,0.488,0.803,0.783l1.087-0.471l1.916-0.672l1.783-0.914l1.797-0.953
				l1.692-1.119l1.568-1.281l1.46-1.434l1.647-1.154l1.431-1.426l1.276-1.566l1.315-1.547l1.511-1.367l1.002-1.787l1.18-1.594
				l1.115-1.66l1.5-1.469l0.803-1.84l0.984-1.771l0.746-1.875l1.1-1.715l0.709-1.893l1.043-1.736l0.474-1.986l0.567-1.946
				l0.765-1.854l0.756-1.896l0.5-1.941l0.484-1.967l0.938-2.088l0.367-2.201l0.705-2.162l0.572-2.184l0.634-1.889l0.372-1.971
				l0.428-1.945l0.59-1.9l0.103-2.045l0.704-1.869l0.337-1.986l0.918-1.805l0.243-2.018l0.328-1.965l1.011-1.793l0.221-2.019
				l0.501-1.92l0.729-1.86l0.095-0.796l-0.271-0.239l0.281-0.017l0.098-0.948l0.576-1.896l0.77-1.875l0.035-1.508
				c-0.252,0.029-0.51,0.057-0.805,0.01c0.469-0.594,0.872-0.992,1.217-1.262l0.592-1.078l0.514-1.928l0.158-2.025l0.395-1.977
				l0.693-1.865l0.795-1.873l0.236-2.019l0.283-0.771l-1.277,0.027c0.736-1.563,1.277-2.021,1.701-1.983l0.049,0.016l0.137-1.194
				l0.531-1.94l0.549-0.975l-0.232,0.056l-0.055-1.102c0.324,0.092,0.559,0.177,0.715,0.241l0.031-0.014l0.158-2.035l0.779-1.854
				l0.131-0.411l-0.312,0.122l0.278-0.867l0.196,0.135l0.23-0.906l0.326-1.646h-1.188c-0.349-1.485-0.053-1.942,0.416-1.942
				l0.852,1.564l0.414-1.881l0.949-1.817l0.271-1.484c-0.062,0.03-0.134,0.069-0.218,0.102c-0.195-0.528-0.458-0.79-0.806-1.015
				c0.033-0.199,0.348-0.353,0.975-0.431c0.049,0.174,0.126,0.293,0.212,0.4l0.134-1.543l0.635-1.888l0.881-1.825l0.535-1.897
				l0.283-1.974l0.813-1.818l0.834-1.802l0.881-1.776l1.129-1.65l1.521-1.312l0.936-1.784l1.441-1.367l1.716-1.029l1.685-1.086
				L249.807,82.637z M240.863,81.354l0.887,0.284c-0.023,0.304-0.422,0.439-1.125,0.409l-0.887-0.273L240.863,81.354z
				 M234.26,105.937l-0.102,0.728c-0.971,0.038-1.059-0.196-0.98-0.681c-0.656-0.804-1.006-1.508-1.018-2.109L234.26,105.937z
				 M235.348,92.469l0.226,1.124c-0.302,1.169-0.609,1.73-0.935,1.699C234.525,94.248,234.936,93.394,235.348,92.469z
				 M235.055,97.878l0.209,1.292C235.055,99.164,234.924,98.764,235.055,97.878z M232.521,111.348l-1.068-0.304
				C232.287,110.869,232.525,111.075,232.521,111.348z M230.889,119.272l0.461,0.785l-1.389,0.916
				C229.887,119.76,230.33,119.195,230.889,119.272z M238.605,88.142c-0.18-0.743,0.266-0.981,1.037-1.124
				C239.568,87.666,239.211,88.051,238.605,88.142z M235.823,88.546c1.899,0.369,2.806,0.796,2.741,1.424
				c-0.033,0.133-0.645,0.313-1.881,0.486c0.016-0.207-0.258-0.431-0.83-0.638l-0.984,0.591
				C234.963,89.762,235.271,89.146,235.823,88.546z M230.422,107.653l0.918-0.091l0.488,0.435c-0.809,0.869-1.502,1.274-2.326,0.986
				L230.422,107.653z M223.957,127.727l0.91-0.092c0.414-1.138,0.912-1.695,1.463-1.447c1.223,0.521,1.828,0.424,2.508,0.135
				c0.281,0.369,0.492,1.046,0.648,2.076c-0.209-0.035-0.404,0.354-0.5,1.209c-0.828-0.112-1.289,0.125-1.363,0.74l-1.473-1.271
				l0.504-1.209l-1.234-0.339c-0.206,0.584-0.422,0.869-0.643,0.832c-0.092,0.755-0.512,1.181-1.234,1.298
				c-0.203-0.031-0.33-0.457-0.396-1.312L223.957,127.727z M217.689,144.018l-0.201,1.592c-0.092,1.195,0.008,1.814,0.294,1.875
				c-0.124,1.177-0.454,1.802-0.952,1.854l-0.871-0.098l-1.26-0.16C216.055,145.629,217.16,143.952,217.689,144.018z
				 M230.889,90.474l2.021-0.305c-0.738,0.646-1.001,0.795-1.037,1.167L230.889,90.474z M215.658,155.029l-1.943-0.227l-0.429-0.973
				C214.539,153.645,215.213,154.075,215.658,155.029z M215.508,153.323l-0.172-1.644l0.275-0.889
				c1.367-0.236,2.078-0.592,2.127-0.992c1.24,0.137,1.781,0.438,2.408,0.992l-0.349,1.244l1.106,0.154l0.064,0.887l-2.076,0.664
				l-1.473,0.174c-0.553-0.387-0.807-0.805-0.77-1.18C215.994,153.139,215.795,153.354,215.508,153.323z M215.842,170.256
				l0.664,0.604c-0.439,1.658-0.848,2.445-1.367,2.377l-0.011-1.442C215.393,171.52,215.574,171.008,215.842,170.256z
				 M234.295,84.739l0.367,1.479l-1.33,0.56l0.814-0.781L234.295,84.739z M233.641,82.646l0.357,0.044
				c-0.143,1.106-0.867,1.683-2.17,1.559C232.604,83.253,233.229,82.741,233.641,82.646z M212.348,153.915l-0.117,0.89l-1.849,0.303
				l0.341,1.676l-0.94,0.262l-0.218-1.305c0.144-1.062-0.035-1.627-0.518-1.699c0.112-0.846-0.08-1.285-0.557-1.332l0.965-0.43
				l0.874,0.127C210.282,152.922,210.951,153.418,212.348,153.915z M197.42,192.04l0.807-0.633
				c-0.039,0.231,0.258,0.676,0.924,1.368l-0.109,0.711C197.693,192.775,197.346,192.559,197.42,192.04z M197.486,195.838
				l-0.396,0.318l-0.887-0.105l0.179-1.623l1.259,0.164L197.486,195.838z M199.407,189.176c0.108-0.961-0.177-1.455-0.899-1.531
				l0.327-1.264l1.758-1.031c0.845,0.08,1.483,0.656,1.783,1.836c-1.104,1.51-1.925,2.191-1.96,2.492L199.407,189.176z
				 M205.18,172.157l0.1,0.715c-0.316,1.551-0.713,2.297-1.182,2.235C204.333,173.135,204.848,172.223,205.18,172.157z
				 M203.085,184.198l1.099-1.507l-0.367,1.423l-0.104,0.889L203.085,184.198z M220.312,80.835l-0.736,1.527l-1.355-0.688
				C218.393,81.345,219.023,80.997,220.312,80.835z M219.257,75.977l0.677,0.435c-0.07,0.596-0.356,0.934-0.844,1.001l0.102-0.883
				l-0.168-1.645L219.257,75.977z M215.971,83.742l0.883,0.103l0.308,0.403l-1.521,0.533c0.031-0.236-0.248-0.401-0.83-0.64
				C214.961,83.796,215.336,83.671,215.971,83.742z M214.564,87.752l-1.254-0.174l-0.832-1.897l-0.855,0.206l-0.615-0.802
				l1.986,0.066C213.904,86.479,214.238,87.319,214.564,87.752z M213.275,80.501l0.326,0.225c-0.074,0.724-0.484,1.021-1.197,0.949
				C212.348,80.876,212.746,80.625,213.275,80.501z M213.666,77.3c-0.727-0.086-1.207-0.504-1.291-1.434
				C213.354,75.977,213.752,76.458,213.666,77.3z M209.268,83.648c1.187,0.075,1.75,0.462,1.715,0.744l-0.084,0.54
				C210.044,84.828,209.506,84.393,209.268,83.648z M209.615,86.589l-0.271,0.859C209.089,86.894,209.389,86.626,209.615,86.589z
				 M213.633,73.181c-0.062,0.57-0.678,1.094-1.801,1.59l-0.57-1.508C211.295,73.011,212.061,72.941,213.633,73.181z M207.93,86.87
				c-0.498,1.371-0.891,2.029-1.332,1.977l-0.027-1.287L207.93,86.87z M208.836,75.313l-1.957-0.233l-0.422-0.965
				C207.736,73.92,208.379,74.348,208.836,75.313z M203.95,73.816c-0.05,0.358,0.163,0.551,0.832,0.656l-0.669,2.442l0.279,0.773
				l-1.512-0.929l0.189-1.616L203.95,73.816z M202.77,71.669l-0.066,0.551l-1.171-0.874l-0.066-0.909L202.77,71.669z
				 M200.018,73.524l0.109,0.553c-0.047,0.234-0.359,0.319-1.104,0.038L200.018,73.524z M194.443,77.309l0.693,0.077
				c-0.102,0.271-0.347,0.561-0.74,0.842l0.142-0.123l0.918-0.075c0.088-0.216,0.188-0.411,0.251-0.601h-0.204
				c0.248-0.561,0.463-0.84,0.833-0.803c0,0,0,0.025,0,0.036c0.188-0.105,0.355-0.174,0.562-0.073c1.244,0.5,1.863,0.412,2.539,0.12
				c0.287,0.364,0.5,1.067,0.644,2.069c-0.224-0.037-0.411,0.389-0.501,1.229c-0.852-0.123-1.288,0.13-1.352,0.718l-1.461-1.25
				l0.498-1.211l-1.258-0.344c-0.215,0.594-0.434,0.857-0.631,0.82c-0.104,0.748-0.5,1.201-1.234,1.303
				c-0.222-0.002-0.367-0.461-0.391-1.303l0.621-0.486c-0.367,0.26-0.909,0.552-1.585,0.843L194.443,77.309z M197.664,87.398
				c-0.021,0.161-0.551,0.478-1.553,0.904C196.363,87.319,197.05,87.14,197.664,87.398z M193.661,73.404
				c0.194,0.026,0.343,0.347,0.42,0.96l-0.62,0.486c-0.132,0.323-0.383,0.542-0.791,0.67l0.516-0.583
				c-0.17-0.087-0.277-0.384-0.342-0.9L193.661,73.404z M177.878,70.847l0.629,0.8c1.073,0.128,1.497,1.089,1.264,2.875
				l-1.323,0.382c-1.048-1.574-1.492-2.477-1.397-3.257L177.878,70.847z M171.026,62.402c1.184,0.157,1.675,1.038,1.482,2.714
				l-1.656,0.112c0.069-0.753-0.247-1.097-0.716-1.292L171.026,62.402z M164.086,75.438l-1.441,1.459
				C162.092,76.063,162.801,75.7,164.086,75.438z M164.976,63.585l-1.116,0.229l-0.05-1.101
				C164.857,63.037,165.041,63.161,164.976,63.585z M162.451,65.102l-0.613,1.907l-1.157-0.672
				C161.457,65.326,161.876,64.818,162.451,65.102z M160.837,70.691l-0.055,0.552c-1.105-0.325-1.557-0.615-1.519-0.917
				L160.837,70.691z M160.782,62.343l0.457,0.79l-1.391,0.915C159.77,62.831,160.212,62.284,160.782,62.343z M124.072,222.01
				l-0.608-0.99l0.917-0.055L124.072,222.01z M125.807,218.217l0.477-1.01l0.34,0.031
				C126.425,217.95,126.21,218.264,125.807,218.217z M126.934,220.732l-0.434-0.959l0.876-1.164l0.414,1.136
				C127.434,220.426,127.163,220.741,126.934,220.732z M127.426,218.252l0.477-1.035l0.545,0.076
				C128.195,217.758,127.866,218.086,127.426,218.252z M128.953,220.609c0.055-0.276,0.467-0.573,1.374-0.92l0.039,1.086
				L128.953,220.609z M130.345,219.512v-1.463c0.287-0.26,0.445-0.797,0.742-1.547l0.635,0.639
				C131.295,218.779,130.878,219.584,130.345,219.512z M128.077,236.645l-0.575-1.162l1.853-1.78l0.244,0.942
				C129.235,235.686,128.723,236.352,128.077,236.645z M133.27,220.948l0.089-0.878l1.208,0.488l-0.319,1.07
				C133.657,221.555,133.334,221.329,133.27,220.948z M131.818,232.75l-0.909-0.121c0.692-1.605,1.171-2.398,1.582-2.332
				l-0.534,1.369L131.818,232.75z M132.21,229.529l0.28-0.875l0.721,0.095C133.147,229.225,132.812,229.482,132.21,229.529z
				 M144.776,216.471c0.093-0.912,0.583-1.4,1.424-1.461l0.126,0.562C146.232,216.411,145.695,216.766,144.776,216.471z
				 M143.699,223.782c0.945,0.293,1.38,0.579,1.33,0.895l-0.57,0.277C143.863,224.891,143.615,224.482,143.699,223.782z
				 M145.546,220.559l1.308-0.381l0.174,1.654C146.504,221.762,146.027,221.329,145.546,220.559z M144.267,226.561l0.984-0.6
				l-0.125,0.889L144.267,226.561z M146.622,225.025l-1.244-0.135c0.229-0.354,0.63-0.729,1.066-1.506l1.396,0.535l-0.071,0.543
				C147.737,224.68,147.371,224.891,146.622,225.025z M149.332,228.098c-0.625-0.893-0.163-1.086,0.838-0.981
				C149.811,227.775,149.534,228.12,149.332,228.098z M154.117,214.17l0.098-0.896l0.764,1.177L154.117,214.17z M157.727,214.236
				l-1.431,0.017l1.167-0.948c0.854,0.646,1.051,0.43,1.294-0.029l0.233,1.135L157.727,214.236z M160.809,205.372
				c-0.911-0.483-1.2-0.631-1.142-1.065l0.917-0.052l1.47-0.188l0.123,0.572C161.743,205.081,161.403,205.35,160.809,205.372z
				 M163.354,217.293l-1.538-0.922c-0.343-0.109-0.568-0.252-1.035-0.482l1.011-0.777l1.441,0.156
				c0.753,0.465,1.148,0.994,1.069,1.558C163.712,216.786,163.394,216.913,163.354,217.293z M162.527,223.913l0.668-1.041
				l0.217,1.289L162.527,223.913z M167.016,207.938c-0.102,0.859-0.757,1.316-1.958,1.404c-1.122-0.854-1.637-1.752-1.51-2.734
				c0.439-1.396,0.834-2.08,1.157-2.034l0.988-0.607c-0.06,0.492,0.754,1.16,2.487,1.949l-0.18,1.414
				C167.41,207.254,167.083,207.469,167.016,207.938z M171.108,202.807l0.489,0.438c-0.084,0.619-0.836,1.188-2.22,1.726
				l0.288-0.882C169.779,203.143,170.257,202.713,171.108,202.807z M169.933,200.307c0.53,0.07,0.719,0.32,0.8,1.019
				C170.213,201.012,169.966,200.734,169.933,200.307z M162.513,228.609c0.884,0.113,1.125,0.677,1.226,1.763l-0.064,0.563
				C163.073,230.84,162.801,230.092,162.513,228.609z M169.017,212.354c0.896,0.103,1.513,0.48,1.875,1.129l-0.063,0.361
				C169.315,213.504,168.935,212.991,169.017,212.354z M170.687,207.65c0.91-1.215,1.435-1.811,1.841-1.766l-0.134,0.893
				l0.071,1.101L170.687,207.65z M166.725,231.104c0.954-1.221,1.716-1.957,2.292-2.266l0.331,0.055
				C168.973,230.652,168.094,231.461,166.725,231.104z M180.678,192.518l0.563-1.748l0.532,0.26
				C181.655,191.945,181.348,192.469,180.678,192.518z M183.825,196.342c-0.633-0.059-1.126,0.066-1.491,0.385
				c0.079-0.604,0.022-1.1-0.166-1.481l0.887-1.334l0.969-0.431c0.197,0.019,0.339,0.34,0.4,0.947L183.825,196.342z
				 M182.928,191.766l0.314-1.031l0.647,0.433L182.928,191.766z M184.889,187.331l-2.131,0.731l-2.285,0.22l-2.174,0.768
				l-2.05,0.982l-1.321,1.649l-1.75,1.172l-1.506,1.426l-1.679,1.248l-1.732,1.123l-1.815,1.058l-1.767,1.062l-1.8,0.974
				l-1.893,0.864l-1.724,1.224l-1.854,0.883l-2.057,0.746l-2.077,0.629l-2.074,0.617l-2.021,0.771l-2.114,0.522l-2.197,0.188
				l-2.105,0.561l-2.177,0.131l-2.162,0.02l-2.188-0.084l-2.181-0.151l-2.152-0.242l-2.173-0.271l-2.181-0.262l-2.009-0.937
				l-1.083-0.3l-2.061-0.432l-1.98-0.713l-1.815-1.035l-2.031-0.631l-1.891-0.918l-1.907-0.879l-1.631-1.387l-1.765-1.113
				l-1.877-0.971l-1.651-1.309l-1.494-1.513l-1.622-1.299l-1.555-1.461l-1.538-1.438l-1.064-1.834l-1.215-1.715l-1.317-1.668
				l-0.901-1.891l-0.845-1.918l-1.088-1.828l-0.534-2.061l-0.414-2.078l-0.746-2.006l-0.197-2.105l-0.121-2.105l-0.384-2.1
				l0.347-2.115l-0.034-2.143l0.619-2.055l0.294-2.08l0.596-2.031l0.846-1.887l0.854-1.9l0.882-1.902l1.139-1.758l1.653-1.336
				l1.211-1.691l1.511-1.447l1.656-1.276l1.853-0.944l1.793-0.982l1.963-1.145l1.937-1.188l2.258-0.416l2.181-0.627l2.23-0.062
				l2.237,0.019l2.248-0.193l2.18,0.564l2.202,0.537l0.038,0.026l2.135,0.574l2.124,0.683l1.835,1.272l1.902,1.143l1.629,1.535
				l1.368,1.761l1.14,1.86l1.383,1.728l0.808,2.024l0.639,2.113l0.487,2.092l-0.297,2.196v2.146l-0.22,2.158l-0.477,1.986
				l-0.94,1.844l-0.951,1.791l-1.499,1.451l-1.441,1.428l-1.356,1.549l-1.919,1.271l-2.149,0.844l-2.205,0.555l-2.308,0.346
				l-2.19-0.813l-2.202-0.422l-1.71-1.507l-1.789-1.29l-1.198-1.906l-1.163-1.899l-0.716-2.152l-0.341-2.275l0.653-2.174
				l0.462-1.881l1.131-1.607l1.333-1.443l2.15-1.489l2.534,0.06l0.499-0.173l-0.019,0.328l-0.468,2.271l0.32,2.354l1.59,2.035
				l2.353,1.012l1.958-0.088l1.927-0.457l1.461-1.407l1.169-1.529l0.836-1.775l0.215-1.932l0.385-1.992l-0.478-1.986l-0.663-1.92
				l-0.997-1.717l-1.175-1.633l-1.536-1.285l-1.625-1.24l-1.947-0.609l-1.732-0.312l-2.137,0.106l-2.082-0.053l-2.075,0.389
				l-2.092,0.33l-1.986,0.879l-1.662,1.322l-1.712,1.265l-1.596,1.62l-1.221,1.951l-1.225,1.888l-1.033,2.02l-0.395,2.248
				l-0.619,2.188l-0.988,1.908l-0.249,2.149l-0.222,2.108v2.146l-0.106,2.113l-0.071,2.142l0.544,2.067l0.467,2.084l0.347,2.099
				l0.898,1.952l0.741,2.037l0.85,1.976l0.987,1.938l1.143,1.859l1.506,1.562l1.293,1.756l1.599,1.492l1.592,1.502l1.893,1.1
				l1.798,1.209l2.074,1.099l2.089,1.065l2.15,0.873l2.246,0.73l2.145,0.98l2.074,0.516l2.083,0.459l2.181,0.014l2.106,0.318
				l2.163-0.174l2.142,0.141l2.119-0.232l2.026-0.74c0.04-0.832-0.125-1.28-0.538-1.338c0.093-0.821-0.074-1.254-0.575-1.312
				l0.979-0.449l0.889,0.136c-0.063,0.522,0.591,1.016,2.005,1.502l-0.136,0.891l-1.84,0.318l0.032,0.129l1.301-0.228l2.042-0.528
				l2.046-0.504l1.864-1.058l1.881-0.938l1.788-1.138l1.602-1.422l1.705-1.226l1.674-1.34l1.409-1.602l0.953-1.945l1.357-1.613
				l0.933-1.918l0.734-1.961l0.737-1.969l0.86-1.748l0.865-1.756l0.74-1.77l0.486-1.91l0.727-1.812l0.415-1.967l0.455-1.977
				l0.512-1.943l0.862-1.863l0.168-2.053l0.74-1.869l0.186-0.488c-0.112-0.274-0.226-0.688-0.292-1.198
				c0.292,0.104,0.508,0.239,0.63,0.413l0.282-0.618l0.318-2.009l0.618-2.112l0.391-2.151l0.17-2.187l-0.384-2.113l-1.407-2.435
				l-1.173-0.993l-1.142-0.828l-0.381-0.224l-0.605-0.407l0.248-0.849l0.902-0.006l1.947-0.197l1.865-0.594l1.661-1.055l1.164-1.498
				l0.977-1.756l0.701-1.857l0.728-1.844l0.283-2.023l0.055-0.179c-0.18,0-0.393-0.038-0.625-0.104
				c0.106-0.821,0.506-1.263,1.167-1.412l0.066-0.183l0.628-2.203l0.67-2.208l0.539-2.217l0.264-2.271l0.571-2.234l0.251-2.265
				l0.112-2.283l-0.432-2.235l-1.508-1.66l-1.32-1.816l-1.571-1.097l-1.32-1.364l-0.929-1.703l1.67-0.863l1.884,0.086l1.962,0.636
				l1.981,0.552l2.075,0.183l1.973,0.538l1.987,0.632l2.014,0.442l1.949,0.743l2.035,0.348l1.969,0.636l2.024,0.369l1.921,0.904
				l2.038,0.349l0.902,1.51l-1.425,1.354l-2.098,0.537l-1.967,0.873l-1.396,1.641l-1.356,1.65l-0.823,1.984l-0.617,2.023
				l-0.761,2.143l-0.629,2.176l-0.662,2.179l-0.487,2.21l-0.888,2.095l-0.385,2.248l-0.964,2.106l-0.498,1.955l-0.085,2.039
				l-0.394,2.016l0.525,1.938l0.77,1.336l1.123,1.133l1.17,0.998l0.918,0.48l0.039,0.289l0.535,0.594l-0.293,0.813l-0.744,0.062
				l-2.281,0.302l-2.135,0.883l-1.738,1.549l-1.015,2.039l-0.897,2.146l-0.195,2.222l-0.824,1.996l-0.276,2.2l-0.713,2.037
				l-0.795,2.039l-0.261,2.195l-0.449,2.133l-0.82,2.064l-0.191,1.938l-0.025,1.935l0.418,1.893l0.894,1.707l0.759,1.771
				l1.531,1.594l1.593,1.565l0.41,0.562l-0.234,0.418l-0.13,0.263l-0.233-0.074l-0.034,0.235l-2.234,0.101L184.889,187.331z
				 M155.003,91.009l0.158,1.651c-0.174,1.439-0.729,2.102-1.864,1.954l0.979-2.052C154.403,91.505,154.657,90.964,155.003,91.009z
				 M142.338,148.667c-0.287,0.94-0.597,1.394-1.072,1.334l0.11-0.892l-0.242-1.118L142.338,148.667z M143.823,139.438l-0.292,0.861
				C143.308,139.727,143.581,139.452,143.823,139.438z M143.23,147.161l1.707-0.521l0.532,0.231l-1.375,0.767
				C143.766,147.34,143.597,147.211,143.23,147.161z M142.163,153.193l-1.028,0.966l-0.094-2.191L142.163,153.193z M146.655,138.51
				l-0.835,0.229l-0.611-0.791l1.971,0.051c0.933,1.313,1.24,2.146,1.587,2.592l-1.284-0.157L146.655,138.51z M134.777,190.895
				l0.654-1.033l0.218,1.306L134.777,190.895z M139.207,193.059c-1.067-1.594-1.498-2.498-1.413-3.258l0.831-0.791l0.61,0.791
				c1.085,0.125,1.514,1.094,1.282,2.859L139.207,193.059z M141.219,195.838l0.384,0.047c-0.411,1.762-1.293,2.551-2.639,2.211
				C139.901,196.896,140.649,196.122,141.219,195.838z M135.957,197.393l-0.047,0.521c-0.62-0.101-0.856-0.838-1.19-2.322
				C135.634,195.698,135.861,196.284,135.957,197.393z M152.106,197.782c0.602-1.257,1.004-1.867,1.512-1.818v1.461L152.106,197.782
				z M169.057,153.438l0.591,1.338l-0.631,0.48c-0.576-0.088-0.905-0.357-0.983-0.836l1.109-0.072L169.057,153.438z
				 M171.263,147.359l-1.078-1.569l1.013,0.476l1.474-0.189c-0.102,0.961,0.141,1.475,0.701,1.74l-0.72,1.354
				C171.597,149.027,171.118,148.426,171.263,147.359z M185.787,118.681l-0.061,0.335c-0.132,0-0.225-0.037-0.345-0.07l-0.104,0.181
				c-0.022-0.074-0.042-0.147-0.066-0.223c-0.599-0.178-0.961-0.569-1.127-1.158c0.528,0.141,0.869,0.271,1.152,0.379
				c0.114-0.063,0.308-0.063,0.551-0.017l-0.144,0.274C185.726,118.491,185.811,118.575,185.787,118.681z M184.809,114.013
				l0.37,1.643l-0.959,0.266l-0.19-1.286c0.132-1.074-0.045-1.642-0.511-1.705c0.081-0.833-0.097-1.294-0.58-1.35l0.971-0.411
				l0.87,0.107c-0.057,0.53,0.609,1.024,2.02,1.506l-0.12,0.892L184.809,114.013z M183.141,112.462
				c-0.665,0.76-1.367,1.103-2.119,1.011l1.445-1.272L183.141,112.462z M181.578,110.442c0.077-0.73-0.254-1.081-0.708-1.287
				l0.874-1.527c1.183,0.137,1.677,1.06,1.497,2.727L181.578,110.442z M173.358,143.439l0.315,0.4
				c-0.275-0.018-0.84,0.264-1.746,0.879C171.737,143.648,172.453,143.333,173.358,143.439z M170.253,167.542
				c-0.236-0.039-0.387-0.469-0.387-1.317L170.253,167.542z M174.968,149.607l0.897-0.047l0.703,0.426
				c-0.037,0.214-0.365,0.357-0.978,0.433L174.968,149.607z M169.245,174.331l-0.083,0.692l-0.933,0.084l-0.209-1.129
				c-0.641-0.651-0.937-1.231-0.858-1.916L169.245,174.331z M166.867,170.029c0.812-0.17,1.074,0.048,1.035,0.31L166.867,170.029z
				 M173.224,162.665l0.9-0.078l0.454,0.783l-0.93,0.233L173.224,162.665z M186.624,98.375c0.725-0.567,0.993-0.75,1.051-1.109
				c0.688,0.184,0.944,0.622,1.089,1.376L186.624,98.375z M209.127,116.96l0.488,0.406c-0.086,0.637-0.818,1.209-2.202,1.744
				l0.274-0.881C207.824,117.272,208.293,116.863,209.127,116.96z M207.975,114.454c0.543,0.068,0.685,0.347,0.791,1.011
				C208.255,115.158,207.979,114.883,207.975,114.454z M205.407,129.494l-0.017-1.445c0.664-0.109,0.832,0.34,0.738,1.364
				c-0.056,0.625,0.153,0.812,0.626,0.935c-0.078,0.6,0.075,0.938,0.437,0.963l-0.246,0.521l-1.088-0.146
				c-0.299-0.396-1.01-0.912-2.129-1.526C203.854,129.711,204.393,129.555,205.407,129.494z M193.9,183.805l-0.58-1.17l1.816-1.764
				l0.262,0.945C195.035,182.848,194.529,183.529,193.9,183.805z M188.423,207.788l-1.029-0.488c0.088-0.227,0.4-0.422,0.969-0.6
				L188.423,207.788z M187.533,189.911l1.041,0.317l-0.142,1.078C187.917,191.202,187.804,190.577,187.533,189.911z
				 M186.246,195.922l0.266-2.137l1.045,0.291C187.448,195.016,187.008,195.627,186.246,195.922z M181.578,217.836l-0.076,0.531
				c-1.108-0.318-1.553-0.609-1.518-0.9L181.578,217.836z M181.371,213.459c0.807-0.982,1.228-1.482,1.785-1.225l-0.593,1.901
				L181.371,213.459z M185.698,210.708l-1.119,0.242l-0.047-1.089C185.593,210.165,185.762,210.305,185.698,210.708z
				 M194.753,167.764c0.056-0.262,0.468-0.582,1.376-0.93l0.074,1.105L194.753,167.764z M199.283,154.551l-0.428-0.939
				c1.271-0.219,1.937,0.238,2.396,1.197L199.283,154.551z M199.073,168.107l0.091-0.885l1.208,0.484l-0.313,1.068
				C199.475,168.708,199.15,168.482,199.073,168.107z M201.532,156.915c-0.066-0.556,0.217-0.817,0.45-0.854l0.897,0.106
				L201.532,156.915z M204.781,145.254c0.906-1.219,1.676-1.959,2.258-2.27l0.374,0.039
				C207.01,144.812,206.111,145.604,204.781,145.254z M205.027,140.2c-1.077-1.572-1.52-2.474-1.42-3.257l0.828-0.782l0.625,0.772
				c1.068,0.148,1.487,1.099,1.295,2.879L205.027,140.2z M196.795,157.163l-1.535-0.935l0.195-1.602l0.906-1.324
				c-0.034,0.357,0.179,0.557,0.836,0.633l-0.676,2.461L196.795,157.163z M192.324,166.932l0.861-1.151l0.437,1.125
				c-0.339,0.688-0.64,1.012-0.876,0.973L192.324,166.932z M188.395,182.635l-0.601,0.293l0.334-1.219L188.395,182.635z
				 M193.223,165.387l0.491-1.002l0.534,0.057C194.003,164.928,193.667,165.247,193.223,165.387z M200.59,138.032l0.643-0.99
				l0.228,1.293L200.59,138.032z M199.857,130.516c-0.342-0.084-0.574-0.248-1.022-0.478l0.717-0.565l-0.717-0.271l0.919,0.104
				l0.083-0.047l1.435,0.152c0.775,0.462,1.142,0.988,1.061,1.579c-0.583-0.065-0.928,0.063-0.958,0.433l-0.664-0.4
				c-0.362,0.935-0.692,1.41-1.158,1.34l-0.069-1.08l1.076-0.338L199.857,130.516z M192.438,164.396
				c-0.223,0.722-0.43,1.066-0.839,0.99l0.486-1.021L192.438,164.396z M188.763,173.448l-0.256,0.694l-1.874-1.153
				C187.692,172.409,188.179,172.775,188.763,173.448z M189.267,168.191l0.926-0.061l-0.33,1.029L189.267,168.191z M181.502,209.467
				l0.46,0.793l-1.407,0.934C180.519,209.967,180.93,209.415,181.502,209.467z M178.179,227.764
				c-0.655-0.963-1.025-1.608-1.162-2.32l0.637-0.819c0.854,0.819,1.447,1.267,1.861,1.301l-0.05,1.63L178.179,227.764z
				 M183.367,224.043c-0.549-0.861,0.158-1.188,1.413-1.461L183.367,224.043z M186.606,219.723
				c-0.272-0.287-0.844-0.533-1.941-0.602c-1.01-0.557-1.525-0.904-1.474-1.09l0.127-1.068l-1.479,0.008
				c0.759-1.555,1.292-2.029,1.699-1.971l1.771,0.389c0.58-0.277,1.082,0.074,1.709,0.75l0.057,1.101l-0.794,0.625
				c-0.037,0.34,0.229,0.541,0.794,0.829L186.606,219.723z M198.016,176.688l0.295-0.862l0.713,0.075
				C198.957,176.385,198.639,176.641,198.016,176.688z M204.216,154.254l-0.558-1.52c0.055-0.224,0.775-0.33,2.396-0.078
				C205.961,153.241,205.373,153.766,204.216,154.254z M209.061,135.01l-2.147-0.336v-0.518l0.519-1.609l0.166-1.705l0.67-2.091
				l0.252-0.858c-1.234-0.347-1.521-0.822-1.451-1.396c0.713,0.084,1.238,0.365,1.613,0.805l0.198-0.683l0.136-0.298l0.649-2.604
				l0.396-1.752l-1.34-0.169c0.785-1.041,1.273-1.597,1.635-1.718l0.129-1.232l0.004-2.3l0.559-2.297l-0.038-2.311l-0.555-2.26
				l-0.709-1.859l-0.845-1.857l-1.565-1.266l-1.58-1.227l-1.694-1.007l-1.487-1.395l-0.732-0.407l-1.979-0.833l-1.896-0.946
				l-1.854-1.018l-2.029-0.667l-2.03-0.67l-2.083-0.558l-1.946-0.935l-2.048-0.64l-1.179-0.149l-0.574,1.894L184,95.034
				c0.1-0.358,0.174-0.64,0.269-0.852l-1.49-0.481l-2.079-0.234l-1.968,0.658l-1.872,0.843l-1.503,1.441l-0.777,1.948l-0.856,1.874
				l-0.59,1.974l-0.224,2.172l-0.796,2.032l-0.292,2.162l-0.777,2.021l-0.345,2.149l-0.512,2.073l-0.668,2.084L169,118.99
				l-0.363,2.148l-0.51,2.103l-0.967,1.987l-0.212,2.184l-0.506,2.105l-0.567,2.094l-0.563,2.201l0.226,2.285l1.187,1.982
				l1.849,1.322l1.739,1.422l0.796,0.301l-0.411,0.684l-0.385,0.201l-0.216,0.422l-1.188,0.191l-1.748,0.584l-1.689,0.725
				l-1.572,0.978l-1.293,1.459l-1.204,1.58l-0.621,1.864l-0.611,1.929l-0.646,1.87l-0.611,1.878l-0.197,2.233l-0.613,2.105
				l-0.562,2.125l-0.516,2.131l-1.015,2.008l-0.455,2.135l-0.375,2.16l-0.421,2.15l-0.572,2.092l-0.215,2.184L153.667,179
				l0.325,2.172l1.114,1.93l1.155,1.799l1.374,1.701l1.628,1.418l1.545,2.416l-1.073,0.748l-1.634,0.346l-0.742-0.627l-1.167-0.045
				l-1.498-0.703l-1.61-0.397l-2.1-0.58l-2.116-0.467l-2.032-0.916l-2.173-0.381l-2.135-0.64l-2.134-0.582l-2.127-0.53l-2.086-0.873
				l-2.19-0.336l-2.118-0.666l-2.061-0.856l-2.158-0.558l-1.961-0.843l0.431-0.657l-0.149-0.17l0.466,0.17l1.883-0.736l2.002-0.383
				l2.05-0.146l2.098-0.639l2.128-0.434l1.835-1.197l1.589-1.426l1.141-1.801l0.856-1.889l0.597-2.013l0.831-1.933l0.474-2.032
				l0.544-2.021l0.267-2.099l0.658-2.006l0.478-2.052l0.826-1.926l0.607-1.985l0.348-2.06l0.654-1.988l0.534-2.146l0.168-2.192
				l0.206-2.193l-0.035-2.213l-0.929-2.025l-0.795-1.377l-0.796-1.531l-2.224-1.553l-0.455-0.281l0.524-0.17l2.209-0.287
				l2.192-0.635l1.759-1.421l1.473-1.685l1.242-1.748l0.59-2.1l0.699-1.995l0.658-2.029l0.628-2.081l0.6-2.046l0.316-2.125
				l0.723-2.047l0.505-2.088l0.655-2.042l0.369-2.134l0.269-0.959c-0.516-0.049-0.598-0.271-0.53-0.652
				c-0.652-0.806-1.006-1.507-1.006-2.116l1.842,1.809l0.021-0.152l0.489-2.086l0.549-2.104l0.487-2.086l0.41-2.259l0.687-2.262
				l0.106-2.313l-0.397-2.33l-1.19-1.719l-1.226-1.67l-0.176-0.095l-0.445,0.188l0.295-0.29l-1.432-0.874l-1.726-1.186l-1.928-0.751
				l-2.887-0.422l-2.007-0.606l-2.026-0.499l-2.009-0.66l-2.103-0.171l-2.078-0.39l-2.092-0.207l-2.095,0.138l-2.115,0.029
				l-2.014,0.276l-1.9,0.732l-1.573,1.301l-1.777,0.964l-1.265,1.57l-1.003,1.702l-0.674,1.865l-0.535,1.951l-0.551,1.995
				l-0.356,2.024l-0.125,2.051l-0.39,2.021l-0.121,2.015l-0.131,2.07l-0.197,2.039l-0.522,1.996l0.145,2.65l-0.556,2.622
				l-1.686-0.335l-1.686,0.178l0.08-0.354l0.106-2.111l0.161-2.115l-0.083-2.109l0.288-2.106l0.243-2.105l0.075-2.105l0.082-2.146
				l-0.245-2.102l0.06-2.105l-0.039-2.125l0.048-2.16l-0.221-2.139l-0.556-2.074l-0.249-2.119l-0.206-2.134l-0.36-2.108
				l-0.328-2.115l-0.768-2.009l-0.374-2.104l-0.384-1.842l-0.282-1.867l-0.344-1.851l-0.163-0.097l0.243,0.059l1.725-0.953
				l1.045,0.44l0.807,1.677l1.123,1.598l0.385,1.891l2.456,0.952l2.294,0.588l2.301,0.387l1.958,0.817l2.081,0.328l2.003,0.625
				l2.05,0.488l2.117,0.171l2.041,0.487l2.026,0.596l0.569,0.082l1.937,0.725l2.046,0.342l1.971,0.586l2.025,0.356l1.923,0.854
				l2.056,0.281l1.957,0.602l2.088,0.27l2.039,0.357l1.997,0.537l2.062,0.079l2.03,0.456l1.992-0.486L168,81.872l1.709-0.8
				l1.632-0.816l1.798-0.456l1.141,0.391l-0.121,0.471l1.079,1.807l1.104,1.827l1.778,1.183l2.031,0.674l1.927,0.971l2.188,0.438
				l2.166,0.648l2.141,0.639l2.106,0.822l2.219,0.413l2.121,0.852l2.194,0.423l1.228,0.419l2.061,0.536l2.012,0.598l2.014,0.583
				l2.051,0.551l2.1,0.379l2.006,0.615l2.164,0.048l2.012,0.66l2.084,0.011l2.955-0.719l1.888-0.47l1.825-0.665l0.216-0.069
				l2.106,1.912l0.156,0.086l0.939,0.684l-0.178,0.152l-1.013,1.785l-1.174,1.676l-0.815,1.91l-1.119,1.729l-1.076,1.77
				l-0.531,1.991l-1.094,1.778l-0.727,1.906l-0.871,1.885l-0.31,2.078l-0.897,1.967l-0.488,2.102l-0.637,2.058l-0.683,2.064
				l-0.722,2.029l-0.627,2.069l-0.645,2.078l-0.682,2.051l-0.223,2.174l-0.392,2.104l-0.099,0.273l-0.895-0.543L209.061,135.01z
				 M169.592,132.641l0.498,0.43c-0.05,0.289-0.619,0.533-1.726,0.695C168.459,133.125,168.856,132.743,169.592,132.641z
				 M171.784,117.706c0.31-0.597,0.754-0.836,1.356-0.758l0.056,1.093l0.028,1.282l-0.391-1.339L171.784,117.706z M157.225,172.475
				l0.677,0.457l-0.947,0.428L157.225,172.475z M156.81,170.077c-0.386-1.507-0.079-1.945,0.401-1.945l1.021,1.945H156.81z
				 M159.461,164.584c-0.198-0.5-0.46-0.754-0.787-0.986c0.007-0.211,0.341-0.363,0.963-0.42c0.188,0.502,0.469,0.775,0.812,0.809
				C160.344,164.229,160.017,164.418,159.461,164.584z M146.444,154.42l-0.838-0.309l1.072-0.037L146.444,154.42z M142.953,168.307
				c-0.498-0.305-0.769-0.6-0.769-0.979C142.685,167.374,142.863,167.62,142.953,168.307z M157.572,91.697l-0.993-0.852l2.028-0.286
				C157.859,91.195,157.635,91.336,157.572,91.697z M147.851,130.121c-0.706-0.061-1.196-0.493-1.267-1.404
				C147.54,128.825,147.976,129.298,147.851,130.121z M154.215,122.566c-0.028,0.246-0.417,0.448-1.152,0.579
				c-1.095-0.943-1.62-1.609-1.581-1.995c0.095-0.723,0.486-1.05,1.377-0.911c-0.056,0.497,0.204,0.816,0.786,0.979L154.215,122.566
				z M157.156,111.405c0.814-0.175,1.077,0.045,1.057,0.3L157.156,111.405z M161.043,92.854l0.236,1.096
				c-0.292,1.189-0.597,1.756-0.935,1.716C160.237,94.614,160.616,93.773,161.043,92.854z M160.761,98.259l0.193,1.291
				C160.761,99.521,160.616,99.137,160.761,98.259z M197.6,202.377l-0.73-1.365c-1.667-1.27-2.432-2.281-2.352-3.002
				c1.383-0.984,1.986-1.377,2.023-1.727l1.357,5.229L197.6,202.377z M199.596,196.473l0.127-1.09
				c0.728-0.08,0.899,0.184,1.014,0.684L199.596,196.473z M200.766,191.35l1.365,0.705l-0.055,0.531
				C201.197,193,200.957,192.42,200.766,191.35z M201.506,200.141c0.088-0.586,0.299-0.953,0.672-1.018
				c0.273,0.039,0.395,0.484,0.35,1.504L201.506,200.141z M200.895,199.152c0.611-0.508,0.875-0.233,0.895,0.111L200.895,199.152z
				 M209.697,168.393l-0.422-1.305l0.18-1.262l-0.658-2.066c0.404-0.406,0.648-0.805,0.676-1.188l0.834,0.643l1.658,2.752
				C211.553,166.092,210.785,166.971,209.697,168.393z M214.021,159.854l-1.027-0.506l0.717-1.35
				c1.201,0.328,1.785,0.627,2.393,1.191C216.055,159.598,215.357,159.809,214.021,159.854z M209.471,187.793
				c-0.607-0.102-0.934-0.355-1.008-0.861l1.102-0.055l-0.092-0.908l0.588,1.352L209.471,187.793z M211.861,182.271l-0.389-1.334
				l0.149-1.233l-0.642-2.078c0.381-0.403,0.621-0.785,0.683-1.207l0.813,0.658l1.668,2.748
				C213.715,179.956,212.955,180.85,211.861,182.271z M214.361,192.469c-0.207-0.205-0.646-0.395-1.441-0.43
				c-0.768-0.414-1.131-0.689-1.131-0.832l0.1-0.797h-1.104c0.568-1.154,0.963-1.512,1.283-1.471l1.328,0.285
				c0.422-0.216,0.809,0.051,1.303,0.575l0.027,0.82l-0.601,0.479c-0.039,0.234,0.168,0.392,0.612,0.596L214.361,192.469z
				 M218.354,165.991c1.263-0.212,1.937,0.231,2.402,1.19l-1.984-0.236L218.354,165.991z M219.336,174.279l-0.312,1.068
				c-0.588-0.08-0.924-0.289-0.975-0.662l0.076-0.901L219.336,174.279z M228.867,137.32l-1.289,0.228
				c-0.637-0.975-1.047-1.608-1.184-2.327l0.649-0.816c0.845,0.816,1.447,1.248,1.84,1.311L228.867,137.32z M230.898,128.146
				c-1.105-0.31-1.568-0.615-1.519-0.896l1.572,0.371L230.898,128.146z M232.557,122.002l-0.602,1.948l-1.207-0.709
				C231.543,122.263,231.965,121.77,232.557,122.002z"/>
		</g>
	</g>
</g>
</svg>
