<?xml version="1.0" encoding="utf-8"?>
<!-- Generator: Adobe Illustrator 16.0.0, SVG Export Plug-In . SVG Version: 6.00 Build 0)  -->
<!DOCTYPE svg PUBLIC "-//W3C//DTD SVG 1.1//EN" "http://www.w3.org/Graphics/SVG/1.1/DTD/svg11.dtd">
<svg version="1.1" id="Layer_1" xmlns="http://www.w3.org/2000/svg" xmlns:xlink="http://www.w3.org/1999/xlink" x="0px" y="0px"
	 width="206.891px" height="33.377px" viewBox="0 0 206.891 33.377" enable-background="new 0 0 206.891 33.377"
	 xml:space="preserve">
<g>
	<path fill="#FFFFFF" d="M148.5,33.274c-0.084-0.019-0.566-0.116-0.732-0.165c-0.113-0.032-0.3-0.105-0.465-0.166l-0.258-0.096
		c-0.057-0.023-0.139-0.05-0.229-0.075c-0.178-0.058-0.383-0.124-0.465-0.175c-0.141-0.08-0.414-0.33-0.529-0.463
		c-0.091-0.105-0.25-0.348-0.354-0.505c0,0-0.13-0.198-0.174-0.261c-0.08-0.117-0.233-0.338-0.262-0.426
		c-0.029-0.109-0.02-0.434,0.01-0.633c0.022-0.16,0.125-0.492,0.189-0.627c0.065-0.138,0.311-0.443,0.391-0.543
		c0.166-0.202,0.369-0.438,0.476-0.528c0.081-0.071,0.237-0.167,0.384-0.253l0.221-0.141c0.057-0.039,0.136-0.094,0.219-0.154
		c0.148-0.107,0.292-0.203,0.385-0.262c0.067-0.04,0.176-0.09,0.282-0.138c0.149-0.071,0.301-0.146,0.397-0.202
		c0.098-0.055,1.219-0.538,1.319-0.575c0.147-0.056,0.315-0.174,0.48-0.29c0.093-0.067,0.179-0.127,0.247-0.164
		c0.147-0.076,0.654-0.278,0.693-0.294l0.747-0.089l0.813-0.299l0.745-0.344l0.972-0.541l-0.166-0.276
		c-0.003-0.004-0.341-0.562-0.51-0.749c-0.119-0.123-0.309-0.271-0.512-0.426c0,0-0.172-0.131-0.211-0.162
		c-0.061-0.051-0.135-0.117-0.216-0.193c-0.178-0.158-0.364-0.322-0.492-0.41c-0.415-0.288-0.692-0.434-0.903-0.478
		c-0.043-0.008-0.088-0.009-0.137-0.009c-0.131,0-0.277,0.026-0.416,0.053c-0.103,0.021-0.207,0.043-0.283,0.043
		c-0.281-0.043-0.525-0.148-0.574-0.201l0,0c0.012,0,0.021-0.127,0.251-0.57l0.038-0.075c0.084-0.175,0.334-0.526,0.474-0.654
		c0.067-0.065,0.255-0.171,0.392-0.248c0.108-0.058,0.178-0.099,0.233-0.132l0.194-0.123c0.156-0.104,0.348-0.226,0.445-0.268
		c0.07-0.03,0.188-0.055,0.3-0.078c0.194-0.041,0.38-0.081,0.511-0.152c0.145-0.081,0.3-0.229,0.449-0.371
		c0.084-0.079,0.148-0.146,0.203-0.188c0.166-0.121,0.47-0.332,0.614-0.408c0.065-0.033,0.18-0.066,0.29-0.102
		c0.209-0.064,0.383-0.119,0.508-0.2c0.162-0.106,0.352-0.317,0.504-0.49l0.119-0.13c0.146-0.151,0.423-0.449,0.549-0.604
		c0.126-0.144,0.38-0.47,0.5-0.643c0.117-0.174,0.33-0.516,0.42-0.7c0.088-0.177,0.248-0.558,0.303-0.78
		c0.047-0.174,0.127-0.614,0.107-0.873c-0.018-0.16-0.106-0.683-0.307-0.924c-0.191-0.222-0.639-0.41-0.873-0.456
		c-0.05-0.006-0.108-0.011-0.171-0.011c-0.185,0-0.405,0.035-0.599,0.072l-0.097,0.013c-0.204,0.033-0.596,0.117-0.8,0.184
		c-0.148,0.049-0.574,0.204-0.787,0.345c-0.125,0.082-0.257,0.226-0.389,0.361c-0.105,0.113-0.178,0.184-0.23,0.232
		c-0.055,0.049-0.138,0.111-0.225,0.18l-0.061,0.042c-0.146,0.111-0.271,0.207-0.354,0.276c-0.098,0.093-0.245,0.248-0.383,0.389
		l-0.375,0.382c-0.139,0.135-0.299,0.298-0.395,0.396c-0.135,0.143-0.424,0.454-0.555,0.623c-0.059,0.071-0.134,0.179-0.207,0.296
		c-0.098,0.145-0.184,0.278-0.248,0.343c-0.053,0.058-0.152,0.124-0.252,0.193c-0.156,0.112-0.307,0.221-0.402,0.334
		c-0.089,0.104-0.152,0.25-0.23,0.428c-0.045,0.101-0.111,0.253-0.15,0.293c-0.035,0.043-0.188,0.122-0.277,0.171
		c-0.16,0.086-0.301,0.165-0.408,0.258c-0.133,0.121-0.281,0.34-0.403,0.512c0,0-0.196,0.273-0.241,0.336
		c-0.118,0.175-0.258,0.377-0.337,0.445c-0.081,0.078-0.302,0.198-0.446,0.28l-0.317,0.186c-0.175,0.106-0.413,0.247-0.546,0.311
		c-0.154,0.071-0.48,0.185-0.709,0.259c-0.121,0.039-0.316,0.094-0.494,0.139l-0.26,0.074c-0.068,0.019-0.158,0.05-0.252,0.083
		c-0.162,0.058-0.382,0.133-0.471,0.138c-0.069,0-0.262-0.021-0.699-0.161c-0.175-0.056-0.533-0.213-0.7-0.297
		c-0.198-0.096-0.524-0.251-0.632-0.348c-0.072-0.064-0.197-0.251-0.287-0.388c-0.062-0.09-0.105-0.156-0.143-0.205l-0.107-0.143
		c-0.111-0.147-0.248-0.336-0.318-0.443c-0.078-0.133-0.373-1.146-0.378-1.303l0.003-0.118c0.049-1.794,0.081-2.07,0.093-2.112
		c0.007-0.029,0.051-0.111,0.079-0.168c0.157-0.291,0.357-0.652,0.125-0.919c-0.069-0.08-0.19-0.17-0.4-0.17
		c-0.191,0-0.396,0.073-0.598,0.144c-0.117,0.04-0.225,0.08-0.265,0.084c-0.175,0.019-0.532,0.051-0.761,0.051h-0.072
		c-0.096-0.005-0.246-0.037-0.397-0.066c-0.194-0.042-0.366-0.074-0.493-0.083l-0.155-0.014c-0.126-0.014-0.28-0.031-0.419-0.031
		c-0.277,0-0.463,0.058-0.588,0.183c-0.199,0.196-0.171,0.501-0.145,0.771c0.008,0.083,0.018,0.214,0.009,0.25
		c-0.021,0.076-0.114,0.238-0.185,0.355c-0.076,0.131-0.137,0.239-0.174,0.319c-0.055,0.122-0.127,0.319-0.191,0.496
		c0,0-0.146,0.409-0.178,0.493c-0.066,0.188-0.137,0.392-0.194,0.506c-0.056,0.12-0.19,0.341-0.39,0.655
		c-0.055,0.081-0.139,0.201-0.219,0.323l-0.23,0.327c-0.07,0.102-0.825,1.229-0.886,1.317c-0.029,0.038-0.062,0.089-0.101,0.147
		c-0.109,0.173-0.251,0.39-0.329,0.457c-0.058,0.05-0.231,0.127-0.356,0.188c-0.137,0.057-0.256,0.113-0.336,0.162
		c-0.076,0.046-0.186,0.13-0.299,0.215c-0.144,0.11-0.264,0.202-0.34,0.248c-0.089,0.055-0.24,0.125-0.389,0.191
		c-0.13,0.06-0.24,0.105-0.318,0.15c-0.07,0.037-0.166,0.098-0.27,0.163c-0.135,0.085-0.299,0.19-0.385,0.222
		c-0.067,0.024-0.224,0.045-0.349,0.06c-0.11,0.014-0.337,0.093-0.803,0.265c-0.166,0.062-0.308,0.12-0.351,0.129
		c-0.016,0.004-0.059,0.009-0.151,0.009c-0.063,0-0.134,0-0.205-0.007c-0.08-0.002-0.156-0.004-0.224-0.004
		c-0.078,0-0.15,0.004-0.204,0.014c-0.11,0.018-0.241,0.06-0.384,0.109c-0.138,0.045-0.293,0.101-0.36,0.105h-0.005
		c-0.177,0-0.471-0.055-0.684-0.105c-0.094-0.025-0.246-0.084-0.389-0.135c-0.133-0.053-0.245-0.096-0.326-0.121
		c-0.072-0.023-0.182-0.049-0.295-0.074c-0.164-0.037-0.342-0.08-0.418-0.116c-0.095-0.048-0.279-0.201-0.402-0.306l-0.17-0.141
		l-0.117-0.088c-0.162-0.122-0.374-0.284-0.489-0.381c-0.128-0.109-0.431-0.365-0.538-0.491c-0.062-0.069-0.139-0.199-0.214-0.321
		c-0.082-0.131-0.153-0.244-0.212-0.32c-0.058-0.078-0.162-0.186-0.267-0.297c-0.098-0.102-0.201-0.211-0.255-0.283
		c-0.104-0.145-0.285-0.473-0.367-0.64c-0.072-0.158-0.222-0.513-0.272-0.688c-0.033-0.113-0.063-0.316-0.093-0.497
		c-0.016-0.098-0.076-0.427-0.076-0.427c-0.04-0.216-0.086-0.467-0.125-0.616c-0.024-0.087-0.068-0.207-0.115-0.328
		c-0.059-0.151-0.117-0.308-0.13-0.385c-0.011-0.074,0.007-0.24,0.016-0.356c0.014-0.162,0.024-0.309,0.014-0.421
		c-0.005-0.122-0.052-0.299-0.089-0.474c-0.033-0.133-0.059-0.237-0.069-0.313c-0.024-0.171-0.048-0.552-0.044-0.738
		c0.003-0.09,0.025-0.239,0.044-0.385c0.021-0.145,0.04-0.291,0.043-0.389c0.007-0.086,0-0.207-0.003-0.332
		c-0.004-0.198-0.016-0.347-0.004-0.44c0.01-0.095,0.051-0.244,0.093-0.389c0.04-0.142,0.075-0.282,0.093-0.381
		c0.016-0.095,0.023-0.227,0.033-0.368c0.01-0.148,0.016-0.313,0.038-0.405c0.031-0.123,0.837-3.081,0.839-3.089l0.37-0.649
		l0.161-0.89l0.303-0.66l0.4-0.648l0.455-0.636l0.484-0.615l0.458-0.681l0.532-0.498l0.433-0.718c0.143-0.09,0.485-0.314,0.62-0.399
		c0.051-0.033,0.127-0.078,0.213-0.127c0.176-0.104,0.373-0.219,0.486-0.308c0.078-0.059,0.174-0.155,0.27-0.259
		c0.068-0.077,0.217-0.237,0.276-0.266c0.051-0.021,0.243-0.029,0.335-0.035c0.158-0.008,0.324-0.015,0.455-0.06
		c0.137-0.043,0.295-0.143,0.443-0.235c0.107-0.064,0.211-0.133,0.283-0.16c0.166-0.065,0.546-0.166,0.712-0.17
		c0.082,0,0.239,0.04,0.38,0.074c0.162,0.039,0.316,0.075,0.432,0.082h0.012c0.154,0,0.283-0.017,0.42-0.032
		c0.119-0.019,0.24-0.034,0.334-0.034c0.172,0.023,0.457,0.158,0.594,0.225l0.287,0.128c0.146,0.065,0.451,0.199,0.562,0.282
		c0.088,0.066,0.247,0.256,0.363,0.396l0.331,0.381c0.133,0.153,0.28,0.325,0.38,0.424c0.065,0.067,0.163,0.15,0.269,0.237
		c0.116,0.1,0.273,0.229,0.335,0.307c0.109,0.135,0.302,0.477,0.362,0.642c0.027,0.077,0.055,0.258,0.072,0.389
		c0.024,0.157,0.047,0.308,0.074,0.414c0.045,0.142,0.139,0.353,0.222,0.544l0.084,0.196l0.294,0.719l0.109,0.678l-0.125,0.693
		l-0.012,0.806l-0.187,0.655l-0.231,0.577c-0.154,0.092-0.455,0.278-0.578,0.369c-0.074,0.053-0.153,0.135-0.242,0.224
		c-0.076,0.084-0.223,0.235-0.274,0.255c-0.009,0.004-0.059,0.018-0.187,0.018c-0.175,0-0.385-0.031-0.498-0.056
		c-0.188-0.048-0.537-0.219-0.643-0.315c-0.065-0.055-0.256-0.353-0.403-0.636l-0.212-0.759l-0.119-0.794l0.071-0.765l-0.106-0.821
		c0.146-0.402,0.229-0.665,0.25-0.802c0.02-0.147,0.007-0.347-0.005-0.538c-0.008-0.135-0.017-0.251-0.013-0.329
		c0.004-0.047,0.018-0.105,0.031-0.165c0.053-0.233,0.088-0.405,0.056-0.562c-0.048-0.212-0.25-0.596-0.483-0.742
		c-0.193-0.121-0.48-0.126-0.732-0.129c-0.084,0-0.157,0-0.209-0.007c-0.055-0.005-0.133-0.017-0.214-0.031
		c-0.171-0.033-0.381-0.069-0.554-0.069c-0.049,0-0.094,0.003-0.133,0.012c-0.204,0.026-0.478,0.162-0.698,0.271l-0.147,0.073
		c-0.138,0.062-0.369,0.181-0.558,0.273l-0.181,0.094c-0.053,0.025-0.12,0.056-0.195,0.09c-0.24,0.111-0.469,0.216-0.613,0.331
		c-0.216,0.168-0.512,0.57-0.611,0.708c-0.074,0.113-0.215,0.365-0.41,0.748l-0.268,0.858l-0.436,0.624l-0.234,0.867l-0.223,0.756
		l-0.258,0.736l0,0c-0.007,0-0.321,0.49-0.395,0.724c-0.053,0.168-0.07,0.399-0.088,0.628l-0.035,0.416
		c-0.02,0.235-0.035,0.464-0.064,0.568c-0.021,0.08-0.084,0.208-0.142,0.329c-0.08,0.159-0.151,0.309-0.183,0.426
		c-0.059,0.199-0.089,0.542-0.109,0.771l-0.008,0.082c-0.023,0.212-0.045,0.628-0.055,0.818l-0.004,0.08
		c-0.006,0.221-0.019,0.577-0.006,0.766c0.009,0.128,0.044,0.318,0.081,0.502c0.022,0.127,0.042,0.237,0.056,0.316
		c0.033,0.262,0.072,0.596,0.076,0.764c0.004,0.095-0.01,0.232-0.019,0.372c-0.013,0.179-0.024,0.331-0.024,0.433
		c0.006,0.22,0.033,0.636,0.068,0.848c0.033,0.216,0.117,0.631,0.199,0.851c0.053,0.154,0.176,0.372,0.276,0.549l0.114,0.21
		l0.106,0.219c0.099,0.203,0.19,0.391,0.255,0.503c0.061,0.104,0.168,0.265,0.268,0.412c0.064,0.095,0.127,0.185,0.168,0.253
		c0.03,0.049,0.071,0.125,0.111,0.203c0.105,0.201,0.217,0.426,0.355,0.557c0.195,0.178,0.615,0.371,0.844,0.445
		c0.229,0.076,0.674,0.137,0.906,0.137l0,0c0.213,0,0.68-0.023,0.937-0.117c0.171-0.068,0.372-0.222,0.546-0.359
		c0.078-0.053,0.146-0.105,0.197-0.141c0.053-0.033,0.131-0.08,0.211-0.129c0.176-0.105,0.371-0.223,0.484-0.316
		c0.093-0.076,0.203-0.2,0.316-0.334c0.084-0.095,0.17-0.197,0.232-0.248c0.057-0.053,0.167-0.113,0.27-0.172
		c0.17-0.103,0.334-0.195,0.441-0.303c0.125-0.129,0.288-0.363,0.507-0.739c0.053-0.089,0.112-0.226,0.18-0.366
		c0.069-0.15,0.129-0.282,0.176-0.362c0.052-0.086,0.149-0.226,0.241-0.353l0.205-0.295l0.09-0.137
		c0.151-0.22,0.293-0.432,0.369-0.586c0.099-0.195,0.225-0.575,0.291-0.777c0.02-0.06,0.049-0.115,0.079-0.177
		c0.144-0.287,0.334-0.664,0.09-0.931c-0.058-0.064-0.168-0.145-0.349-0.145c-0.164,0-0.33,0.064-0.494,0.125
		c-0.066,0.024-0.16,0.062-0.193,0.066h-0.008c-0.221,0-0.674-0.03-1.026-0.051c-0.232-0.016-0.423-0.03-0.466-0.03
		c-0.191,0.013-1.62,0.188-1.63,0.189c-0.091,0.012-0.278,0.076-0.554,0.173c-0.104,0.036-0.191,0.066-0.225,0.074
		c-0.086,0.019-0.231,0.039-0.374,0.056c-0.149,0.014-0.294,0.033-0.394,0.056c-0.41,0.086-0.674,0.159-0.824,0.228
		c-0.107,0.051-0.212,0.129-0.318,0.217c-0.071,0.054-0.189,0.146-0.229,0.162c-0.086,0.026-0.207,0.053-0.309,0.065
		c0.019-0.076,0.062-0.199,0.15-0.403l0.049-0.12c0.067-0.176,0.277-0.542,0.395-0.671c0.064-0.07,0.252-0.193,0.36-0.266
		c0.14-0.094,0.255-0.168,0.327-0.231c0.078-0.069,0.173-0.17,0.271-0.279c0.112-0.123,0.252-0.278,0.329-0.331
		c0.121-0.081,0.472-0.207,0.608-0.253c0.238-0.088,0.594-0.201,0.756-0.235c0.105-0.019,0.284-0.035,0.447-0.049
		c0.131-0.009,0.234-0.02,0.312-0.027c0.191-0.024,0.583-0.078,0.776-0.113c0.124-0.021,0.319-0.065,0.503-0.108l0.467-0.104
		c0.131-0.031,0.596-0.066,0.844-0.066c0.041,0,0.07,0,0.092,0.001c0.131,0.02,0.254,0.033,0.343,0.04h0.111
		c0.147,0,0.333-0.01,0.526-0.019c0.229-0.011,0.441-0.022,0.623-0.022c0.093,0,0.18,0.001,0.248,0.011
		c0.193,0.023,0.525,0.12,0.771,0.192c0.293,0.086,0.535,0.158,0.725,0.188c0.392,0.059,1.154,0.103,1.574,0.115h0.002
		c0.119,0,0.209-0.004,0.309-0.009c0.123-0.009,0.231-0.013,0.325-0.013c0.038,0,0.079,0,0.11,0.004
		c0.072,0.009,0.193,0.055,0.311,0.095c0.182,0.065,0.322,0.109,0.433,0.123c0.192,0.033,0.374,0.057,0.534,0.057
		c0.192,0,0.341-0.038,0.449-0.112c0.184-0.131,0.252-0.375,0.311-0.589c0.016-0.058,0.049-0.178,0.066-0.209
		c0.127-0.206,0.445-0.547,0.68-0.801c0,0,0.239-0.256,0.303-0.333c0.055-0.062,0.135-0.167,0.211-0.274
		c0.096-0.126,0.182-0.248,0.246-0.315c0.244-0.25,0.826-0.704,1.146-0.934c0.137-0.096,0.443-0.299,0.598-0.381
		c0.135-0.068,0.526-0.226,0.637-0.269l0.699-0.062l0.697-0.12l0.609,0.258c0.02,0.031,0.355,0.331,0.473,0.44
		c0.033,0.033,0.076,0.069,0.123,0.109c0.219,0.181,0.322,0.28,0.344,0.322c0.008,0.043-0.02,0.224-0.033,0.31
		c-0.021,0.134-0.041,0.259-0.035,0.369c0.006,0.109,0.039,0.251,0.076,0.403c0.027,0.105,0.071,0.294,0.067,0.361
		c-0.005,0.12-0.11,0.408-0.169,0.565l-0.041,0.12c-0.066,0.187-0.216,0.549-0.289,0.717c-0.08,0.175-0.251,0.516-0.35,0.679
		c-0.055,0.1-0.16,0.245-0.26,0.383c-0.092,0.13-0.145,0.206-0.179,0.263c-0.041,0.059-0.092,0.145-0.146,0.235
		c-0.094,0.163-0.191,0.329-0.264,0.418c-0.067,0.082-0.209,0.199-0.332,0.306c-0.1,0.082-0.184,0.152-0.24,0.209
		c-0.046,0.044-0.107,0.107-0.173,0.182c-0.146,0.149-0.283,0.299-0.362,0.359c-0.062,0.041-0.201,0.105-0.327,0.163
		c-0.153,0.073-0.289,0.133-0.38,0.195c-0.023,0.013-0.09,0.058-0.173,0.12c-0.157,0.112-0.58,0.409-0.663,0.446
		c-0.24,0.062-0.523,0.137-0.639,0.382c-0.113,0.242-0.033,0.592,0.26,1.099c0.1,0.178,0.398,0.584,0.671,0.705
		c0.118,0.056,0.286,0.086,0.508,0.086c0.155,0,0.325-0.018,0.448-0.04c0.182-0.033,0.412-0.142,0.619-0.238
		c0.074-0.034,0.137-0.064,0.189-0.087l0.195-0.075c0.238-0.095,0.466-0.179,0.609-0.271c0.142-0.092,0.32-0.262,0.477-0.414
		c0.071-0.068,0.13-0.123,0.172-0.165l0.191-0.165c0.18-0.151,0.348-0.294,0.445-0.394c0.109-0.109,0.293-0.317,0.559-0.642
		c0.056-0.07,0.131-0.169,0.208-0.273c0.105-0.139,0.21-0.283,0.288-0.369c0.111-0.122,0.342-0.338,0.498-0.482
		c0,0,0.176-0.161,0.24-0.217c0.197-0.173,0.367-0.321,0.461-0.425c0.09-0.104,0.206-0.278,0.318-0.445
		c0.068-0.101,0.129-0.188,0.174-0.254c0.128-0.169,0.368-0.475,0.501-0.616c0.128-0.143,0.413-0.421,0.554-0.529
		c0.146-0.119,0.517-0.338,0.662-0.421c0.065-0.037,0.156-0.083,0.252-0.131c0.188-0.091,0.364-0.178,0.475-0.251
		c0.084-0.059,0.184-0.152,0.293-0.254c0.086-0.083,0.236-0.228,0.295-0.254c0.061-0.025,0.254-0.031,0.369-0.036
		c0.16-0.004,0.299-0.009,0.4-0.033c0.111-0.023,0.26-0.078,0.41-0.137c0.132-0.051,0.27-0.103,0.354-0.119
		c0.082-0.017,0.23-0.023,0.412-0.023c0.128,0,0.25,0.004,0.332,0.011c0.206,0.01,0.588,0.03,0.721,0.083
		c0.097,0.039,0.309,0.219,0.424,0.318c0.059,0.054,0.121,0.101,0.165,0.141l0.122,0.093c0.158,0.12,0.346,0.262,0.432,0.354
		c0.119,0.125,0.336,0.409,0.399,0.544c0.057,0.115,0.142,0.433,0.188,0.66c0.037,0.172,0.081,0.537,0.088,0.713
		c0.006,0.242-0.005,0.571-0.036,0.7c-0.021,0.083-0.105,0.259-0.169,0.387c-0.063,0.126-0.105,0.219-0.133,0.29
		c-0.033,0.089-0.076,0.219-0.117,0.35c-0.047,0.148-0.094,0.298-0.133,0.389c-0.072,0.173-0.245,0.512-0.344,0.655
		c-0.103,0.152-0.371,0.454-0.508,0.579c-0.071,0.062-0.201,0.143-0.327,0.225c-0.163,0.105-0.289,0.187-0.373,0.258
		c-0.118,0.102-0.298,0.283-0.449,0.445l-0.337,0.344c-0.145,0.144-0.314,0.315-0.413,0.416c-0.053,0.053-0.122,0.133-0.198,0.221
		c-0.127,0.145-0.264,0.301-0.354,0.376c-0.029,0.024-0.144,0.075-0.187,0.093c-0.255,0.111-0.565,0.248-0.589,0.564
		c-0.019,0.334,0.301,0.529,0.558,0.689c0.071,0.047,0.167,0.104,0.192,0.129c0.059,0.062,0.135,0.162,0.219,0.264
		c0.158,0.197,0.283,0.36,0.385,0.449l0.061,0.062c0.301,0.281,0.594,0.533,0.875,0.564c0.006,0,0.006,0,0.006,0
		c0.295,0,0.563-0.158,0.758-0.273l0.094-0.053c0.147-0.08,0.377-0.25,0.561-0.389l0.158-0.114l0.154-0.108
		c0.224-0.152,0.438-0.303,0.558-0.408l0.128-0.129c0.164-0.161,0.653-0.644,0.749-0.701c0.177-0.102,0.313-0.178,0.403-0.255
		c0.116-0.095,0.258-0.255,0.404-0.419c0.078-0.094,0.146-0.171,0.197-0.219c0.047-0.049,0.118-0.111,0.193-0.178
		c0.194-0.17,0.351-0.309,0.446-0.431c0.117-0.145,0.378-0.526,0.454-0.79c0.057-0.189,0.056-0.482,0.047-0.713v-0.111
		c-0.001-0.146-0.016-0.399-0.029-0.606l-0.01-0.214c-0.006-0.061-0.014-0.145-0.02-0.237c-0.021-0.183-0.043-0.416-0.029-0.521
		c0.008-0.082,0.066-0.252,0.113-0.377c0.051-0.144,0.097-0.281,0.118-0.383c0.021-0.108,0.032-0.264,0.044-0.43
		c0.009-0.141,0.02-0.289,0.04-0.377c0.037-0.167,0.167-0.521,0.25-0.717l0.031-0.089c0.062-0.155,0.188-0.478,0.271-0.586
		c0.057-0.078,0.232-0.221,0.348-0.317c0.094-0.073,0.178-0.141,0.232-0.197c0.149-0.136,0.432-0.422,0.572-0.565
		c0.041-0.038,0.092-0.1,0.148-0.168c0.12-0.144,0.277-0.331,0.357-0.383c0.11-0.069,0.441-0.177,0.662-0.223
		c0.083-0.018,0.22-0.025,0.355-0.036c0.189-0.011,0.331-0.02,0.426-0.036c0.09-0.014,0.207-0.05,0.328-0.089
		c0.135-0.043,0.295-0.095,0.371-0.095c0.072,0.012,0.314,0.158,0.535,0.361c0.115,0.102,0.332,0.381,0.408,0.518
		c0.067,0.13,0.188,0.467,0.225,0.651c0.053,0.232,0.096,0.571,0.076,0.686c-0.014,0.072-0.115,0.25-0.174,0.36
		c-0.068,0.118-0.127,0.229-0.165,0.321c-0.032,0.087-0.069,0.218-0.104,0.357c-0.045,0.171-0.08,0.315-0.118,0.399
		c-0.046,0.102-0.155,0.272-0.251,0.42c-0.068,0.104-0.117,0.18-0.15,0.237c-0.037,0.061-0.076,0.137-0.119,0.219
		c-0.11,0.208-0.193,0.377-0.262,0.466c-0.072,0.092-0.252,0.26-0.533,0.501c-0.105,0.093-0.26,0.214-0.4,0.319l-0.245,0.194
		c-0.036,0.03-0.089,0.06-0.142,0.096c-0.259,0.157-0.521,0.323-0.596,0.575c-0.067,0.23,0.01,0.525,0.27,0.99
		c0.109,0.197,0.369,0.521,0.551,0.658c0.139,0.104,0.574,0.378,0.9,0.378c0.256-0.013,0.488-0.179,0.699-0.322
		c0.076-0.054,0.131-0.096,0.18-0.122l0.186-0.1c0.188-0.102,0.404-0.215,0.533-0.313l0.163-0.116
		c0.204-0.146,0.399-0.285,0.507-0.388c0.058-0.056,0.151-0.121,0.244-0.188c0.139-0.102,0.242-0.179,0.318-0.243
		c0.064-0.055,0.16-0.148,0.262-0.251c0.161-0.161,0.315-0.313,0.4-0.377c0.07-0.05,0.421-0.323,0.605-0.545
		c0.172-0.198,0.361-0.62,0.404-0.846c0.031-0.152,0.01-0.345-0.004-0.53c-0.01-0.094-0.021-0.184-0.017-0.251
		c0.01-0.188,0.056-0.485,0.104-0.773c0.048-0.291,0.092-0.567,0.104-0.76c0.006-0.104,0.002-0.261,0-0.42
		c-0.002-0.136-0.002-0.268,0-0.357c0.012-0.188,0.064-0.559,0.1-0.733c0.006-0.061,0.025-0.137,0.05-0.221
		c0.065-0.249,0.11-0.436,0.122-0.569c0.01-0.113-0.008-0.268-0.027-0.43c-0.016-0.14-0.035-0.291-0.029-0.356
		c0.01-0.072,0.068-0.245,0.106-0.353c0.048-0.142,0.089-0.27,0.106-0.369c0.023-0.114,0.037-0.28,0.049-0.441
		c0.01-0.137,0.017-0.257,0.034-0.337c0.023-0.143,0.094-0.401,0.145-0.585l0.124-0.439c0.046-0.169,0.098-0.346,0.129-0.46
		c0.016-0.076,0.037-0.184,0.059-0.302c0.032-0.164,0.064-0.34,0.098-0.435c0.029-0.097,0.103-0.24,0.173-0.377
		c0.073-0.153,0.147-0.296,0.185-0.404c0.043-0.107,0.077-0.262,0.117-0.423c0.035-0.15,0.073-0.308,0.106-0.398
		c0.036-0.084,0.132-0.361,0.235-0.662l0.033-0.097c0.121-0.353,0.258-0.753,0.301-0.853c0.029-0.072,0.146-0.217,0.227-0.323
		c0.113-0.14,0.203-0.258,0.261-0.352c0.054-0.1,0.108-0.239,0.171-0.389c0.064-0.177,0.121-0.316,0.166-0.4
		c0.037-0.061,0.147-0.23,0.449-0.609c0.309-0.38,0.441-0.521,0.497-0.573c0.067-0.063,0.198-0.158,0.319-0.25
		c0.145-0.106,0.238-0.174,0.301-0.228c0.064-0.055,0.15-0.138,0.24-0.231c0.119-0.117,0.241-0.24,0.324-0.294
		c0.142-0.097,0.485-0.266,0.639-0.297C176.418,0.01,176.484,0,176.627,0c0.176,0,0.361,0.018,0.463,0.043
		c0.154,0.037,0.5,0.197,0.619,0.3c0.109,0.09,0.326,0.392,0.389,0.543c0.046,0.097,0.08,0.354,0.1,0.51l0.025,0.186l0.037,0.203
		c0.031,0.162,0.076,0.406,0.07,0.505c-0.004,0.068-0.07,0.241-0.105,0.343c-0.057,0.159-0.102,0.292-0.118,0.396
		c-0.021,0.109-0.019,0.26-0.013,0.418c0,0.131,0.003,0.291-0.011,0.358c-0.017,0.068-0.096,0.223-0.155,0.333
		c-0.075,0.144-0.135,0.267-0.168,0.367c-0.042,0.125-0.078,0.323-0.111,0.516c-0.028,0.152-0.041,0.226-0.055,0.285l-0.033,0.14
		c-0.037,0.169-0.098,0.454-0.152,0.572c-0.033,0.084-0.121,0.21-0.201,0.324c-0.094,0.133-0.169,0.248-0.219,0.33
		c-0.197,0.367-0.531,1.098-0.674,1.469c-0.037,0.095-0.073,0.235-0.113,0.379c-0.038,0.15-0.076,0.294-0.107,0.381
		c-0.154,0.37-0.601,1.125-0.731,1.349c-0.12,0.2-0.309,0.47-0.511,0.758c-0.317,0.456-0.631,0.913-0.797,1.247
		c-0.049,0.101-0.094,0.25-0.14,0.408c-0.034,0.121-0.081,0.28-0.116,0.34c-0.057,0.105-0.23,0.312-0.326,0.421l-0.279,0.339
		c-0.146,0.171-0.285,0.34-0.362,0.449l-0.044,0.062c-0.146,0.204-0.344,0.485-0.41,0.695c-0.083,0.254-0.1,0.735-0.078,0.97
		c0.02,0.152,0.08,0.345,0.141,0.532c0.039,0.125,0.076,0.241,0.092,0.319c0.035,0.191,0.064,0.613,0.075,0.794
		c0.005,0.063,0.003,0.15,0,0.24c-0.005,0.22-0.011,0.463,0.04,0.636c0.074,0.251,0.312,0.64,0.456,0.813
		c0.096,0.118,0.433,0.482,0.697,0.599c0.194,0.085,0.519,0.125,0.734,0.125c0.104,0,0.188-0.007,0.259-0.022
		c0.223-0.047,0.494-0.228,0.711-0.372l0.158-0.104c0.194-0.126,0.834-0.746,0.936-0.953c0.049-0.089,0.44-0.569,0.586-0.699
		l0.102-0.092c0.045-0.043,0.111-0.099,0.181-0.155c0.175-0.139,0.36-0.291,0.462-0.425c0.152-0.198,0.33-0.61,0.393-0.818
		c0.045-0.139,0.064-0.332,0.087-0.524c0.013-0.122,0.022-0.213,0.036-0.279c0.033-0.188,0.104-0.555,0.152-0.734
		c0.026-0.076,0.07-0.194,0.115-0.312c0.062-0.158,0.125-0.321,0.154-0.435c0.029-0.11,0.053-0.285,0.076-0.447
		c0.018-0.135,0.031-0.251,0.049-0.33c0.019-0.084,0.058-0.198,0.098-0.313c0.059-0.185,0.109-0.338,0.131-0.447
		c0.018-0.1,0.022-0.236,0.031-0.377s0.019-0.313,0.037-0.375c0.022-0.069,0.123-0.222,0.191-0.321
		c0.085-0.131,0.16-0.249,0.203-0.345c0.188-0.418,0.397-1.085,0.601-1.729l0.026-0.081c0.146-0.465,0.286-0.906,0.401-1.198
		c0.155-0.394,0.438-0.979,0.707-1.55c0.24-0.503,0.453-0.949,0.591-1.274c0.035-0.084,0.076-0.202,0.116-0.329
		c0.051-0.158,0.112-0.343,0.158-0.423c0.068-0.119,0.274-0.35,0.382-0.477l0.105-0.122c0.047-0.051,0.105-0.117,0.172-0.183
		c0.164-0.171,0.318-0.334,0.406-0.462c0.07-0.103,0.125-0.245,0.188-0.395c0.039-0.11,0.111-0.289,0.156-0.339
		c0.047-0.06,0.236-0.169,0.323-0.225c0.13-0.077,0.249-0.151,0.331-0.219c0.082-0.071,0.173-0.175,0.262-0.29
		c0.082-0.098,0.207-0.25,0.264-0.283c0.089-0.051,0.377-0.101,0.531-0.126l0.176-0.031c0.051-0.013,0.12-0.031,0.192-0.051
		c0.146-0.041,0.318-0.088,0.421-0.088c0.084,0.027,0.289,0.265,0.395,0.454c0.041,0.07,0.106,0.281,0.174,0.66
		c0.029,0.185,0.073,0.563,0.061,0.729c-0.008,0.152-0.102,0.5-0.145,0.67c-0.063,0.254-0.181,0.633-0.242,0.804
		c-0.031,0.085-0.084,0.205-0.137,0.329c-0.068,0.155-0.139,0.315-0.172,0.422c-0.032,0.094-0.062,0.224-0.094,0.364
		c-0.037,0.169-0.07,0.318-0.107,0.403c-0.055,0.117-0.218,0.354-0.316,0.495l-0.096,0.138c-0.039,0.058-0.094,0.132-0.15,0.209
		c-0.126,0.166-0.268,0.35-0.338,0.493c-0.062,0.125-0.104,0.3-0.148,0.466c-0.035,0.136-0.064,0.263-0.097,0.336
		c-0.147,0.332-0.562,0.967-0.781,1.305c-0.179,0.276-0.488,0.714-0.942,1.338c-0.086,0.118-0.416,0.554-0.416,0.554
		c-0.213,0.283-0.423,0.558-0.55,0.738c-0.047,0.064-0.112,0.164-0.176,0.27c-0.089,0.137-0.189,0.296-0.26,0.38
		c-0.042,0.056-0.117,0.118-0.198,0.193c-0.162,0.146-0.313,0.282-0.398,0.418c-0.146,0.234-0.278,0.708-0.32,0.872
		c-0.048,0.202-0.111,0.633-0.103,0.874c0.001,0.125,0.041,0.305,0.081,0.476c0.029,0.146,0.057,0.259,0.062,0.331
		c0.006,0.134-0.013,0.38-0.027,0.562l-0.014,0.179c-0.001,0.061-0.012,0.13-0.021,0.209c-0.032,0.229-0.07,0.483-0.02,0.675
		c0.049,0.188,0.204,0.397,0.343,0.582c0.05,0.065,0.094,0.121,0.122,0.166c0.027,0.045,0.06,0.101,0.098,0.164
		c0.104,0.184,0.221,0.385,0.342,0.502c0.167,0.162,0.535,0.363,0.726,0.438c0.196,0.079,0.606,0.199,0.858,0.199
		c0.193-0.008,0.468-0.077,0.865-0.223c0.2-0.07,0.576-0.252,0.769-0.357c0.044-0.022,0.103-0.051,0.169-0.076
		c0.286-0.129,0.609-0.272,0.73-0.529c0.104-0.225,0.035-0.513-0.059-0.837l-0.029-0.104c-0.021-0.071-0.028-0.237-0.037-0.392
		c-0.012-0.197-0.021-0.352-0.037-0.442c-0.035-0.189-0.043-0.378-0.031-0.537c0.008-0.099,0-0.231-0.006-0.37
		c-0.012-0.138-0.022-0.301-0.008-0.365c0.042-0.183,0.148-0.547,0.209-0.726c0.027-0.074,0.096-0.32,0.173-0.589l0.027-0.096
		c0.079-0.29,0.204-0.731,0.239-0.81c0.077-0.176,0.67-1.182,0.771-1.301c0.045-0.056,0.243-0.16,0.348-0.218
		c0.114-0.063,0.217-0.115,0.283-0.166c0.068-0.05,0.162-0.125,0.253-0.207c0.118-0.101,0.26-0.22,0.332-0.258
		c0.144-0.074,0.488-0.172,0.646-0.186h0.017c0.212,0,0.479,0.038,0.673,0.073c0.498,0.09,0.641,0.159,0.674,0.175
		c0.141,0.079,0.414,0.331,0.494,0.456c0.031,0.049,0.102,0.207,0.209,0.683c0.039,0.179,0.089,0.557,0.096,0.736
		c0.027,0.498-0.005,0.666-0.02,0.713c-0.016,0.071-0.12,0.229-0.191,0.333c-0.079,0.125-0.156,0.241-0.198,0.333
		c-0.04,0.091-0.079,0.218-0.114,0.352c-0.033,0.124-0.088,0.315-0.128,0.38c-0.059,0.1-0.257,0.29-0.372,0.405
		c0,0-0.24,0.234-0.312,0.297c-0.188,0.175-0.328,0.305-0.408,0.403c-0.07,0.089-0.148,0.22-0.229,0.36
		c-0.079,0.132-0.146,0.253-0.203,0.313c-0.025,0.032-0.137,0.1-0.195,0.142c-0.189,0.123-0.38,0.248-0.471,0.427
		c-0.088,0.186-0.104,0.479-0.041,0.954c0.025,0.226,0.141,0.646,0.24,0.866c0.003,0.003,0.248,0.569,0.497,0.804
		c0.136,0.125,0.358,0.222,0.573,0.313c0.095,0.04,0.168,0.071,0.219,0.097c0.047,0.023,0.104,0.064,0.168,0.107
		c0.211,0.137,0.436,0.287,0.656,0.298l0,0c0.228,0,0.438-0.115,0.645-0.229c0.092-0.051,0.154-0.089,0.205-0.105
		c0.062-0.022,0.145-0.043,0.234-0.062c0.257-0.059,0.845-0.469,0.975-0.676c0.049-0.078,0.312-0.348,0.4-0.406
		c0.178-0.121,0.59-0.624,0.678-0.83c0.041-0.103,0.082-0.199,0.119-0.26c0.035-0.06,0.102-0.135,0.172-0.217
		c0.154-0.176,0.275-0.322,0.334-0.469c0.057-0.132,0.082-0.439,0.13-1.644c0.012-0.293,0.028-0.736,0.04-0.804
		c0.037-0.197,0.091-0.6,0.111-0.813c0.006-0.086,0.007-0.206,0.008-0.332c0.005-0.157,0.006-0.333,0.025-0.435
		c0.031-0.148,0.149-0.478,0.246-0.715l0.047-0.131c0.061-0.166,0.17-0.474,0.242-0.544c0.071-0.079,0.387-0.214,0.645-0.288
		c0.139-0.038,0.438-0.08,0.643-0.08c0.029,0,0.057,0,0.08,0c0.277,0.031,0.457,0.093,0.5,0.116
		c0.001,0.019,0.029,0.128,0.029,0.515c0,0.204-0.059,0.562-0.111,0.77c-0.021,0.08-0.07,0.207-0.115,0.326
		c-0.066,0.171-0.116,0.301-0.141,0.4c-0.055,0.216-0.131,0.621-0.131,0.844c0,0.125,0.035,0.273,0.066,0.43
		c0.035,0.149,0.064,0.285,0.064,0.346c0,0.078-0.038,0.246-0.07,0.38c-0.033,0.146-0.061,0.27-0.068,0.358
		c-0.025,0.205-0.053,0.611-0.041,0.824c0.01,0.156,0.057,0.4,0.097,0.609l0.041,0.2c0.007,0.035,0.004,0.095,0.004,0.158
		c0.003,0.344,0.005,0.819,0.415,0.87h0.002c0.472,0,0.598-0.539,0.684-0.898l0.025-0.099c0.037-0.147,0.039-0.343,0.041-0.532
		c0.004-0.123,0.004-0.243,0.019-0.318c0.021-0.119,0.085-0.326,0.144-0.496c0.029-0.101,0.056-0.19,0.076-0.26l0.107-0.395
		c0.039-0.146,0.08-0.289,0.107-0.385c0.029-0.1,0.082-0.251,0.131-0.4c0.054-0.16,0.094-0.284,0.123-0.373l0.236-0.781
		c0.061-0.188,0.181-0.572,0.246-0.759c0.07-0.191,0.211-0.566,0.287-0.749c0.076-0.185,0.237-0.547,0.327-0.727l0.054-0.113
		c0.073-0.145,0.218-0.446,0.309-0.545c0.091-0.098,0.396-0.282,0.543-0.37l0.074-0.044c0.053-0.031,0.113-0.071,0.18-0.122
		c0.09-0.062,0.323-0.224,0.396-0.232c0.048,0.013,0.264,0.185,0.389,0.336c0.076,0.097,0.208,0.395,0.232,0.532
		c0.015,0.068-0.009,0.271-0.02,0.382c-0.014,0.126-0.025,0.217-0.025,0.289c0,0.079,0.009,0.189,0.017,0.312
		c0.007,0.143,0.017,0.305,0.009,0.397c-0.025,0.27-0.14,0.691-0.248,1.1c-0.118,0.44-0.244,0.91-0.275,1.241
		c-0.014,0.115-0.004,0.274,0.006,0.443c0.014,0.163,0.025,0.301,0.014,0.388c-0.006,0.061-0.05,0.185-0.086,0.293
		c-0.076,0.209-0.146,0.406-0.148,0.575c-0.006,0.179,0.057,0.405,0.118,0.628c0.03,0.107,0.054,0.197,0.066,0.267
		c0.011,0.063,0.017,0.149,0.024,0.246c0.018,0.236,0.034,0.501,0.126,0.682c0.1,0.196,0.327,0.39,0.527,0.556l0.147,0.128
		c0.033,0.034,0.074,0.075,0.117,0.12c0.201,0.21,0.412,0.424,0.613,0.513c0.146,0.062,0.371,0.095,0.67,0.095
		c0.083,0,0.155-0.004,0.212-0.008c0.142-0.01,0.351-0.061,0.537-0.107c0.101-0.025,0.175-0.043,0.233-0.054
		c0.07-0.017,0.859-0.146,0.859-0.146c0.207-0.033,0.438-0.073,0.576-0.109c0.108-0.029,0.26-0.094,0.408-0.155
		c0.134-0.056,0.209-0.088,0.271-0.108c0.121-0.04,0.317-0.104,0.467-0.143c-0.049,0.076-0.105,0.158-0.172,0.225
		c-0.049,0.051-0.268,0.139-0.383,0.184s-0.213,0.082-0.281,0.118l-0.104,0.053c-0.239,0.121-0.484,0.248-0.63,0.349
		c-0.088,0.066-0.191,0.166-0.298,0.277c-0.084,0.086-0.223,0.228-0.282,0.257c-0.096,0.046-0.41,0.081-0.53,0.095l-0.144,0.016
		c-0.097,0.015-0.248,0.025-0.395,0.035s-0.281,0.021-0.375,0.033c-0.188,0.02-0.57,0.074-0.768,0.115
		c-0.074,0.013-0.177,0.041-0.287,0.072c-0.15,0.045-0.326,0.097-0.408,0.097c-0.109-0.007-0.365-0.116-0.533-0.189
		c-0.079-0.034-0.139-0.063-0.19-0.079c-0.041-0.021-0.104-0.041-0.168-0.069c-0.134-0.046-0.44-0.161-0.528-0.234
		c-0.1-0.083-0.276-0.409-0.354-0.548l-0.048-0.086c-0.074-0.139-0.191-0.408-0.274-0.601l-0.058-0.133
		c-0.018-0.042-0.034-0.118-0.052-0.199c-0.06-0.294-0.148-0.692-0.492-0.763l-0.074-0.005c-0.263,0-0.426,0.245-0.545,0.428
		l-0.043,0.058c-0.112,0.163-0.261,0.486-0.363,0.731c-0.051,0.111-0.113,0.305-0.176,0.477c-0.029,0.099-0.146,0.44-0.146,0.44
		c-0.058,0.174-0.127,0.381-0.177,0.465c-0.068,0.115-0.291,0.361-0.445,0.513l-0.053,0.048c-0.104,0.096-0.37,0.352-0.477,0.391
		c-0.005,0-0.035,0.01-0.133,0.01c-0.107,0-0.229-0.014-0.336-0.024c0,0-0.191-0.018-0.234-0.022
		c-0.192-0.01-0.567-0.049-0.746-0.071c-0.062-0.009-0.145-0.017-0.24-0.019c-0.097-0.006-0.354-0.016-0.414-0.052
		c-0.029-0.055-0.055-0.378-0.062-0.485c-0.004-0.067-0.009-0.131-0.016-0.18c-0.011-0.082-0.008-0.215-0.005-0.34
		c0.003-0.187,0.003-0.379-0.023-0.518l-0.01-0.091c-0.044-0.351-0.101-0.837-0.491-0.89h-0.004c-0.355,0-0.481,0.299-0.574,0.514
		c-0.031,0.073-0.051,0.123-0.069,0.152c-0.063,0.068-0.206,0.178-0.329,0.274c-0.124,0.095-0.187,0.144-0.233,0.183
		c-0.146,0.125-0.437,0.377-0.581,0.505c-0.053,0.048-0.115,0.112-0.182,0.181c-0.14,0.145-0.271,0.285-0.344,0.33
		c-0.095,0.059-0.355,0.146-0.51,0.199l-0.211,0.068l-0.163,0.062c-0.154,0.062-0.362,0.145-0.454,0.164
		c-0.095,0.017-0.25,0.017-0.365,0.017c-0.007,0-0.353,0-0.353,0l-0.538,0.008c-0.078,0-0.149,0-0.203-0.005
		c-0.25-0.013-0.576-0.049-0.706-0.087c-0.15-0.042-0.485-0.196-0.63-0.288c-0.141-0.086-0.43-0.331-0.556-0.469
		c-0.122-0.131-0.328-0.447-0.415-0.595c-0.018-0.03-0.047-0.137-0.061-0.197c-0.086-0.308-0.178-0.632-0.474-0.724
		c-0.046-0.012-0.091-0.021-0.14-0.021c-0.271,0-0.526,0.222-0.731,0.4c-0.055,0.049-0.104,0.09-0.144,0.119
		c-0.077,0.053-0.175,0.135-0.279,0.224c-0.105,0.093-0.252,0.217-0.327,0.255c-0.092,0.051-0.314,0.117-0.431,0.15
		c-0.137,0.044-0.227,0.07-0.291,0.095c-0.067,0.024-0.16,0.067-0.261,0.108l-0.068,0.031c-0.139,0.062-0.293,0.128-0.391,0.16
		c-0.175,0.055-0.571,0.139-0.771,0.156c-0.082,0.01-0.209,0.013-0.336,0.013c-0.133,0-0.266-0.003-0.352-0.013
		c-0.132-0.012-0.365-0.072-0.54-0.114l-0.198-0.048c-0.056-0.011-0.13-0.023-0.207-0.037c-0.156-0.03-0.406-0.071-0.478-0.115
		c-0.105-0.058-0.333-0.334-0.409-0.425l-0.062-0.066c-0.102-0.126-0.33-0.421-0.429-0.581c-0.1-0.152-0.278-0.471-0.37-0.642
		l-0.065-0.116c-0.077-0.143-0.223-0.41-0.256-0.527c-0.005-0.026,0.005-0.129,0.008-0.188c0.025-0.25,0.064-0.659-0.279-0.779
		h-0.01c-0.254,0-0.508,0.409-0.508,0.409c-0.158,0.351-0.455,0.718-0.584,0.876c-0.041,0.048-0.066,0.08-0.078,0.097
		c-0.082,0.117-0.345,0.351-0.471,0.462c-0.104,0.09-0.232,0.188-0.358,0.281c-0.109,0.082-0.209,0.154-0.275,0.211
		c-0.144,0.117-0.438,0.377-0.585,0.512c-0.057,0.055-0.123,0.131-0.199,0.216c-0.088,0.102-0.229,0.259-0.293,0.295
		c-0.063,0.04-0.267,0.09-0.355,0.11c-0.133,0.029-0.254,0.062-0.344,0.098c-0.088,0.035-0.199,0.099-0.312,0.166
		c-0.117,0.068-0.271,0.156-0.33,0.17c-0.04,0.007-0.096,0.01-0.158,0.01c-0.17,0-0.398-0.025-0.514-0.057
		c-0.135-0.035-0.457-0.201-0.629-0.312c-0.171-0.109-0.449-0.332-0.541-0.445c-0.08-0.098-0.211-0.368-0.29-0.527l-0.053-0.111
		c-0.082-0.172-0.237-0.515-0.303-0.695c-0.063-0.174-0.178-0.54-0.216-0.719c-0.008-0.029-0.002-0.144,0.003-0.212
		c0.013-0.316,0.035-0.775-0.352-0.867l-0.083-0.01c-0.344,0-0.499,0.349-0.621,0.626c-0.035,0.079-0.082,0.178-0.1,0.205
		c-0.1,0.125-0.305,0.354-0.441,0.502l-0.068,0.072c-0.132,0.148-0.402,0.432-0.537,0.572c0,0-0.471,0.492-0.548,0.578l-0.257,0.281
		c-0.103,0.113-0.203,0.229-0.275,0.297l-0.062,0.062c-0.125,0.128-0.361,0.362-0.482,0.438c-0.107,0.072-0.383,0.18-0.545,0.244
		l-0.135,0.053c-0.078,0.029-0.182,0.067-0.291,0.104l-0.068,0.026c-0.148,0.051-0.299,0.104-0.391,0.145
		c-0.076,0.032-0.18,0.091-0.283,0.151c-0.127,0.07-0.301,0.171-0.365,0.181c0,0-0.012,0-0.02,0c-0.133,0-0.268-0.024-0.389-0.045
		c-0.154-0.026-0.24-0.04-0.305-0.049c-0.039-0.003-0.098-0.004-0.157-0.004l-0.3,0.004c-0.182,0-0.251-0.011-0.275-0.021
		c-0.076-0.026-0.283-0.169-0.498-0.368c-0.113-0.101-0.333-0.351-0.418-0.479c-0.013-0.024-0.04-0.118-0.053-0.172
		c-0.082-0.292-0.172-0.624-0.494-0.673h-0.01c-0.381,0-0.574,0.305-0.747,0.572c-0.052,0.076-0.097,0.151-0.13,0.188l-0.101,0.104
		c-0.141,0.146-0.331,0.347-0.443,0.448c-0.136,0.125-0.438,0.363-0.602,0.49c-0.053,0.039-0.136,0.098-0.224,0.155
		c-0.182,0.12-0.347,0.232-0.444,0.325c-0.091,0.086-0.192,0.217-0.3,0.36c-0.096,0.123-0.164,0.221-0.224,0.272
		c-0.087,0.083-0.271,0.203-0.414,0.305c-0.091,0.062-0.158,0.105-0.204,0.142c-0.041,0.03-0.102,0.077-0.164,0.124
		c-0.151,0.121-0.346,0.275-0.444,0.327c-0.115,0.06-0.509,0.192-0.729,0.265l-0.238,0.071l0.082,1.058
		c0.128,0.48,0.169,0.711,0.173,0.781c0.006,0.144-0.061,0.498-0.119,0.697c-0.027,0.1-0.098,0.257-0.16,0.398
		c-0.062,0.135-0.11,0.244-0.143,0.322c-0.037,0.113-0.098,0.285-0.148,0.449l-0.158,0.465c-0.065,0.193-0.144,0.424-0.203,0.539
		c-0.073,0.146-0.28,0.446-0.404,0.614c-0.104,0.14-0.322,0.397-0.457,0.55l-0.224,0.268c-0.267,0.317-0.612,0.732-0.821,0.925
		c-0.125,0.11-0.424,0.327-0.598,0.442c-0.069,0.047-0.17,0.107-0.276,0.168c-0.185,0.107-0.319,0.188-0.409,0.256
		c-0.074,0.053-0.164,0.139-0.259,0.228c-0.135,0.128-0.254,0.241-0.316,0.28c-0.085,0.051-0.306,0.127-0.425,0.165
		c-0.123,0.042-0.197,0.067-0.258,0.092c-0.07,0.028-0.16,0.073-0.258,0.118c-0.158,0.075-0.324,0.152-0.422,0.184
		c-0.086,0.017-0.247,0.022-0.384,0.033c-0.144,0.006-0.278,0.013-0.37,0.03c-0.17,0.026-0.592,0.138-0.752,0.183L148.5,33.274z
		 M153.855,26.148c-0.195,0-0.367,0.129-0.525,0.24c-0.029,0.023-0.121,0.088-0.15,0.101c-0.051,0.013-0.196,0.024-0.28,0.028
		c-0.114,0.011-0.334,0.109-0.939,0.387c-0.224,0.104-0.531,0.248-0.597,0.264c-0.156,0.031-0.279,0.055-0.369,0.086
		c-0.109,0.039-0.273,0.12-0.434,0.197c-0.111,0.058-0.21,0.105-0.277,0.135c-0.062,0.026-0.15,0.055-0.246,0.084
		c-0.215,0.07-0.383,0.131-0.506,0.199c-0.113,0.064-0.227,0.166-0.351,0.277c-0.065,0.059-0.186,0.166-0.241,0.2
		c-0.057,0.033-0.192,0.072-0.305,0.106c-0.203,0.059-0.367,0.113-0.49,0.189c-0.242,0.156-0.577,0.559-0.645,0.636
		c-0.135,0.164-0.385,0.51-0.485,0.726c-0.101,0.209-0.21,0.603-0.244,0.805c-0.062,0.408-0.101,0.758,0.024,0.992
		c0.117,0.217,0.395,0.359,0.691,0.502l0.145,0.069c0.278,0.147,0.576,0.292,0.809,0.301l0,0c0.195,0,0.385-0.076,0.553-0.145
		c0.088-0.033,0.203-0.079,0.246-0.084l0.014-0.001c0.104,0,0.191,0.011,0.279,0.023c0.128,0.016,0.255,0.031,0.359,0.031
		c0.059,0,0.113-0.008,0.162-0.016c0.238-0.045,0.629-0.236,0.814-0.355c0.139-0.089,0.307-0.25,0.46-0.389
		c0.062-0.059,0.118-0.108,0.161-0.147c0,0,0.506-0.433,0.578-0.493c0.17-0.15,0.486-0.437,0.637-0.598
		c0.148-0.164,0.426-0.506,0.554-0.704c0.13-0.2,0.337-0.588,0.431-0.79c0.096-0.221,0.244-0.626,0.304-0.842
		c0.056-0.221,0.134-0.646,0.166-0.869c0.005-0.035,0.021-0.088,0.036-0.148c0.084-0.312,0.197-0.717-0.1-0.925
		C154.031,26.175,153.943,26.148,153.855,26.148z M165.818,12.692c-0.24,0-0.56,0.097-0.726,0.229
		c-0.176,0.141-0.254,0.386-0.328,0.625c-0.032,0.1-0.054,0.174-0.079,0.22c-0.032,0.061-0.101,0.152-0.168,0.247
		c-0.134,0.184-0.266,0.363-0.319,0.525c-0.056,0.169-0.064,0.395-0.073,0.617c-0.002,0.119-0.007,0.214-0.018,0.283
		c-0.005,0.033-0.053,0.149-0.086,0.22c-0.141,0.324-0.342,0.797,0.052,0.998c0.06,0.032,0.125,0.05,0.19,0.05
		c0.178,0,0.359-0.175,0.812-0.691c0.102-0.123,0.191-0.226,0.234-0.26c0.166-0.098,0.328-0.199,0.438-0.307
		c0.165-0.176,0.404-0.573,0.498-0.795c0.092-0.218,0.22-0.658,0.22-0.922c0-0.51-0.1-0.812-0.309-0.947
		C166.067,12.721,165.951,12.692,165.818,12.692z M189.449,11.672c-0.24,0.033-0.461,0.253-0.635,0.431
		c-0.039,0.038-0.07,0.068-0.096,0.095l-0.055,0.047c-0.209,0.185-0.473,0.428-0.581,0.642c-0.097,0.2-0.13,0.522-0.156,0.838
		l-0.007,0.072c-0.01,0.067-0.027,0.139-0.05,0.216c-0.04,0.149-0.079,0.296-0.075,0.45v0.135c0.006,0.239,0.014,0.53,0,0.671
		c-0.059,0.589-0.082,1.08,0.239,1.268c0.066,0.04,0.138,0.058,0.21,0.058c0.326,0,1.291-1.244,1.301-1.255
		c0.088-0.132,0.133-0.312,0.181-0.488c0.026-0.103,0.061-0.239,0.089-0.284c0.029-0.051,0.143-0.158,0.213-0.23
		c0.134-0.127,0.26-0.245,0.332-0.376c0.113-0.203,0.252-0.64,0.267-0.903c0.007-0.192-0.017-0.749-0.233-1.009
		c-0.166-0.203-0.576-0.385-0.859-0.385h-0.014L189.449,11.672z M145.902,11.059c-0.359,0.013-0.775,0.418-0.938,0.592
		c-0.092,0.105-0.17,0.254-0.254,0.427c-0.053,0.108-0.094,0.191-0.129,0.239c-0.037,0.051-0.128,0.125-0.212,0.195
		c-0.135,0.116-0.286,0.245-0.368,0.377c-0.111,0.181-0.191,0.493-0.25,0.72l-0.025,0.089c-0.028,0.112-0.059,0.283-0.092,0.449
		c-0.029,0.155-0.049,0.24-0.059,0.301c-0.009,0.025-0.035,0.08-0.059,0.132c-0.102,0.217-0.256,0.55-0.014,0.778
		c0.076,0.073,0.186,0.114,0.305,0.114c0.215,0,0.447-0.129,0.668-0.255c0.158-0.103,0.3-0.253,0.425-0.385
		c0.079-0.086,0.136-0.149,0.183-0.189c0.052-0.041,0.123-0.082,0.199-0.129c0.189-0.115,0.363-0.221,0.471-0.343
		c0.004-0.005,0.879-1.002,1.013-1.223c0.155-0.261,0.349-0.903,0.186-1.259c-0.147-0.323-0.707-0.628-1.03-0.628h-0.002H145.902z
		 M176.619,1.586c-0.25,0-0.538,0.093-0.672,0.157c-0.231,0.109-0.566,0.433-0.711,0.65c-0.094,0.143-0.154,0.35-0.213,0.548
		c-0.029,0.112-0.056,0.195-0.08,0.251c-0.038,0.088-0.112,0.217-0.178,0.346c-0.07,0.132-0.135,0.253-0.175,0.338
		c-0.06,0.128-0.154,0.357-0.227,0.546l-0.128,0.312c-0.082,0.195-0.187,0.462-0.24,0.611c-0.064,0.188-0.172,0.568-0.225,0.771
		c-0.051,0.194-0.143,0.583-0.182,0.775c-0.031,0.155-0.082,0.436-0.117,0.642l-0.148,0.902c-0.014,0.066-0.023,0.153-0.037,0.247
		c-0.02,0.173-0.045,0.38-0.078,0.488c-0.018,0.066-0.068,0.164-0.117,0.259c-0.088,0.182-0.173,0.36-0.196,0.515l-0.021,0.131
		c-0.036,0.234-0.087,0.579-0.103,0.745c-0.008,0.093-0.006,0.204-0.004,0.321c0.001,0.131,0.004,0.268-0.01,0.341
		c-0.01,0.036-0.028,0.089-0.045,0.152c-0.096,0.29-0.255,0.776,0.149,0.936c0.044,0.018,0.094,0.028,0.147,0.028
		c0.328,0,0.494-0.367,0.625-0.663c0.023-0.052,0.049-0.1,0.064-0.134l0.06-0.109c0.339-0.645,0.457-0.827,0.493-0.869
		c0.137-0.112,0.499-0.769,0.707-1.149c0.059-0.155,0.133-0.38,0.201-0.573l0.082-0.239c0.036-0.103,0.398-0.716,0.533-0.945
		c0.119-0.204,0.223-0.374,0.256-0.438c0.072-0.138,0.116-0.33,0.159-0.516c0.026-0.124,0.051-0.241,0.079-0.305
		c0.028-0.073,0.092-0.174,0.152-0.275c0.102-0.167,0.202-0.333,0.246-0.477c0.031-0.101,0.484-1.421,0.527-1.525
		c0.094-0.228,0.18-0.679,0.199-0.897c0.019-0.227,0.002-0.676-0.048-0.918l-0.015-0.074c-0.064-0.352-0.142-0.679-0.379-0.827
		C176.862,1.609,176.752,1.586,176.619,1.586z M185.363,3.407c-0.208,0-0.4,0.131-0.614,0.295c-0.032,0.024-0.06,0.046-0.083,0.061
		c-0.162,0.107-0.549,0.381-0.691,0.619c-0.092,0.147-0.125,0.36-0.156,0.548c-0.014,0.095-0.037,0.225-0.056,0.273
		c-0.027,0.065-0.118,0.195-0.193,0.299c-0.094,0.135-0.175,0.255-0.221,0.349c-0.055,0.115-0.114,0.295-0.173,0.469
		c-0.037,0.127-0.07,0.225-0.096,0.293c-0.021,0.056-0.059,0.132-0.096,0.214c-0.098,0.217-0.184,0.401-0.221,0.535
		c-0.029,0.104-0.045,0.253-0.059,0.41c-0.006,0.111-0.158,0.532-0.223,0.618c-0.129,0.168-0.354,0.834-0.379,1.063
		c-0.01,0.078-0.015,0.144-0.023,0.196c-0.004,0.04-0.029,0.1-0.052,0.169c-0.094,0.27-0.178,0.516-0.069,0.726
		c0.052,0.093,0.135,0.16,0.238,0.192l0.093,0.013c0.351,0.003,0.513-0.367,0.654-0.691c0.038-0.089,0.067-0.163,0.094-0.197
		c0.054-0.079,0.263-0.376,0.263-0.376c0.064-0.091,0.127-0.176,0.174-0.25c0.083-0.124,0.145-0.294,0.215-0.505
		c0.042-0.116,0.082-0.235,0.119-0.304c0.037-0.067,0.111-0.16,0.186-0.253c0.129-0.166,0.252-0.322,0.312-0.461l0.117-0.275
		c0.072-0.166,0.14-0.328,0.199-0.438c0.094-0.18,0.332-0.548,0.44-0.726c0.147-0.222,0.315-0.643,0.386-0.857
		c0.082-0.243,0.17-0.696,0.197-0.879c0.007-0.034,0.021-0.078,0.036-0.127c0.099-0.322,0.219-0.721-0.078-0.929
		C185.536,3.433,185.451,3.407,185.363,3.407z"/>
	<path fill="#FFFFFF" d="M11.221,23.016c-0.125,0-0.253-0.012-0.353-0.016l-0.274-0.011c-0.226-0.007-0.632-0.016-0.76-0.087
		c-0.179-0.096-0.499-0.484-0.554-0.668c-0.022-0.07,0.03-0.336,0.056-0.46c0.026-0.126,0.045-0.241,0.053-0.325
		c0.019-0.232,0.037-0.682,0.037-0.907c0-0.087-0.006-0.208-0.015-0.337c-0.012-0.211-0.025-0.413-0.017-0.528
		c0.006-0.101,0.043-0.253,0.079-0.403c0.042-0.184,0.079-0.349,0.09-0.47c0.012-0.125,0.008-0.311,0.005-0.485
		c-0.005-0.168-0.009-0.312,0-0.404c0.008-0.105,0.042-0.277,0.072-0.439c0.035-0.162,0.067-0.32,0.078-0.428
		c0.016-0.125,0.026-0.323,0.033-0.512c0.005-0.17,0.014-0.296,0.021-0.38c0.009-0.114,0.051-0.533,0.051-0.533
		c0.013-0.132,0.026-0.261,0.035-0.352c0.005-0.076,0.025-0.409,0.025-0.409c0.011-0.179,0.021-0.358,0.03-0.476
		c0.022-0.217,0.068-0.651,0.095-0.869l0.056-0.344c0.035-0.197,0.068-0.409,0.083-0.542c0.011-0.135,0.018-0.343,0.023-0.54
		c0,0,0.008-0.296,0.011-0.362c0.013-0.244,0.036-0.661,0.06-0.868c0.02-0.159,0.071-0.436,0.113-0.653l0.091-0.491
		c0.039-0.215,0.086-0.46,0.107-0.608c0.028-0.221,0.075-0.673,0.085-0.911c0.005-0.114,0-0.275-0.004-0.443
		c-0.003-0.188-0.007-0.344-0.003-0.445c0.008-0.128,0.036-0.322,0.06-0.508l0.044-0.359c0,0,0.075-0.772,0.085-0.884
		c0.029-0.268,0.075-0.662,0.107-0.864c0.034-0.218,0.116-0.645,0.166-0.847c0.036-0.059,0.142-0.278-0.037-0.444l-0.039-0.036
		l-0.09-0.041L10.84,3.317c-0.102,0-0.176,0.045-0.229,0.074c-0.051-0.001-0.186-0.033-0.309-0.059
		c-0.141-0.028-0.26-0.052-0.345-0.058C9.876,3.265,9.77,3.263,9.649,3.263c-0.174,0-0.362,0.005-0.48,0.011
		C8.918,3.283,8.412,3.317,8.141,3.342C7.957,3.36,7.648,3.397,7.392,3.431L7.124,3.467C7.085,3.468,7.036,3.472,6.985,3.472
		L6.733,3.468c-0.29,0-0.584,0.022-0.763,0.195C5.836,3.788,5.792,4.059,5.879,4.222C6,4.433,6.245,4.48,6.483,4.522
		C6.465,4.531,6.45,4.543,6.428,4.553c-0.16,0.085-0.598,0.16-0.787,0.195C5.423,4.785,4.974,4.827,4.757,4.829
		c-0.209,0-0.625-0.04-0.821-0.066c-0.146-0.02-0.392-0.075-0.6-0.117L3.11,4.596L2.872,4.557C2.659,4.516,2.424,4.476,2.299,4.433
		C2.127,4.376,1.77,4.196,1.599,4.088C1.404,3.967,1.033,3.7,0.897,3.551C0.747,3.394,0.485,2.952,0.399,2.807L0.29,2.628
		C0.21,2.51,0.008,2.196,0,2.088c0.008-0.02,0.053-0.133,0.09-0.184c0.079-0.11,0.365-0.322,0.58-0.454
		c0.168-0.102,0.541-0.266,0.713-0.314C1.56,1.084,1.96,1.038,2.189,1.022C2.263,1.017,2.362,1.013,2.47,1.013l0.547,0.004
		c0.116,0,0.22,0,0.302-0.006c0.138-0.008,0.367-0.041,0.574-0.073C4.024,0.922,4.15,0.903,4.238,0.891
		C4.46,0.869,4.911,0.829,5.136,0.81l0.129-0.011C5.49,0.783,5.792,0.76,5.983,0.76c0.14,0.003,0.301,0.025,0.455,0.047
		C6.623,0.83,6.81,0.855,6.94,0.858h0.003c0.145,0,0.319-0.018,0.489-0.034C7.553,0.812,7.669,0.801,7.75,0.797h0.127
		c0.126,0,0.71,0.01,0.71,0.01l0.398-0.001c0.12,0,0.242,0.001,0.324,0.007C9.4,0.819,9.539,0.844,9.681,0.869
		c0.164,0.029,0.314,0.054,0.415,0.062c0.135,0.011,0.35,0.011,0.551,0.015c0.135,0,0.265,0,0.354,0.005
		c0.279,0.016,0.67,0.04,0.863,0.066c0.083,0.011,0.187,0.035,0.303,0.065c0.253,0.061,0.451,0.103,0.585,0.117
		c0.064,0.01,0.149,0.01,0.24,0.01c0.103,0,0.605-0.011,0.605-0.011c0.24,0.008,0.542,0.029,0.773,0.049c0,0,0.83,0.065,1.044,0.087
		l0.889,0.088c0.222,0.019,1.09,0.088,1.09,0.088c0.234,0.014,0.534,0.036,0.707,0.039l0.107,0.001c0.24,0,0.595-0.012,0.787-0.018
		L19.1,1.53c0.237-0.009,0.596-0.02,0.789-0.04c0.113-0.014,0.282-0.046,0.448-0.08c0.18-0.033,0.327-0.064,0.429-0.073
		c0.208-0.029,0.627-0.052,0.847-0.062c0.104-0.004,0.259-0.004,0.416-0.004h0.01c0.176,0,0.341,0,0.453-0.004
		c0.085-0.004,0.199-0.013,0.32-0.03c0.154-0.016,0.32-0.038,0.441-0.038c0.237,0.025,0.556,0.119,0.655,0.186
		C24,1.446,24.211,1.71,24.319,1.885c0.079,0.128,0.218,0.448,0.274,0.621l0.044,0.121c0.135,0.352,0.156,0.463,0.147,0.499l0,0
		c-0.013,0-0.107,0.054-0.387,0.148c-0.058,0.016-0.105,0.034-0.144,0.049c-0.05,0.018-0.139,0.038-0.221,0.055
		c-0.066,0.017-0.129,0.032-0.171,0.047c-0.071,0.021-0.167,0.055-0.269,0.093c-0.174,0.066-0.366,0.137-0.458,0.148h-0.001
		c-0.133,0-0.264-0.018-0.387-0.035c-0.148-0.022-0.286-0.038-0.39-0.038c-0.143,0-0.364,0.026-0.556,0.052
		C21.695,3.659,21.6,3.67,21.526,3.679l-0.084,0.005c-0.243,0.023-0.528,0.05-0.689,0.05c-0.113-0.003-0.288-0.019-0.453-0.039
		c-0.162-0.015-0.271-0.024-0.352-0.031c-0.178-0.01-0.496-0.017-0.741-0.017c-0.075,0-0.146,0-0.198,0.001
		c-0.101,0.005-0.25,0.022-0.402,0.042c-0.17,0.021-0.349,0.045-0.468,0.045c-0.127-0.004-0.29-0.04-0.446-0.072
		c-0.184-0.037-0.354-0.071-0.479-0.078c-0.017,0-0.033-0.002-0.049-0.002c-0.174,0-0.312,0.012-0.456,0.026
		c-0.134,0.012-0.27,0.023-0.372,0.023c-0.149-0.006-0.38-0.038-0.904-0.148c-0.058-0.009-0.133-0.037-0.212-0.067
		c-0.263-0.097-0.472-0.168-0.66-0.168c-0.049,0-0.097,0.004-0.141,0.016c-0.11,0.024-0.239,0.129-0.283,0.241
		c-0.04,0.089-0.025,0.172-0.018,0.208c-0.008,0.052-0.059,0.24-0.101,0.395c-0.049,0.172-0.086,0.315-0.104,0.417
		c-0.025,0.158-0.048,0.415-0.065,0.64l-0.025,0.278l-0.096,0.895c0,0-0.096,0.796-0.105,0.9L13.6,7.552
		c-0.018,0.234-0.033,0.443-0.053,0.574c-0.01,0.091-0.042,0.223-0.074,0.36c-0.048,0.206-0.097,0.405-0.107,0.542
		c-0.009,0.13,0,0.302,0.01,0.485c0.014,0.185,0.023,0.331,0.014,0.42c-0.014,0.101-0.061,0.26-0.105,0.417
		c-0.053,0.179-0.099,0.339-0.115,0.458c-0.023,0.155-0.035,0.401-0.041,0.623c-0.008,0.142-0.011,0.232-0.015,0.304
		c-0.02,0.222-0.059,0.666-0.081,0.891c-0.006,0.08-0.017,0.181-0.032,0.29c-0.031,0.242-0.054,0.477-0.065,0.623
		c-0.005,0.099-0.005,0.242-0.005,0.386c0,0.18,0.002,0.385-0.013,0.501c-0.018,0.104-0.059,0.265-0.104,0.422
		c-0.053,0.199-0.095,0.349-0.112,0.463c-0.018,0.136-0.027,0.341-0.033,0.542c-0.002,0.148-0.009,0.281-0.02,0.374
		c-0.009,0.102-0.033,0.249-0.057,0.397c-0.039,0.236-0.064,0.396-0.073,0.507c-0.011,0.138-0.011,0.355-0.011,0.557
		c0,0.138,0,0.27-0.004,0.363c-0.005,0.129-0.021,0.332-0.035,0.522l-0.025,0.375c-0.006,0.056-0.02,0.131-0.035,0.212
		c-0.059,0.309-0.124,0.648,0.043,0.882c0.107,0.149,0.31,0.188,0.404,0.188c0.062,0,0.123-0.013,0.172-0.042
		c0.251-0.125,0.326-0.447,0.39-0.731c0.026-0.101,0.049-0.206,0.069-0.243c0.044-0.092,0.135-0.229,0.219-0.359
		c0.103-0.164,0.194-0.307,0.249-0.415c0.062-0.124,0.136-0.321,0.206-0.513c0.05-0.128,0.096-0.251,0.134-0.335
		c0.091-0.201,0.285-0.597,0.386-0.792c0.04-0.079,0.101-0.186,0.165-0.296c0.113-0.201,0.216-0.384,0.273-0.51
		c0.044-0.094,0.094-0.242,0.142-0.392c0.062-0.177,0.113-0.342,0.163-0.438c0.049-0.094,0.152-0.228,0.251-0.357
		c0.112-0.148,0.207-0.275,0.269-0.379c0.069-0.122,0.157-0.32,0.238-0.51c0.054-0.118,0.109-0.237,0.149-0.321
		c0.037-0.073,0.095-0.175,0.157-0.287l0.048-0.081c0.087-0.156,0.178-0.311,0.232-0.417c0.046-0.097,0.113-0.243,0.179-0.392
		c0.073-0.163,0.142-0.322,0.196-0.422c0.104-0.199,0.329-0.571,0.448-0.747l0.11-0.182c0.058-0.1,0.236-0.401,0.32-0.448
		c0.044-0.028,0.209-0.045,0.483-0.045l0.217-0.008c0.067-0.007,0.153-0.009,0.238-0.009c0.144,0,0.188,0.018,0.188,0.018
		c0.087,0.037,0.265,0.228,0.288,0.294c0.03,0.095-0.042,0.445-0.066,0.559c-0.016,0.085-0.035,0.166-0.041,0.226
		c-0.017,0.117-0.049,0.284-0.084,0.455l-0.019,0.093c-0.028,0.146-0.059,0.288-0.073,0.391c-0.039,0.252-0.096,0.733-0.116,0.973
		c-0.005,0.103-0.011,0.256-0.013,0.413c-0.003,0.157-0.005,0.317-0.014,0.419c-0.004,0.073-0.024,0.169-0.042,0.274
		c-0.047,0.257-0.082,0.454-0.082,0.589c0,0.205,0.062,0.525,0.105,0.757l0.023,0.129c0.036,0.179,0.116,0.624,0.179,0.841
		l0.032,0.108c0.076,0.285,0.162,0.606,0.3,0.787c0.206,0.275,0.765,0.569,0.771,0.572c0.05,0.025,0.116,0.061,0.203,0.061h0.021
		l0.064-0.01c0.158-0.051,0.386-0.189,0.666-0.854c0.09-0.221,0.143-0.594,0.185-0.933c0.02-0.142,0.026-0.295,0.034-0.458
		c0.004-0.197,0.012-0.37,0.027-0.475c0.013-0.09,0.046-0.206,0.08-0.332c0.062-0.234,0.113-0.43,0.129-0.566
		c0.014-0.13,0.008-0.324,0.001-0.508c-0.004-0.155-0.012-0.31-0.001-0.405c0.012-0.111,0.053-0.286,0.094-0.455
		c0.039-0.162,0.075-0.319,0.091-0.429c0.033-0.242,0.072-0.707,0.072-0.948c-0.003-0.097-0.021-0.216-0.043-0.345
		c-0.029-0.143-0.076-0.395-0.051-0.46c0.034-0.09,0.307-0.324,0.485-0.416c0.112-0.057,0.434-0.107,0.592-0.132l0.127-0.02
		c0.248,0.02,0.605,0.139,0.684,0.212c0.078,0.077,0.212,0.433,0.234,0.639c0.005,0.042-0.022,0.188-0.037,0.257
		c-0.018,0.091-0.033,0.176-0.037,0.239c-0.012,0.166-0.012,0.459-0.012,0.688c0,0,0.007,0.934,0.007,1.029
		c-0.004,0.114-0.026,0.852-0.026,0.852c-0.005,0.212-0.005,0.643-0.003,0.856l0.012,0.359c0.003,0.202,0.011,0.372,0.011,0.484
		c-0.001,0.067-0.009,0.15-0.016,0.249c-0.021,0.241-0.041,0.481-0.017,0.65c0.043,0.3,0.268,0.824,0.296,0.884l0.033,0.092
		c0.122,0.33,0.247,0.678,0.515,0.786l0.024,0.011l0.094,0.014c0.113,0,0.204-0.045,0.284-0.087c0.235-0.122,0.658-0.413,0.83-0.646
		c0.15-0.207,0.256-0.568,0.36-0.947c0.048-0.168,0.062-0.31,0.074-0.458c0.008-0.111,0.021-0.294,0.052-0.398
		c0.065-0.022,0.143-0.07,0.189-0.172c0.031-0.064,0.05-0.176-0.036-0.308c-0.04-0.085-0.122-0.24-0.204-0.396
		c-0.101-0.186-0.178-0.336-0.227-0.436c-0.099-0.224-0.27-0.672-0.346-0.882c-0.019-0.048-0.044-0.116-0.068-0.184
		c-0.07-0.182-0.198-0.521-0.211-0.677c-0.014-0.172,0.061-0.573,0.133-0.875c0.048-0.195,0.194-0.618,0.286-0.814
		c0.082-0.169,0.294-0.613,0.421-0.709c0.112-0.084,0.485-0.206,0.682-0.206c0.122,0.009,0.403,0.151,0.544,0.259
		c0.14,0.111,0.374,0.376,0.41,0.487c0.026,0.08-0.006,0.345-0.02,0.487c-0.016,0.131-0.032,0.248-0.032,0.335
		c0,0.151,0.013,0.403,0.022,0.625l0.01,0.288c0.003,0.067,0,0.149,0,0.242c-0.003,0.258-0.005,0.539,0.04,0.725
		c0.044,0.183,0.191,0.464,0.276,0.602c0.13,0.206,0.563,0.679,0.582,0.699l0.751,0.626l0.04,0.007
		c0.354,0.063,0.746,0.129,0.924,0.139c0.104,0.004,0.173,0.008,0.238,0.008c0.157,0,0.262-0.018,0.348-0.064
		c0.076-0.038,0.115-0.101,0.135-0.133c0.021-0.021,0.048-0.051,0.065-0.095c0.085-0.176,0.136-0.464,0.181-0.719
		c0,0,0.083-0.441,0.11-0.582c0.035-0.207,0.065-0.386,0.093-0.502c0.054-0.219,0.163-0.637,0.24-0.821
		c0.074-0.189,0.279-0.572,0.395-0.754c0.113-0.187,0.369-0.537,0.497-0.684c0.132-0.145,0.452-0.427,0.622-0.564l0.093-0.077
		c0.116-0.095,0.419-0.348,0.56-0.405c0.117-0.048,0.422-0.073,0.621-0.088l0.187-0.016c0.096-0.008,0.208-0.019,0.278-0.019
		c0.201,0.008,0.607,0.07,0.794,0.112c0.208,0.04,0.591,0.123,0.724,0.198c0.138,0.077,0.417,0.344,0.523,0.486
		c0.085,0.118,0.253,0.452,0.315,0.643c0.087,0.267,0.152,0.582,0.139,0.69c-0.017,0.138-0.215,0.489-0.29,0.62
		c-0.109,0.192-0.336,0.509-0.472,0.68c-0.14,0.172-0.395,0.459-0.523,0.564c-0.081,0.064-0.243,0.149-0.379,0.227
		c-0.137,0.071-0.247,0.132-0.322,0.183c-0.082,0.058-0.198,0.15-0.316,0.242c-0.123,0.099-0.25,0.203-0.338,0.258
		c-0.122,0.076-0.373,0.189-0.56,0.274l-0.151,0.074c-0.18,0.038-0.225,0.189-0.231,0.254c-0.008,0.054-0.008,0.178,0.109,0.281
		c-0.002,0.073-0.023,0.186-0.032,0.25c-0.026,0.14-0.053,0.288-0.042,0.412c0.021,0.241,0.133,0.661,0.213,0.863
		c0.058,0.141,0.184,0.345,0.293,0.526c0.054,0.085,0.098,0.155,0.125,0.206c0.03,0.051,0.061,0.119,0.097,0.191
		c0.107,0.217,0.216,0.445,0.349,0.576c0.282,0.272,0.954,0.526,1.029,0.553c0.264,0.098,0.787,0.205,1.08,0.236
		c0.105,0.014,0.295,0.025,0.488,0.025c0.167,0,0.301-0.011,0.395-0.029c0.151-0.027,0.342-0.115,0.528-0.2
		c0.12-0.054,0.192-0.09,0.251-0.108c0.065-0.023,0.16-0.048,0.264-0.076c0.203-0.055,0.395-0.104,0.514-0.158
		c0.107-0.049,0.214-0.135,0.319-0.216c0.058-0.044,0.156-0.12,0.224-0.159c0.034,0.014,0.072,0.021,0.118,0.021h0.028l0.054-0.011
		c0.152-0.064,0.224-0.175,0.25-0.327c0.022-0.168-0.019-0.379-0.054-0.586c-0.024-0.1-0.051-0.252-0.048-0.324
		c0.003-0.178,0.076-0.58,0.131-0.8c0.031-0.122,0.101-0.328,0.165-0.508l0.105-0.308c0,0,0.205-0.733,0.242-0.838
		c0.062-0.205,0.196-0.615,0.271-0.819c0.075-0.212,0.223-0.609,0.303-0.796c0.206-0.487,0.309-0.674,0.354-0.748
		c0.058-0.09,0.173-0.216,0.29-0.341c0.105-0.119,0.208-0.232,0.269-0.318c0.065-0.083,0.142-0.216,0.222-0.356
		c0.095-0.16,0.172-0.3,0.238-0.379c0.138-0.167,0.479-0.483,0.646-0.6c0.133-0.092,0.437-0.239,0.62-0.324l0.19-0.092l0.17-0.085
		c0.198-0.103,0.494-0.256,0.648-0.309c0.198-0.066,0.646-0.148,0.879-0.187c0.222-0.031,0.666-0.062,0.906-0.078
		c0.05-0.004,0.098-0.008,0.126-0.008c0.27,0.008,0.637,0.042,0.791,0.086c0.208,0.06,0.569,0.226,0.682,0.323
		c0.106,0.089,0.306,0.394,0.428,0.623c0.114,0.213,0.255,0.554,0.273,0.694c0.008,0.055,0.02,0.24-0.073,0.756
		c-0.033,0.205-0.133,0.607-0.206,0.781c-0.069,0.176-0.259,0.54-0.37,0.703c-0.079,0.117-0.27,0.341-0.526,0.62
		c-0.1,0.105-0.276,0.279-0.424,0.42L47.917,15.6c-0.051,0.049-0.109,0.113-0.177,0.186c-0.135,0.14-0.3,0.321-0.392,0.383
		c-0.083,0.053-0.293,0.121-0.431,0.17c-0.133,0.043-0.255,0.084-0.335,0.122c-0.085,0.036-0.196,0.1-0.319,0.167
		c-0.189,0.106-0.334,0.188-0.429,0.226c-0.165,0.064-0.536,0.155-0.715,0.195c0,0-0.265,0.062-0.381,0.087
		c-0.238,0.045-0.421,0.083-0.537,0.111c-0.114,0.022-0.245,0.046-0.334,0.157c-0.089,0.11-0.08,0.248-0.076,0.317
		c0.016,0.278,0.11,0.792,0.214,1.046c0.092,0.234,0.334,0.586,0.493,0.816l0.119,0.179c0.171,0.25,0.37,0.548,0.558,0.695
		c0.242,0.196,0.76,0.389,0.962,0.446c0.252,0.074,0.744,0.129,1,0.142c0.05,0.003,0.117,0.003,0.194,0.003
		c0.19,0,0.404-0.009,0.528-0.021c0.181-0.021,0.53-0.091,0.714-0.142c0.165-0.049,0.451-0.166,0.643-0.246l0.109-0.048
		c0.056-0.021,0.129-0.056,0.21-0.099c0.146-0.074,0.341-0.176,0.425-0.191c0.043,0.004,0.083,0.012,0.123,0.016
		c0.075,0.008,0.125,0.013,0.164,0.013c0.046,0,0.101-0.01,0.155-0.015c0.063-0.01,0.104-0.018,0.141-0.018
		c0.039,0.01,0.077,0.022,0.108,0.037c-0.053,0.049-0.156,0.132-0.333,0.252c-0.116,0.082-0.311,0.154-0.455,0.205
		c-0.113,0.045-0.224,0.086-0.295,0.122c-0.189,0.088-0.553,0.291-0.735,0.39c-0.057,0.037-0.135,0.082-0.222,0.135
		c-0.177,0.109-0.349,0.216-0.455,0.26c-0.098,0.041-0.264,0.084-0.416,0.121c-0.154,0.037-0.27,0.066-0.351,0.093
		c-0.085,0.027-0.198,0.069-0.317,0.116l-0.075,0.027c-0.172,0.062-0.332,0.124-0.44,0.158c-0.186,0.056-0.613,0.161-0.828,0.197
		c-0.21,0.034-0.626,0.064-0.828,0.064c-0.161,0-0.421-0.03-0.624-0.053l-0.18-0.02c-0.054-0.01-0.13-0.014-0.21-0.018
		c-0.184-0.014-0.452-0.033-0.556-0.07c-0.081-0.033-0.25-0.166-0.365-0.252c-0.104-0.08-0.202-0.151-0.276-0.197
		c-0.076-0.047-0.189-0.1-0.31-0.155c-0.142-0.065-0.327-0.153-0.394-0.21c-0.07-0.062-0.195-0.26-0.276-0.391
		c-0.062-0.098-0.124-0.188-0.173-0.252c-0.05-0.07-0.132-0.17-0.214-0.273c-0.126-0.148-0.233-0.279-0.294-0.365
		c-0.009-0.028-0.051-0.135-0.173-0.19l-0.026-0.01l-0.054-0.015c-0.011,0-0.018,0-0.024,0c-0.115,0-0.174,0.021-0.225,0.04
		c-0.161,0.06-0.376,0.2-0.552,0.31c-0.111,0.073-0.179,0.115-0.232,0.146c-0.185,0.102-0.567,0.303-0.756,0.398
		c-0.191,0.099-0.575,0.289-0.773,0.377c-0.463,0.209-0.676,0.283-0.772,0.312c-0.141,0.042-0.404,0.087-0.614,0.123
		c0,0-0.85,0.162-1.064,0.201c-0.075,0.012-0.174,0.043-0.286,0.081c-0.107,0.036-0.228,0.077-0.321,0.091
		c-0.003-0.002-0.006-0.005-0.008-0.008c-0.085-0.087-0.219-0.135-0.388-0.135c-0.099,0-0.214,0.016-0.324,0.033
		c-0.092,0.015-0.154,0.025-0.206,0.025c-0.11-0.021-0.327-0.133-0.468-0.201l-0.205-0.102c-0.062-0.027-0.14-0.06-0.225-0.095
		c-0.171-0.071-0.429-0.178-0.533-0.253c-0.137-0.101-0.406-0.416-0.537-0.597c-0.121-0.162-0.333-0.53-0.426-0.714
		c-0.095-0.186-0.255-0.583-0.322-0.776c-0.072-0.212-0.207-0.611-0.22-0.788c0-0.063,0.028-0.213,0.049-0.326
		c0.039-0.188,0.084-0.404,0.055-0.577c-0.02-0.092-0.065-0.24-0.179-0.322c-0.088-0.061-0.18-0.069-0.254-0.069l-0.158-0.001
		c-0.137,0-0.314,0.004-0.471,0.011l-0.336,0.014l-0.877,0.025c-0.193-0.066-0.599-0.194-0.725-0.256
		c-0.072-0.083-0.177-0.185-0.332-0.185h-0.037l-0.065,0.012c-0.287,0.158-0.226,0.429-0.201,0.53
		c0.012,0.113,0.021,0.215,0.032,0.33c0.019,0.198,0.043,0.471,0.03,0.604c-0.016,0.209-0.12,0.648-0.197,0.84
		c-0.053,0.141-0.216,0.42-0.436,0.767L27.112,20c-0.096,0.154-0.29,0.471-0.401,0.561c-0.124,0.096-0.504,0.242-0.766,0.309
		c-0.302,0.076-0.997,0.12-1.131,0.127c-0.185,0.01-0.352,0.018-0.505,0.018c-0.117,0-0.21-0.006-0.265-0.015
		c-0.166-0.032-0.529-0.181-0.694-0.274c-0.157-0.09-0.431-0.294-0.548-0.422c-0.069-0.23-0.251-0.252-0.306-0.252
		c-0.107,0.012-0.299,0.063-0.318,0.334c-0.097,0.046-0.302,0.117-0.402,0.152c-0.105,0.039-0.183,0.064-0.237,0.084
		c-0.5,0.209-0.707,0.273-0.786,0.291c-0.201,0.053-0.61,0.116-0.798,0.117c-0.17,0-0.535-0.047-0.705-0.096
		c-0.18-0.055-0.507-0.207-0.612-0.299c-0.07-0.059-0.184-0.24-0.262-0.367c-0.072-0.117-0.118-0.188-0.156-0.237
		c-0.046-0.062-0.112-0.142-0.182-0.226c-0.103-0.115-0.238-0.275-0.286-0.36c-0.098-0.189-0.219-0.672-0.263-0.833
		c-0.054-0.223-0.127-0.664-0.162-0.906L17.3,17.537c-0.04-0.241-0.095-0.564-0.095-0.73c0-0.27,0.045-0.681,0.104-0.831h0.001
		c0.025,0,0.141-0.111,0.119-0.283c-0.033-0.242-0.333-0.465-0.547-0.471l0,0c-0.257,0-0.546,0.189-0.897,0.572
		c-0.113,0.124-0.224,0.328-0.327,0.544c-0.065,0.118-0.1,0.185-0.129,0.232c-0.108,0.177-0.338,0.519-0.455,0.686
		c-0.045,0.066-0.108,0.155-0.179,0.244c-0.148,0.198-0.261,0.348-0.324,0.449c-0.122,0.19-0.337,0.565-0.434,0.764
		c-0.046,0.098-0.099,0.248-0.156,0.396c-0.052,0.148-0.107,0.304-0.151,0.391c-0.05,0.1-0.158,0.258-0.249,0.398l-0.046,0.066
		c-0.058,0.088-0.112,0.17-0.15,0.234c-0.041,0.074-0.102,0.183-0.166,0.298l-0.044,0.087c-0.072,0.135-0.145,0.264-0.194,0.352
		c-0.04,0.067-0.099,0.161-0.162,0.258c-0.125,0.194-0.225,0.355-0.286,0.462c-0.048,0.085-0.101,0.206-0.162,0.337
		c-0.062,0.152-0.152,0.363-0.217,0.447c-0.086,0.112-0.36,0.344-0.551,0.479c-0.062,0.047-0.113,0.071-0.125,0.078
		C11.46,23,11.386,23.016,11.221,23.016z M47.983,12.042c-0.255,0-0.579,0.122-0.59,0.128c-0.18,0.067-0.418,0.224-0.627,0.36
		c-0.124,0.085-0.193,0.13-0.247,0.162c-0.064,0.035-0.147,0.08-0.241,0.128c-0.24,0.126-0.503,0.261-0.652,0.406
		c-0.144,0.135-0.281,0.38-0.402,0.594c-0.057,0.104-0.112,0.2-0.158,0.269c-0.046,0.063-0.11,0.145-0.178,0.229
		c-0.178,0.22-0.34,0.417-0.423,0.582c-0.098,0.192-0.179,0.508-0.255,0.784l-0.047,0.193c-0.03,0.058-0.094,0.211,0,0.361
		c0.106,0.166,0.3,0.166,0.362,0.166c0.327-0.005,0.846-0.158,1.016-0.217c0.238-0.084,0.676-0.296,0.884-0.419
		c0.211-0.13,0.595-0.414,0.774-0.562c0.169-0.14,0.46-0.426,0.675-0.646l0.114-0.112c0.239-0.228,0.446-0.431,0.553-0.599
		c0.299-0.479,0.416-0.832,0.361-1.077c-0.073-0.304-0.496-0.631-0.744-0.705C48.102,12.05,48.045,12.042,47.983,12.042z
		 M34.172,14.905c-0.243,0.21-0.175,0.391-0.114,0.481l0.041,0.06l0.11,0.066l0.097,0.006c0.113,0,0.194-0.039,0.249-0.068
		l0.125-0.046c0.244-0.083,0.618-0.208,0.815-0.312c0.233-0.127,0.635-0.422,0.826-0.606c0.193-0.186,0.516-0.584,0.643-0.821
		c0.224-0.408,0.416-0.801,0.321-1.106c-0.062-0.206-0.262-0.314-0.438-0.411c-0.028-0.016-0.096-0.051-0.133-0.075
		c-0.031-0.092-0.1-0.163-0.187-0.193c-0.061-0.02-0.121-0.032-0.187-0.032c-0.368,0-0.831,0.334-0.975,0.462
		c-0.162,0.142-0.296,0.408-0.416,0.641c-0.061,0.116-0.092,0.184-0.122,0.233c-0.031,0.05-0.074,0.111-0.123,0.177
		c-0.178,0.257-0.339,0.488-0.407,0.666c-0.054,0.148-0.067,0.338-0.082,0.525C34.206,14.668,34.193,14.821,34.172,14.905z"/>
	<path fill="#FFFFFF" d="M95.356,32.911c-0.127,0-0.281-0.009-0.419-0.02l-0.272-0.011c-0.205-0.006-0.819-0.02-0.819-0.02
		c-0.103,0-0.452,0.01-0.545,0.01c-0.108,0-0.184-0.004-0.238-0.014c-0.147-0.028-0.471-0.174-0.645-0.252
		c-0.518-0.236-0.681-0.338-0.739-0.38c-0.168-0.12-0.431-0.362-0.512-0.485c-0.074-0.11-0.197-0.445-0.233-0.635
		c-0.038-0.199-0.058-0.555-0.025-0.68c0.025-0.095,0.174-0.311,0.261-0.438c0.058-0.086,0.095-0.139,0.119-0.183l0.082-0.125
		c0.096-0.161,0.254-0.417,0.348-0.528c0.113-0.141,0.4-0.413,0.556-0.531c0.095-0.072,0.276-0.178,0.438-0.268
		c0.094-0.055,0.185-0.11,0.25-0.147c0.073-0.048,0.171-0.114,0.28-0.187c0.148-0.1,0.304-0.199,0.405-0.263
		c0.416-0.248,0.605-0.339,0.686-0.372c0.079-0.033,0.216-0.062,0.349-0.092c0.19-0.044,0.353-0.082,0.459-0.128
		c0.121-0.05,0.276-0.147,0.429-0.247c0.142-0.084,0.243-0.15,0.311-0.181c0.076-0.034,0.198-0.069,0.319-0.106
		c0.202-0.061,0.377-0.113,0.491-0.168c0.134-0.064,0.326-0.195,0.496-0.314c0.109-0.072,0.184-0.125,0.241-0.16
		c0.079-0.047,0.637-0.364,0.728-0.415c0.12-0.077,0.531-0.323,0.723-0.456l0.078-0.053c0.26-0.166,0.518-0.328,0.64-0.504
		c0.171-0.247,0.267-0.765,0.284-0.963c0.017-0.178-0.018-0.439-0.05-0.668c-0.012-0.115-0.026-0.203-0.026-0.27l-0.013-0.123
		c-0.018-0.258-0.045-0.57-0.043-0.736c0-0.096,0.012-0.24,0.028-0.383c0.019-0.197,0.036-0.385,0.033-0.516
		c0-0.039,0.005-0.096,0.012-0.156c0.037-0.415,0.08-0.922-0.312-1.021l-0.087-0.008c-0.32,0-0.471,0.334-0.602,0.627
		c-0.028,0.068-0.082,0.193-0.112,0.229l-0.085,0.113c-0.122,0.166-0.317,0.426-0.429,0.504c-0.122,0.082-0.505,0.182-0.652,0.221
		l-0.106,0.027c-0.221,0.06-0.607,0.155-0.79,0.167c-0.036,0.003-0.083,0.003-0.136,0.003c-0.18,0-0.434-0.015-0.551-0.053
		c-0.142-0.041-0.455-0.213-0.605-0.325c-0.128-0.098-0.377-0.36-0.512-0.516c-0.02-0.024-0.064-0.11-0.097-0.172
		c-0.133-0.265-0.281-0.55-0.568-0.562h-0.001c-0.309,0-0.486,0.276-0.639,0.522c-0.05,0.074-0.12,0.184-0.149,0.207
		c-0.09,0.076-0.259,0.172-0.405,0.262c-0.135,0.075-0.245,0.137-0.318,0.186c-0.076,0.053-0.169,0.129-0.273,0.215
		c-0.132,0.105-0.306,0.251-0.404,0.297c-0.167,0.079-0.574,0.182-0.765,0.201c-0.069,0.008-0.168,0.014-0.272,0.014
		c-0.223,0-0.36-0.021-0.411-0.041c-0.127-0.046-0.415-0.27-0.538-0.415c-0.104-0.122-0.275-0.509-0.328-0.638
		c-0.043-0.094-0.095-0.247-0.141-0.395c-0.061-0.17-0.092-0.268-0.121-0.336c-0.031-0.077-0.08-0.18-0.134-0.288
		c-0.085-0.169-0.157-0.321-0.18-0.403c-0.017-0.073-0.023-0.222-0.025-0.354c-0.004-0.174-0.01-0.324-0.034-0.433
		c-0.026-0.117-0.086-0.277-0.15-0.431c-0.049-0.117-0.1-0.24-0.117-0.321c-0.031-0.12-0.062-0.385-0.084-0.729
		c-0.007-0.081-0.007-0.196-0.007-0.314c-0.002-0.195-0.004-0.365-0.019-0.479c-0.006-0.041-0.007-0.089-0.012-0.149
		c-0.012-0.291-0.033-0.646-0.271-0.808c-0.071-0.049-0.16-0.071-0.263-0.071c-0.189,0-0.411,0.078-0.528,0.149
		c-0.205,0.135-0.376,0.451-0.501,0.686l-0.065,0.113c-0.057,0.1-0.127,0.257-0.199,0.417c-0.059,0.139-0.122,0.271-0.169,0.358
		c-0.044,0.077-0.12,0.188-0.202,0.3c-0.111,0.149-0.225,0.31-0.284,0.427c-0.102,0.202-0.229,0.583-0.31,0.811
		c-0.053,0.163-0.115,0.374-0.169,0.565c0,0-0.28,0.957-0.333,1.121c-0.019,0.065-0.04,0.147-0.062,0.242
		c-0.05,0.191-0.114,0.434-0.171,0.53c-0.096,0.163-0.357,0.456-0.479,0.515c-0.081,0.041-0.303,0.084-0.52,0.084
		c-0.087,0-0.136-0.005-0.163-0.012c-0.096-0.023-0.349-0.188-0.463-0.301c-0.079-0.079-0.229-0.334-0.291-0.475
		c-0.065-0.16-0.149-0.469-0.146-0.59c0-0.07,0.065-0.256,0.107-0.363c0.051-0.148,0.09-0.264,0.108-0.357
		c0.026-0.146,0.04-0.385,0.047-0.598l0.031-0.459c0.015-0.223,0.03-0.418,0.037-0.539c0.02-0.195,0.058-0.583,0.079-0.775
		c0.033-0.27,0.067-0.598,0.097-0.763c0.017-0.084,0.049-0.212,0.083-0.34c0.04-0.161,0.082-0.327,0.102-0.434
		c0.05-0.327,0.093-0.657,0.067-0.863c-0.059-0.503-0.167-0.763-0.359-0.88c-0.08-0.049-0.177-0.073-0.286-0.073
		c-0.197,0-0.423,0.073-0.589,0.125l-0.125,0.043c-0.235,0.062-0.659,0.272-0.867,0.426c-0.123,0.083-0.253,0.229-0.404,0.397
		c-0.102,0.113-0.175,0.192-0.229,0.242c-0.047,0.041-0.131,0.09-0.221,0.141c-0.214,0.129-0.463,0.275-0.557,0.484
		c-0.084,0.189-0.038,0.426,0.009,0.655c0.016,0.091,0.042,0.213,0.038,0.263c-0.011,0.132-0.107,0.426-0.154,0.584l-0.044,0.143
		c-0.025,0.084-0.065,0.203-0.11,0.325c-0.054,0.162-0.113,0.336-0.142,0.447c-0.024,0.079-0.043,0.196-0.066,0.321
		c-0.021,0.138-0.058,0.345-0.096,0.432c-0.033,0.079-0.154,0.23-0.239,0.339c-0.085,0.107-0.169,0.213-0.215,0.293
		c-0.048,0.078-0.105,0.197-0.166,0.327c-0.078,0.161-0.143,0.304-0.196,0.382c-0.104,0.154-0.355,0.441-0.485,0.543
		c-0.072,0.058-0.243,0.146-0.37,0.207c-0.123,0.061-0.242,0.119-0.321,0.166c-0.078,0.055-0.182,0.135-0.289,0.225
		c-0.119,0.09-0.26,0.203-0.336,0.244c-0.144,0.075-0.504,0.183-0.697,0.218c-0.178,0.036-0.596,0.043-0.731,0.044l-0.187,0.01
		c-0.129,0.004-0.236,0.008-0.338,0.008c-0.18,0-0.258-0.013-0.291-0.023c-0.126-0.027-0.412-0.201-0.551-0.283l-0.21-0.121
		c-0.217-0.129-0.491-0.284-0.604-0.379c-0.146-0.125-0.415-0.424-0.516-0.571c-0.098-0.153-0.257-0.537-0.325-0.698
		c-0.021-0.056-0.037-0.162-0.049-0.232c-0.046-0.301-0.109-0.707-0.462-0.707l-0.038,0.01l-0.101,0.026l-0.072,0.051
		c-0.115,0.142-0.095,0.259-0.082,0.33c-0.013,0.007-0.229,0.177-0.3,0.231c-0.111,0.086-0.213,0.171-0.279,0.244
		c-0.081,0.092-0.192,0.238-0.296,0.377l-0.042,0.062c-0.075,0.101-0.144,0.19-0.201,0.255c-0.063,0.074-0.171,0.182-0.279,0.292
		c-0.148,0.147-0.25,0.247-0.316,0.322c-0.069,0.073-0.166,0.19-0.265,0.306c-0.105,0.128-0.218,0.264-0.294,0.347
		c-0.055,0.054-0.131,0.122-0.213,0.197c-0.185,0.17-0.339,0.312-0.429,0.415c-0.081,0.104-0.183,0.266-0.279,0.424
		c-0.072,0.121-0.145,0.243-0.199,0.314c-0.083,0.105-0.238,0.27-0.375,0.414l-0.195,0.207c-0.147,0.161-0.441,0.484-0.58,0.648
		l-0.107,0.121c-0.201,0.211-0.408,0.43-0.492,0.615c-0.079,0.174-0.11,0.438-0.139,0.671c-0.016,0.121-0.022,0.201-0.035,0.265
		l-0.028,0.159c-0.043,0.22-0.099,0.516-0.148,0.671c-0.045,0.146-0.158,0.397-0.253,0.597c0,0-0.411,0.879-0.458,0.982
		c-0.025,0.06-0.064,0.144-0.102,0.237c-0.094,0.232-0.175,0.43-0.238,0.54c-0.055,0.099-0.162,0.245-0.266,0.383
		c-0.087,0.124-0.173,0.238-0.227,0.325c-0.047,0.078-0.108,0.191-0.171,0.313c-0.069,0.138-0.176,0.34-0.245,0.427
		c-0.104,0.129-0.389,0.354-0.559,0.488l-0.06,0.049c-0.169,0.133-0.516,0.377-0.688,0.49c-0.172,0.113-0.501,0.315-0.663,0.395
		c-0.185,0.093-0.536,0.252-0.704,0.294c-0.153,0.041-0.503,0.087-0.706,0.087c-0.161-0.005-0.434-0.072-0.581-0.107l-0.208-0.049
		l-0.209-0.035c-0.182-0.033-0.436-0.071-0.536-0.119c-0.151-0.068-0.463-0.293-0.566-0.417c-0.073-0.095-0.18-0.364-0.233-0.495
		l-0.075-0.182l-0.08-0.176c-0.074-0.152-0.194-0.402-0.21-0.512c-0.03-0.169,0.005-0.557,0.047-0.711
		c0.03-0.098,0.138-0.284,0.216-0.422c0.065-0.112,0.118-0.199,0.152-0.268c0.027-0.052,0.058-0.127,0.094-0.208
		c0.081-0.192,0.169-0.404,0.232-0.491c0.074-0.104,0.297-0.322,0.542-0.531c0.146-0.129,0.479-0.362,0.644-0.469
		c0.172-0.111,0.51-0.316,0.677-0.391c0.086-0.037,0.225-0.078,0.362-0.118c0.192-0.058,0.33-0.099,0.422-0.134
		c0.164-0.064,0.438-0.196,0.638-0.295l1.037-0.514c0.199-0.1,0.45-0.221,0.586-0.309c0.053-0.036,0.503-0.337,0.688-0.568
		c0.148-0.184,0.357-0.59,0.422-0.818c0.035-0.141,0.035-0.329,0.035-0.509c0.003-0.144,0-0.263,0.018-0.337
		c0.017-0.09,0.071-0.227,0.123-0.362c0.064-0.164,0.119-0.301,0.143-0.399c0.038-0.15,0.077-0.408,0.112-0.623l0.19-1.23
		c0.034-0.202,0.073-0.446,0.091-0.595c0.015-0.142,0.029-0.369,0.042-0.568l0.038-0.468c0.016-0.232,0.033-0.454,0.049-0.586
		c0.016-0.092,0.041-0.225,0.07-0.36c0.038-0.166,0.072-0.336,0.085-0.449c0.014-0.104,0.018-0.262,0.023-0.42
		c0.004-0.148,0.007-0.296,0.021-0.393c0.013-0.097,0.049-0.25,0.083-0.396c0.037-0.149,0.072-0.298,0.088-0.397
		c0.02-0.155,0.044-0.421,0.061-0.636l0.036-0.469c0.021-0.218,0.035-0.406,0.048-0.528c0.006-0.067,0.024-0.158,0.042-0.259
		c0.045-0.251,0.082-0.46,0.088-0.6c0.005-0.13-0.017-0.318-0.04-0.499c-0.016-0.148-0.03-0.276-0.034-0.366
		c0-0.198,0.035-0.604,0.064-0.796c0.015-0.081,0.04-0.186,0.064-0.292c0.059-0.225,0.112-0.418,0.12-0.568
		c0.01-0.128-0.013-0.312-0.035-0.491c-0.018-0.148-0.036-0.28-0.032-0.361c0.006-0.088,0.037-0.23,0.065-0.37
		c0.034-0.178,0.071-0.348,0.075-0.473c0.007-0.15-0.022-0.382-0.047-0.586c-0.016-0.111-0.027-0.214-0.034-0.286
		c-0.015-0.223-0.036-0.622-0.036-0.821c0.002-0.086,0.012-0.207,0.02-0.333l0.01-0.13c0.013-0.145,0.021-0.283,0.021-0.381
		c0.003-0.146-0.003-0.628-0.043-0.885c-0.019-0.123-0.064-0.283-0.117-0.453c-0.04-0.137-0.084-0.282-0.099-0.374
		c-0.005-0.041,0.003-0.151,0.01-0.228c0.024-0.269,0.051-0.565-0.125-0.751c-0.153-0.164-0.41-0.183-0.642-0.183l-0.294,0.004
		L65.2,3.827c-0.09,0-0.201,0.004-0.31,0.009c-0.135,0.009-0.226,0.011-0.305,0.011l-0.09,0c-0.076-0.008-0.196-0.031-0.311-0.055
		c-0.192-0.042-0.372-0.077-0.497-0.081l0,0c-0.196,0-0.454,0.043-0.643,0.075L62.06,3.927c-0.062,0.011-0.143,0.02-0.231,0.028
		c-0.222,0.025-0.442,0.051-0.581,0.084c-0.155,0.04-0.404,0.137-0.602,0.216l-0.17,0.064l-0.164,0.058
		c-0.248,0.076-0.492,0.159-0.643,0.258c-0.176,0.123-0.387,0.385-0.542,0.576l-0.052,0.065c-0.092,0.116-0.365,0.461-0.48,0.666
		c-0.107,0.192-0.283,0.581-0.333,0.807c-0.047,0.231-0.056,0.669-0.021,0.904c0.035,0.206,0.166,0.586,0.281,0.767
		c0.102,0.15,0.358,0.506,0.634,0.568l0.102,0.007c0.169,0,0.355-0.089,0.507-0.163c0.065-0.03,0.109-0.055,0.147-0.065
		c0.056-0.016,0.132-0.044,0.211-0.074c0.163-0.062,0.425-0.159,0.541-0.159c0.198,0.003,0.548,0.109,0.623,0.18
		c0.083,0.073,0.219,0.417,0.259,0.659c0.033,0.168,0.006,0.574-0.046,0.749c-0.062,0.207-0.253,0.555-0.356,0.654
		c-0.094,0.086-0.42,0.207-0.558,0.262l-0.124,0.048c-0.138,0.052-0.554,0.219-0.731,0.242c-0.04,0.004-0.089,0.005-0.145,0.005
		c-0.199,0-0.47-0.027-0.622-0.055c-0.184-0.03-0.571-0.151-0.76-0.225c-0.181-0.073-0.558-0.269-0.733-0.364l-0.124-0.068
		c-0.163-0.083-0.457-0.235-0.568-0.332c-0.059-0.048-0.195-0.192-0.492-0.606c-0.134-0.184-0.354-0.497-0.412-0.648
		c-0.033-0.089-0.054-0.303-0.073-0.446c-0.013-0.134-0.028-0.258-0.044-0.347c-0.021-0.092-0.061-0.223-0.101-0.359
		c-0.049-0.156-0.101-0.322-0.116-0.421c-0.023-0.177-0.022-0.573-0.018-0.786c0.008-0.199,0.048-0.606,0.074-0.796
		c0.033-0.208,0.087-0.606,0.149-0.756c0.03-0.076,0.135-0.221,0.219-0.337c0.105-0.15,0.183-0.255,0.229-0.341
		c0.046-0.093,0.095-0.219,0.145-0.357c0.043-0.12,0.113-0.315,0.166-0.387c0.069-0.092,0.273-0.255,0.409-0.365
		c0.067-0.055,0.131-0.104,0.179-0.143l0.135-0.123c0.149-0.131,0.352-0.312,0.474-0.397c0.147-0.096,0.493-0.281,0.695-0.378
		c0.188-0.091,0.576-0.248,0.771-0.321c0.177-0.068,0.587-0.227,0.776-0.268c0.119-0.022,0.328-0.035,0.513-0.048
		c0.139-0.009,0.249-0.016,0.327-0.023c0.217-0.028,0.645-0.082,0.866-0.124c0.199-0.035,0.735-0.17,0.846-0.199l0.797,0.052
		l0.852,0.064l0.89-0.094c-0.005,0.007,0.589,0.158,0.827,0.177h0.082c0.122,0,0.288-0.015,0.446-0.033
		c0.155-0.015,0.266-0.026,0.346-0.026c0.204,0.003,0.618,0.047,0.832,0.078c0.079,0.009,0.182,0.031,0.294,0.052
		c0.249,0.05,0.439,0.086,0.568,0.099c0.108,0.011,0.279,0.014,0.517,0.014l0.371-0.003c0.077,0,0.186-0.015,0.302-0.029
		c0.108-0.02,0.235-0.038,0.337-0.038c0.062,0,0.083,0.007,0.083,0.007c0.013,0.018,0.093,0.167,0.14,0.356
		c0.02,0.089,0.036,0.347,0.01,0.77c-0.01,0.182-0.075,0.582-0.119,0.792c-0.019,0.081-0.057,0.192-0.095,0.314
		c-0.063,0.192-0.125,0.383-0.148,0.518c-0.018,0.134-0.018,0.336-0.015,0.533c0.001,0.142,0.001,0.259-0.001,0.341
		c-0.014,0.206-0.06,0.613-0.098,0.797c-0.018,0.083-0.052,0.195-0.093,0.316c-0.064,0.199-0.125,0.386-0.143,0.519
		c-0.02,0.123-0.014,0.307-0.012,0.484c0.005,0.163,0.008,0.291,0,0.375c-0.018,0.161-0.09,0.467-0.14,0.669
		c0,0-0.076,0.324-0.112,0.448c-0.046,0.184-0.099,0.377-0.123,0.5c-0.045,0.222-0.112,0.646-0.13,0.869
		c-0.008,0.108-0.004,0.275,0,0.445c0.005,0.168,0.01,0.31,0.003,0.407c-0.008,0.14-0.04,0.379-0.064,0.576l-0.051,0.382
		c-0.022,0.213-0.056,0.492-0.083,0.645c-0.02,0.127-0.059,0.327-0.099,0.506c0,0-0.367,1.776-0.395,1.912
		c-0.036,0.206-0.104,0.613-0.136,0.818l-0.019,0.104c-0.033,0.22-0.083,0.547-0.1,0.727c-0.007,0.094-0.008,0.223-0.012,0.357
		c-0.001,0.161-0.003,0.342-0.018,0.447c-0.02,0.1-0.069,0.252-0.123,0.396c-0.054,0.164-0.096,0.292-0.117,0.383
		c-0.053,0.245-0.112,0.744-0.124,0.844c-0.008,0.074-0.018,0.176-0.021,0.287c-0.015,0.227-0.027,0.409-0.045,0.518
		c-0.017,0.096-0.059,0.242-0.101,0.385c-0.041,0.157-0.083,0.307-0.103,0.406c-0.024,0.131-0.046,0.344-0.065,0.538
		c-0.016,0.118-0.026,0.22-0.036,0.294c-0.012,0.081-0.033,0.207-0.054,0.336c-0.026,0.174-0.058,0.359-0.071,0.477
		c-0.008,0.079-0.018,0.182-0.02,0.299c-0.015,0.211-0.023,0.387-0.048,0.484c-0.041,0.029-0.062,0.121-0.041,0.213l0.018,0.061
		l0.064,0.084c0.106,0.066,0.17,0.084,0.232,0.084c0.285,0,0.447-0.298,0.602-0.584c0.054-0.096,0.081-0.154,0.11-0.188
		c0.133-0.166,0.392-0.501,0.518-0.677c0.052-0.076,0.125-0.182,0.201-0.297c0.116-0.172,0.205-0.306,0.266-0.39
		c0.058-0.065,0.144-0.162,0.234-0.26c0.138-0.149,0.256-0.278,0.33-0.382c0.137-0.195,0.349-0.587,0.438-0.766
		c0.05-0.102,0.116-0.257,0.181-0.408c0.055-0.141,0.113-0.275,0.158-0.364c0.058-0.116,0.161-0.295,0.25-0.459
		c0.068-0.119,0.216-0.377,0.254-0.45c0.123-0.211,0.248-0.431,0.307-0.573c0.049-0.106,0.094-0.257,0.14-0.42
		c0.041-0.146,0.081-0.291,0.12-0.376c0.031-0.071,0.103-0.176,0.172-0.279c0.126-0.184,0.226-0.338,0.271-0.475
		c0.053-0.153,0.069-0.363,0.084-0.573c0.012-0.158,0.021-0.255,0.035-0.324c0.027-0.135,0.101-0.371,0.163-0.56
		c0.028-0.091,0.054-0.178,0.073-0.245c0.02-0.064,0.042-0.149,0.068-0.247c0.054-0.212,0.114-0.435,0.161-0.559
		c0.07-0.173,0.27-0.531,0.386-0.724c0.103-0.182,0.331-0.532,0.453-0.702c0.097-0.138,0.36-0.498,0.501-0.633
		c0.131-0.125,0.461-0.359,0.642-0.452c0.113-0.06,0.329-0.136,0.508-0.196c0.103-0.037,0.191-0.069,0.255-0.093
		c0.063-0.024,0.149-0.062,0.244-0.101c0.154-0.07,0.392-0.177,0.511-0.197c0.063-0.011,0.161-0.014,0.284-0.014
		c0.188,0,0.381,0.01,0.493,0.025c0.186,0.023,0.565,0.11,0.737,0.175c0.171,0.06,0.526,0.23,0.689,0.337
		c0.16,0.102,0.465,0.368,0.599,0.507c0.129,0.135,0.377,0.456,0.473,0.624c0.022,0.041,0.053,0.146,0.08,0.23
		c0.066,0.241,0.139,0.495,0.314,0.632c0.084,0.067,0.183,0.072,0.242,0.074l0.153,0.02c0.169,0.021,0.385,0.051,0.552,0.051
		c0.062,0,0.115-0.004,0.162-0.012c0.28-0.043,0.717-0.278,0.845-0.348c0.198-0.11,0.521-0.363,0.696-0.5
		c0.129-0.098,0.324-0.262,0.49-0.403l0.21-0.179c0.167-0.139,0.51-0.411,0.68-0.546c0.054-0.042,0.121-0.102,0.193-0.166
		c0.118-0.104,0.334-0.3,0.433-0.333c0.087-0.028,0.257-0.048,0.41-0.048c0.171,0,0.258,0.028,0.275,0.036
		c0.042,0.031,0.176,0.229,0.293,0.582c0.036,0.104,0.054,0.344,0.074,0.519l0.021,0.238l0.023,0.149
		c0.029,0.25,0.066,0.507,0.08,0.657l0.017,0.142c0.023,0.212,0.054,0.496,0.054,0.649c0,0.121-0.024,0.319-0.05,0.499
		c0,0-0.033,0.242-0.035,0.304c-0.005,0.049-0.028,0.124-0.051,0.21c-0.085,0.332-0.211,0.819,0.192,0.932l0.087,0.012
		c0.337,0,0.446-0.37,0.531-0.668c0.025-0.084,0.049-0.165,0.069-0.207c0,0,0.312-0.586,0.365-0.689
		c0.032-0.061,0.072-0.145,0.113-0.237c0.079-0.172,0.161-0.352,0.219-0.448c0.047-0.075,0.137-0.186,0.22-0.292
		c0.107-0.139,0.193-0.251,0.242-0.334c0.052-0.083,0.11-0.204,0.167-0.335c0.052-0.118,0.127-0.281,0.174-0.348
		c0.056-0.079,0.223-0.224,0.316-0.305c0.088-0.078,0.17-0.152,0.226-0.21c0.047-0.051,0.111-0.129,0.177-0.211
		c0.09-0.118,0.218-0.29,0.285-0.326c0.098-0.059,0.423-0.141,0.603-0.141c0.165,0.008,0.515,0.126,0.67,0.216
		c0.145,0.077,0.415,0.313,0.505,0.431c0.101,0.139,0.251,0.495,0.291,0.657c0.02,0.089,0.02,0.282,0.02,0.438
		c0,0.146,0,0.266,0.01,0.356c0.007,0.096,0.032,0.235,0.058,0.378c0.028,0.167,0.058,0.328,0.061,0.428
		c0.005,0.118-0.013,0.312-0.026,0.489c-0.013,0.133-0.022,0.236-0.024,0.315c-0.005,0.087-0.01,0.211-0.01,0.339
		c-0.004,0.215-0.006,0.376-0.014,0.482c-0.006,0.089-0.025,0.221-0.043,0.354c-0.033,0.229-0.06,0.41-0.069,0.531
		c-0.008,0.151-0.008,0.406-0.006,0.624v0.281c0,0.069-0.006,0.159-0.008,0.256c-0.012,0.233-0.028,0.497-0.001,0.673
		c0.02,0.176,0.095,0.432,0.163,0.655c0.038,0.12,0.056,0.19,0.073,0.249c0.014,0.055,0.028,0.124,0.043,0.201
		c0.05,0.271,0.105,0.541,0.203,0.713c0.09,0.148,0.398,0.633,0.743,0.698l0.098,0.009c0.312,0,0.705-0.275,0.82-0.369
		c0.155-0.133,0.301-0.389,0.447-0.659l0.076-0.131c0.148-0.255,0.282-0.504,0.286-0.718c0.005-0.178-0.093-0.369-0.187-0.553
		c-0.031-0.062-0.101-0.193-0.111-0.248c-0.026-0.112-0.028-0.349-0.03-0.521c0-0.088-0.001-0.171-0.009-0.233l-0.005-0.234
		c-0.007-0.223-0.017-0.432-0.025-0.56c-0.006-0.076-0.024-0.182-0.042-0.296c-0.029-0.186-0.055-0.366-0.055-0.469
		c0.001-0.173,0.055-0.538,0.097-0.735c0.018-0.086,0.056-0.211,0.093-0.337c0.06-0.19,0.099-0.329,0.12-0.425
		c0.017-0.089,0.03-0.214,0.042-0.349c0.014-0.149,0.032-0.353,0.065-0.434c0.032-0.091,0.159-0.271,0.254-0.399
		c0.086-0.123,0.138-0.194,0.174-0.251c0.033-0.046,0.147-0.251,0.147-0.251c0.087-0.154,0.186-0.33,0.257-0.423
		c0.109-0.142,0.375-0.423,0.515-0.532c0.138-0.107,0.472-0.303,0.64-0.376c0.171-0.071,0.539-0.177,0.71-0.193
		c0.009,0,0.02,0,0.028,0c0.133,0,0.245,0.012,0.353,0.023c0.182,0.022,0.308,0.035,0.396,0.035l0,0c0.106,0,0.222-0.01,0.345-0.022
		c0.163-0.013,0.265-0.022,0.354-0.022c0.036,0,0.069,0.001,0.094,0.004c0.151,0.028,0.503,0.183,0.653,0.25
		c0.105,0.048,0.175,0.099,0.253,0.149c0.206,0.146,0.417,0.292,0.64,0.292c0.301-0.042,0.459-0.252,0.6-0.441
		c0.057-0.077,0.132-0.177,0.165-0.196c0.135-0.089,0.49-0.231,0.649-0.25c0.007,0,0.008,0,0.008,0c0.261,0,0.567,0.055,0.71,0.106
		c0.284,0.092,0.521,0.238,0.56,0.295c0.052,0.075,0.094,0.41,0.077,0.618c-0.009,0.098-0.099,0.326-0.149,0.449
		c-0.045,0.119-0.081,0.21-0.101,0.279c-0.12,0.398-0.193,0.666-0.221,0.818c-0.026,0.139-0.047,0.37-0.069,0.574
		c-0.006,0.104-0.014,0.195-0.024,0.263c-0.02,0.195-0.068,0.58-0.101,0.771c-0.013,0.1-0.044,0.243-0.07,0.386l-0.108,0.546
		c-0.04,0.227-0.09,0.503-0.101,0.667c-0.007,0.126,0.003,0.309,0.014,0.484c0.007,0.134,0.017,0.25,0.014,0.332
		c0,0.14-0.021,0.38-0.04,0.575l-0.035,0.439c-0.02,0.211-0.042,0.439-0.042,0.582c0,0.097,0.015,0.235,0.032,0.377
		c0.014,0.152,0.034,0.308,0.026,0.402c-0.004,0.082-0.042,0.215-0.076,0.342c-0.046,0.17-0.086,0.334-0.095,0.451
		c-0.009,0.154,0.018,0.378,0.038,0.574c0.013,0.125,0.023,0.199,0.029,0.262c0.008,0.192,0.022,0.582,0.024,0.781
		c0,0.037-0.021,0.15-0.03,0.2c-0.056,0.291-0.13,0.679,0.172,0.835c0.051,0.027,0.11,0.039,0.176,0.039
		c0.236,0,0.429-0.191,0.661-0.444l0.09-0.095c0.087-0.084,0.187-0.222,0.286-0.352c0.083-0.115,0.15-0.206,0.2-0.256
		c0.05-0.051,0.14-0.117,0.225-0.183c0.168-0.125,0.303-0.228,0.383-0.313c0.077-0.09,0.172-0.232,0.262-0.378
		c0.082-0.138,0.137-0.224,0.181-0.284c0.04-0.058,0.111-0.135,0.187-0.219c0.129-0.145,0.248-0.278,0.313-0.383
		c0.237-0.369,0.351-0.631,0.358-0.817c0.01-0.191-0.084-0.397-0.176-0.597c-0.045-0.1-0.084-0.182-0.096-0.238
		c-0.025-0.108-0.046-0.295-0.064-0.463c-0.013-0.137-0.025-0.244-0.035-0.321c-0.012-0.069-0.064-0.362-0.064-0.362
		c-0.031-0.161-0.062-0.324-0.078-0.434c-0.023-0.194-0.064-0.589-0.073-0.784c-0.007-0.186,0.005-0.58,0.02-0.784
		c0.013-0.202,0.063-0.594,0.103-0.771c0.037-0.155,0.134-0.449,0.2-0.639l0.041-0.11c0.063-0.192,0.204-0.571,0.272-0.761
		l0.071-0.21c0.062-0.176,0.138-0.413,0.198-0.514c0.037-0.07,0.141-0.183,0.232-0.288c0.117-0.136,0.219-0.25,0.281-0.343
		c0.059-0.095,0.117-0.235,0.18-0.387c0.049-0.119,0.13-0.311,0.184-0.379c0.059-0.073,0.229-0.192,0.355-0.28
		c0.135-0.1,0.237-0.168,0.307-0.231c0.074-0.071,0.169-0.179,0.27-0.294c0.107-0.132,0.23-0.274,0.303-0.328
		c0.15-0.114,0.529-0.292,0.712-0.356c0.177-0.069,0.581-0.164,0.782-0.182c0.041-0.004,0.086-0.004,0.133-0.004
		c0.201,0,0.509,0.024,0.667,0.051c0.315,0.057,0.636,0.149,0.74,0.215c0.14,0.085,0.408,0.422,0.495,0.533
		c0.361,0.444,0.449,0.615,0.471,0.668c0.057,0.142,0.1,0.512,0.123,0.691l0.015,0.137c0.024,0.192,0.069,0.565,0.046,0.716
		c-0.015,0.1-0.117,0.314-0.178,0.456c-0.045,0.097-0.088,0.192-0.111,0.263c-0.028,0.06-0.053,0.144-0.083,0.235l-0.026,0.077
		c-0.054,0.165-0.111,0.344-0.16,0.445c-0.047,0.109-0.161,0.286-0.262,0.442c-0.061,0.09-0.115,0.179-0.153,0.246
		c-0.036,0.06-0.084,0.144-0.136,0.234c-0.108,0.198-0.202,0.373-0.27,0.476c-0.108,0.169-0.34,0.491-0.465,0.636
		c-0.068,0.078-0.184,0.188-0.305,0.294c-0.109,0.103-0.22,0.204-0.291,0.28c-0.061,0.067-0.139,0.169-0.227,0.281
		c-0.102,0.132-0.207,0.273-0.284,0.344c-0.065,0.06-0.18,0.139-0.294,0.215c-0.157,0.104-0.292,0.194-0.381,0.279l-0.07,0.064
		c-0.273,0.254-0.504,0.486-0.506,0.752c-0.001,0.257,0.221,0.49,0.469,0.729c0.152,0.148,0.536,0.479,0.807,0.566
		c0.098,0.033,0.234,0.049,0.416,0.049c0.142,0,0.315-0.01,0.51-0.031c0.215-0.021,0.631-0.105,0.852-0.184
		c0.134-0.045,0.328-0.146,0.505-0.237c0.11-0.06,0.185-0.099,0.245-0.128c0.055-0.024,0.13-0.058,0.213-0.09
		c0.203-0.084,0.426-0.176,0.561-0.275c0.115-0.083,0.232-0.218,0.374-0.389c0.073-0.086,0.142-0.17,0.196-0.221
		c0.148-0.137,0.424-0.392,0.545-0.439c0.135-0.056,0.333-0.114,0.469-0.122c-0.02,0.061-0.055,0.161-0.133,0.332
		c-0.028,0.059-0.053,0.113-0.068,0.156c-0.053,0.137-0.222,0.416-0.304,0.551l-0.122,0.215c-0.091,0.158-0.238,0.412-0.322,0.509
		c-0.074,0.082-0.266,0.22-0.408,0.319c-0.121,0.09-0.183,0.134-0.229,0.172c-0.062,0.05-0.147,0.122-0.236,0.201
		c-0.14,0.121-0.299,0.254-0.4,0.328c-0.173,0.121-0.511,0.336-0.672,0.404c-0.1,0.04-0.323,0.084-0.474,0.111
		c-0.122,0.023-0.24,0.047-0.323,0.068c-0.211,0.057-0.617,0.187-0.809,0.254c-0.08,0.025-0.184,0.069-0.294,0.119
		c-0.169,0.071-0.365,0.154-0.466,0.172c-0.043,0.007-0.105,0.01-0.176,0.01c-0.178,0-0.394-0.02-0.521-0.034
		c-0.23-0.029-0.558-0.095-0.686-0.147c-0.078-0.033-0.224-0.139-0.34-0.221c-0.107-0.08-0.203-0.146-0.273-0.189
		c-0.035-0.019-0.068-0.043-0.108-0.069c-0.225-0.153-0.446-0.306-0.667-0.306c-0.287,0.023-0.531,0.256-0.774,0.512
		c-0.11,0.115-0.192,0.244-0.28,0.379c-0.088,0.139-0.158,0.252-0.214,0.311c-0.058,0.061-0.169,0.143-0.28,0.225
		c-0.136,0.098-0.255,0.188-0.329,0.269c-0.077,0.078-0.161,0.198-0.253,0.327c-0.061,0.086-0.163,0.235-0.222,0.292
		c-0.061,0.056-0.208,0.144-0.323,0.216c-0.126,0.072-0.242,0.148-0.326,0.211l-0.062,0.053c-0.263,0.203-0.488,0.392-0.579,0.589
		c-0.09,0.2-0.086,0.517-0.083,0.769v0.162c0,0.115,0.007,0.289,0.019,0.466c0.005,0.145,0.01,0.27,0.01,0.354
		c0.002,0.498-0.01,0.699-0.021,0.785c-0.013,0.111-0.066,0.297-0.106,0.461c-0.038,0.141-0.062,0.24-0.078,0.314
		c-0.012,0.064-0.023,0.15-0.04,0.246c-0.033,0.233-0.059,0.426-0.093,0.53c-0.038,0.112-0.151,0.32-0.235,0.47
		c-0.046,0.09-0.09,0.17-0.122,0.23l-0.04,0.082c-0.094,0.191-0.243,0.492-0.319,0.655c-0.025,0.057-0.058,0.134-0.091,0.222
		c-0.077,0.191-0.161,0.402-0.219,0.488c-0.07,0.102-0.263,0.297-0.533,0.535c-0.093,0.086-0.263,0.206-0.414,0.318l-0.22,0.163
		l-0.202,0.163c-0.18,0.141-0.334,0.262-0.431,0.336l-0.103,0.074c-0.18,0.135-0.412,0.308-0.534,0.363
		c-0.099,0.045-0.313,0.096-0.486,0.139c-0.12,0.025-0.203,0.051-0.269,0.065l-0.366,0.105c-0.15,0.046-0.304,0.086-0.404,0.114
		c-0.251,0.055-0.604,0.128-0.768,0.14L95.356,32.911z M99.403,25.893c-0.213,0-0.458,0.129-0.634,0.225
		c-0.055,0.025-0.102,0.053-0.142,0.066c-0.118,0.051-0.282,0.145-0.441,0.234c-0.136,0.077-0.226,0.128-0.295,0.162
		c-0.062,0.029-0.159,0.067-0.262,0.109l-0.07,0.029c-0.159,0.064-0.321,0.131-0.424,0.182c-0.12,0.062-0.304,0.172-0.471,0.273
		c-0.104,0.064-0.188,0.111-0.249,0.148c-0.195,0.111-0.534,0.303-0.708,0.391c-0.056,0.027-0.136,0.059-0.221,0.096l-0.08,0.031
		c-0.172,0.073-0.35,0.146-0.463,0.209c-0.105,0.061-0.247,0.164-0.386,0.268c-0.142,0.105-0.225,0.166-0.289,0.205
		c-0.069,0.042-0.167,0.082-0.271,0.125c-0.186,0.086-0.377,0.168-0.501,0.267c-0.164,0.128-0.353,0.39-0.516,0.622l-0.058,0.075
		c-0.025,0.035-0.059,0.077-0.099,0.119c-0.171,0.208-0.357,0.429-0.364,0.663c-0.006,0.313,0.297,0.754,0.508,0.9
		c0.206,0.141,0.558,0.17,0.9,0.184l0.205,0.01c0.243,0,0.587-0.027,0.766-0.057c0.136-0.025,0.339-0.088,0.533-0.146
		c0.13-0.041,0.22-0.069,0.291-0.085c0.056-0.015,0.13-0.028,0.208-0.042c0.268-0.051,0.493-0.09,0.636-0.145
		c0.135-0.055,0.302-0.158,0.469-0.262c0.121-0.078,0.214-0.136,0.286-0.169c0.068-0.038,0.17-0.077,0.276-0.122
		c0.228-0.09,0.418-0.171,0.545-0.256c0.157-0.102,0.361-0.31,0.539-0.486l0.134-0.138l0.136-0.13
		c0.216-0.199,0.417-0.391,0.52-0.551c0.142-0.228,0.262-0.672,0.327-0.91c0.125-0.445,0.187-0.756,0.191-0.94
		c0.006-0.508-0.01-0.924-0.291-1.093C99.57,25.915,99.488,25.893,99.403,25.893z M64.108,25.623c-0.228,0-0.418,0.188-0.606,0.373
		c-0.057,0.055-0.151,0.144-0.185,0.165c-0.165,0.096-0.501,0.271-0.663,0.343c-0.072,0.031-0.178,0.068-0.29,0.108
		c-0.176,0.056-0.362,0.12-0.473,0.181c-0.156,0.084-0.381,0.255-0.555,0.393l-0.193,0.148c-0.219,0.166-0.446,0.34-0.568,0.451
		c-0.105,0.104-0.263,0.285-0.395,0.441l-0.142,0.164c-0.037,0.043-0.085,0.092-0.146,0.146c-0.174,0.182-0.341,0.346-0.422,0.509
		c-0.119,0.242-0.163,0.706-0.167,0.88c-0.004,0.453,0.021,0.793,0.188,0.984c0.149,0.176,0.471,0.287,0.982,0.334
		c0.054,0.006,0.12,0.01,0.198,0.01c0.233,0,0.554-0.029,0.753-0.102c0.22-0.086,0.503-0.338,0.69-0.507l0.056-0.046
		c0.153-0.137,0.48-0.441,0.625-0.633c0.118-0.153,0.263-0.436,0.39-0.688l0.04-0.078c0.06-0.109,0.14-0.286,0.217-0.456
		l0.137-0.292c0.025-0.053,0.152-0.295,0.152-0.295c0.089-0.17,0.186-0.354,0.228-0.479c0.047-0.125,0.087-0.318,0.127-0.512
		c0.028-0.129,0.053-0.236,0.071-0.316c0.012-0.045,0.084-0.17,0.11-0.221c0.156-0.297,0.376-0.701,0.064-0.933
		C64.272,25.648,64.194,25.623,64.108,25.623z M98.077,12.78c-0.259,0-0.583,0.083-0.735,0.13c-0.23,0.079-0.635,0.299-0.812,0.466
		c-0.15,0.144-0.306,0.433-0.421,0.641L96.062,14.1c-0.13,0.232-0.3,0.555-0.362,0.751c-0.064,0.202-0.109,0.58-0.132,0.783
		c-0.02,0.168-0.033,0.395-0.048,0.586l-0.015,0.23l-0.013,0.144c-0.031,0.304-0.05,0.516-0.04,0.669
		c0.012,0.162,0.075,0.403,0.13,0.611l0.047,0.19c0.014,0.046,0.022,0.115,0.033,0.191c0.037,0.241,0.075,0.516,0.208,0.686
		c0.22,0.277,0.832,0.449,0.84,0.453c0.147,0.041,0.401,0.07,0.619,0.07c0.076,0,0.144-0.004,0.197-0.012
		c0.237-0.033,0.66-0.182,0.858-0.327c0.177-0.126,0.371-0.405,0.515-0.607l0.048-0.069c0.187-0.266,0.375-0.537,0.451-0.742
		c0.052-0.154,0.069-0.376,0.088-0.588c0.013-0.159,0.02-0.24,0.029-0.3c0.013-0.068,0.038-0.16,0.061-0.255
		c0.064-0.258,0.116-0.462,0.124-0.601c0.015-0.172-0.011-0.427-0.033-0.65c-0.012-0.095-0.02-0.177-0.024-0.24
		c-0.002-0.054-0.002-0.119-0.002-0.187c0.001-0.264,0.001-0.514-0.057-0.686c-0.09-0.268-0.404-0.663-0.509-0.778
		c-0.327-0.368-0.561-0.557-0.759-0.615C98.25,12.789,98.17,12.78,98.077,12.78z M75.825,12.865c-0.324,0-0.692,0.369-0.836,0.527
		c-0.137,0.16-0.236,0.43-0.316,0.667c-0.026,0.082-0.05,0.143-0.07,0.186c-0.05,0.129-0.125,0.338-0.192,0.522l-0.093,0.249
		c-0.018,0.056-0.05,0.126-0.084,0.204c-0.095,0.22-0.197,0.457-0.227,0.631c-0.045,0.255-0.022,0.727,0.009,0.952
		c0.035,0.244,0.142,0.697,0.255,0.918c0.118,0.235,0.421,0.583,0.584,0.743c0.345,0.332,0.611,0.521,0.808,0.574
		c0.072,0.021,0.148,0.028,0.239,0.028c0.233,0,0.533-0.057,0.737-0.105c0.161-0.037,0.663-0.181,0.909-0.354
		c0.229-0.154,0.561-0.544,0.682-0.761c0.094-0.164,0.158-0.42,0.217-0.643c0.032-0.124,0.052-0.201,0.072-0.261
		c0.018-0.044,0.072-0.134,0.115-0.209c0.167-0.288,0.375-0.645,0.135-0.907c-0.072-0.078-0.174-0.122-0.291-0.122
		c-0.149,0-0.301,0.072-0.447,0.14c-0.054,0.024-0.149,0.068-0.177,0.074h-0.091c-0.185,0-0.387-0.024-0.463-0.049
		c-0.18-0.055-0.542-0.243-0.663-0.361c-0.128-0.125-0.338-0.493-0.396-0.662c-0.043-0.142-0.054-0.485-0.059-0.669l-0.008-0.157
		c-0.001-0.043,0.02-0.167,0.032-0.231c0.05-0.296,0.119-0.703-0.177-0.872C75.966,12.884,75.896,12.865,75.825,12.865z
		 M108.975,11.113c-0.283,0-0.66,0.146-0.843,0.244c-0.16,0.084-0.38,0.286-0.671,0.61c-0.114,0.129-0.438,0.515-0.557,0.764
		c-0.094,0.187-0.164,0.505-0.219,0.762l-0.031,0.135c-0.045,0.199-0.141,0.64-0.164,0.881c-0.015,0.136-0.015,0.348-0.015,0.555
		c0,0.124,0,0.239-0.005,0.321c-0.004,0.06-0.012,0.138-0.021,0.224c-0.034,0.301-0.06,0.521-0.039,0.681l0.005,0.083
		c0.036,0.411,0.092,0.785,0.378,0.905c0.06,0.02,0.112,0.033,0.168,0.033c0.25,0,0.491-0.189,0.758-0.415l0.075-0.062
		c0.145-0.119,0.334-0.352,0.475-0.522l0.137-0.169l0.139-0.155c0.168-0.188,0.35-0.399,0.445-0.536
		c0.096-0.143,0.234-0.4,0.432-0.809c0.094-0.195,0.268-0.601,0.351-0.813l0.048-0.114c0.121-0.298,0.239-0.578,0.257-0.786
		c0.021-0.247-0.05-0.747-0.168-0.994c-0.065-0.139-0.384-0.686-0.741-0.797C109.107,11.12,109.043,11.113,108.975,11.113z"/>
</g>
</svg>
